<svg id="Grupo_1101660" data-name="Grupo 1101660" xmlns="http://www.w3.org/2000/svg" xmlns:xlink="http://www.w3.org/1999/xlink" width="87.32" height="117" viewBox="0 0 87.32 117">
  <defs>
    <clipPath id="clip-path">
      <rect id="Rectángulo_401697" data-name="Rectángulo 401697" width="87.32" height="117" fill="none"/>
    </clipPath>
  </defs>
  <g id="Grupo_1101659" data-name="Grupo 1101659" clip-path="url(#clip-path)">
    <path id="Trazado_893012" data-name="Trazado 893012" d="M113.111,446.051l-.516,6.129a4.569,4.569,0,0,1-4.495,3.739l-5.872.555H58.757a4.569,4.569,0,0,1-4.495-3.739L52.32,442.249c1.072,2.45,4.727,2.447,7.5,2.447l49.488-.645a4.257,4.257,0,0,1,3.807,2" transform="translate(-40.364 -341.188)" fill="#f5f8f9"/>
    <path id="Trazado_893013" data-name="Trazado 893013" d="M93.836,140.018c-2.573,2.248-5.194,31.931-8.164,47.973l-2.516,14.066c-1.072,2.447-1.8,5.015-4.566,5.015H27.74a6.857,6.857,0,0,1-6.28-4.106l-2.68-14.472a452.492,452.492,0,0,1-6.46-50.856c9.491-7.716,28-6.994,40.2-.248.37.206.745.4,1.12.6a40.334,40.334,0,0,0,19.434,4.754c7.082,0,13.68-.452,20.743-2.71l.021-.011" transform="translate(-9.505 -101.904)" fill="#b5dbfd"/>
    <path id="Trazado_893014" data-name="Trazado 893014" d="M284.221,442.27l-1.94,10.482a4.569,4.569,0,0,1-4.495,3.739h-7.063V446.372l1.047-.019,6.416-.738c2.768,0,3.194-1.1,6.035-3.345" transform="translate(-208.859 -341.204)" fill="#e8edf2"/>
    <path id="Trazado_893015" data-name="Trazado 893015" d="M217.189,132.724l-.021.011a44.588,44.588,0,0,1-41.03.069c-.375-.192-.75-.391-1.12-.6q-1.385-.764-2.808-1.426c11.78-10.349,35.395-12.026,44.979,1.942" transform="translate(-132.857 -94.61)" fill="#8dcafc"/>
    <path id="Trazado_893016" data-name="Trazado 893016" d="M89.7,10.833c0,11.323-.324,22.454.42,33.067C77.2,35.516,59.053,34.906,45.139,41.958A44.575,44.575,0,0,0,8.6,41.519Q7.5,25.782,7.5,9.984A2.481,2.481,0,0,1,9.984,7.5H83.943l3.27.849A2.483,2.483,0,0,1,89.7,10.833" transform="translate(-5.786 -5.786)" fill="#f5f8f9"/>
    <path id="Trazado_893017" data-name="Trazado 893017" d="M292.879,166.79a452.128,452.128,0,0,1-6.289,48.475l-2.681,14.476a6.855,6.855,0,0,1-6.277,4.1H270.32a6.855,6.855,0,0,0,6.277-4.1l2.681-14.476a451.847,451.847,0,0,0,6.044-45.381,9.086,9.086,0,0,1,7.536-3.083l.021-.011" transform="translate(-208.548 -128.676)" fill="#8dcafc"/>
    <path id="Trazado_893018" data-name="Trazado 893018" d="M343.527,152.173l-.021.011a44.259,44.259,0,0,1-7.536,3.083q.13-1.546.245-3.094c.08-1.06.155-2.283.229-3.636,3.617-1.12,6.841-1.477,7.084,3.636" transform="translate(-259.196 -114.059)" fill="#64b9fc"/>
    <path id="Trazado_893019" data-name="Trazado 893019" d="M346.4,9.984q0,16.984-1.275,33.916a40,40,0,0,0-7.084-3.636c.446-8.313.747-21.581.91-32.765h4.966A2.483,2.483,0,0,1,346.4,9.984" transform="translate(-260.793 -5.786)" fill="#e8edf2"/>
    <path id="Trazado_893020" data-name="Trazado 893020" d="M147.691,371.749a5.942,5.942,0,1,1-5.942,5.942,5.942,5.942,0,0,1,5.942-5.942" transform="translate(-109.357 -286.798)" fill="#8dcafc"/>
    <path id="Trazado_893021" data-name="Trazado 893021" d="M243.633,296.244a4.456,4.456,0,1,1-4.456,4.456,4.456,4.456,0,0,1,4.456-4.456" transform="translate(-184.521 -228.548)" fill="#8dcafc"/>
    <path id="Trazado_893022" data-name="Trazado 893022" d="M154.063,249.865a3.428,3.428,0,1,1-3.428,3.428,3.428,3.428,0,0,1,3.428-3.428" transform="translate(-116.213 -192.767)" fill="#8dcafc"/>
    <path id="Trazado_893023" data-name="Trazado 893023" d="M84.811,188.87a3.428,3.428,0,1,1-3.428,3.428,3.428,3.428,0,0,1,3.428-3.428" transform="translate(-62.786 -145.71)" fill="#8dcafc"/>
    <path id="Trazado_893024" data-name="Trazado 893024" d="M85.469,15.342a1.712,1.712,0,0,0,1.751-1.676c.067-3.069.1-6.254.1-9.468a4.2,4.2,0,0,0-4.2-4.2H4.2A4.2,4.2,0,0,0,0,4.2C0,14.71.372,25.36,1.106,35.852,1.611,43.1,2.3,50.432,3.156,57.642a1.714,1.714,0,0,0,3.4-.4c-.8-6.749-1.454-13.6-1.946-20.4A43.131,43.131,0,0,1,41.328,39.1c.37.205.752.409,1.166.621a46.474,46.474,0,0,0,21.232,5.157,46.506,46.506,0,0,0,18.659-3.928,452.042,452.042,0,0,1-6.028,45.332L73.719,100.53a5.136,5.136,0,0,1-4.634,2.923H32.392a1.714,1.714,0,1,0,0,3.428H69.085a8.561,8.561,0,0,0,3.606-.8l-.954,5.151a2.856,2.856,0,0,1-2.81,2.336H18.393a2.856,2.856,0,0,1-2.81-2.337l-.954-5.15a8.555,8.555,0,0,0,3.606.8h6.158a1.714,1.714,0,0,0,0-3.428H18.236a5.138,5.138,0,0,1-4.635-2.926l-2.64-14.25C9.669,79.3,8.53,72.211,7.576,65.206a1.714,1.714,0,0,0-3.4.463c.962,7.058,2.109,14.2,3.411,21.232l4.623,24.957A6.284,6.284,0,0,0,18.393,117H68.927a6.283,6.283,0,0,0,6.18-5.14L79.728,86.9a455.535,455.535,0,0,0,7.253-65.208,1.714,1.714,0,1,0-3.425-.132q-.263,6.828-.74,13.668a46.126,46.126,0,0,0-19.124-5.613,1.714,1.714,0,0,0-.247,3.419,42.783,42.783,0,0,1,17.21,4.924,43.069,43.069,0,0,1-16.928,3.488,43.038,43.038,0,0,1-19.664-4.777c-.281-.144-.541-.282-.795-.42a43.063,43.063,0,0,1,12.471-3.118A1.714,1.714,0,1,0,55.4,29.72a46.06,46.06,0,0,0-16.07,4.566A46.237,46.237,0,0,0,4.371,33.26c-.623-9.65-.943-19.414-.943-29.062a.767.767,0,0,1,.77-.77H83.123a.771.771,0,0,1,.77.77c0,3.189-.034,6.35-.1,9.393a1.714,1.714,0,0,0,1.676,1.751"/>
    <path id="Trazado_893025" data-name="Trazado 893025" d="M141.9,379.56a7.656,7.656,0,1,0-7.656-7.656,7.664,7.664,0,0,0,7.656,7.656m0-11.883a4.228,4.228,0,1,1-4.228,4.228,4.233,4.233,0,0,1,4.228-4.228" transform="translate(-103.571 -281.012)"/>
    <path id="Trazado_893026" data-name="Trazado 893026" d="M244.017,294.914a6.17,6.17,0,1,0-6.17,6.17,6.177,6.177,0,0,0,6.17-6.17m-8.912,0a2.742,2.742,0,1,1,2.742,2.742,2.745,2.745,0,0,1-2.742-2.742" transform="translate(-178.735 -222.761)"/>
    <path id="Trazado_893027" data-name="Trazado 893027" d="M148.277,252.648a5.142,5.142,0,1,0-5.142-5.142,5.147,5.147,0,0,0,5.142,5.142m0-6.855a1.714,1.714,0,1,1-1.714,1.714,1.716,1.716,0,0,1,1.714-1.714" transform="translate(-110.426 -186.981)"/>
    <path id="Trazado_893028" data-name="Trazado 893028" d="M79.025,191.653a5.142,5.142,0,1,0-5.142-5.142,5.147,5.147,0,0,0,5.142,5.142m0-6.855a1.714,1.714,0,1,1-1.714,1.714,1.716,1.716,0,0,1,1.714-1.714" transform="translate(-57 -139.924)"/>
  </g>
</svg>
