<svg xmlns="http://www.w3.org/2000/svg" width="146" height="140.139" viewBox="0 0 146 140.139">
  <g id="Grupo_1101682" data-name="Grupo 1101682" transform="translate(-1230.051 -829.861)">
    <path id="Rectángulo_401603" data-name="Rectángulo 401603" d="M40.5,0H146a0,0,0,0,1,0,0V81a0,0,0,0,1,0,0H40.5A40.5,40.5,0,0,1,0,40.5v0A40.5,40.5,0,0,1,40.5,0Z" transform="translate(1230.051 889)" fill="#bbcbc5"/>
    <g id="bife" transform="translate(1272.551 829.861)">
      <path id="Trazado_893124" data-name="Trazado 893124" d="M62.905,60.139H43.5V7.468a6.468,6.468,0,0,1,12.937,0v46.2a6.475,6.475,0,0,0,6.468,6.468Z" transform="translate(32.228 0.848)" fill="#d8e0eb"/>
      <path id="Trazado_893125" data-name="Trazado 893125" d="M63.437,10.7V48.582a6.468,6.468,0,0,1-12.937,0V8.848L52.348,7l3.7,3.7L59.74,7Z" transform="translate(38.164 5.937)" fill="#e6ecf4"/>
      <path id="Trazado_893126" data-name="Trazado 893126" d="M19.418,1h61.93A6.475,6.475,0,0,0,74.88,7.468V115.582H6.5V7.487A6.464,6.464,0,0,1,12.95,1ZM67.487,46.278V40.568a8.033,8.033,0,0,0-.2-1.774,25.994,25.994,0,0,0-8.132-13.731,30.9,30.9,0,0,0-20.81-7.411A25.946,25.946,0,0,0,22.024,22.6a22.306,22.306,0,0,0-3.77,3.567A18.508,18.508,0,0,0,13.874,38v5.618a19.106,19.106,0,0,0,4.953,12.124,19.456,19.456,0,0,0,6.006,4.269,23.9,23.9,0,0,0,24.506-3.382,7.234,7.234,0,0,1,2.975-1.552c.166-.037.351-.074.536-.111a11.276,11.276,0,0,1,3.437-.018,10.412,10.412,0,0,0,7.928-2.033c.24-.185.462-.388.758-.647a8.593,8.593,0,0,0,2.513-5.988Z" transform="translate(0.848 0.848)" fill="#e6ecf4"/>
      <path id="Trazado_893127" data-name="Trazado 893127" d="M48.3,29.825a2.481,2.481,0,0,1,.074.647,2.694,2.694,0,0,1-.813,1.959,3.21,3.21,0,0,1-.277.24,4.241,4.241,0,0,1-2.643.869,4.977,4.977,0,0,1-.739-.055,16.434,16.434,0,0,0-2.513-.185,18.964,18.964,0,0,0-2.883.24c-.277.055-.591.111-.906.166a13.843,13.843,0,0,0-5.544,2.809,17.529,17.529,0,0,1-4.731,2.754C25.716,35.407,24.108,31.562,22.5,27.7c1.885-4.86,3.752-9.739,5.655-14.6A24.03,24.03,0,0,1,41.85,18.94,20.465,20.465,0,0,1,48.3,29.825Z" transform="translate(14.418 11.11)" fill="#f3445a"/>
      <path id="Trazado_893128" data-name="Trazado 893128" d="M15.443,33.08a19.461,19.461,0,0,0,6.025,4.288,23.794,23.794,0,0,0,24.487-3.4A7.466,7.466,0,0,1,48.912,32.4c.185-.037.37-.074.554-.092a11.158,11.158,0,0,1,3.419-.037,10.369,10.369,0,0,0,7.947-2.051,7.09,7.09,0,0,0,.739-.647A8.348,8.348,0,0,0,64.1,23.581v5.6a8.593,8.593,0,0,1-2.513,5.988c-.3.259-.517.462-.758.647A10.412,10.412,0,0,1,52.9,37.848a11.276,11.276,0,0,0-3.437.018c-.185.037-.37.074-.536.111a7.234,7.234,0,0,0-2.975,1.552,23.9,23.9,0,0,1-24.506,3.382,19.456,19.456,0,0,1-6.006-4.269A19.106,19.106,0,0,1,10.49,26.519V21.16a17.619,17.619,0,0,0,4.953,11.92Z" transform="translate(4.232 17.946)" fill="#f3445a"/>
      <path id="Trazado_893129" data-name="Trazado 893129" d="M29.853,21c1.608,3.863,3.216,7.707,4.824,11.569a18.6,18.6,0,0,1-6.93,1.368A16.462,16.462,0,0,1,20.927,32.5a14.216,14.216,0,0,1-4.288-3.068,12.191,12.191,0,0,1-2.809-4.639C19.171,23.532,24.512,22.257,29.853,21Z" transform="translate(7.065 17.81)" fill="#e2394d"/>
      <path id="Trazado_893130" data-name="Trazado 893130" d="M10.49,30.367a18.508,18.508,0,0,1,4.38-11.828,22.306,22.306,0,0,1,3.77-3.567A25.946,25.946,0,0,1,34.959,10.02a30.9,30.9,0,0,1,20.81,7.411A25.994,25.994,0,0,1,63.9,31.162a8.033,8.033,0,0,1,.2,1.774v.111a8.347,8.347,0,0,1-2.532,5.988,7.091,7.091,0,0,1-.74.647,10.369,10.369,0,0,1-7.947,2.051,11.158,11.158,0,0,0-3.419.037c-.185.018-.37.055-.554.092a7.466,7.466,0,0,0-2.957,1.571,23.794,23.794,0,0,1-24.487,3.4,19.461,19.461,0,0,1-6.025-4.288,17.619,17.619,0,0,1-4.953-11.92Zm8.668-8.3a13.036,13.036,0,0,0-3.1,8.316,11.621,11.621,0,0,0,.61,3.733,12.191,12.191,0,0,0,2.809,4.639,14.216,14.216,0,0,0,4.288,3.068,16.462,16.462,0,0,0,6.819,1.442,18.6,18.6,0,0,0,6.93-1.368,17.53,17.53,0,0,0,4.731-2.754,13.843,13.843,0,0,1,5.544-2.809c.314-.055.628-.111.906-.166a18.964,18.964,0,0,1,2.883-.24,16.433,16.433,0,0,1,2.513.185,4.978,4.978,0,0,0,.739.055,4.241,4.241,0,0,0,2.643-.869,3.209,3.209,0,0,0,.277-.24,2.694,2.694,0,0,0,.813-1.959,2.481,2.481,0,0,0-.074-.647,20.465,20.465,0,0,0-6.45-10.885,24.03,24.03,0,0,0-13.694-5.84,24.158,24.158,0,0,0-2.865-.166h-.628s-.628-.018-.887-.018a20.21,20.21,0,0,0-11.976,3.826,16.329,16.329,0,0,0-2.828,2.7Z" transform="translate(4.232 8.48)" fill="#ff5666"/>
      <path id="Trazado_893131" data-name="Trazado 893131" d="M32.924,13.019a24.157,24.157,0,0,1,2.865.166c-1.9,4.86-3.77,9.739-5.655,14.6-5.341,1.257-10.682,2.532-16.023,3.789a11.621,11.621,0,0,1-.61-3.733,13.036,13.036,0,0,1,3.1-8.316,16.329,16.329,0,0,1,2.828-2.7A20.21,20.21,0,0,1,31.408,13c.259,0,.887.018.887.018Z" transform="translate(6.785 11.025)" fill="#ff7885"/>
      <path id="Trazado_893132" data-name="Trazado 893132" d="M75.731,118.278H7.352A1.847,1.847,0,0,1,5.5,116.43l0-108.1A8.329,8.329,0,0,1,13.806,0H82.2a8.18,8.18,0,0,1,5.882,2.456,8.161,8.161,0,0,1,2.435,5.86v2.772a1.842,1.842,0,0,1,1.307.541l2.39,2.39,2.39-2.39a1.847,1.847,0,0,1,2.613,0l3.7,3.7a1.847,1.847,0,0,1,.541,1.307V54.519a8.316,8.316,0,0,1-16.633,0V8.317a4.62,4.62,0,1,0-9.24,0l0,108.114a1.849,1.849,0,0,1-1.848,1.848ZM9.2,114.582H73.883l0-106.266a8.277,8.277,0,0,1,1.4-4.62H13.806A4.63,4.63,0,0,0,9.2,8.335ZM90.513,15.55V54.519a4.62,4.62,0,0,0,9.24,0V17.4L97.9,15.55l-2.39,2.389a1.847,1.847,0,0,1-2.613,0Z" transform="translate(0 0)"/>
      <path id="Trazado_893133" data-name="Trazado 893133" d="M63.752,35.7h-19.4a1.848,1.848,0,0,1,0-3.7h19.4a1.848,1.848,0,0,1,0,3.7Z" transform="translate(31.38 27.139)"/>
      <path id="Trazado_893134" data-name="Trazado 893134" d="M62.247,41.7h-49.9a1.848,1.848,0,1,1,0-3.7h49.9a1.848,1.848,0,1,1,0,3.7Z" transform="translate(4.24 32.228)"/>
      <path id="Trazado_893135" data-name="Trazado 893135" d="M41.892,44.7H36.348a1.848,1.848,0,0,1,0-3.7h5.544a1.848,1.848,0,1,1,0,3.7Z" transform="translate(24.595 34.772)"/>
      <path id="Trazado_893136" data-name="Trazado 893136" d="M62.245,47.7h-49.9a1.848,1.848,0,1,1,0-3.7h49.9a1.848,1.848,0,0,1,0,3.7Z" transform="translate(4.239 37.316)"/>
      <path id="Trazado_893137" data-name="Trazado 893137" d="M41.89,50.7H36.346a1.848,1.848,0,1,1,0-3.7H41.89a1.848,1.848,0,1,1,0,3.7Z" transform="translate(24.593 39.861)"/>
      <path id="Trazado_893138" data-name="Trazado 893138" d="M36.374,51.7H12.347a1.848,1.848,0,0,1,0-3.7H36.374a1.848,1.848,0,0,1,0,3.7Z" transform="translate(4.24 40.709)"/>
      <path id="Trazado_893139" data-name="Trazado 893139" d="M25.285,59.7H12.348a1.848,1.848,0,0,1,0-3.7H25.285a1.848,1.848,0,1,1,0,3.7Z" transform="translate(4.24 47.493)"/>
      <path id="Trazado_893140" data-name="Trazado 893140" d="M41.894,59.7H36.35a1.848,1.848,0,1,1,0-3.7h5.544a1.848,1.848,0,0,1,0,3.7Z" transform="translate(24.597 47.493)"/>
      <path id="Trazado_893141" data-name="Trazado 893141" d="M50.142,55.7H12.348a1.848,1.848,0,0,1,0-3.7H50.142a1.848,1.848,0,0,1,0,3.7Z" transform="translate(4.24 44.101)"/>
      <path id="Trazado_893142" data-name="Trazado 893142" d="M31.539,51.5a23.856,23.856,0,0,1-10.011-2.144,21.57,21.57,0,0,1-6.578-4.689A19.425,19.425,0,0,1,9.492,31.206a20.4,20.4,0,0,1,4.8-12.994,24.4,24.4,0,0,1,4.077-3.869,27.958,27.958,0,0,1,17.5-5.322,32.676,32.676,0,0,1,21.979,7.885,27.7,27.7,0,0,1,8.694,14.7,10.355,10.355,0,0,1,.254,2.283,10.2,10.2,0,0,1-3.083,7.322c-.334.321-.6.558-.875.776a12.227,12.227,0,0,1-9.365,2.424,9.439,9.439,0,0,0-2.861.029c-.157.027-.312.058-.46.088a5.47,5.47,0,0,0-2.178,1.182,26.23,26.23,0,0,1-16.434,5.8Zm3.407-38.8A24.108,24.108,0,0,0,20.59,17.3a20.759,20.759,0,0,0-3.462,3.283,16.7,16.7,0,0,0-3.94,10.628,15.747,15.747,0,0,0,4.434,10.908A17.892,17.892,0,0,0,23.08,46,21.961,21.961,0,0,0,45.64,42.84a9.058,9.058,0,0,1,3.73-1.929c.211-.045.424-.087.639-.121a13.109,13.109,0,0,1,3.985-.043A8.478,8.478,0,0,0,60.53,39.1a7.766,7.766,0,0,0,.6-.536A6.515,6.515,0,0,0,63.1,33.885a6.759,6.759,0,0,0-.164-1.473A24.034,24.034,0,0,0,55.39,19.663a28.936,28.936,0,0,0-19.557-6.948c-.26-.011-.558-.016-.886-.016Z" transform="translate(3.386 7.633)"/>
      <path id="Trazado_893143" data-name="Trazado 893143" d="M28.882,43.418a18.262,18.262,0,0,1-7.6-1.615,15.965,15.965,0,0,1-4.855-3.458A13.95,13.95,0,0,1,12.5,28.68a14.908,14.908,0,0,1,3.523-9.495,18.961,18.961,0,0,1,3.146-2.98A22.028,22.028,0,0,1,32.257,12c.278,0,.949.022.949.022l.545-.011a26.867,26.867,0,0,1,17.815,6.481,22.383,22.383,0,0,1,7.021,11.857,5.091,5.091,0,0,1,.117,1.059,4.538,4.538,0,0,1-1.372,3.267,4.744,4.744,0,0,1-.417.377,6.3,6.3,0,0,1-4.792,1.193,15.971,15.971,0,0,0-4.835.052c-.26.043-.531.092-.794.152a11.526,11.526,0,0,0-4.788,2.44,20.655,20.655,0,0,1-12.825,4.528ZM32.257,15.7a18.294,18.294,0,0,0-10.863,3.461,15.132,15.132,0,0,0-2.53,2.4A11.2,11.2,0,0,0,16.2,28.68a10.263,10.263,0,0,0,2.9,7.109,12.265,12.265,0,0,0,3.736,2.658,14.513,14.513,0,0,0,6.05,1.274,16.9,16.9,0,0,0,10.493-3.7,15.141,15.141,0,0,1,6.319-3.18c.321-.072.671-.139,1-.191a19.688,19.688,0,0,1,5.949-.065,2.69,2.69,0,0,0,1.971-.426.968.968,0,0,0,.4-.751,1.285,1.285,0,0,0-.031-.263,18.694,18.694,0,0,0-5.869-9.892,23.147,23.147,0,0,0-15.33-5.546l-.6.009c-.089,0-.675-.02-.919-.02Z" transform="translate(5.938 10.177)"/>
      <path id="Trazado_893144" data-name="Trazado 893144" d="M14.678,34.184a1.848,1.848,0,0,1-.421-3.647l15.074-3.563L31.02,22.6q1.8-4.667,3.619-9.331a1.847,1.847,0,0,1,3.44,1.346q-1.819,4.654-3.611,9.316l-2.039,5.279a1.848,1.848,0,0,1-1.3,1.132L15.1,34.136a1.888,1.888,0,0,1-.424.049Z" transform="translate(6.217 10.262)"/>
      <path id="Trazado_893145" data-name="Trazado 893145" d="M28.172,35.265a1.846,1.846,0,0,1-1.706-1.137l-4.822-11.57a1.847,1.847,0,1,1,3.411-1.419l4.822,11.567a1.848,1.848,0,0,1-1.706,2.559Z" transform="translate(13.571 16.962)"/>
      <path id="Trazado_893146" data-name="Trazado 893146" d="M31.541,46.732a23.911,23.911,0,0,1-10.015-2.139,21.329,21.329,0,0,1-6.571-4.669A20.978,20.978,0,0,1,9.494,26.509c0-.218,0-5.034,0-5.335l3.7-.016c0,5.409,0,5.409-.005,5.5a17.285,17.285,0,0,0,4.449,10.719,17.639,17.639,0,0,0,5.44,3.86A22.033,22.033,0,0,0,45.64,38.1a9.267,9.267,0,0,1,3.716-1.926l.684-.125a12.688,12.688,0,0,1,3.972-.031,8.528,8.528,0,0,0,6.517-1.646c.217-.171.408-.347.652-.568A6.711,6.711,0,0,0,63.1,29.128q.005-.146,0-2.837l0-2.824a1.848,1.848,0,1,1,3.7,0l0,2.821c0,1.994,0,2.994,0,3.023a10.4,10.4,0,0,1-3.126,7.228c-.319.292-.572.518-.841.729a12.216,12.216,0,0,1-9.347,2.409,9.147,9.147,0,0,0-2.859.022l-.552.1a5.719,5.719,0,0,0-2.1,1.173,26.317,26.317,0,0,1-16.424,5.759Z" transform="translate(3.387 17.944)"/>
      <path id="Trazado_893147" data-name="Trazado 893147" d="M44.223,8.7H18.35a1.848,1.848,0,1,1,0-3.7H44.223a1.848,1.848,0,0,1,0,3.7Z" transform="translate(9.331 4.241)"/>
    </g>
  </g>
</svg>
