<svg xmlns="http://www.w3.org/2000/svg" xmlns:xlink="http://www.w3.org/1999/xlink" width="92.344" height="92.344" viewBox="0 0 92.344 92.344">
  <defs>
    <clipPath id="clip-path">
      <rect id="Rectángulo_401722" data-name="Rectángulo 401722" width="59" height="59" transform="translate(17 16.803)" fill="#fff" stroke="#fff" stroke-width="1"/>
    </clipPath>
    <clipPath id="clip-path-2">
      <path id="path1629" d="M0-59H59V0H0Z" fill="#fff"/>
    </clipPath>
  </defs>
  <g id="Grupo_1101683" data-name="Grupo 1101683" transform="translate(0 0.197)">
    <g id="Grupo_1101517" data-name="Grupo 1101517" transform="translate(0 -0.197)">
      <path id="Trazado_883915" data-name="Trazado 883915" d="M92.344,46.173A46.172,46.172,0,1,1,46.172,0,46.172,46.172,0,0,1,92.344,46.173" transform="translate(0 -0.001)" fill="#464442"/>
    </g>
    <g id="Enmascarar_grupo_1099804" data-name="Enmascarar grupo 1099804" clip-path="url(#clip-path)">
      <g id="g1623" transform="translate(17 75.803)">
        <g id="g1625">
          <g id="g1627" clip-path="url(#clip-path-2)">
            <g id="g1633" transform="translate(29.684 -18.923)">
              <path id="path1635" d="M0,0,2.763-2.763a4.97,4.97,0,0,1,7,0L28.451,15.921H-1.166M-8.542,8.545-2.767,2.77" fill="none" stroke="#fff" stroke-linecap="round" stroke-linejoin="round" stroke-miterlimit="10" stroke-width="1.731"/>
            </g>
            <g id="g1637" transform="translate(8.995 -11.132)">
              <path id="path1639" d="M0,0,3.515-3.515a3.1,3.1,0,0,1,4.364,0L19.524,8.13H-8.13l5.36-5.36" fill="none" stroke="#fff" stroke-linecap="round" stroke-linejoin="round" stroke-miterlimit="10" stroke-width="1.731"/>
            </g>
            <g id="g1641" transform="translate(16.24 -39.453)">
              <path id="path1643" d="M0,0,5.416-3.129,9.7,4.292A8.238,8.238,0,0,1,6.693,15.509,8.238,8.238,0,0,1-4.524,12.5L-8.807,5.083l5.416-3.126" fill="none" stroke="#fff" stroke-linecap="round" stroke-linejoin="round" stroke-miterlimit="10" stroke-width="1.731"/>
            </g>
            <g id="g1645" transform="translate(21.655 -42.579)">
              <path id="path1647" d="M0,0,23.241-13.419l1.9,3.3A2.794,2.794,0,0,1,24.123-6.3,2.8,2.8,0,0,1,20.3-7.32L1.9,3.3Z" fill="none" stroke="#fff" stroke-linecap="round" stroke-linejoin="round" stroke-miterlimit="10" stroke-width="1.731"/>
            </g>
            <g id="g1649" transform="translate(39.399 -6.207)">
              <path id="path1651" d="M0,0H2.3M-8.323,0h2.3m1.548-3.917h2.3m-10.623,0h2.3m14.346,0h2.3M-8.637-7.83h2.3m6.023,0h2.3m-6.461-4.364h2.3M8.323,0h2.3" fill="none" stroke="#fff" stroke-linecap="round" stroke-linejoin="round" stroke-miterlimit="10" stroke-width="1.731"/>
            </g>
            <g id="g1653" transform="translate(9.38 -6.197)">
              <path id="path1655" d="M0,0H2.3M3.848-3.917h2.3M8.323,0h2.3" fill="none" stroke="#fff" stroke-linecap="round" stroke-linejoin="round" stroke-miterlimit="10" stroke-width="1.731"/>
            </g>
          </g>
        </g>
      </g>
    </g>
  </g>
</svg>
