<svg xmlns="http://www.w3.org/2000/svg" xmlns:xlink="http://www.w3.org/1999/xlink" width="295" height="213.051" viewBox="0 0 295 213.051">
  <defs>
    <clipPath id="clip-path">
      <rect id="Rectángulo_401597" data-name="Rectángulo 401597" width="295" height="211.986" transform="translate(187.494 2354)" fill="#fff" stroke="#707070" stroke-width="1"/>
    </clipPath>
    <clipPath id="clip-path-2">
      <rect id="Rectángulo_401596" data-name="Rectángulo 401596" width="164.343" height="322.431" fill="none"/>
    </clipPath>
    <clipPath id="clip-path-4">
      <rect id="Rectángulo_401589" data-name="Rectángulo 401589" width="26.556" height="22.049" fill="none"/>
    </clipPath>
    <clipPath id="clip-path-5">
      <rect id="Rectángulo_401590" data-name="Rectángulo 401590" width="19.169" height="36.217" fill="none"/>
    </clipPath>
    <clipPath id="clip-path-6">
      <rect id="Rectángulo_401591" data-name="Rectángulo 401591" width="73.238" height="116.31" fill="none"/>
    </clipPath>
    <clipPath id="clip-path-7">
      <rect id="Rectángulo_401592" data-name="Rectángulo 401592" width="110.54" height="46.45" fill="none"/>
    </clipPath>
    <clipPath id="clip-path-8">
      <rect id="Rectángulo_401593" data-name="Rectángulo 401593" width="75.544" height="31.281" fill="none"/>
    </clipPath>
    <clipPath id="clip-path-9">
      <rect id="Rectángulo_401594" data-name="Rectángulo 401594" width="15.667" height="24.116" fill="none"/>
    </clipPath>
  </defs>
  <g id="Grupo_1101722" data-name="Grupo 1101722" transform="translate(-1125 -406)">
    <path id="Rectángulo_401588" data-name="Rectángulo 401588" d="M84,0H295a0,0,0,0,1,0,0V213.051a0,0,0,0,1,0,0H0a0,0,0,0,1,0,0V84A84,84,0,0,1,84,0Z" transform="translate(1125 406)" fill="#dad0cf"/>
    <g id="Enmascarar_grupo_1099801" data-name="Enmascarar grupo 1099801" transform="translate(937.506 -1946.986)" clip-path="url(#clip-path)">
      <g id="Grupo_1101459" data-name="Grupo 1101459" transform="translate(243.031 2357.006)">
        <g id="Grupo_1101458" data-name="Grupo 1101458" clip-path="url(#clip-path-2)">
          <g id="Grupo_1101457" data-name="Grupo 1101457">
            <g id="Grupo_1101456" data-name="Grupo 1101456" clip-path="url(#clip-path-2)">
              <path id="Trazado_890557" data-name="Trazado 890557" d="M200.492,235.612a41.535,41.535,0,0,0-14.807-6.516,39.774,39.774,0,0,0-5.332-1.1c-.846-.17-2.707-.593-3.384-.254l-.254,5.414c2.792,4.062,4.908,8.461,8.461,12.015,3.47,3.47,10.324,6.261,15.062,3.723,2.539-1.354,4.822-3.384,4.908-6.431.084-3.3-2.285-5.162-4.654-6.854m-2.454,7.616c-1.776,1.776-4.822,1.015-6.938.254-2.538-.762-4.738-3.638-6.515-5.5-2.03-2.03-3.384-4.315-5.161-6.515l-.253-.931c.93.423,2.453.339,3.553.593,1.269.338,2.539.846,3.808,1.269,3.384,1.1,7.108,2.115,10.069,4.145,2.2,1.524,3.808,4.4,1.438,6.685" transform="translate(-41.188 -53.051)" fill="#f9f9f7"/>
              <path id="Trazado_890558" data-name="Trazado 890558" d="M200.374,235.495a33.236,33.236,0,0,0-7.218-3.7,51.385,51.385,0,0,0-7.69-2.443,39.541,39.541,0,0,0-5.267-1.088,8.231,8.231,0,0,0-3.177-.293l.212-.324-.254,5.415-.067-.235c2.3,3.347,4.16,6.943,6.683,10.031,3.531,4.495,9.8,7.838,15.512,5.964,6.744-2.829,7.648-9.314,1.266-13.324m0,0c7.051,4.266,6.543,10.724-.991,14.039-3.976,1.44-8.4.1-11.853-2.051-5.25-3.327-7.848-9.344-11.249-14.226l-.073-.106.006-.13.254-5.414.011-.238a2.488,2.488,0,0,1,1.219-.254,52.386,52.386,0,0,1,7.938,1.485,37.483,37.483,0,0,1,14.738,6.894" transform="translate(-41.07 -52.934)"/>
              <path id="Trazado_890559" data-name="Trazado 890559" d="M198.609,243.915c-2.368,2.131-6.23,1.288-8.743-.187A24.454,24.454,0,0,1,185.4,239.5a64.327,64.327,0,0,1-5.78-7.245c-.1-.41-.355-1.279-.459-1.688l.735.308a16.374,16.374,0,0,0,3.166.506c3.259.943,6.29,2.028,9.511,3.125a17.864,17.864,0,0,1,5.884,3.3c1.653,1.678,2.046,4.463.149,6.109m0,0c1.834-1.666,1-4.167-.7-5.559-3.281-2.925-7.82-3.764-11.882-5.237a27.168,27.168,0,0,0-3.094-.984,15.585,15.585,0,0,1-3.352-.564l.528-.449.253.931c1.48,1.707,3.53,4.979,5.606,6.928,1.965,2.223,4.007,4.524,7,5.227,1.8.634,4.105,1.208,5.644-.293" transform="translate(-41.759 -53.739)"/>
              <path id="Trazado_890560" data-name="Trazado 890560" d="M176.832,235.447c8.676,9.722,7.941,25.029,3.582,36.5-.7,1.852,2.262,2.645,2.958.815,4.776-12.57,5.043-28.935-4.371-39.484-1.32-1.479-3.482.7-2.169,2.169" transform="translate(-41.12 -54.256)" fill="#f9f9f7"/>
              <path id="Trazado_890561" data-name="Trazado 890561" d="M176.832,235.447c8.676,9.722,7.941,25.029,3.582,36.5-.7,1.852,2.262,2.645,2.958.815,4.776-12.57,5.043-28.935-4.371-39.484C177.681,231.8,175.519,233.976,176.832,235.447Z" transform="translate(-41.12 -54.256)" fill="none" stroke="#000" stroke-miterlimit="10" stroke-width="1"/>
              <path id="Trazado_890562" data-name="Trazado 890562" d="M176.831,235.427c8.08,8.627,8.337,21.125,5.439,32-.262.9-.523,1.809-.817,2.7l-.47,1.332a2.69,2.69,0,0,0-.273,1.153c.068.64,1.094.985,1.713.647.636-.235.868-1.591,1.118-2.163,3.527-10.406,4.06-22.486-1.219-32.383a20.59,20.59,0,0,0-1.343-2.422,15.406,15.406,0,0,0-2.469-3.306c-1.373-.749-2.779,1.365-1.68,2.439m0,0c-1.133-1.1.287-3.29,1.759-2.594,10.094,9.337,9.876,26.361,5.677,38.516a10.091,10.091,0,0,1-.837,2.054,1.929,1.929,0,1,1-3.167-2.2c.469-1.275.9-2.675,1.267-3.973,2.791-10.512,2.466-23.052-4.7-31.8" transform="translate(-41.119 -54.236)"/>
              <path id="Trazado_890563" data-name="Trazado 890563" d="M74.928,402.72c-1.406.639-2.3,1.534-2.173,3.2.255,2.94,3.578,3.451,6.135,3.578,7.541.256,14.06-4.729,19.557-9.33,2.684-2.174,6.263-3.963,8.563-6.519,1.15-1.279,1.917-5.88-.639-6.392Z" transform="translate(-16.955 -90.259)" fill="#754a2d"/>
              <path id="Trazado_890564" data-name="Trazado 890564" d="M74.616,402.275a4.068,4.068,0,0,0-2.056,1.772,3.616,3.616,0,0,0-.091,2.772c.627,1.682,2.382,2.4,4.027,2.7,4.63.838,9.265-.545,13.29-2.805a48.057,48.057,0,0,0,6.124-4.2c.949-.747,1.866-1.531,2.807-2.288.989-.795,2.053-1.494,3.1-2.2s2.081-1.4,3.073-2.167a12.9,12.9,0,0,0,2.412-2.233,6.274,6.274,0,0,0,1.012-4.214,3.438,3.438,0,0,0-.716-1.91c-.325-.381-1.023-.891-1.548-.692-.269.1-.529.261-.788.388l-4.7,2.309L85.143,397.1c-3.452,1.7-6.957,3.316-10.366,5.1-.053.028-.107.053-.161.079-.443.218-.054.88.387.662l3.118-1.533,7.531-3.705,9.071-4.461,7.844-3.858,2.589-1.274a7.872,7.872,0,0,0,1.234-.607.437.437,0,0,1,.057-.028l-.3.039c1.185.264,1.448,1.532,1.428,2.588a5.347,5.347,0,0,1-.916,3.115,19.625,19.625,0,0,1-4.433,3.616c-1.559,1.057-3.131,2.084-4.581,3.292-5.67,4.72-12.433,9.7-20.24,8.767-1.422-.17-3.21-.551-4.006-1.88a2.9,2.9,0,0,1-.23-2.46A3.291,3.291,0,0,1,75,402.937c.447-.207.058-.869-.387-.662" transform="translate(-16.837 -90.145)"/>
              <path id="Trazado_890565" data-name="Trazado 890565" d="M92.466,380.816c-1.022,2.557-3.835,4.858-5.752,6.9-3.323,3.2-7.03,6.264-9.715,10.1-.639.895-2.173,2.556-1.917,3.835.383,1.406,2.94,2.045,4.218,2.3a11.586,11.586,0,0,0,8.436-1.662c6.392-3.323,11.76-7.541,17.256-12.143,2.429-2.045,4.6-3.963,4.091-7.414-.512-2.3-2.557-6.519-5.113-6.646Z" transform="translate(-17.493 -87.656)" fill="#996441"/>
              <path id="Trazado_890566" data-name="Trazado 890566" d="M91.977,380.6a14.82,14.82,0,0,1-3.482,4.548c-1.39,1.393-2.783,2.777-4.224,4.117-1.514,1.408-3.033,2.812-4.458,4.311a54.687,54.687,0,0,0-3.645,4.439c-.788,1.025-2.156,2.649-1.411,4.023.656,1.21,2.32,1.693,3.559,2a11.626,11.626,0,0,0,5.33.154,21.164,21.164,0,0,0,5.617-2.464,81.867,81.867,0,0,0,10.431-7c1.667-1.292,3.3-2.626,4.92-3.976a19.265,19.265,0,0,0,3.667-3.6,6.191,6.191,0,0,0,1.053-4.634,12.032,12.032,0,0,0-1.626-3.912,6.406,6.406,0,0,0-2.986-2.84,1.762,1.762,0,0,0-1.045-.133c-.186.055-.37.153-.551.226l-10.59,4.354-.291.12c-.45.185-.253.927.2.739l9.381-3.856,1.847-.759a1.378,1.378,0,0,1,.274-.1,2.727,2.727,0,0,1,1.563.766,9.672,9.672,0,0,1,2.42,3.6,6.383,6.383,0,0,1,.538,4.279,8.085,8.085,0,0,1-2.6,3.667c-1.408,1.28-2.906,2.472-4.385,3.667a96.961,96.961,0,0,1-9.728,7.04c-1.7,1.055-3.442,2.055-5.227,2.954a11.469,11.469,0,0,1-5.6,1.345,10.767,10.767,0,0,1-4.429-1.09c-.506-.267-1.155-.682-1.182-1.317a3.682,3.682,0,0,1,.9-2.045,45.1,45.1,0,0,1,3.284-4.18c1.326-1.478,2.76-2.853,4.21-4.208,1.373-1.284,2.738-2.566,4.069-3.894a37.581,37.581,0,0,0,3.7-3.991,9.826,9.826,0,0,0,1.232-2.143c.188-.456-.554-.655-.739-.2" transform="translate(-17.374 -87.542)"/>
              <path id="Trazado_890567" data-name="Trazado 890567" d="M67.258,317.594c1.022,4.985,4.218,9.587,6.391,14.188,1.79,3.707,2.684,7.669,4.218,11.376,1.534,3.451,4.6,6.519,2.429,10.1-2.94,4.857,3.835,4.73,6.391,6.9,2.94,2.556-.894,3.579-1.917,6.007-.511,1.279-.767,5.368.64,6.135,2.173-2.3,4.6-5.369,7.925-5.112a13.356,13.356,0,0,1,8.053,3.323c1.278,1.15,2.556,2.429,3.835,3.451,1.662,1.279,2.3.383,2.812-1.406a21.121,21.121,0,0,0,.127-8.948c-.767-3.579-2.3-6.264-1.406-10.1a106.271,106.271,0,0,0,1.917-11.12,247.829,247.829,0,0,0,1.407-25.819,20.671,20.671,0,0,1-.128-2.812,7.074,7.074,0,0,0,.383-2.173Z" transform="translate(-15.676 -72.623)" fill="#46638c"/>
              <path id="Trazado_890568" data-name="Trazado 890568" d="M66.773,317.582c1.162,5.532,4.638,10.153,6.877,15.252,1.192,2.712,1.982,5.575,2.982,8.358a25.158,25.158,0,0,0,1.627,3.7,31.8,31.8,0,0,1,1.782,3.391,5.316,5.316,0,0,1,.342,3.475c-.29,1.008-1.027,1.815-1.241,2.854a2.86,2.86,0,0,0,1.58,3.1,40.209,40.209,0,0,0,4.158,1.768,5.414,5.414,0,0,1,1.931,1.343,1.39,1.39,0,0,1,.045,1.969c-.6.769-1.389,1.364-1.98,2.143a4.84,4.84,0,0,0-.907,2.409,10.654,10.654,0,0,0,.006,3.06,2.865,2.865,0,0,0,1.124,2.117.39.39,0,0,0,.465-.06c1.678-1.782,3.394-4.032,5.826-4.789a7.708,7.708,0,0,1,3.991.115,12.482,12.482,0,0,1,3.677,1.485,21.442,21.442,0,0,1,3.463,2.805c.607.565,1.216,1.13,1.851,1.665a4.908,4.908,0,0,0,1.533,1c2.236.75,2.682-3.194,2.828-4.564a22.293,22.293,0,0,0-.63-8.07c-.367-1.371-.828-2.72-1.111-4.112a10.929,10.929,0,0,1,.016-4.5c.678-3.2,1.338-6.411,1.753-9.659.431-3.38.653-6.8.916-10.195.268-3.449.487-6.9.6-10.36q.083-2.557.082-5.117c0-.841.018-1.689-.064-2.527a6.647,6.647,0,0,1,0-2.3,4.976,4.976,0,0,0,.294-1.966c-.031-.222-.289-.293-.472-.268l-4.287.6-10.3,1.436-12.451,1.736-10.758,1.5-3.52.491a16.369,16.369,0,0,0-1.689.235c-.025.006-.051.007-.075.011-.486.068-.279.807.2.739l4.287-.6,10.3-1.436,12.452-1.737,10.758-1.5,3.52-.491a10.194,10.194,0,0,0,1.69-.235.468.468,0,0,1,.074-.011l-.472-.268a8.837,8.837,0,0,1-.406,2.15,12.007,12.007,0,0,0,.117,2.249c.121,1.666.04,3.371.009,5.041-.062,3.4-.239,6.8-.476,10.188-.235,3.351-.528,6.7-.827,10.043a88.127,88.127,0,0,1-1.535,9.82,23.946,23.946,0,0,0-.746,4.59,14.855,14.855,0,0,0,.628,4.019c.369,1.346.821,2.676,1.088,4.048a22.16,22.16,0,0,1,.376,3.937,17.21,17.21,0,0,1-.359,4.039c-.141.617-.439,2.419-1.341,2.367-.6-.035-1.172-.621-1.594-.981-.61-.522-1.2-1.068-1.785-1.615a22.551,22.551,0,0,0-3.365-2.749,13.2,13.2,0,0,0-3.481-1.534,10.874,10.874,0,0,0-3.822-.485c-2.493.25-4.4,2.108-6.033,3.846-.426.454-.845.915-1.272,1.368l.465-.061c-.62-.366-.748-1.342-.812-1.987a10.3,10.3,0,0,1,.094-2.716,3.954,3.954,0,0,1,.916-2.009c.558-.657,1.239-1.2,1.771-1.884a2.14,2.14,0,0,0,.5-1.994,3.875,3.875,0,0,0-1.632-1.881,24.566,24.566,0,0,0-4.067-1.768c-1.064-.451-2.49-1.128-2.413-2.492a7.627,7.627,0,0,1,1.041-2.507,5.34,5.34,0,0,0,.283-3.334c-.545-2.426-2.249-4.394-3.175-6.664-1.083-2.653-1.835-5.428-2.841-8.109a71.022,71.022,0,0,0-4.082-8.4,33.415,33.415,0,0,1-3.555-8.731c-.1-.482-.841-.278-.739.2" transform="translate(-15.561 -72.509)"/>
              <path id="Trazado_890569" data-name="Trazado 890569" d="M107.569,377.592c.015-2.607-2.889-3.291-4.882-3.951a16.3,16.3,0,0,0-5.568-.606c-.851-.031-1.1-.765-.771-1.466.383-.964,1.752-1.376,2.735-1.726,2.918-1.222,6.033-.022,9,.079l-.373.294a2.382,2.382,0,0,0-.281-2c-.956-1.163-2.7-1.42-4.131-1.836a18.654,18.654,0,0,0-11.7.734c4.725-2.794,9.221-2.568,14.268-.788,2,.624,3.236,2.241,2.517,4.368h-.3c-3.085-.074-5.856-1.3-8.761-.117-.72.262-1.966.619-2.259,1.282a1.247,1.247,0,0,0-.088.368,1.392,1.392,0,0,0,.6.048c3.159-.236,10.518,1.039,10,5.322" transform="translate(-21.348 -85.071)"/>
              <path id="Trazado_890570" data-name="Trazado 890570" d="M131.425,396.78c1.406,2.3,4.857,3.707,7.286,4.857,3.451,1.917,6.9,3.963,10.225,6.135,2.812,1.917,5.624,3.707,8.948,3.835,2.684,0,7.158-.9,9.2-2.684,3.835-3.323-7.286-8.308-9.076-10.225-2.684-2.557-5.5-4.985-8.053-7.669a35.953,35.953,0,0,0-4.6-4.218c-1.917-1.278-4.09-1.662-6.135-2.557Z" transform="translate(-30.632 -89.56)" fill="#754a2d"/>
              <path id="Trazado_890571" data-name="Trazado 890571" d="M130.975,396.859c1.444,2.3,4.179,3.486,6.546,4.585,1.528.709,2.976,1.584,4.431,2.433q2.42,1.412,4.79,2.9c2.739,1.729,5.378,3.838,8.554,4.709a14.779,14.779,0,0,0,8.014-.466,11.516,11.516,0,0,0,3.417-1.542,3.081,3.081,0,0,0,1.371-1.749c.32-1.476-.927-2.807-1.922-3.714a34.688,34.688,0,0,0-4.763-3.433c-.717-.458-1.439-.909-2.14-1.391a14.516,14.516,0,0,1-1.707-1.446c-2.628-2.473-5.332-4.86-7.81-7.486a35.851,35.851,0,0,0-3.767-3.461,13.863,13.863,0,0,0-4.294-2.114c-.807-.275-1.617-.542-2.4-.88a.394.394,0,0,0-.524.137l-6.825,10.965-.972,1.562c-.262.42.4.806.662.387l6.825-10.965.972-1.562-.525.137c1.438.62,2.959,1.015,4.4,1.63a14.5,14.5,0,0,1,3.994,2.822c1.24,1.131,2.354,2.383,3.545,3.565,1.208,1.2,2.456,2.356,3.707,3.51a39.436,39.436,0,0,0,4.786,4.162c1.508,1,3.06,1.927,4.526,2.985,1.221.881,2.772,1.968,3.368,3.415.666,1.617-1.219,2.583-2.438,3.119a17.2,17.2,0,0,1-3.779,1.107,14.32,14.32,0,0,1-3.573.307c-3.172-.226-5.864-2.055-8.429-3.764-2.92-1.946-5.957-3.731-9.012-5.456-2.364-1.335-5.095-2.2-7.159-4.019a6.374,6.374,0,0,1-1.2-1.38c-.262-.416-.926-.032-.662.387" transform="translate(-30.513 -89.446)"/>
              <path id="Trazado_890572" data-name="Trazado 890572" d="M133.431,394.213c2.557,3.451,7.542,5.5,11.248,7.541,1.917,1.15,3.835,2.173,5.752,3.324,1.789,1.278,3.068,2.428,5.113,2.556,2.556.383,7.03-.128,9.2-1.917,3.195-2.812-2.3-7.286-4.346-9.075-4.346-4.218-7.925-9.2-13.677-11.377-2.812-1.022-6.263-2.045-9.2-1.406-3.451.639-4.346,2.812-6.263,5.368Z" transform="translate(-30.593 -89.422)" fill="#996441"/>
              <path id="Trazado_890573" data-name="Trazado 890573" d="M132.983,394.29a20.168,20.168,0,0,0,6.757,5.242c1.293.7,2.612,1.357,3.911,2.049,1.576.839,3.11,1.77,4.661,2.657a24.669,24.669,0,0,1,2.358,1.453,21.02,21.02,0,0,0,1.974,1.347,8.384,8.384,0,0,0,3.823.964,14.042,14.042,0,0,0,7.6-1.548,3.552,3.552,0,0,0,1.872-2.32,4.242,4.242,0,0,0-.644-2.817,19.574,19.574,0,0,0-4.442-4.806c-1.048-.909-1.986-1.956-2.94-2.961-1.05-1.107-2.094-2.222-3.186-3.287a24.408,24.408,0,0,0-7.218-5.16,27.054,27.054,0,0,0-4.605-1.492,13.721,13.721,0,0,0-4.924-.356,7.691,7.691,0,0,0-3.717,1.426,11.62,11.62,0,0,0-2.3,2.614c-.383.543-.761,1.09-1.158,1.623a.388.388,0,0,0,0,.387q1.086,2.493,2.173,4.985c.2.451.857.061.661-.387l-2.173-4.985v.387c1.384-1.855,2.536-4.071,4.854-4.883,2.985-1.045,6.227-.253,9.117.723a21.2,21.2,0,0,1,7.386,4.393c2.111,1.88,3.982,4.006,5.953,6.027,1.491,1.528,3.2,2.831,4.611,4.441,1.12,1.279,2.691,3.449,1.242,5.052a6.6,6.6,0,0,1-3.105,1.613,15.847,15.847,0,0,1-3.763.573,10.621,10.621,0,0,1-3.648-.37c-1.436-.481-2.51-1.564-3.776-2.341-2.726-1.673-5.547-3.227-8.387-4.7a30.082,30.082,0,0,1-6.994-4.474,11.584,11.584,0,0,1-1.318-1.458c-.292-.39-.959-.008-.661.387" transform="translate(-30.476 -89.306)"/>
              <path id="Trazado_890574" data-name="Trazado 890574" d="M107.07,300.235c.959,4.793,2.493,9.2,3.451,14,.959,6.135,3.451,12.079,4.985,18.023a29.031,29.031,0,0,1,1.342,7.094c0,2.3-1.342,3.835.575,5.752.575.767,2.493.767,2.493,2.109.192,1.342-1.534,1.342-1.917,2.684-.767,2.3,2.3,2.876,2.876,4.985.383,1.726-1.15,7.861,1.534,8.436,1.15.192,2.493-2.684,3.259-3.451a10.736,10.736,0,0,1,4.6-3.259c6.135-2.3,11.887.192,17.639,2.109.767-2.876.192-5.56-2.493-7.094,1.726-2.109,2.109-3.451.575-5.944-1.342-2.109-1.917-3.259-1.342-5.944,1.15-5.752,3.259-11.312,4.218-17.064,1.917-11.312,3.643-22.624,4.6-34.128.575-4.985,1.917-9.97,2.876-14.955.959-4.6.575-9.395,1.534-14a67.026,67.026,0,0,0,1.342-12.463c0-1.534.767-4.6.192-5.944-1.15-2.109-4.985-1.534-6.9-1.534-9.778-.192-19.748.575-29.527.959-8.053.192-22.049-1.534-27.226,6.327Z" transform="translate(-22.319 -55.839)" fill="#46638c"/>
              <path id="Trazado_890575" data-name="Trazado 890575" d="M106.585,300.22c.829,4.1,2.113,8.086,3.054,12.158.47,2.036.777,4.1,1.293,6.127s1.134,4.023,1.765,6.014a113.246,113.246,0,0,1,3.279,11.519,16.556,16.556,0,0,1,.372,2.989,11.538,11.538,0,0,1-.3,2.37,3.974,3.974,0,0,0,.912,3.78,3.634,3.634,0,0,0,1.324.844c.541.24,1.107.475,1.137,1.143.028.644-.552.914-1,1.265a2.568,2.568,0,0,0-.972,1.46c-.6,2.536,2.879,3.128,2.983,5.4.1,2.158-.53,4.417.119,6.535a2.254,2.254,0,0,0,1.738,1.752c1.085.1,1.89-1.229,2.409-1.989a13.894,13.894,0,0,1,2.887-3.268,11.7,11.7,0,0,1,5.259-2.172c4.078-.709,8.141.531,11.966,1.832.959.327,1.917.66,2.877.982a.387.387,0,0,0,.472-.268,7.708,7.708,0,0,0,.023-4.33,5.867,5.867,0,0,0-2.692-3.2l.078.6A6.8,6.8,0,0,0,147.144,349a4.429,4.429,0,0,0-.505-2.861,27.771,27.771,0,0,1-1.673-3.078,6.235,6.235,0,0,1-.062-3.34c1.176-5.829,3.266-11.432,4.259-17.3,1.024-6.051,1.994-12.111,2.818-18.194q.61-4.5,1.105-9.013c.335-3.1.505-6.219,1-9.294.959-5.918,2.756-11.684,3.178-17.683a78.449,78.449,0,0,1,.93-9,75.808,75.808,0,0,0,1.162-8.646c.1-1.363.053-2.733.152-4.094.076-1.047.265-2.082.345-3.128a4.571,4.571,0,0,0-.295-2.606,3.3,3.3,0,0,0-1.9-1.357c-1.7-.533-3.516-.249-5.263-.252-3.062,0-6.119-.026-9.181.059-6.145.172-12.28.551-18.42.82-3.964.173-7.926-.028-11.892.069a33.357,33.357,0,0,0-11.551,1.863,13.738,13.738,0,0,0-4.485,2.791,10.616,10.616,0,0,0-.859.932c-.231.282-.687.719-.742,1.085a.782.782,0,0,0,.029.257c.15.926.392,1.847.587,2.764q.615,2.9,1.232,5.8,1.785,8.416,3.572,16.831l3.665,17.267,2.133,10.05c.034.161.068.321.1.482.1.482.842.278.739-.2l-1.465-6.9L102.5,277.284q-1.844-8.687-3.687-17.373L96.328,248.2q-.128-.6-.255-1.2a1.262,1.262,0,0,1-.054-.253c0-.01-.01-.025-.008-.035-.106.406.295-.182.334-.234.165-.219.341-.43.525-.634,2.479-2.759,6.2-3.917,9.758-4.48a69.714,69.714,0,0,1,11.786-.505c4.878.064,9.735-.225,14.605-.467,5.972-.3,11.95-.564,17.931-.5,1.037.011,2.062,0,3.1-.033a12.856,12.856,0,0,1,2.715.114,2.835,2.835,0,0,1,2.2,1.3,6.055,6.055,0,0,1,.046,2.864c-.107.955-.278,1.909-.293,2.871-.023,1.513-.074,3.019-.2,4.528-.255,2.952-.8,5.84-1.3,8.755-.482,2.818-.541,5.681-.762,8.524a65.155,65.155,0,0,1-1.486,8.823c-.642,2.955-1.306,5.908-1.751,8.9-.439,2.95-.6,5.943-.928,8.908-.654,5.991-1.49,11.961-2.423,17.915q-.694,4.428-1.446,8.846a83.958,83.958,0,0,1-2.015,8.544c-.778,2.79-1.587,5.576-2.173,8.413a8.81,8.81,0,0,0-.229,3.223,7.721,7.721,0,0,0,1.131,2.707,6.343,6.343,0,0,1,1.316,3.2,5.026,5.026,0,0,1-1.423,2.93.389.389,0,0,0,.077.6,5.052,5.052,0,0,1,2.387,2.891,7.039,7.039,0,0,1-.071,3.769l.472-.268c-3.684-1.232-7.37-2.7-11.281-3a13.633,13.633,0,0,0-10.178,3.069,17.157,17.157,0,0,0-2.525,3.094c-.514.734-1.42,2.068-2.269.959a5.14,5.14,0,0,1-.594-3.074c.008-1.118.126-2.232.156-3.349a3.555,3.555,0,0,0-.818-2.607c-.67-.8-1.979-1.468-2.209-2.549-.318-1.49,1.252-1.741,1.834-2.762a1.833,1.833,0,0,0-1.048-2.52,4.486,4.486,0,0,1-1.384-.778,2.847,2.847,0,0,1-.919-2.094,15.957,15.957,0,0,1,.342-2.137,9.531,9.531,0,0,0,.057-2.392,32.265,32.265,0,0,0-1.143-5.482c-.526-1.927-1.071-3.844-1.673-5.749a98.951,98.951,0,0,1-3.295-11.824c-.748-4.076-1.967-8.026-2.957-12.045q-.365-1.479-.669-2.972c-.1-.483-.837-.278-.739.2" transform="translate(-22.203 -55.722)"/>
              <g id="Grupo_1101440" data-name="Grupo 1101440" transform="translate(99.898 280.825)" opacity="0.5" style="mix-blend-mode: multiply;isolation: isolate">
                <g id="Grupo_1101439" data-name="Grupo 1101439">
                  <g id="Grupo_1101438" data-name="Grupo 1101438" clip-path="url(#clip-path-4)">
                    <path id="Trazado_890576" data-name="Trazado 890576" d="M156.333,388.219c1.534-2.684-.959-4.985-2.492-7.094,1.15-3.259,1.726-3.259.959-4.793a20.087,20.087,0,0,1-1.917-5.368c-.575-2.684-1.726-2.684-4.218-3.643a20.859,20.859,0,0,0-6.9-1.15c-3.068.192-11.312.959-11.5,5.56,0,2.492,2.493,1.15,4.41.767a35.679,35.679,0,0,1,6.519-.767c1.726,0,4.985-1.15,6.711-.192,2.492,1.342,2.3,3.068,0,3.451-4.793.959-9.587-.959-13.038,3.451-.959.959-2.876,4.026.192,4.218,1.534.192,3.835-2.493,5.368-3.068,1.342-.383,4.026-1.15,5.177,0,1.534,1.726-.767,4.026-.959,5.752,3.068-.959,8.436,1.15,11.12,2.684Z" transform="translate(-130.258 -366.17)" fill="#878fad"/>
                  </g>
                </g>
              </g>
              <path id="Trazado_890577" data-name="Trazado 890577" d="M151.18,380.69c-3.806-1.052-8.051-1.319-11.618.491-1.367.805-1.988,2.359-3.465,3.121a1.575,1.575,0,0,1-2.094-.539c-2.43-3.405,4.41-7.228,7.21-7.494,2.447-.538,5.093.3,7.453.219a1.265,1.265,0,0,0,.907-2.115,3.237,3.237,0,0,0-1.433-.792,23.44,23.44,0,0,0-9.109-.028c-2.22.2-6.072.966-7.079,1.908,3.338-2.876,12.145-3.757,16.413-2.613.936.276,2.125.906,2.273,2.045a2.084,2.084,0,0,1-.84,2.021c-1.521.79-3.355.136-4.839.021a11.651,11.651,0,0,0-7,1.274c-1.544.978-4.771,3.008-3.346,5.09a.788.788,0,0,0,1.144.317c1.32-.7,2.074-2.374,3.428-3.1,3.7-2.055,8.289-1.4,12,.177" transform="translate(-30.755 -86.788)"/>
              <path id="Trazado_890578" data-name="Trazado 890578" d="M157.092,238.351c.944.506,5.01.669,6.089.77a35.7,35.7,0,0,0,3.812.1,22.058,22.058,0,0,0,6.138-.539c.505-.17.54-.473.641-1.046.067-.506.135-1.012.236-1.552a13.351,13.351,0,0,0,.1-3.845,10.864,10.864,0,0,0-.3-1.517c-.1-.338-.034-.237-.3-.271a4.574,4.574,0,0,0-.978.1,35.642,35.642,0,0,1-5.7.439c-2.361-.067-4.857-.2-7.15-.034Z" transform="translate(-36.614 -53.711)" fill="#683929"/>
              <path id="Trazado_890579" data-name="Trazado 890579" d="M157.092,238.238a29.3,29.3,0,0,0,6.069.513c2.483-.1,7.4.218,9.754-.52.242-.067.3-.11.353-.223a15.365,15.365,0,0,0,.179-7.26l-.009-.028-.048-.17c.015.065.115.14.185.166.1.027.074.013.068.017a2.321,2.321,0,0,0-.505,0,37.2,37.2,0,0,1-6.3.53c-2.4-.066-4.78-.2-7.133-.035l.334-.256c-.656,2.075-2.112,5.23-2.943,7.265m0,0c.646-2.2,1.39-5.4,2.219-7.517l.084-.239a69.884,69.884,0,0,1,7.457.015,57.78,57.78,0,0,0,6.72-.535.546.546,0,0,1,.456.172,12.789,12.789,0,0,1,.252,6.6c-.158.654-.044,1.585-.693,2.042-2.341.925-4.944.656-7.4.721a55.748,55.748,0,0,1-6.115-.583,11.227,11.227,0,0,1-2.984-.674" transform="translate(-36.614 -53.598)"/>
              <path id="Trazado_890580" data-name="Trazado 890580" d="M167.407,241.787a76.565,76.565,0,0,0,.709-9.611,10,10,0,0,1,1.753-.1,14.06,14.06,0,0,1,1.686,0c.337.035,1.147-.1,1.45.1.3.168.1,1.011.1,1.382,0,3.068-.675,6.138-.911,9.207V243" transform="translate(-39.018 -54.085)" fill="#46638c"/>
              <path id="Trazado_890581" data-name="Trazado 890581" d="M167.662,241.775a78.019,78.019,0,0,0,.722-9.713l-.281.37a10.427,10.427,0,0,1,1.832-.1c.63-.028,1.259.031,1.887.01a2.455,2.455,0,0,1,.707,0c.184.054.148.125.141.334-.018.531-.059,1.064-.078,1.6-.053,1.449-.233,2.891-.423,4.327a33.072,33.072,0,0,0-.472,4.287.384.384,0,0,0,.767,0,38.383,38.383,0,0,1,.544-4.839c.11-.857.212-1.716.281-2.578.059-.747.04-1.5.1-2.246.033-.413.158-.95-.114-1.313-.287-.383-.852-.354-1.278-.341-.688.019-1.374-.033-2.062,0a11.213,11.213,0,0,0-2.036.126.39.39,0,0,0-.281.37,76.346,76.346,0,0,1-.695,9.509c-.087.482.653.689.739.2" transform="translate(-38.904 -53.97)"/>
              <path id="Trazado_890582" data-name="Trazado 890582" d="M61.427,124.42c-2.045.767-4.09,2.812-5.88,4.09a137.587,137.587,0,0,0-11.631,9.331c-7.542,6.519-15.083,13.8-19.813,22.5a50.108,50.108,0,0,0-4.985,10.993c-1.15,3.835,0,7.413,1.917,10.737,1.79,3.068,3.2,5.368,6.9,6.007,2.812.512,6.135.64,8.181-1.534,2.556-2.556,6.007-7.414,6.391-10.992Z" transform="translate(-4.349 -28.999)" fill="#d35050"/>
              <path id="Trazado_890583" data-name="Trazado 890583" d="M61.315,124.42c-2.065.878-3.633,2.517-5.385,3.884a125.231,125.231,0,0,0-10.284,8.457c-8.368,7.169-16.7,14.868-21.854,24.727-2.057,3.832-4.3,7.807-4.828,12.167-.267,3.269,1.153,6.421,2.851,9.168,1.089,1.843,2.4,3.668,4.461,4.429,2.868.891,6.7,1.4,9.159-.7,2.949-3.022,5.882-6.865,6.587-11.1.039,0,9.426-25.378,9.458-25.388,2.691-7.2,7.074-18.391,9.834-25.647m0,0c-2.641,7.276-6.433,18.316-9.084,25.482l-9.474,25.779a16.364,16.364,0,0,1-2.567,6.186c-1.9,2.663-3.9,6.155-7.41,6.747-3.334.423-7.267.006-9.642-2.623-2.8-3.495-5.217-7.765-4.939-12.393.531-4.506,2.816-8.557,4.921-12.48,4.168-7.932,10.4-14.577,17-20.536A138.6,138.6,0,0,1,55.776,128.1c1.785-1.285,3.439-2.882,5.54-3.679" transform="translate(-4.237 -28.999)"/>
              <path id="Trazado_890584" data-name="Trazado 890584" d="M41.582,194.193c0,5.03-6.439,9.107-14.382,9.107s-14.383-4.077-14.383-9.107,6.44-9.106,14.383-9.106,14.382,4.077,14.382,9.106" transform="translate(-2.987 -43.139)" fill="#e87c7c"/>
              <path id="Trazado_890585" data-name="Trazado 890585" d="M41.479,194.084c-.874,10.143-16.388,11.276-23.588,7.425-7.349-3.637-7.357-11.208,0-14.849,7.2-3.853,22.7-2.715,23.588,7.425m0,0c-.038-3.237-2.809-5.522-5.526-6.742a20.683,20.683,0,0,0-17.712,0c-6.794,3.371-6.8,10.11,0,13.484a20.669,20.669,0,0,0,17.711,0c2.709-1.232,5.491-3.5,5.527-6.741" transform="translate(-2.885 -43.03)"/>
              <path id="Trazado_890586" data-name="Trazado 890586" d="M79.605,110.5c-2.556,1.789-5.368,3.068-7.925,4.857-6.392,4.091-9.97,8.692-14.828,14.572-7.925,9.715-13.038,27.354-15.082,39.625-2.3,15.083-1.79,25.564,11.248,35.279a54.535,54.535,0,0,0,22.5,9.2c6.135,1.022,14.06,2.045,20.2,0,6.391-2.3,12.526-6.647,18.151-10.482,1.789-1.278,1.278-1.278,3.323-1.278,1.278,0,2.812.767,4.09,1.022a40.1,40.1,0,0,0,9.459,1.278c5.368,0,11.759,1.534,16.361-2.045,4.857-3.579,4.09-10.737,2.3-15.85-1.022-2.812-.512-4.6,0-7.925a72.605,72.605,0,0,0,.255-10.482,88.415,88.415,0,0,0-2.3-21.729c-1.534-6.135-2.3-12.526-5.112-18.151-3.068-6.391-7.925-9.714-14.061-12.782-4.6-2.3-8.692-3.324-13.549-4.6-3.579-1.023-6.647-3.068-9.97-4.091Z" transform="translate(-9.489 -24.92)" fill="#d35050"/>
              <path id="Trazado_890587" data-name="Trazado 890587" d="M79.488,110.436c-2.855,1.986-6,3.509-8.818,5.558a44.231,44.231,0,0,0-7.76,6.889c-2.316,2.574-4.489,5.309-6.638,8.017a51.8,51.8,0,0,0-5.239,8.927,117.937,117.937,0,0,0-9.007,29.757c-1,6.77-1.82,13.866.165,20.516,3.094,10.1,12.591,16.558,21.969,20.335a51.884,51.884,0,0,0,9.909,2.937c6.741,1.081,13.826,2.27,20.522.5,6.572-2.111,12.342-6.236,18.034-10.08a22.28,22.28,0,0,1,2.816-1.867c2.047-.459,3.986.5,5.9.961a47.156,47.156,0,0,0,11.567,1.317c5.039.283,10.689,1.032,14.614-2.687,2.506-2.356,3.014-6.057,2.644-9.354-.183-3.5-2.366-6.718-1.761-10.284,1.043-5.177.788-10.285.734-15.546a84.742,84.742,0,0,0-2.476-20.577c-1.591-6.707-2.486-13.741-6.222-19.662-2.73-4.412-7.13-7.461-11.708-9.765-4.62-2.455-9.6-3.812-14.648-5.189-3.387-1.055-6.327-3.018-9.606-4.072.465-.079-25.087,3.42-24.989,3.373m0,0c.094.008,25.033-3.835,25.116-3.786,3.377,1.028,6.359,2.943,9.654,3.9,5.018,1.278,10.218,2.573,14.826,5.088,4.685,2.369,9.188,5.489,12,10.04,3.794,6,4.726,13.149,6.319,19.894a85.514,85.514,0,0,1,2.5,20.746c.06,5.175.3,10.528-.739,15.644-.558,3.508,1.6,6.635,1.762,10.115.4,3.5-.178,7.463-2.878,9.992-4.032,3.9-10.135,3.212-15.182,2.9a47.693,47.693,0,0,1-11.689-1.335c-1.861-.429-3.618-1.357-5.543-.967-.9.42-1.689,1.242-2.575,1.757-5.776,3.9-11.531,8.026-18.259,10.186-6.874,1.819-14,.617-20.866-.48a52.625,52.625,0,0,1-10.06-2.979c-9.586-3.852-19.261-10.5-22.416-20.824-2.03-6.8-1.2-13.978-.189-20.86,2.526-13.609,6.25-27.594,14.564-38.9,2.218-2.7,4.425-5.376,6.806-7.932a44.552,44.552,0,0,1,7.928-6.79c2.853-2,6.03-3.471,8.921-5.408" transform="translate(-9.372 -24.858)"/>
              <g id="Grupo_1101443" data-name="Grupo 1101443" transform="translate(111.519 112.868)" opacity="0.5" style="mix-blend-mode: multiply;isolation: isolate">
                <g id="Grupo_1101442" data-name="Grupo 1101442">
                  <g id="Grupo_1101441" data-name="Grupo 1101441" clip-path="url(#clip-path-5)">
                    <path id="Trazado_890588" data-name="Trazado 890588" d="M150.278,148.129c-.192-1.342-1.342-1.15-1.917-.192-1.726,2.493,2.109,7.669,2.876,9.97-2.684,0-4.41-4.026-4.985-6.327-3.451,3.259,4.793,9.2,5.177,11.887.192,2.109-1.342,4.026-.959,6.135.383,2.493,3.068,4.026,4.026,6.327.767,1.726.767,4.218,2.109,5.752.959,1.15,3.835,2.109,5.368,1.534,4.793-1.534,1.726-9.778.575-12.846-2.109-6.135-3.835-13.038-7.286-18.6Z" transform="translate(-145.41 -147.17)" fill="#878fad"/>
                  </g>
                </g>
              </g>
              <path id="Trazado_890589" data-name="Trazado 890589" d="M143.563,174.671c-9.714,2.3-23.519,1.534-27.1-9.458-4.346-13.038,4.857-29.143,9.715-40.392a4.149,4.149,0,0,1,1.278-2.3c-2.045-.255-5.368,0-6.9,1.022-2.045,1.79-3.068,6.392-4.345,8.692a65.242,65.242,0,0,0-3.579,8.947c-1.278,3.324-1.789,3.835-5.624,3.324-5.88-.767-11.248-2.045-17.128-2.3-5.368-.256-10.737-.767-16.105-1.023-.255-3.835,2.045-8.18,3.068-11.759,1.278-4.09,2.812-8.436,5.368-11.759-3.068-1.534-5.368-1.023-7.158,1.789a62.193,62.193,0,0,0-5.113,8.948,214.311,214.311,0,0,0-7.413,20.2C59.2,160.1,54.6,171.6,54.089,183.618c-.256,7.158,5.368,9.2,10.225,13.294,2.3,1.789,4.857,4.345,7.669,5.624,3.579,1.789,7.925,2.3,11.5,3.068,6.391,1.278,13.038,1.534,19.428,2.812,5.88,1.278,9.97-1.023,15.595-2.812,3.835-1.022,7.669-.767,11.5-2.3,4.09-1.534,10.992-3.579,13.548-7.158Z" transform="translate(-12.605 -27.226)" fill="#f9f9f7"/>
              <path id="Trazado_890590" data-name="Trazado 890590" d="M143.45,174.551c-18.924,4.256-31.938-3.442-27.79-24.1,1.912-9.126,6.364-17.458,10.054-25.906l-.02.059a5.585,5.585,0,0,1,.488-1.347,5.129,5.129,0,0,1,.89-1.133l.224.652a11.794,11.794,0,0,0-6.642.961c-1.565,1.515-2.407,4.29-3.286,6.474a90.855,90.855,0,0,0-4.309,10.436c-1.091,3.268-1.96,4.775-5.683,4.179-6.244-.779-12.4-2.253-18.675-2.416-5.15-.276-10.274-.75-15.405-.986a16.587,16.587,0,0,1,1.12-6.655c1.527-3.969,2.561-8.007,4.22-11.915a25.99,25.99,0,0,1,3.157-5.549l.132.577c-2.6-1.409-5.157-.971-6.692,1.7-1.422,2.293-3.095,4.738-4.269,7.14A200.14,200.14,0,0,0,61.5,152.853c-3,9.74-6.449,19.434-7.076,29.657a11.7,11.7,0,0,0,.258,4.029c.785,3.167,3.443,5.242,5.993,7.095,3.052,2.09,5.819,4.687,8.759,6.888,2.979,2.188,6.6,3.154,10.194,3.838,8.167,1.825,16.543,2.249,24.759,3.806,4.652.633,8.994-1.438,13.329-2.869,3.587-1.15,7.4-.9,10.957-2.016a88.971,88.971,0,0,0,10.339-4.019,14.739,14.739,0,0,0,4.261-3.236l.179-21.474m0,0c-.068.089.269,21.516.145,21.577-3.463,4.331-9.81,5.75-14.732,7.757-3.546,1.185-7.4,1.031-10.913,2.156l-5.27,1.813a19.069,19.069,0,0,1-11.153.589c-5.469-.982-11.072-1.321-16.566-2.276-5.461-1.132-11.331-1.634-15.974-5.022-1.535-1.1-2.927-2.351-4.355-3.518-3.754-3.355-9.283-5.623-10.692-10.893a12.575,12.575,0,0,1-.283-4.27c.624-10.276,4.109-20.108,7.108-29.838a200.557,200.557,0,0,1,9.512-26.245c.844-1.681,1.815-3.282,2.809-4.858l1.5-2.351a5.227,5.227,0,0,1,4.9-2.841,8.941,8.941,0,0,1,3.2,1.074c-2.694,3.385-4.174,7.552-5.475,11.645-1.1,3.964-3.334,7.818-3.167,11.985l-.364-.357c5.037.241,10.05.7,15.064.969,6.33.166,12.489,1.64,18.722,2.42,3.481.548,3.841-.816,4.869-3.664a90.577,90.577,0,0,1,4.322-10.471c.984-2.362,1.622-4.942,3.551-6.816a8.562,8.562,0,0,1,3.559-1.078,16.856,16.856,0,0,1,4.41.071,4.876,4.876,0,0,0-1.756,2.743c-4.792,11.141-11.337,22.37-10.8,34.852.73,15.215,15.529,17.571,27.83,14.846" transform="translate(-12.492 -27.107)"/>
              <g id="Grupo_1101446" data-name="Grupo 1101446" transform="translate(51.582 185.285)" opacity="0.5" style="mix-blend-mode: multiply;isolation: isolate">
                <g id="Grupo_1101445" data-name="Grupo 1101445">
                  <g id="Grupo_1101444" data-name="Grupo 1101444" clip-path="url(#clip-path-6)">
                    <path id="Trazado_890591" data-name="Trazado 890591" d="M130.908,243.3l-63.65,59.961,2.767,5.26s8.974,1.265,20.642,2.468A42.659,42.659,0,0,1,92.95,317c.767,2.492-1.15,3.451-.767,5.752.192,1.342,1.15,2.109,2.3,3.068.575.575,3.068,1.917,3.259,2.684.767,2.109-3.451,3.451-4.985,4.026-2.3.959-4.6,2.876-.959,4.026,1.726.575,3.835.192,5.56.383,1.534.192,5.177,1.342,4.793,3.451-.383,1.726-3.451.383-4.985.575-1.342,0-5.944.383-5.56,2.109.192,1.534,4.218,1.15,5.368,1.534,1.917.383,4.41,1.342,5.177,3.259.959,2.3-.959,4.41-3.259,4.6l3.643,2.109c.959,1.726,3.451,4.985,4.985,2.3.959-1.726,1.023-7.669.639-9.587-.959-4.41-2.556-5.5-1.406-10.1.767-2.493,2.058-4.1,1.292-6.592-.575-2.109-.668-4.976-1.243-7.085-.383-2.109-1.7-2.654-2.084-4.763a46.182,46.182,0,0,0-1.787-6.64c13.987,1.112,28.711,1.619,35.918-.228l1.647-70.3Z" transform="translate(-67.258 -241.594)" fill="#878fad"/>
                  </g>
                </g>
              </g>
              <path id="Trazado_890592" data-name="Trazado 890592" d="M39.857,227.3s-.607,53.152,1.438,68.49c0,0,32.1,9.2,84.56,7.158l2.486-76.693Z" transform="translate(-9.27 -52.734)" fill="#f9f9f7"/>
              <path id="Trazado_890593" data-name="Trazado 890593" d="M39.78,227.18q0,17.134.338,34.262c.329,11.386.229,22.857,1.48,34.177l-.275-.318a194.912,194.912,0,0,0,20.824,4.076,330.944,330.944,0,0,0,42.357,3.293c6.951.147,14.319-.017,21.257-.225-.986,2.232,2.4-76.768,2.118-76.321l.388.4c-25.634.449-63.151.573-88.489.66m0,0c25.121-.642,63.025-1.137,88.479-1.427l.4-.005-.013.4-2.486,76.693-.012.362c-3.668.084-7.336.222-11,.268-10.561.108-21.413-.206-31.932-.993-14.162-1.174-28.3-2.9-42.1-6.44l-.245-.064-.03-.253c-.671-5.708-.877-11.42-1.087-17.132-.556-17.132-.249-34.277.03-51.409" transform="translate(-9.192 -52.616)"/>
              <path id="Trazado_890594" data-name="Trazado 890594" d="M146.33,151.754c.264,2.27-.021,4.779,1.605,6.572a10,10,0,0,0,5.808,3.526,7.861,7.861,0,0,1-7.358-4.67c-.654-1.76-.282-3.654-.055-5.428" transform="translate(-34.033 -35.37)"/>
              <g id="Grupo_1101449" data-name="Grupo 1101449" transform="translate(30.492 170.588)" opacity="0.5" style="mix-blend-mode: multiply;isolation: isolate">
                <g id="Grupo_1101448" data-name="Grupo 1101448">
                  <g id="Grupo_1101447" data-name="Grupo 1101447" clip-path="url(#clip-path-7)">
                    <path id="Trazado_890595" data-name="Trazado 890595" d="M39.758,241.979c0,3.324.255,6.647.255,9.97h-.255c.767,4.6,12.782,8.692,17.128,10.737,7.414,3.835,14.316,6.647,22.752,6.135a54.019,54.019,0,0,0,21.729-5.879c3.324-2.045,4.091-3.579,7.67-3.068,3.067.511,6.646,1.278,9.714,1.022,5.88-.767,10.225-6.391,11.759-11.759,1.023-3.068.512-5.113,2.812-7.158,2.3-1.789,5.624-2.556,7.925-4.6,2.045-1.789,12.015-11.5,8.181-14.315-4.346-3.324-16.617,7.413-19.173,10.481A49.738,49.738,0,0,1,113.383,247.6c-3.068,1.534-5.624,2.812-8.692,1.022-3.068-1.534-4.346-3.323-7.925-3.579C89.1,244.28,81.427,246.07,73.5,246.07c-7.158,0-15.338-3.324-22.241-5.368-2.3-.767-8.948-2.045-10.482-3.579Z" transform="translate(-39.758 -222.431)" fill="#878fad"/>
                  </g>
                </g>
              </g>
              <path id="Trazado_890596" data-name="Trazado 890596" d="M150.925,141.211c.639,3.835,2.94,8.053,4.857,11.376,1.407,2.557,2.557,5.241,3.707,7.8s2.812,5.368,3.323,8.053a36.14,36.14,0,0,1,10.992,1.917c3.579,1.022,7.414,1.534,10.865,2.684,1.662.639,2.812,1.789,4.09.128,1.407-1.662,2.173-4.218,2.812-6.263.512-2.045.512-3.707-1.278-5.113-1.534-1.15-3.962-1.534-4.985-3.323-1.917-3.451,1.662-7.414-2.045-10.482-1.662-1.278-3.579-1.278-5.113-2.812a23.942,23.942,0,0,1-3.451-5.113c-3.323-6.391-5.752-12.4-11.5-17.128-2.556-2.045-6.263-4.346-9.587-4.346" transform="translate(-35.177 -27.64)" fill="#d35050"/>
              <path id="Trazado_890597" data-name="Trazado 890597" d="M150.925,141.211c.985,4.937,3.987,9.05,6.313,13.411,1.167,2.207,2.071,4.542,3.141,6.758a30.509,30.509,0,0,1,2.809,6.984l-.39-.311c4.29-.1,8.416,1.14,12.39,2.275,3.029.767,6.162,1.259,9.166,2.207,1.057.278,1.99.992,2.837,1.1a1.247,1.247,0,0,0,1.071-.473,11.89,11.89,0,0,0,2.157-3.969c1.052-2.86,2.154-6.106-1.337-7.687-1.357-.7-3.115-1.272-4.013-2.7-2.485-4.527,2.729-9.224-4.446-11.729-3.187-.962-4.825-4.313-6.334-6.971l-2.848-5.592a40.06,40.06,0,0,0-7.078-10.144c-2.948-2.789-6.563-5.49-10.755-5.78,4.245.094,8.034,2.66,11.16,5.349,3.213,2.8,5.415,6.523,7.353,10.219,1.7,3.2,3.788,8.093,6.25,10.7,1.444,1.544,3.81,1.574,5.384,3.075a4.866,4.866,0,0,1,1.585,2.921c.4,2.558-1.017,5.227.377,7.548,1.5,2.179,4.957,2.071,6.143,4.694.745,1.614.279,3.323-.216,4.862a15.36,15.36,0,0,1-2.825,5.734c-.906,1.078-2.246.736-3.3.153-3.334-1.481-7-1.815-10.52-2.767-3.977-1.105-8.021-2.373-12.174-2.251l-.327.01-.064-.321a30.015,30.015,0,0,0-2.747-6.8l-3.09-6.777c-2.116-4.46-4.931-8.756-5.674-13.726" transform="translate(-35.177 -27.64)"/>
              <path id="Trazado_890598" data-name="Trazado 890598" d="M163.555,187.231c-1.023-.639-.926-2.953-.488-4.295.662-2.026,4.163-4.113,5.953-2.963,3.621-6.735,7.286-2.173,10.354-1.917a25.231,25.231,0,0,1,10.481,3.323,10.233,10.233,0,0,1,6.263,10.226,26.243,26.243,0,0,1-1.15,5.5,6.88,6.88,0,0,0-.383,4.218c.639,3.707-.895,9.587-4.73,10.737-4.09,1.278-4.09-4.73-4.6-7.669-1.15-7.158-5.879-14.06-12.526-17.128a17.172,17.172,0,0,0-7.03-1.662Z" transform="translate(-37.934 -41.093)" fill="#e87c7c"/>
              <path id="Trazado_890599" data-name="Trazado 890599" d="M163.528,187.115c-1.206-.976-.938-2.887-.643-4.243.706-2.245,3.993-4.5,6.3-3.311l-.5.13c.926-1.867,2.528-3.918,4.858-3.878,2.283.038,4.021,1.573,5.885,1.748a21.648,21.648,0,0,1,6.092,1.321,42.33,42.33,0,0,1,5.617,2.657c6.473,3.778,6.017,10.585,3.8,16.791-.455,2,.446,4.042.065,6.066a11.747,11.747,0,0,1-2.212,5.884c-1.242,1.658-4.073,3.18-5.865,1.46-1.509-1.693-1.548-3.942-1.877-6.013a23.639,23.639,0,0,0-8.352-15.617,18.552,18.552,0,0,0-11-4.592l-2.168,1.6m0,0,2.114-1.669a18.454,18.454,0,0,1,11.532,4.075,24.348,24.348,0,0,1,8.632,16.108c.289,1.871.378,4.134,1.654,5.563,1.413,1.328,3.721-.059,4.726-1.39a11.006,11.006,0,0,0,2.051-5.49c.367-2.065-.565-4.127-.048-6.166,2.075-5.894,2.732-12.35-3.447-15.948-3.507-1.95-7.312-3.647-11.375-3.871-2.115-.212-3.778-1.723-5.828-1.746-2.161-.023-3.449,2.093-4.435,3.78-1.571-1.279-4.013.068-5.228,1.38-1.087,1.084-1.64,4.285-.349,5.375" transform="translate(-37.906 -40.978)"/>
              <path id="Trazado_890600" data-name="Trazado 890600" d="M146.68,212.065c1.917-2.812,2.684-6.135,4.218-9.075,2.045-4.09,4.985-7.669,7.158-11.631,3.578-6.647,13.421-.512,16.872,3.451a21.633,21.633,0,0,1,5.112,9.714c.512,2.3,2.173,5.752,1.79,8.181-.256,1.534-2.684,2.173-4.091,2.94-2.045,1.022-3.962,2.045-6.007,2.94a86.49,86.49,0,0,0-11.5,6.647c-1.022.639-16.2,8.24-17.1,7.6Z" transform="translate(-33.361 -43.915)" fill="#ffc1a7"/>
              <path id="Trazado_890601" data-name="Trazado 890601" d="M146.558,211.951a30.626,30.626,0,0,0,2.7-6.1c1.436-4.264,4.034-8.026,6.5-11.729,1.347-1.847,1.992-4.215,4.075-5.443,2.088-1.188,4.666-.8,6.81-.011a22.344,22.344,0,0,1,13.777,16.155c.647,2.692,2.317,5.551,1.5,8.375-.618,1.15-1.8,1.575-2.867,2.085-3.924,2-8.1,3.792-11.955,5.947-2.445,1.369-4.735,2.925-7.122,4.409-.962.521-3.49,1.776-4.493,2.278-3.015,1.476-6.043,2.921-9.139,4.226a12.38,12.38,0,0,1-3.112.98.7.7,0,0,1-.423-.108l-.191-.113.045-.241Zm0,0-3.191,20.827-.146-.354c4.849-1.549,10.123-4.356,14.906-6.693a24.451,24.451,0,0,0,2.864-1.648,78.6,78.6,0,0,1,11.729-6.538c2.018-.939,3.947-2.019,6.012-2.964.969-.474,2.3-.923,2.591-2.02.286-2.61-1.01-5.052-1.648-7.542a21.585,21.585,0,0,0-13.3-15.632c-1.97-.716-4.263-1.107-6.163-.045-1.875,1.117-2.552,3.5-3.813,5.194l-3.664,5.595c-2.624,3.64-3.651,8.134-6.178,11.821" transform="translate(-33.239 -43.8)"/>
              <path id="Trazado_890602" data-name="Trazado 890602" d="M168.591,180.75c3.065-.192,5.832,1.542,8.181,3.323-2.9-.859-5.282-2.455-8.181-3.323" transform="translate(-39.294 -42.125)"/>
              <path id="Trazado_890603" data-name="Trazado 890603" d="M192.758,192.42a16.422,16.422,0,0,1,7.254,6.1c1.727,2.818,1.638,6.214,1.437,9.371-.4-3.049-.438-6.314-2.093-8.975a23.185,23.185,0,0,0-6.6-6.492" transform="translate(-44.927 -44.848)"/>
              <path id="Trazado_890604" data-name="Trazado 890604" d="M150.252,213.858c1.848-4.127,10.888-.446,12.855,2.3-1.111-.44-2.208-.768-3.292-1.141a43.931,43.931,0,0,0-6.481-1.769,3.623,3.623,0,0,0-3.083.61" transform="translate(-35.02 -49.414)"/>
              <path id="Trazado_890605" data-name="Trazado 890605" d="M152.529,207.28c4.148-4.154,11.627-1.607,14.579,2.812a37.373,37.373,0,0,0-3.5-1.825c-3.5-1.555-7.364-2.457-11.074-.987" transform="translate(-35.551 -47.821)"/>
              <path id="Trazado_890606" data-name="Trazado 890606" d="M156.617,201.069c.82-1.532,2.955-1.614,4.483-1.7,4.69-.082,10.488,1.417,12.761,5.921a13.605,13.605,0,0,0-3.9-2.508,31.607,31.607,0,0,0-8.916-2.222c-1.487-.1-3.166-.5-4.431.512" transform="translate(-36.504 -46.466)"/>
              <path id="Trazado_890607" data-name="Trazado 890607" d="M160.844,195.006c.187-1.681,2.373-1.95,3.719-1.907a18.646,18.646,0,0,1,10.011,3.76,5.484,5.484,0,0,1,1.476,1.6,9.378,9.378,0,0,0-1.861-.95c-1.906-.8-3.869-1.5-5.822-2.143-1.887-.483-6.237-2.38-7.523-.358" transform="translate(-37.489 -45.006)"/>
              <path id="Trazado_890608" data-name="Trazado 890608" d="M8.258,230.17c0,4.218,3.259,9.2,6.711,11.7,4.218,3.068,11.312,3.451,13.421-1.917Z" transform="translate(-1.925 -53.647)" fill="#ffc1a7"/>
              <path id="Trazado_890609" data-name="Trazado 890609" d="M8.256,230.17a14.707,14.707,0,0,0,2.647,6.7A16.491,16.491,0,0,0,15.872,242c3.787,2.42,10.281,2.677,12.159-2.2l.189.485-9.877-4.852c-3.391-1.627-6.736-3.494-10.087-5.272m0,0c2.967,1.268,7.175,3.085,10.045,4.506L28.555,239.6l.321.155c-1.867,5.628-9.117,5.656-13.406,2.9-4.127-2.731-7.395-7.413-7.214-12.487" transform="translate(-1.923 -53.647)"/>
              <path id="Trazado_890610" data-name="Trazado 890610" d="M148.612,228.92c3.068,6.519-2.876,16.489-7.478,20.707-3.068,2.876-16.3,3.259-20.515,1.917-4.218-1.15-6.519-4.6-7.861-8.436" transform="translate(-26.281 -53.355)" fill="#ffc1a7"/>
              <path id="Trazado_890611" data-name="Trazado 890611" d="M148.612,228.92c3.557,6.755-2.177,15.934-6.951,20.737-3.588,3.538-18.063,3.8-22.581,1.747-3.42-1.39-5.378-4.949-6.322-8.3,1.666,4.329,5.151,8.017,9.916,8.482,4.6.558,14.945.654,18.457-2.488,4.773-4.752,9.717-13.33,7.481-20.182" transform="translate(-26.281 -53.355)"/>
              <path id="Trazado_890612" data-name="Trazado 890612" d="M6.494,206.816a7.809,7.809,0,0,1,1.884-6.885c1.169-1.169,2.988-2.144,4.546-1.169a7.089,7.089,0,0,1,3.378,5.78c0,3.7-4.027,5.066-7.145,4.157Z" transform="translate(-1.466 -46.234)" fill="#ffc1a7"/>
              <path id="Trazado_890613" data-name="Trazado 890613" d="M15.665,215.957c9.887,4.269,19.8,8.63,29.779,12.675,9.83,3.983,20.577,8.136,31.393,6.558,9.626-1.4,18.441-6.188,26.042-12.081A107.731,107.731,0,0,0,114.42,214.4a28.067,28.067,0,0,0-3.226-2.173C92.214,201.3,71.7,194.4,51.183,186.92l-15.148,1.534c-9.394,4.218-18.981,8.053-28.184,12.654-3.3,1.591-5.276,3.42-6.273,6.028,3.1,4.21,11.2,7.577,14.087,8.821" transform="translate(-0.368 -43.566)" fill="#996441"/>
              <path id="Trazado_890614" data-name="Trazado 890614" d="M15.354,216.173c7.511,3.243,15.006,6.526,22.551,9.692,7.208,3.025,14.463,6.224,22.035,8.228a47.682,47.682,0,0,0,11.242,1.7A38.109,38.109,0,0,0,82.09,234.33a59.19,59.19,0,0,0,18.72-9.4c.818-.594,1.6-1.247,2.443-1.8q1.072-.709,2.127-1.443c2.5-1.733,4.955-3.541,7.3-5.485q.966-.8,1.9-1.644a.385.385,0,0,0,0-.543,50.474,50.474,0,0,0-7.473-4.558q-3.95-2.134-8-4.08c-5.276-2.546-10.654-4.876-16.085-7.072-5.471-2.213-11-4.288-16.538-6.316q-4.167-1.527-8.343-3.029l-4.28-1.548-1.992-.723a2.912,2.912,0,0,0-.845-.263,16.658,16.658,0,0,0-2.176.22l-4.181.423-7.96.806c-.242.025-.492.035-.732.074a1.8,1.8,0,0,0-.445.146c-.73.324-1.457.65-2.187.973-2.788,1.231-5.587,2.437-8.384,3.647-5.656,2.448-11.308,4.917-16.831,7.655a15.479,15.479,0,0,0-5.659,4.088,9.245,9.245,0,0,0-.778,1.17,3.557,3.557,0,0,0-.61,1.393c.01.345.476.742.693.988A13.837,13.837,0,0,0,2.856,209.1c3.043,2.75,6.877,4.605,10.6,6.252.631.279,1.266.551,1.9.824.449.193.84-.467.387-.662-2.312-1-4.614-2.018-6.826-3.224-2.584-1.408-5.333-3.064-7.123-5.46l.039.3c1.594-4.073,5.85-5.719,9.516-7.468,4.616-2.2,9.3-4.246,14-6.276,2.331-1.009,4.663-2.014,6.989-3.034q.9-.393,1.793-.789a18.467,18.467,0,0,1,1.788-.8,1.705,1.705,0,0,1,.324-.069l5.753-.583,7.211-.73a11.958,11.958,0,0,1,1.768-.179c.031,0,.064-.014.1-.01a4.021,4.021,0,0,1,.7.276l1,.362q1.792.651,3.585,1.3C65.665,192.495,75,195.843,84.18,199.6a205.755,205.755,0,0,1,26.8,12.9,27.113,27.113,0,0,1,3.052,2.057v-.543a83.162,83.162,0,0,1-7.52,5.941c-1.311.936-2.673,1.8-3.984,2.737-1.419,1.012-2.785,2.09-4.232,3.065s-2.908,1.888-4.414,2.746a54.609,54.609,0,0,1-9.521,4.325,40.026,40.026,0,0,1-10.571,2.154,41.642,41.642,0,0,1-11.3-1.057c-7.463-1.66-14.565-4.721-21.6-7.64-7.5-3.11-14.938-6.355-22.387-9.58q-1.38-.6-2.762-1.194c-.449-.194-.84.466-.387.662" transform="translate(-0.251 -43.45)"/>
              <g id="Grupo_1101452" data-name="Grupo 1101452" transform="translate(17.761 155.499)" opacity="0.5" style="mix-blend-mode: multiply;isolation: isolate">
                <g id="Grupo_1101451" data-name="Grupo 1101451">
                  <g id="Grupo_1101450" data-name="Grupo 1101450" clip-path="url(#clip-path-8)">
                    <path id="Trazado_890615" data-name="Trazado 890615" d="M38.957,202.756a6.391,6.391,0,0,1-3.259.383,19.923,19.923,0,0,0-6.709,1.341c-3.437,1.146-7.478,3.627-5.133,7.555C30.695,223.5,45.063,225.977,56.4,230.557c9.97,4.026,18.214,4.41,28.568,1.917,4.985-1.342,10.737-3.068,13.038-8.053,3.068-6.327-4.793-8.053-9.2-9.778a33.646,33.646,0,0,1-4.6-2.109Z" transform="translate(-23.158 -202.756)" fill="#878fad"/>
                  </g>
                </g>
              </g>
              <path id="Trazado_890616" data-name="Trazado 890616" d="M114.169,220.546a107.844,107.844,0,0,1-11.543,8.708c-7.6,5.893-16.416,10.677-26.041,12.081-10.816,1.578-21.563-2.575-31.393-6.557-9.982-4.045-19.892-8.406-29.778-12.676-2.883-1.244-10.988-4.61-14.087-8.821a14.692,14.692,0,0,0-.821,5.284c0,2.3-.192,5.944,1.534,7.861,1.534,2.109,48.125,25.884,69.407,26.842,5.528.248,11.12-1.726,16.3-3.643,6.519-2.492,26.075-13.038,27.8-18.406,1.467-4.7,1.654-8.248-1.376-10.673" transform="translate(-0.116 -49.71)" fill="#754a2d"/>
              <path id="Trazado_890617" data-name="Trazado 890617" d="M113.782,220.162a88.432,88.432,0,0,1-8.957,6.952c-.784.544-1.579,1.069-2.368,1.6-1.313.889-2.542,1.907-3.851,2.806-7,4.816-15.081,8.653-23.631,9.5-9.278.915-18.361-2.183-26.862-5.547C39.061,231.889,30.13,228,21.2,224.127c-3.191-1.383-6.42-2.7-9.564-4.189a34.179,34.179,0,0,1-8.563-5.307,12.091,12.091,0,0,1-1.529-1.658.39.39,0,0,0-.7.092,15.541,15.541,0,0,0-.834,5.386,29.971,29.971,0,0,0,.186,4.582,5.877,5.877,0,0,0,2.055,4.054,53.2,53.2,0,0,0,6.386,3.672c3.884,2.05,7.831,3.983,11.807,5.849q7.345,3.447,14.848,6.543c5.214,2.146,10.487,4.155,15.845,5.912a104.154,104.154,0,0,0,14.5,3.809,39.974,39.974,0,0,0,6.443.686A37.25,37.25,0,0,0,84.5,251.049a89.046,89.046,0,0,0,13.761-6.283,84.544,84.544,0,0,0,13.555-8.82,14.342,14.342,0,0,0,3.677-4.014,13.75,13.75,0,0,0,1.134-3.99,10.129,10.129,0,0,0-.059-4.457,6.6,6.6,0,0,0-2.239-3.323c-.379-.31-.925.23-.542.542a5.937,5.937,0,0,1,2.17,3.531,11.387,11.387,0,0,1-.323,4.723,9.494,9.494,0,0,1-1.091,3.072,11.757,11.757,0,0,1-1.634,1.905,40.4,40.4,0,0,1-5.477,4.346c-2.254,1.55-4.587,2.986-6.955,4.355a98.8,98.8,0,0,1-12.488,6.326,57.935,57.935,0,0,1-11.117,3.4,28.323,28.323,0,0,1-8.738.126,83.786,83.786,0,0,1-13.634-3.161c-5.172-1.575-10.259-3.426-15.286-5.412s-10.022-4.131-14.954-6.38q-6.314-2.879-12.508-6.02c-2.675-1.364-5.358-2.745-7.922-4.312-.348-.213-.695-.429-1.031-.662a3.142,3.142,0,0,1-.521-.406c-.016-.015-.1-.1-.041-.041.073.078-.031-.041-.038-.048-.073-.087-.147-.172-.215-.264a4.392,4.392,0,0,1-.314-.5,7.082,7.082,0,0,1-.695-2.206,26.715,26.715,0,0,1-.2-4.553,15.025,15.025,0,0,1,.808-5.247l-.7.091C2.848,216,5.837,217.8,8.7,219.321c2.749,1.465,5.626,2.659,8.483,3.9,9.136,3.954,18.257,7.945,27.481,11.689,8.6,3.493,17.584,7.051,27.013,7.042,8.725-.008,17.207-3.387,24.526-7.934,2.61-1.621,5.007-3.524,7.549-5.237,2.843-1.916,5.628-3.931,8.281-6.1q1.17-.958,2.295-1.971c.367-.332-.177-.873-.542-.542" transform="translate(0 -49.597)"/>
              <path id="Trazado_890618" data-name="Trazado 890618" d="M147.551,219.974c-2.3-3.643-9.395-6.711-13.421-5.177-3.835,1.534-9.011,4.985-8.628,9.587.575,4.793,7.478,1.917,10.353.383a18.247,18.247,0,0,0,4.026-3.643,12.618,12.618,0,0,0,1.726-1.726" transform="translate(-29.247 -49.97)" fill="#ffc1a7"/>
              <path id="Trazado_890619" data-name="Trazado 890619" d="M147.434,219.87c-2.657-3.22-8.553-5.881-12.7-4.992a16.892,16.892,0,0,0-7.1,4.519,6.482,6.482,0,0,0-1.84,5c.726,4.755,9.695.458,11.718-1.536a27.378,27.378,0,0,0,2.173-2,16.093,16.093,0,0,0,1.769-1.528l.118-.119c.042-.011-.051.054-.081.083l.058-.064c0-.015.085-.071.046-.01-.172.254-.561.7-.755.942-1.608,1.66-2.915,3.81-5.26,5.016-2.614,1.227-7.665,3.663-9.965.844-1.449-2.3-.183-5.353,1.442-7.131a17.57,17.57,0,0,1,7.488-4.757,12.95,12.95,0,0,1,12.89,5.734" transform="translate(-29.129 -49.866)"/>
              <path id="Trazado_890620" data-name="Trazado 890620" d="M6.172,202.977c-.383-2.493-.575-4.6.767-7.094,1.534-2.876,3.835-4.41,7.094-4.218,3.451.192,5.177,3.259,6.711,5.944,2.493,4.218,2.493,11.887-4.026,9.97-2.684-.767-7.094-5.752-7.094-8.82" transform="translate(-1.373 -44.669)" fill="#ffc1a7"/>
              <path id="Trazado_890621" data-name="Trazado 890621" d="M6.112,202.855a10.73,10.73,0,0,1,.059-6.513c1.259-3.177,4.427-5.6,7.94-5.169,2.338.118,4.224,1.836,5.431,3.691,1.865,2.734,3.42,5.888,3,9.29-.342,3.567-3.343,4.773-6.469,3.5a12.631,12.631,0,0,1-5.692-5.869,6.744,6.744,0,0,1-.818-3.144c.292,2.142,1.728,3.9,3.17,5.411a11.5,11.5,0,0,0,3.634,2.894c2.643,1.063,5.13.2,5.413-2.883a10.777,10.777,0,0,0-1.231-6.025c-1.051-1.842-2.09-3.788-3.719-5.035a6.17,6.17,0,0,0-5.8-.676,7.668,7.668,0,0,0-4.151,4.325,10.916,10.916,0,0,0-.768,6.207" transform="translate(-1.313 -44.546)"/>
              <path id="Trazado_890622" data-name="Trazado 890622" d="M70.414,209.2c-1.917-11.12-.383-22.241,3.451-32.786,1.534-4.218,4.218-9.011,8.244-11.12a20.106,20.106,0,0,1,7.988-2.1,22.072,22.072,0,0,0-11.631-1.348c-11.12,1.726-21.666,7.094-31.06,12.846-5.368,3.259-11.12,6.519-13.229,12.846-1.726,5.177-1.15,10.545,0,15.722,1.726,6.519,6.711,8.628,12.463,10.545,4.218,1.342,8.244,3.259,12.463,4.026l17.064,4.026c.646.031,1.282.087,1.909.15-4.154-2.629-6.926-8.027-7.661-12.8" transform="translate(-7.712 -37.662)" fill="#a33e3e"/>
              <path id="Trazado_890623" data-name="Trazado 890623" d="M70.3,209.083a63.172,63.172,0,0,1,3.657-34.363c3.021-7.424,7.8-11.592,16.016-12.029l-.133.739c-13.045-5.62-33.243,5.844-44.42,12.728-4.435,2.7-9.066,5.931-10.85,11.007-1.821,4.992-1.319,10.489-.195,15.6a13.307,13.307,0,0,0,1.435,3.6c2.766,4.721,8.439,6.079,13.289,7.8a68.73,68.73,0,0,0,11.426,3.52c3.9.884,11.719,2.808,15.581,3.832-.193-.018,1.907.183,1.876.182l-.124.359c-4.274-2.95-6.719-7.962-7.557-12.969m0,0c.882,5.212,3.729,10.416,8.43,13.045-.479-.046-2.174-.116-2.689-.16-.026.025-7.844-1.71-7.877-1.7-2.769-.677-9.041-2.1-11.725-2.758-2.282-.581-5.362-1.846-7.6-2.632-4.97-1.74-10.828-3.217-13.687-8.127a14.088,14.088,0,0,1-1.523-3.818c-1.155-5.247-1.66-10.877.222-16.034,1.841-5.26,6.624-8.638,11.169-11.4,9.089-5.623,18.649-10.864,29.14-13.348a32.687,32.687,0,0,1,8.021-1.065,24.582,24.582,0,0,1,9.63,2.308L90,163.457c-11.163.517-14.856,8.549-17.542,18.122-2.6,8.889-3.741,18.318-2.154,27.5" transform="translate(-7.597 -37.545)"/>
              <path id="Trazado_890624" data-name="Trazado 890624" d="M113.91,179.2a20.672,20.672,0,0,0-12.719-15.524,20.106,20.106,0,0,0-7.988,2.1c-4.026,2.109-6.711,6.9-8.244,11.12-3.835,10.545-5.368,21.666-3.451,32.786.735,4.777,3.507,10.176,7.661,12.8,3.286.333,6.345.884,9.4-.726A24.992,24.992,0,0,0,109.308,211.6c5.177-8.82,6.327-22.433,4.6-32.4" transform="translate(-18.805 -38.149)" fill="#fcc"/>
              <path id="Trazado_890625" data-name="Trazado 890625" d="M113.79,179.083c-1.2-6.923-6.411-12.632-12.864-15.164a21,21,0,0,0-8.146,2.36c-7.027,4.447-9.393,15.5-10.939,23.216a59.944,59.944,0,0,0-.431,17.6c.495,5.919,3.257,11.842,7.678,14.893,2.4.241,4.8.63,7.076.1,6.87-2.105,11.908-8.17,14.578-14.658a54.033,54.033,0,0,0,3.283-13.941,52.556,52.556,0,0,0-.235-14.406m0,0c1.548,9.5,1.356,19.616-2.338,28.639-2.745,6.686-8,12.971-15.115,15.115a21.12,21.12,0,0,1-7.493-.139c-9.978-6.61-9.349-22.8-7.759-33.33,1.591-7.951,4.007-19.149,11.308-23.75a19.971,19.971,0,0,1,8.746-2.45,21.05,21.05,0,0,1,12.652,15.915" transform="translate(-18.686 -38.03)"/>
              <path id="Trazado_890626" data-name="Trazado 890626" d="M102.782,218.332a6.758,6.758,0,0,1-5.924,2c-2.932-.308-6.143-3.495-7.159-6.188-3.835-10.162-3.643-25.309,1.342-34.9,2.3-4.218,6.519-7.669,11.5-7.094,5.177.575,8.053,4.985,8.82,9.778a58.734,58.734,0,0,1,.383,15.338c-.645,5.6-3.752,16.523-8.966,21.065" transform="translate(-20.286 -40.109)" fill="#e87c7c"/>
              <path id="Trazado_890627" data-name="Trazado 890627" d="M102.675,218.221c-4.139,4.135-10.058,1.79-12.789-2.725a23.737,23.737,0,0,1-1.9-5.36,51.714,51.714,0,0,1-1.356-9.285c-.357-8.85,1.028-22.331,9.13-27.56a10.01,10.01,0,0,1,10.979-.075c3.243,2.186,4.722,6.209,5.094,9.919a50.444,50.444,0,0,1-1.644,22.295c-1.663,4.664-3.828,9.382-7.511,12.792m0,0c3.673-3.421,5.376-8.336,6.78-13.021a44.956,44.956,0,0,0,2.134-14.576c-.229-4.791-.094-10.072-2.791-14.23-5-7.108-13.933-3.993-17.483,2.848-3.347,6.609-4.244,14.229-3.923,21.568a50.917,50.917,0,0,0,1.334,9.139,24.278,24.278,0,0,0,1.821,5.156c2.473,4.5,7.925,7.146,12.127,3.116" transform="translate(-20.179 -39.999)"/>
              <path id="Trazado_890628" data-name="Trazado 890628" d="M106.9,201.856c0,4.659-2.1,8.436-4.694,8.436s-4.694-3.777-4.694-8.436,2.1-8.436,4.694-8.436,4.694,3.777,4.694,8.436" transform="translate(-22.729 -45.081)" fill="#fcc"/>
              <path id="Trazado_890629" data-name="Trazado 890629" d="M106.779,201.742a16.152,16.152,0,0,1-.62,5.286c-1.082,2.841-4.119,4.965-6.661,2.32-3.362-3.8-3.363-11.406,0-15.211,2.538-2.641,5.582-.528,6.658,2.321a16.4,16.4,0,0,1,.623,5.284m0,0a11.793,11.793,0,0,0-2.656-7.068,2.648,2.648,0,0,0-4.077,0c-1.721,1.872-2.233,4.574-2.272,7.068.038,2.494.551,5.2,2.272,7.068a2.648,2.648,0,0,0,4.077,0,11.867,11.867,0,0,0,2.656-7.068" transform="translate(-22.603 -44.967)"/>
              <path id="Trazado_890630" data-name="Trazado 890630" d="M78.44,164.38c-7.554,8.53-10.49,17.2-11.323,28.459-.15,1.489-.206,2.984-.3,4.482C66.122,184.9,69.02,173.029,78.44,164.38" transform="translate(-15.55 -38.313)"/>
              <path id="Trazado_890631" data-name="Trazado 890631" d="M63.139,170.794c-7.056,7.942-8.971,13.367-9.2,23.927-.074,1.264-.1,2.531-.19,3.8-.851-11.844.151-19.431,9.39-27.724" transform="translate(-12.471 -39.808)"/>
              <path id="Trazado_890632" data-name="Trazado 890632" d="M49.352,179.54c-1.064.446-1.331,1.6-1.905,2.506-1.758,3.713-2.361,8.051-2.688,12.194-.106,1.4-.2,2.815-.326,4.23-.129-1.413-.2-2.83-.2-4.25-.027-4.264.633-8.7,2.845-12.415.607-.821,1.155-2.04,2.27-2.265" transform="translate(-10.31 -41.846)"/>
              <path id="Trazado_890633" data-name="Trazado 890633" d="M41.938,186.342a16.248,16.248,0,0,0,6.409,10.881c-4.035-1.554-7.079-6.582-6.409-10.881" transform="translate(-9.753 -43.432)"/>
              <path id="Trazado_890634" data-name="Trazado 890634" d="M52.627,180.512c.339,4.816,4.231,8.114,7.3,11.477-3.745-2.447-8.108-6.566-7.3-11.477" transform="translate(-12.243 -42.073)"/>
              <path id="Trazado_890635" data-name="Trazado 890635" d="M68.178,173.9c.355,5.3,4.844,8.492,7.9,12.371-3.761-2.993-8.69-6.983-7.9-12.371" transform="translate(-15.871 -40.533)"/>
              <path id="Trazado_890636" data-name="Trazado 890636" d="M99.041,128.628c-.383-.959-1.342-3.259-2.492-3.643-3.068-.959-6.519,6.327-9.587,4.985-2.684-1.15-3.835-10.545-4.218-13.229-.575-5.177,4.218-8.82,8.436-11.12a36.778,36.778,0,0,1,14.763-5.177c5.752-.575,11.7-1.342,17.448,0s24.542,4.793,21.09,13.613c-1.342,4.026-5.944,8.053-8.82,10.737-3.259,3.068-7.478,5.368-11.312,7.286-2.684,1.534-2.876,1.342-4.985-.767-1.342-1.342-3.259-3.259-4.985-3.835-3.643-1.15-5.944,1.534-8.82,2.109" transform="translate(-19.274 -23.237)" fill="#d35050"/>
              <path id="Trazado_890637" data-name="Trazado 890637" d="M98.926,128.5c-3.338-8.434-6.27.26-10.722,1.729-4.385,1.009-5.253-9.659-5.819-12.594-1.451-7.269,6.2-11.425,11.673-14.184,5.821-3.062,12.47-3.773,18.942-4.164,6.522-.6,12.953,1.092,19.2,2.837a34.672,34.672,0,0,1,8.995,3.831c7.863,4.91,2.235,11.732-2.608,16.383a46.625,46.625,0,0,1-7.5,6.235,71.732,71.732,0,0,1-6.372,3.569c-1.056.5-2.375,1.607-3.68,1.008-2.93-1.933-4.822-6.017-8.764-5.931-2.461.029-4.454,1.788-6.828,2.241,2.373-.554,4.309-2.405,6.817-2.529,3.943-.269,6.172,3.666,9.064,5.561a1.217,1.217,0,0,0,.928,0c1.376-.564,2.88-1.466,4.257-2.146a44.2,44.2,0,0,0,11.544-8.562c4.369-4.281,10.132-10.637,2.717-15.192a33.959,33.959,0,0,0-8.788-3.735c-6.165-1.714-12.465-3.4-18.94-2.807-6.363.39-12.915,1.069-18.647,4.087-5.16,2.658-12.623,6.464-11.253,13.39.444,2.43,1.535,12.936,4.931,12.131,2.28-.681,3.742-2.95,5.711-4.218,2.975-2.143,4.194.576,5.14,3.059" transform="translate(-19.16 -23.114)"/>
              <path id="Trazado_890638" data-name="Trazado 890638" d="M100.535,106.66c-2.109.959-3.451,1.534-3.835,4.026a12.962,12.962,0,0,0,1.726,8.82c2.109,3.643,5.56,8.82,10.353,8.436,4.6-.383,9.011-2.876,13.038-4.6,5.177-1.917,24.733-9.778,14.188-17.064-4.026-2.684-10.545-3.068-15.147-3.643a46.217,46.217,0,0,0-13.613,1.15c-1.15.192-4.793,1.15-4.218,1.726Z" transform="translate(-22.494 -23.893)" fill="#ffc1a7"/>
              <path id="Trazado_890639" data-name="Trazado 890639" d="M100.471,106.545a8.5,8.5,0,0,0-2.779,1.7,5.072,5.072,0,0,0-1.022,3.016,14.721,14.721,0,0,0,2.714,9.1c3.2,5.115,6.444,8.616,12.868,6.4A76.588,76.588,0,0,0,121.316,123c5.038-1.974,10.19-4.073,14.381-7.546,4.263-3.524,3.739-7.1-1.114-9.632-3.888-1.93-8.361-2.262-12.637-2.78a33.478,33.478,0,0,0-6.494-.182c-4.026.387-8.231.563-12.055,2-.183.093-.586.289-.414.522l.028.027-.035.015c-.84.364-1.67.75-2.5,1.127m0,0c.791-.339,1.774-.9,2.474-1.132-.232-.284.213-.508.413-.63a37.782,37.782,0,0,1,12.046-2.69,59.191,59.191,0,0,1,13.167,1.064c6.967.986,15.582,6.152,7.625,12.875-4.274,3.547-9.479,5.671-14.587,7.673-4.013,1.749-7.986,3.95-12.424,4.454-4.825.619-8.217-3.769-10.455-7.4a12.918,12.918,0,0,1-1.957-11.152c.528-1.675,2.219-2.42,3.7-3.06" transform="translate(-22.431 -23.779)"/>
              <path id="Trazado_890640" data-name="Trazado 890640" d="M130.258,14.825c.192-1.342,1.342-2.493,2.3-3.643,1.342-1.917,2.493-4.218,3.835-6.135,2.3-3.259,4.985-4.985,9.011-4.41,3.451.575,9.587,5.944,10.929,9.2,1.726,4.026,0,7.669-.383,11.887-.192,2.876.192,7.286-.575,9.587Z" transform="translate(-30.36 -0.123)" fill="#f9f9f7"/>
              <path id="Trazado_890641" data-name="Trazado 890641" d="M130.258,14.7c.17-1.46,1.348-2.667,2.166-3.738,2.418-3.746,3.993-8.686,8.579-10.43,4.694-1.86,9.147,1.5,12.357,4.617a12.9,12.9,0,0,1,3.783,5.764c.926,3.473-.38,6.818-.752,10.2s.275,6.851-.652,10.2l-.149.479-.425-.28c-2.371-1.555-13.7-9.012-15.8-10.4-1.949-1.367-7.1-5-9.109-6.411m0,0c3.655,2.242,9.328,5.641,12.85,8l12.477,8.173-.574.2c.873-3.239.245-6.711.617-10.044.357-3.282,1.65-6.688.773-9.917-.511-2.124-2.024-3.833-3.579-5.412-3.036-2.91-7.147-6.175-11.551-4.444-4.243,1.68-5.91,6.488-8.577,9.9-.937,1.092-2.126,2.083-2.436,3.549" transform="translate(-30.36 0)"/>
              <g id="Grupo_1101455" data-name="Grupo 1101455" transform="translate(110.499 7.291)" opacity="0.5" style="mix-blend-mode: multiply;isolation: isolate">
                <g id="Grupo_1101454" data-name="Grupo 1101454">
                  <g id="Grupo_1101453" data-name="Grupo 1101453" clip-path="url(#clip-path-9)">
                    <path id="Trazado_890642" data-name="Trazado 890642" d="M145.623,23.118c-2.3-4.09-2.812-11.5,4.09-6.9-.512-3.579,1.022-7.925,5.88-6.391,3.835,1.278,4.09,6.135,4.09,9.714,0,3.324.255,6.9-.255,9.97-.256,1.79-.256,3.835-2.3,4.091-1.534.255-3.068-1.534-3.579-2.812Z" transform="translate(-144.081 -9.507)" fill="#878fad"/>
                  </g>
                </g>
              </g>
              <path id="Trazado_890643" data-name="Trazado 890643" d="M139.723,18.375c-.574-5.335.969-11.382,5.177-14.955-3.372,4.336-4.635,9.58-5.177,14.955" transform="translate(-32.539 -0.797)"/>
              <path id="Trazado_890644" data-name="Trazado 890644" d="M122.368,95.44c10.276-.73,13.1-9.92,13.67-12.6.767-4.793,1.726-9.2,2.684-13.8.362-1.737.7-3.475,1.046-5.2-2.114.535-4.486.688-5.072-1.508-1.726-5.944,3.835-12.654,3.835-18.406-4.6,1.534-4.985-4.218-4.026-7.286a15.34,15.34,0,0,1,5.761-7.47,33.148,33.148,0,0,0-12.28-9.211c-7.861-3.259-19.557-3.259-27.418.575-4.6,2.3-6.9,6.711-8.628,11.312-1.917,4.793-3.259,9.587-5.368,14.38-2.684,5.56-6.135,10.162-9.778,15.339-2.876,4.218-1.15,8.053.767,12.463,2.493,5.177,6.711,10.162,10.545,14.38,2.109,2.493,6.135,4.985,7.861,7.669" transform="translate(-17.543 -4.095)" fill="#ffc1a7"/>
              <path id="Trazado_890645" data-name="Trazado 890645" d="M122.258,95.318c6.931-.375,11.991-5.772,13.429-12.321,1-6.469,2.29-12.946,3.6-19.367l.47.448c-1.517.359-3.553.752-4.839-.515-1.681-2.266-1.02-5.455-.377-7.928,1.1-3.968,3.385-7.706,3.5-11.842l.5.364c-4.646,1.629-5.55-3.963-4.654-7.251a15.44,15.44,0,0,1,6.041-8.179l-.071.551A30.777,30.777,0,0,0,118.523,18.02c-6.729-.528-14.124.12-19.86,3.946C93.1,26.3,91.67,33.748,89.227,40.034c-2.472,8.1-7.507,15.013-12.351,21.816-5.151,7.37,6.756,21.224,11.6,26.733,2.179,2.405,5.59,4.62,7.381,7.359-1.88-2.686-5.352-4.8-7.6-7.152a81.441,81.441,0,0,1-9.27-11.377A33.193,33.193,0,0,1,75.4,69.773a9.285,9.285,0,0,1,.83-8.343c3.179-4.59,6.537-9.022,9.11-13.973,3.894-7.425,4.964-16.128,9.843-23.076,3.4-4.74,9.476-6.336,14.98-7.047,11.647-1.388,22.748,2.253,30.287,11.461l.254.312-.325.239c-3.847,2.739-7.2,7.659-5.66,12.5.684,2,2.329,2.109,4.087,1.416l0,.528c-.112,4.312-2.416,8.036-3.53,12.055-.6,2.3-1.195,5.141.188,7.181,1.248,1.126,3.181.506,4.691.161-.518,2.7-1.536,7.55-2.159,10.234-.724,3.208-1.368,6.4-1.972,9.656-1.564,6.584-6.778,11.995-13.765,12.24" transform="translate(-17.433 -3.973)"/>
              <path id="Trazado_890646" data-name="Trazado 890646" d="M162.732,44.559c.088-4.322-1.774-8.4-4.592-11.88a15.339,15.339,0,0,0-5.761,7.471c-.959,3.068-.575,8.82,4.026,7.286,0,5.752-5.56,12.463-3.835,18.406.586,2.2,2.957,2.043,5.072,1.508.574-2.847,1.187-5.665,2.022-8.41,1.342-4.41,2.876-9.587,3.068-14.38" transform="translate(-35.416 -7.617)" fill="#754a2d"/>
              <path id="Trazado_890647" data-name="Trazado 890647" d="M162.99,44.443c.067-4.519-1.92-8.691-4.705-12.151a.382.382,0,0,0-.465-.06c-2.763,2.039-5.316,4.888-6.105,8.325-.466,2.035-.563,4.941,1.028,6.546a3.459,3.459,0,0,0,3.638.586l-.485-.37c-.025,3.559-1.827,6.908-2.975,10.2a19.161,19.161,0,0,0-1.173,5.158,9.713,9.713,0,0,0,.167,2.5,3.557,3.557,0,0,0,.943,2.009c1.263,1.154,3.262.795,4.761.421a.378.378,0,0,0,.268-.268c.627-3.1,1.345-6.166,2.261-9.2a82.566,82.566,0,0,0,2.242-8.686,35.725,35.725,0,0,0,.6-5.01c.021-.493-.745-.492-.767,0a42.551,42.551,0,0,1-1.494,8.863c-.752,2.883-1.716,5.706-2.432,8.6-.429,1.732-.8,3.478-1.15,5.227l.268-.268c-1.21.3-3.029.716-4.053-.26a3.453,3.453,0,0,1-.777-2.029,9.629,9.629,0,0,1-.032-2.372c.334-3.379,1.949-6.506,3.042-9.676a16.453,16.453,0,0,0,1.069-5.207.387.387,0,0,0-.485-.37,2.754,2.754,0,0,1-2.836-.334,4.217,4.217,0,0,1-1.071-2.572,10.479,10.479,0,0,1,2-7.186,16.905,16.905,0,0,1,3.938-3.963l-.465-.06a18.338,18.338,0,0,1,4.48,11.609.384.384,0,0,0,.767,0" transform="translate(-35.291 -7.5)"/>
              <path id="Trazado_890648" data-name="Trazado 890648" d="M157.175,75.949c.192-2.3,2.109-4.41,3.835-5.944,3.451-3.068,6.327-2.876,9.2.383,4.6,4.793,3.259,12.079-2.493,15.338-4.41,2.3-8.82,0-12.463-1.534" transform="translate(-36.187 -15.807)" fill="#ffc1a7"/>
              <path id="Trazado_890649" data-name="Trazado 890649" d="M157.175,75.834c.178-3.694,4.5-8.191,8.212-8.5,2.227-.137,4.1,1.459,5.428,3.055a9.811,9.811,0,0,1,2.256,8.881,10.513,10.513,0,0,1-5.941,7.035c-4.085,1.752-8.317-.287-11.873-2.226,3.69,1.233,7.761,3.056,11.581,1.516a9.759,9.759,0,0,0,5.487-6.507,9.034,9.034,0,0,0-2.093-8.2c-1.217-1.446-2.829-2.9-4.808-2.787-1.955.111-3.586,1.509-4.962,2.83a9,9,0,0,0-3.288,4.9" transform="translate(-36.187 -15.692)"/>
              <path id="Trazado_890650" data-name="Trazado 890650" d="M160.418,82.123c-.512-3.835,7.158-9.715,9.2-5.624" transform="translate(-37.384 -17.506)" fill="#ffc1a7"/>
              <path id="Trazado_890651" data-name="Trazado 890651" d="M160.369,82.01c-1.357-3.3,5.069-8.583,8.188-7.141a2.422,2.422,0,0,1,1.015,1.517,2.286,2.286,0,0,0-1.329-.817c-1.469-.574-3.082.317-4.31,1.185a9.323,9.323,0,0,0-3.564,5.256" transform="translate(-37.335 -17.393)"/>
              <path id="Trazado_890652" data-name="Trazado 890652" d="M94.508,101.17c0,8.053,5.944,10.162,13.229,10.545" transform="translate(-22.027 -23.58)" fill="#ffc1a7"/>
              <path id="Trazado_890653" data-name="Trazado 890653" d="M94.49,101.17c.47,6.659,4.76,9.184,10.862,10.154.782.159,1.574.254,2.368.391-6.922.387-14.011-2.463-13.229-10.545" transform="translate(-22.009 -23.58)"/>
              <path id="Trazado_890654" data-name="Trazado 890654" d="M99.508,101.42c1.917,1.917,4.218,2.3,6.711,2.3" transform="translate(-23.193 -23.638)" fill="#ffc1a7"/>
              <path id="Trazado_890655" data-name="Trazado 890655" d="M99.508,101.42c2.124,1.4,4.265,1.784,6.711,2.3-2.377.617-5.386-.1-6.711-2.3" transform="translate(-23.193 -23.638)"/>
              <path id="Trazado_890656" data-name="Trazado 890656" d="M98.752,87.982c-.255,2.684,2.173,6.519,5.113,6.519a7.66,7.66,0,0,0,5.24-2.812c.512-.639,2.3-4.218,1.789-4.6Z" transform="translate(-23.012 -20.298)" fill="#f9f9f7"/>
              <path id="Trazado_890657" data-name="Trazado 890657" d="M98.735,87.862c.227,2.855,2.8,6.8,6.049,6.022,3.059-.686,5.025-3.457,5.769-6.386a1.454,1.454,0,0,0,.032-.244c.015-.067-.051-.1.063.02l.258.076a119.271,119.271,0,0,1-12.171.512m0,0a115.3,115.3,0,0,1,12.279-1.29.794.794,0,0,1,.337.694,7.3,7.3,0,0,1-.718,2.249c-1.137,3.134-4.938,6.251-8.4,4.9a6.226,6.226,0,0,1-3.5-6.55" transform="translate(-22.995 -20.178)"/>
              <path id="Trazado_890658" data-name="Trazado 890658" d="M93.884,74.106C90.561,71.8,87.11,71.933,84.3,75c-1.406,1.534-3.2,4.985-2.429,7.03.895,2.557,3.963,2.045,6.008,1.023.127,3.578,6.263,2.812,8.18,1.789,0,2.94,5.625,1.789,7.03.895,1.662,2.3,6.774,2.3,7.925-.383.9,2.045,6.008,2.3,7.541.767,2.173-2.173.128-6.008-1.789-7.669a16.582,16.582,0,0,0-7.8-3.835c-1.917-.383-6.263-.767-7.8.767Z" transform="translate(-19.039 -16.903)" fill="#754a2d"/>
              <path id="Trazado_890659" data-name="Trazado 890659" d="M93.966,73.659a8.041,8.041,0,0,0-5.615-1.568,7.7,7.7,0,0,0-4.789,2.937,10.82,10.82,0,0,0-2.3,4.946,3.49,3.49,0,0,0,1.712,3.861c1.584.722,3.511.16,4.987-.567l-.577-.331c.2,3.962,6.316,3.394,8.758,2.12l-.577-.331c.034,1.732,1.709,2.263,3.183,2.27a8.728,8.728,0,0,0,4.424-1.045l-.525-.137a5.35,5.35,0,0,0,4.485,1.867,4.474,4.474,0,0,0,4.1-2.251h-.663c.818,1.755,3.49,2.048,5.169,1.919a5.219,5.219,0,0,0,2.664-.814,3.572,3.572,0,0,0,1.357-2.993c-.067-2.6-1.91-4.863-3.891-6.362a17.01,17.01,0,0,0-7.821-3.2,17.547,17.547,0,0,0-3.914-.158A5.4,5.4,0,0,0,100.787,75l.373-.1-7.286-1.278c-.483-.085-.69.654-.2.739l5.284.927c.656.115,1.328.288,1.991.349.267.025.354-.09.549-.245a2.92,2.92,0,0,1,.821-.438,7.643,7.643,0,0,1,2.186-.39,17.091,17.091,0,0,1,9.69,2.412,10.91,10.91,0,0,1,3.793,3.568c.806,1.331,1.482,3.208.6,4.667-.758,1.254-2.436,1.44-3.771,1.393-1.2-.043-3.007-.323-3.582-1.558a.386.386,0,0,0-.663,0c-1.139,2.534-5.717,2.453-7.263.383a.392.392,0,0,0-.525-.137,7.849,7.849,0,0,1-3.658.932c-1.081.047-2.767-.08-2.795-1.5a.388.388,0,0,0-.577-.331,8.86,8.86,0,0,1-4.375.79c-1.422-.069-3.143-.568-3.229-2.248a.388.388,0,0,0-.577-.331,5.8,5.8,0,0,1-3.87.679,2.642,2.642,0,0,1-1.693-3.171,10.086,10.086,0,0,1,1.943-4.342,7.263,7.263,0,0,1,4.075-2.847,7.131,7.131,0,0,1,5.553,1.394c.409.279.793-.385.387-.662" transform="translate(-18.927 -16.788)"/>
              <path id="Trazado_890660" data-name="Trazado 890660" d="M112.174,64.557a29.807,29.807,0,0,0-4.41-1.534c-3.643-.959-7.669-2.876-10.353,1.15-2.3,3.451-3.259,9.011.959,11.5,4.218,2.109,8.244-1.15,11.5-3.068a12.858,12.858,0,0,0,2.684-1.726" transform="translate(-22.246 -14.385)" fill="#ffc1a7"/>
              <path id="Trazado_890661" data-name="Trazado 890661" d="M112.061,64.446a36.812,36.812,0,0,0-5.25-1.374c-2.653-.725-5.944-2.045-8.248.09-3,3.054-4.452,9.527-.111,12.074,2.834,1.492,6.263,0,8.813-1.663,1.659-1.038,3.616-1.655,5.181-2.8a19.28,19.28,0,0,1-3.163,2.335c-3.121,2.286-7.348,4.773-11.22,2.789-4.8-2.815-3.41-9.88-.015-13.3,1.942-1.878,4.908-1.466,7.23-.759a31.622,31.622,0,0,1,6.785,2.61" transform="translate(-22.133 -14.274)"/>
              <path id="Trazado_890662" data-name="Trazado 890662" d="M110.295,40.044c-.9.383-2.556,1.406-3.579,1.15-2.173-.767-1.022-3.579,0-4.73,1.407-1.534,6.008-4.218,7.414-1.278.767,1.534-.895,3.323-2.045,3.962Z" transform="translate(-24.585 -7.894)" fill="#754a2d"/>
              <path id="Trazado_890663" data-name="Trazado 890663" d="M109.984,39.595a14.423,14.423,0,0,1-2.575,1.083,1.291,1.291,0,0,1-1.626-.979,3.347,3.347,0,0,1,.446-2.114,4.773,4.773,0,0,1,1.2-1.5,7.789,7.789,0,0,1,4.155-1.944,2.052,2.052,0,0,1,1.8.644,1.939,1.939,0,0,1-.012,2.4c-.8,1.249-2.124,1.769-3.394,2.4-.442.221-.054.883.387.662l1.611-.805a5.394,5.394,0,0,0,1.942-1.7,2.789,2.789,0,0,0,.34-3.028,2.611,2.611,0,0,0-2.038-1.331c-1.794-.2-3.686.862-5.05,1.924A5.13,5.13,0,0,0,105,39.62a2.059,2.059,0,0,0,1.967,1.88c1.217,0,2.328-.772,3.405-1.243.451-.2.061-.857-.387-.662" transform="translate(-24.468 -7.777)"/>
              <path id="Trazado_890664" data-name="Trazado 890664" d="M137.429,42.742c-1.023-.895-2.3-2.94-2.173-4.346.256-2.812,3.963-2.684,5.625-1.406a6.464,6.464,0,0,1,2.045,6.647c-.767,2.428-2.556,2.045-3.835.639Z" transform="translate(-31.523 -8.419)" fill="#754a2d"/>
              <path id="Trazado_890665" data-name="Trazado 890665" d="M137.583,42.351a7.047,7.047,0,0,1-1.707-2.41,2.8,2.8,0,0,1-.1-2.5c.722-1.28,2.578-1.206,3.777-.783,1.748.615,2.775,2.536,3.057,4.274.2,1.252-.1,4.585-2.117,3.864a4.978,4.978,0,0,1-1.583-1.219l-1.325-1.224c-.362-.334-.906.206-.542.542l1.37,1.265a5.868,5.868,0,0,0,1.766,1.333c2.363.931,3.343-2.094,3.266-3.9-.09-2.086-1.192-4.536-3.169-5.467-1.453-.683-3.641-.845-4.821.456-1.716,1.893.028,4.915,1.588,6.309.367.328.911-.212.542-.542" transform="translate(-31.406 -8.299)"/>
              <path id="Trazado_890666" data-name="Trazado 890666" d="M110.144,55.449c-.351,1.425-1.2,2.442-1.9,2.27s-.975-1.465-.624-2.89,1.2-2.443,1.894-2.272.975,1.466.624,2.891" transform="translate(-25.05 -12.245)" fill="#272525"/>
              <path id="Trazado_890667" data-name="Trazado 890667" d="M109.658,55.232a3,3,0,0,1-1.146,1.941.324.324,0,0,1-.426-.02,1.356,1.356,0,0,1-.321-.819,4.465,4.465,0,0,1,.518-2.6,2.285,2.285,0,0,1,.628-.791c.189-.135.349-.19.506-.078a1.269,1.269,0,0,1,.352.826,4.2,4.2,0,0,1-.111,1.54c-.114.48.625.685.739.2.219-.926.362-2.292-.371-3.049-.692-.716-1.6-.17-2.092.477a5.116,5.116,0,0,0-.953,3.3c.052.809.436,1.976,1.464,1.83,1.121-.16,1.711-1.612,1.952-2.556a.384.384,0,0,0-.739-.2" transform="translate(-24.932 -12.131)" fill="#272525"/>
              <path id="Trazado_890668" data-name="Trazado 890668" d="M134.551,60.916c-.375,1.524-1.282,2.611-2.025,2.429s-1.043-1.568-.669-3.092,1.285-2.611,2.027-2.428,1.042,1.567.667,3.091" transform="translate(-30.695 -13.473)" fill="#272525"/>
              <path id="Trazado_890669" data-name="Trazado 890669" d="M134.065,60.7a3.249,3.249,0,0,1-1.236,2.092.381.381,0,0,1-.489-.025,1.471,1.471,0,0,1-.352-.892,4.785,4.785,0,0,1,.558-2.8,2.479,2.479,0,0,1,.683-.857c.191-.136.383-.211.567-.084a1.341,1.341,0,0,1,.389.9,4.527,4.527,0,0,1-.12,1.661c-.114.48.626.685.739.2.232-.98.387-2.432-.389-3.235-.726-.752-1.682-.173-2.2.5a5.437,5.437,0,0,0-1.014,3.514c.055.848.454,2.085,1.535,1.931,1.187-.17,1.811-1.717,2.065-2.715a.384.384,0,0,0-.739-.2" transform="translate(-30.578 -13.359)" fill="#272525"/>
            </g>
          </g>
        </g>
      </g>
    </g>
  </g>
</svg>
