<svg id="Grupo_1101516" data-name="Grupo 1101516" xmlns="http://www.w3.org/2000/svg" width="92.344" height="92.344" viewBox="0 0 92.344 92.344">
  <g id="Grupo_1101517" data-name="Grupo 1101517">
    <path id="Trazado_883915" data-name="Trazado 883915" d="M92.344,46.173A46.172,46.172,0,1,1,46.172,0,46.172,46.172,0,0,1,92.344,46.173" transform="translate(0 -0.001)" fill="#9b4b43"/>
  </g>
  <g id="carne" transform="translate(-1.483 -46.954)">
    <path id="Trazado_891240" data-name="Trazado 891240" d="M68.01,70.884c-.149,0-.3,0-.435.006a18.367,18.367,0,0,0-12.527,4.651v-8.1a1.147,1.147,0,0,0-.634-1.026c-.495-.247-4.9-2.416-7.4-2.416a37.672,37.672,0,0,0-5.275.585,35.667,35.667,0,0,1-5.042.562,43.11,43.11,0,0,1-4.93-.558,43.264,43.264,0,0,0-5.4-.59c-2.494,0-6.9,2.169-7.4,2.416a1.147,1.147,0,0,0-.634,1.026V85.8a1.147,1.147,0,0,0,1.66,1.026c1.21-.6,4.714-2.174,6.371-2.174a42.128,42.128,0,0,1,5.069.565,43.428,43.428,0,0,0,5.248.582,36.656,36.656,0,0,0,5.412-.589,36.313,36.313,0,0,1,4.922-.558,4.955,4.955,0,0,1,1.028.136,10.545,10.545,0,0,1-2.067,2.395c-1.824,1.4-4.907,2.091-9.176,2.059h-.232a6.831,6.831,0,0,0-6.762,6.884v4.589a6.091,6.091,0,0,0,2.151,4.712,6.9,6.9,0,0,0-4.667,3.319H24.868l-3.149-3.533-.02-.022a3.208,3.208,0,0,0-4.718,0,3.571,3.571,0,0,0-.047,4.764l1.678,2.233-1.678,2.232a3.571,3.571,0,0,0,.047,4.764,3.208,3.208,0,0,0,4.718,0l.02-.022,3.149-3.533h2.424a6.886,6.886,0,0,0,5.957,3.442c2.355,0,5.14,1.4,8.088,2.887,3.721,1.873,7.938,4,12.563,4a13.77,13.77,0,0,0,13.569-16.1c10.938-.471,17.408-5.528,17.408-13.731V88.093A17.06,17.06,0,0,0,68.01,70.884Zm-43.656,42.45a1.147,1.147,0,0,0-.856.384l-3.479,3.9a.914.914,0,0,1-1.363-.009,1.257,1.257,0,0,1,0-1.675,1.116,1.116,0,0,0,.08-.1l2.23-2.966a1.147,1.147,0,0,0,0-1.379l-2.23-2.967a1.113,1.113,0,0,0-.08-.1,1.257,1.257,0,0,1,0-1.675.914.914,0,0,1,1.363-.009l3.479,3.9a1.147,1.147,0,0,0,.856.384h2.109a6.807,6.807,0,0,0,0,2.295ZM20.629,75.047c1.524-.709,4.312-1.869,5.736-1.869a42.129,42.129,0,0,1,5.069.565,43.428,43.428,0,0,0,5.248.582,37.128,37.128,0,0,0,5.412-.589,36.313,36.313,0,0,1,4.922-.558c1.424,0,4.213,1.159,5.736,1.869v2.072a17.481,17.481,0,0,0-5.736-1.646,37.672,37.672,0,0,0-5.275.585,35.269,35.269,0,0,1-5.042.562,43.108,43.108,0,0,1-4.93-.558,43.264,43.264,0,0,0-5.4-.59,17.478,17.478,0,0,0-5.736,1.646Zm5.736-8.753a42.13,42.13,0,0,1,5.069.565,43.431,43.431,0,0,0,5.248.582,36.658,36.658,0,0,0,5.412-.589,36.311,36.311,0,0,1,4.922-.558c1.424,0,4.213,1.159,5.736,1.869V72.53a17.481,17.481,0,0,0-5.736-1.646,37.673,37.673,0,0,0-5.275.585,35.186,35.186,0,0,1-5.042.562,43.108,43.108,0,0,1-4.93-.558,43.263,43.263,0,0,0-5.4-.59,17.478,17.478,0,0,0-5.736,1.646V68.163C22.153,67.454,24.942,66.295,26.366,66.295ZM41.742,82.942A35.37,35.37,0,0,1,36.7,83.5a43.106,43.106,0,0,1-4.93-.558,43.264,43.264,0,0,0-5.4-.59A17.481,17.481,0,0,0,20.629,84V79.636c1.524-.709,4.312-1.869,5.736-1.869a42.131,42.131,0,0,1,5.069.565,43.428,43.428,0,0,0,5.248.582,36.717,36.717,0,0,0,5.412-.589,36.312,36.312,0,0,1,4.922-.558A15.61,15.61,0,0,1,51.769,79.2c-.9,1.214-1.683,2.435-2.4,3.562a8.814,8.814,0,0,0-2.35-.4A37.719,37.719,0,0,0,41.742,82.942Zm-5.173,8.593h.215c4.783.033,8.349-.816,10.588-2.532a19.123,19.123,0,0,0,3.889-4.949c3.04-4.772,6.825-10.711,16.362-10.871q.192,0,.386-.005A14.763,14.763,0,0,1,82.583,88.093a14.254,14.254,0,0,1-4.411,10.522c-3.053,2.874-7.343,4.393-12.407,4.393H64.153A13.736,13.736,0,0,0,53.9,98.419c-4.216,0-8.092,1.764-11.563,3.5-1.8-.3-3.6-.683-5.485-1.165C32.719,99.693,32.1,97.4,32.1,96.124A4.534,4.534,0,0,1,36.569,91.535Zm-.99,13.4c-1.6-.628-3.346-1.807-3.471-3.97a10.487,10.487,0,0,0,4.176,2.012c.9.23,1.783.437,2.655.626A23.032,23.032,0,0,1,35.58,104.931ZM53.9,123.659c-4.08,0-7.868-1.907-11.53-3.752-3.2-1.611-6.221-3.132-9.121-3.132a4.589,4.589,0,1,1,0-9.178c2.9,0,5.922-1.521,9.121-3.132,3.663-1.844,7.45-3.752,11.53-3.752a11.473,11.473,0,1,1,0,22.946Zm12.974-16.078A13.711,13.711,0,0,0,65.82,105.3c5.636-.011,10.45-1.745,13.925-5.016a16.06,16.06,0,0,0,2.822-3.528C82.231,103.407,76.572,107.307,66.875,107.581Z" transform="translate(0 0)" fill="#e6d5d3"/>
    <path id="Trazado_891241" data-name="Trazado 891241" d="M344.031,192.062A8.031,8.031,0,1,0,336,184.031,8.031,8.031,0,0,0,344.031,192.062Zm0-13.768a5.736,5.736,0,1,1-5.736,5.736A5.736,5.736,0,0,1,344.031,178.295Z" transform="translate(-274.068 -95.938)" fill="#e6d5d3"/>
  </g>
</svg>
