<svg xmlns="http://www.w3.org/2000/svg" xmlns:xlink="http://www.w3.org/1999/xlink" width="295" height="212.785" viewBox="0 0 295 212.785">
  <defs>
    <clipPath id="clip-path">
      <rect id="Rect치ngulo_401636" data-name="Rect치ngulo 401636" width="115.515" height="207.785" fill="none"/>
    </clipPath>
    <clipPath id="clip-path-3">
      <rect id="Rect치ngulo_401634" data-name="Rect치ngulo 401634" width="40.893" height="80.996" fill="none"/>
    </clipPath>
  </defs>
  <g id="Grupo_1101528" data-name="Grupo 1101528" transform="translate(-600.051 -5998.215)">
    <rect id="_1729" data-name="1729" width="295" height="113" rx="20" transform="translate(600.051 6098)" fill="#9b4b43"/>
    <g id="Grupo_1101527" data-name="Grupo 1101527" transform="translate(694.485 5998.215)">
      <g id="Grupo_1101526" data-name="Grupo 1101526" clip-path="url(#clip-path)">
        <g id="Grupo_1101525" data-name="Grupo 1101525" transform="translate(0 0)">
          <g id="Grupo_1101524" data-name="Grupo 1101524" clip-path="url(#clip-path)">
            <path id="Trazado_891379" data-name="Trazado 891379" d="M16.08,3243.246c-22.083-13.291-21.326-34.47,1.692-47.3s59.58-12.465,81.664.826,21.326,34.47-1.692,47.305-59.58,12.465-81.664-.826" transform="translate(0 -3045.676)" fill="#7c1815"/>
            <path id="Trazado_891380" data-name="Trazado 891380" d="M245.816,3033.953c-.061-.957-.234-2.227-.385-3.174-.155-.969-.383-2.259-.627-3.209-.392-1.528-1-3.543-1.491-5.042,3.42,9.491-1.428,19.775-14.4,27.011-20.033,11.17-51.854,10.849-71.074-.719-11.892-7.157-16.174-16.943-12.965-26.01a43,43,0,0,0-1.73,6.306c-.271,1.533-.551,3.59-.71,5.139a29.186,29.186,0,0,0-.14,3.146c.014.771.008,1.8.05,2.571.051.94.176,2.191.261,3.13s.311,2.2.485,3.133c.281,1.515.821,3.5,1.25,4.982.274.944.748,2.168,1.09,3.089a46.459,46.459,0,0,0,12.652,17.872c.658.558,1.523,1.319,2.22,1.828,1.395,1.02,3.295,2.324,4.746,3.261,15.449,9.3,41.027,9.557,57.129.578q.88-.491,1.7-1c1.329-.88,3.068-2.1,4.344-3.056.681-.509,1.533-1.259,2.176-1.816a48.541,48.541,0,0,0,4.892-5.021,45.8,45.8,0,0,0,4.209-5.9,47.4,47.4,0,0,0,3.685-7.666c.324-.9.755-2.112,1-3.039.4-1.489.86-3.494,1.155-5.007a46.052,46.052,0,0,0,.624-6.241c.007-1.544-.045-3.6-.142-5.144" transform="translate(-135.996 -2888.904)" fill="#a6daff"/>
            <path id="Trazado_891381" data-name="Trazado 891381" d="M276.871,1084.466c-.969-2.69-2.261-6.275-3.23-8.965l-1.615-4.482-3.23-8.964-3.23-8.964-1.615-4.483-3.23-8.964-3.23-8.964-1.615-4.482-3.229-8.964-3.23-8.965-1.615-4.482-3.23-8.964c1.193,3.313-.5,6.9-5.028,9.427-6.992,3.9-18.1,3.786-24.806-.251-4.15-2.5-5.645-5.913-4.525-9.078l-31.788,89.827c-3.209,9.067,1.073,18.853,12.965,26.01,19.22,11.568,51.041,11.889,71.074.719,12.977-7.236,17.824-17.52,14.4-27.01" transform="translate(-169.555 -950.842)" fill="#c5e7ff"/>
            <path id="Trazado_891382" data-name="Trazado 891382" d="M944.692,338.917c.007,2.677-1.8,5.355-5.4,7.361-6.992,3.9-18.1,3.786-24.806-.251-3.256-1.96-4.877-4.483-4.884-7.008l.088,31.063c.007,2.525,1.628,5.049,4.884,7.008,6.708,4.037,17.814,4.15,24.806.251,3.6-2.007,5.406-4.684,5.4-7.361Z" transform="translate(-869.39 -323.934)" fill="#a6daff"/>
            <path id="Trazado_891383" data-name="Trazado 891383" d="M1331.641,370.447c.009,2.681-1.805,5.361-5.4,7.365a25.468,25.468,0,0,1-11.887,2.852V349.6a25.533,25.533,0,0,0,11.8-2.852c3.592-1.995,5.4-4.675,5.4-7.337Z" transform="translate(-1256.251 -324.404)" fill="#7ac8ff"/>
            <path id="Trazado_891384" data-name="Trazado 891384" d="M914.49,127.432c-6.708-4.037-6.478-10.471.514-14.37s18.1-3.786,24.806.251,6.478,10.471-.514,14.369-18.1,3.786-24.806-.251" transform="translate(-869.393 -105.338)" fill="#c5e7ff"/>
            <path id="Trazado_891385" data-name="Trazado 891385" d="M981.331,163.7c-5.564-3.349-5.373-8.685.426-11.919s15.012-3.141,20.576.208,5.373,8.685-.426,11.919-15.012,3.141-20.576-.208" transform="translate(-934.074 -142.805)" fill="#a6daff"/>
            <path id="Trazado_891386" data-name="Trazado 891386" d="M400.239,1755.65a44.112,44.112,0,0,1-.468,4.642c-.277,1.395-.707,3.276-1.061,4.585-.153.583-.582,1.767-.8,2.4a40.546,40.546,0,0,1-3.095,6.371,37.473,37.473,0,0,1-3.486,4.843,41.185,41.185,0,0,1-3.945,4.059l-.229.191c-.449.4-1.137.993-1.481,1.252-1.146.859-2.77,2-3.993,2.818-.391.239-.8.478-1.223.716-6.409,3.573-15.389,5.626-24.635,5.626-9.609,0-18.77-2.178-25.161-5.979-1.347-.87-3.123-2.092-4.385-3.019-.267-.191-.907-.745-1.3-1.07l-.449-.382a41.264,41.264,0,0,1-4.031-4.117,39.1,39.1,0,0,1-6.3-10.441l-.219-.582c-.239-.64-.564-1.529-.7-1.968-.516-1.777-.908-3.334-1.08-4.26-.086-.439-.325-1.758-.382-2.34l-.057-.669c-.077-.745-.153-1.6-.191-2.273-.029-.43-.029-.965-.029-1.452l-.01-.888a19.508,19.508,0,0,1,.1-2.063c.143-1.443.411-3.372.64-4.69.048-.22.22-1.136.64-2.608l.057-.2c.058-.191.115-.392.181-.6l.019-.057c.143-.487.325-1.022.516-1.6l18.226-51.487.43-1.232a14.948,14.948,0,0,1,6.687-6.619c9.648-5.378,24.979-5.225,34.235.344a15.171,15.171,0,0,1,5.511,5.282l1.127,3.143,17.538,48.669s.64,1.776.64,1.8c.105.286.182.573.277.86.334,1.089.659,2.178.946,3.286a1.185,1.185,0,0,1,.048.172c.1.382.267,1.213.468,2.436.143.917.267,1.873.3,2.379.086,1.309.134,3.257.134,4.729" transform="translate(-297.753 -1604.41)" fill="#66bfff"/>
            <path id="Trazado_891387" data-name="Trazado 891387" d="M511.195,3037.041a1.529,1.529,0,0,1,.249.177c.688.605.224,1.4.24,2.126.039,1.507,3.054,3.147,4.715,4.207q3.626,2.312,7.253,4.628c.879.559,1.761,1.121,2.686,1.654a27,27,0,0,0,2.994,1.51c3.265,1.382,7.336,2.218,10.142,3.839a9.523,9.523,0,0,1,1.229.833.908.908,0,0,1,.393.5c.035.3-.345.557-.708.774-4.619,2.813-9,5.858-13.672,8.609-2.323,1.367-5.18,2.337-7.409,3.81a43.887,43.887,0,0,0-5.58,4.461c-3.562,3.285-6.711,6.77-11.294,9.6a1.535,1.535,0,0,1-.743.275,1.791,1.791,0,0,1-.884-.254c-.695-.361-1.4-.727-2.06-1.11a10.4,10.4,0,0,1-2.936-2.288,16.715,16.715,0,0,0-1.413-1.9,7,7,0,0,0-1.342-.954c-.318-.183-.649-.36-.979-.535q-10.072-5.337-20.148-10.672c-1.081-.573-3.168-1.252-4.586-2.07-.879-.508-1.5-1.069-1.466-1.691.1-1.683,5.22-2.161,7.271-2.822a49.69,49.69,0,0,0,9.358-4.548q5.295-3,10.6-6a24.562,24.562,0,0,0,5.514-3.788c2.329-2.429,4.649-4.845,7.138-7.234a5.415,5.415,0,0,1,1.313-1.011,5.1,5.1,0,0,1,1.853-.5,4.2,4.2,0,0,1,2.277.38" transform="translate(-445.277 -2902.395)" fill="#45a2e6"/>
            <path id="Trazado_891388" data-name="Trazado 891388" d="M1483.5,2535.567l-.068,24.078c0,.359-.125.74-.126,1.1l.068-24.078c0-.362.125-.742.126-1.1" transform="translate(-1417.727 -2423.471)" fill="#d4354f"/>
            <path id="Trazado_891389" data-name="Trazado 891389" d="M611.757,2914.523l-.068,24.079c0,.257-.33.475-.642.664-4.191,2.552-8.168,5.317-12.4,7.808-2.106,1.241-4.7,2.119-6.721,3.459a39.582,39.582,0,0,0-5.06,4.045c-3.232,2.979-6.087,6.139-10.244,8.7a1.39,1.39,0,0,1-.672.248.844.844,0,0,1-.18-.008,1.9,1.9,0,0,1-.625-.219c-.629-.329-1.263-.659-1.866-1.01a9.391,9.391,0,0,1-2.663-2.072,15.038,15.038,0,0,0-1.284-1.725,6.025,6.025,0,0,0-1.216-.864c-.287-.167-.591-.33-.886-.489q-9.137-4.841-18.275-9.679c-.98-.518-2.877-1.134-4.161-1.879-.779-.445-1.331-.942-1.331-1.49l.068-24.079c0,.548.552,1.044,1.331,1.494,1.284.74,3.181,1.357,4.161,1.875q9.131,4.841,18.271,9.683c.3.158.6.317.89.484a6.341,6.341,0,0,1,1.216.865,15.358,15.358,0,0,1,1.284,1.725,9.478,9.478,0,0,0,2.663,2.076c.6.347,1.237.677,1.866,1.006a2.625,2.625,0,0,0,.445.188h0a1.209,1.209,0,0,0,.355.043,1.4,1.4,0,0,0,.672-.253c4.157-2.564,7.012-5.723,10.244-8.7a40.246,40.246,0,0,1,5.06-4.045c2.025-1.336,4.615-2.218,6.721-3.455,4.234-2.5,8.211-5.257,12.4-7.808.313-.188.642-.411.642-.668" transform="translate(-519.435 -2785.674)" fill="#e7536b"/>
            <path id="Trazado_891390" data-name="Trazado 891390" d="M727.681,3371.17c-.5,2.6-1.139,5.175-1.507,7.8-.244,1.717-.372,3.446-.454,5.18q-.777-.417-1.554-.826a23.465,23.465,0,0,1-.073-3.51c.12-2.539.479-5.077.368-7.616-.013-.325-.137-.749-.462-.749a.633.633,0,0,0-.449.33,8.478,8.478,0,0,0-1.044,2.423,66.578,66.578,0,0,0-1.8,7.29c-.244-.128-.484-.257-.724-.385a34.621,34.621,0,0,0,2-7.816,19.493,19.493,0,0,1,.479-3.5,3.971,3.971,0,0,1,2.14-2.667,2.41,2.41,0,0,1,2.611.488c.852.907.7,2.333.466,3.557" transform="translate(-688.15 -3218.092)" fill="#fda2b2"/>
            <path id="Trazado_891391" data-name="Trazado 891391" d="M1307.914,2914.523l-.069,24.079c0,.257-.329.475-.642.664-4.191,2.552-8.168,5.317-12.4,7.808-2.106,1.241-4.7,2.119-6.721,3.459a39.582,39.582,0,0,0-5.06,4.045c-3.232,2.979-6.087,6.139-10.244,8.7a1.389,1.389,0,0,1-.672.248.843.843,0,0,1-.18-.008l.509-16.811-.616-7.3a1.209,1.209,0,0,0,.355.043,1.4,1.4,0,0,0,.672-.253c4.157-2.564,7.012-5.723,10.244-8.7a40.243,40.243,0,0,1,5.06-4.045c2.025-1.336,4.615-2.218,6.721-3.455,4.234-2.5,8.211-5.257,12.4-7.808.313-.188.642-.411.642-.668" transform="translate(-1215.593 -2785.674)" fill="#d4354f"/>
            <path id="Trazado_891392" data-name="Trazado 891392" d="M1359.241,3428.993c-.137.12-.27.24-.4.364-.253.236-.505.471-.753.707-.959-2.607-1.794-5.257-2.624-7.907a25.092,25.092,0,0,1-1.04-4.127c-.064-.484-.188-1.083-.664-1.2-.4-.107-.788.231-1.01.582a6.494,6.494,0,0,0-.608,3.848q.327,6.858.659,13.716c-.505.428-1.023.852-1.563,1.258,0-.039,0-.077,0-.115a53.84,53.84,0,0,0,.445-6.652c-.107-2.055-.454-4.088-.526-6.143-.056-1.545.043-3.091.141-4.636a6.97,6.97,0,0,1,.531-2.671c.8-1.623,2.7-2.337,4.046-3.549.582-.522,1.16-1.19,1.939-1.2a1.208,1.208,0,0,1,.1,1.194,6.076,6.076,0,0,1-.646,1.07,7.668,7.668,0,0,0-.8,5.416,40.808,40.808,0,0,0,1.618,5.359,33.5,33.5,0,0,1,1.152,4.692" transform="translate(-1291.41 -3260.453)" fill="#e7536b"/>
            <path id="Trazado_891393" data-name="Trazado 891393" d="M1584.4,3265.558c-.544.338-1.092.676-1.64,1a39.3,39.3,0,0,1-1.46-7.161c-.21-2.017-.8-9.474-4.521-6.49-1.323,1.062-1.537,2.962-1.567,4.653a15.922,15.922,0,0,0,.188,3.193,34.512,34.512,0,0,0,1.151,3.832,28.565,28.565,0,0,1,.963,4.645c-.449.223-.89.449-1.314.689a24.482,24.482,0,0,0-1.314-7.808c-.659-1.918-1.562-3.754-2.166-5.693-.488-1.562-.813-3.853.5-5.12a8.4,8.4,0,0,1,6.045-2.016c2.012.115,2.782,1.34,3.172,3.163.925,4.32,1.366,8.737,1.965,13.116" transform="translate(-1502.785 -3105.617)" fill="#e7536b"/>
            <path id="Trazado_891394" data-name="Trazado 891394" d="M1863.567,3114.914c.086-3.866.526-7.753-.539-11.439a7.667,7.667,0,0,0-1.738-3.271c-1.323-1.357-1.438.711-1.344,1.751q.334,3.673.664,7.346c.133,1.464.265,2.924.282,4.392.017,1-.021,1.99-.077,2.988-.222.146-.445.287-.668.432a20.29,20.29,0,0,0-.321-2.736c-.471-2.444-1.511-4.777-2.2-7.161a15.007,15.007,0,0,1-.681-4.05,11.081,11.081,0,0,1,.6-3.716,5.735,5.735,0,0,1,1.494-2.714,2.345,2.345,0,0,1,2.427.017,5.761,5.761,0,0,1,2.684,3.75,20.229,20.229,0,0,1,.411,4.721c.06,2.954.3,5.92.308,8.866-.437.27-.869.543-1.3.822" transform="translate(-1774.845 -2959.515)" fill="#e7536b"/>
            <path id="Trazado_891395" data-name="Trazado 891395" d="M586.108,2506.31a1.379,1.379,0,0,1,.226.16c.624.549.2,1.272.218,1.928.035,1.366,2.77,2.854,4.277,3.815q3.289,2.1,6.578,4.2c.8.507,1.6,1.017,2.436,1.5a24.625,24.625,0,0,0,2.715,1.369c2.961,1.253,6.653,2.012,9.2,3.482a8.682,8.682,0,0,1,1.114.755.824.824,0,0,1,.357.458c.031.273-.313.505-.642.7-4.189,2.552-8.167,5.313-12.4,7.808-2.107,1.24-4.7,2.119-6.72,3.456a39.862,39.862,0,0,0-5.061,4.046c-3.231,2.979-6.087,6.14-10.243,8.7a1.4,1.4,0,0,1-.674.25,1.632,1.632,0,0,1-.8-.23c-.63-.328-1.266-.659-1.869-1.007a9.435,9.435,0,0,1-2.663-2.075,15.1,15.1,0,0,0-1.282-1.725,6.356,6.356,0,0,0-1.218-.865c-.288-.166-.589-.326-.888-.486q-9.136-4.84-18.274-9.679c-.98-.519-2.874-1.135-4.16-1.878-.8-.46-1.361-.969-1.33-1.533.087-1.526,4.735-1.96,6.595-2.56a45.059,45.059,0,0,0,8.487-4.125q4.8-2.724,9.611-5.446a22.286,22.286,0,0,0,5-3.435c2.112-2.2,4.217-4.4,6.474-6.562a4.911,4.911,0,0,1,1.191-.917,4.625,4.625,0,0,1,1.681-.454,3.813,3.813,0,0,1,2.065.345" transform="translate(-520.908 -2395.162)" fill="#fda2b2"/>
            <path id="Trazado_891396" data-name="Trazado 891396" d="M792.089,2831.668c-1.2.582-2.35,1.305-3.5,2a70.077,70.077,0,0,1-23.54,9.156c-5.283.959-10.659,1.2-15.972,1.965-2.705.385-5.278,1.113-7.937,1.687a.459.459,0,0,0-.073.017c-.608-.325-1.211-.646-1.819-.968a29.9,29.9,0,0,1,11.019-2.44c4.73-.291,9.52-.133,14.148-1.139,9.371-2.042,17.4-8.707,26.678-10.6l.993.321" transform="translate(-706.569 -2706.175)" fill="#ffcbd2"/>
            <path id="Trazado_891397" data-name="Trazado 891397" d="M861.97,2687.877c-8.793,4.225-18.463,6.562-28.133,8.1-3.061.488-6.147.9-9.182,1.537.929-.505,1.828-1.028,2.718-1.533q2.768-1.573,5.544-3.142l1.5-.334c8.082-1.768,16.293-2.928,24.341-4.829q1.053-.244,2.1-.514c.368.235.74.471,1.113.711" transform="translate(-788.197 -2568.368)" fill="#ffcbd2"/>
            <path id="Trazado_891398" data-name="Trazado 891398" d="M585.992,2899.507c-1.563,1.614-3.943,2.059-6.169,2.376-5.663.809-11.374,1.331-16.995,2.41a60.626,60.626,0,0,0-9.812,2.663l-1.036-.548c7-2.988,14.837-3.729,22.453-4.593a23.094,23.094,0,0,0,5.321-1.036c.5-.184,1.1-.608.912-1.113-.129-.364-.578-.475-.959-.513a21.662,21.662,0,0,0-6.276.462c-5.193.985-10.261,2.564-15.437,3.639a47,47,0,0,1-10.449,1.126,2.67,2.67,0,0,1-1.182-1.126c3.459-.428,6.922-.8,10.372-1.349,5.257-.839,10.475-1.926,15.681-3.039,2.945-.634,5.89-1.275,8.84-1.888,1.592-.33,3.386-.616,4.743.287a1.451,1.451,0,0,1,.544.582,1.617,1.617,0,0,1-.552,1.661" transform="translate(-522.211 -2768.598)" fill="#ffcbd2"/>
            <path id="Trazado_891399" data-name="Trazado 891399" d="M1038.5,3065.541a24.683,24.683,0,0,1-6.622,4.3c-4.281,1.892-9.148,2.594-12.915,5.372a56.83,56.83,0,0,0-5.077,4.824c-.081.077-.163.154-.248.231a5.365,5.365,0,0,1-.569-.6c-.3-.372-.518-.766-.792-1.143.616-.561,1.229-1.121,1.845-1.682a17.274,17.274,0,0,1,3.2-2.5c1.413-.788,3.039-1.173,4.366-2.1a20.321,20.321,0,0,0-8.309,2.119c-1.357.625-2.671,1.34-3.972,2.085q-1.547-.822-3.1-1.644a8.377,8.377,0,0,1,3.322-1.584c4.148-1.224,8.489-1.691,12.68-2.74a34.329,34.329,0,0,0,6.858-2.414c2.962-1.464,5.873-3.574,9.169-3.369a.521.521,0,0,1,.407.149c.167.214-.043.509-.244.694" transform="translate(-961.821 -2929.196)" fill="#ffcbd2"/>
            <path id="Trazado_891400" data-name="Trazado 891400" d="M1820.949,2870.659a5.145,5.145,0,0,1-.518.394,10.2,10.2,0,0,1-2.509,1.135c-2.907.972-6.014,1.627-8.459,3.476a.207.207,0,0,1-.184.064c-.069-.021-.09-.1-.1-.171a2.524,2.524,0,0,1,1.263-2.166,16.722,16.722,0,0,1,3.236-1.823,41.138,41.138,0,0,0,4.842-2.265,14.245,14.245,0,0,1,1.511.75,9.2,9.2,0,0,1,.92.608" transform="translate(-1729.18 -2742.452)" fill="#ffcbd2"/>
            <path id="Trazado_891401" data-name="Trazado 891401" d="M1505.411,2739.181a32.433,32.433,0,0,0-7.761,2.731c-1.6.831-3.206,1.862-5.008,1.913a1.72,1.72,0,0,1-.869-.154.77.77,0,0,1-.428-.723,1.084,1.084,0,0,1,.291-.535c1.524-1.793,3.861-2.624,6.044-3.506a15.121,15.121,0,0,0,3.827-2.068l.4.257c.364.231.728.462,1.1.689-1.965.976-4.05,1.7-6.057,2.6-.467.21-.985.5-1.079,1a8.548,8.548,0,0,0,1.661-.6,65.365,65.365,0,0,1,6.408-2.427c.133.081.27.163.407.24.347.2.7.4,1.066.586" transform="translate(-1425.409 -2615.846)" fill="#ffcbd2"/>
            <path id="Trazado_891402" data-name="Trazado 891402" d="M1233.034,2579.856c-.056.017-.116.034-.176.047a113.224,113.224,0,0,1-12.466,2.74c-.415.06-.83.111-1.25.137.758-.788,1.515-1.58,2.277-2.363,1.344-.261,2.718-.364,4.071-.587a23.3,23.3,0,0,0,5.342-1.554c.094-.039.2-.09.313-.141a6.864,6.864,0,0,0,1.888,1.721" transform="translate(-1165.245 -2464.157)" fill="#ffcbd2"/>
            <path id="Trazado_891403" data-name="Trazado 891403" d="M1082.771,3379.148c-1.387,4.657.039,9.191-.788,13.981a57.5,57.5,0,0,1-2.115,7.025c-.077-.047-.154-.09-.235-.137-.287-.167-.591-.33-.886-.488l-.107-.055c.013-.236.03-.471.056-.707a41.135,41.135,0,0,1,.856-4.422,27.9,27.9,0,0,0,.818-7.427c-.09-1.665-.411-3.313-.424-4.979-.009-1.194.205-3.874,1.455-4.568.278.381.5.779.8,1.156a5.388,5.388,0,0,0,.573.608s0,.009,0,.013" transform="translate(-1030.954 -3228.06)" fill="#fda2b2"/>
            <path id="Trazado_891404" data-name="Trazado 891404" d="M911.124,3295.165v0c-1.785,3.7-1.759,7.735-2.808,11.708-.826,3.129-2.367,6.031-3.485,9.062-.454-.235-.9-.475-1.357-.715a19.871,19.871,0,0,1,.608-4.071,57.323,57.323,0,0,0,1.742-7.56c.167-1.653.081-3.326.3-4.974a13.2,13.2,0,0,1,1.9-5.1q1.554.828,3.108,1.648" transform="translate(-863.532 -3147.913)" fill="#fda2b2"/>
            <path id="Trazado_891405" data-name="Trazado 891405" d="M668.657,3152.717c-1.862,3.176-2.1,6.181-2.341,9.863s-.364,7.466-1.725,10.9c-.128.325-.274.651-.415.976l-.462-.244c-.06-.03-.12-.064-.184-.09q.244-4.733.479-9.46a51.4,51.4,0,0,1,.629-6.691,39.9,39.9,0,0,1,2.209-6.211q.905.475,1.811.959" transform="translate(-634.195 -3012.421)" fill="#fda2b2"/>
            <path id="Trazado_891406" data-name="Trazado 891406" d="M595.776,3117.645c-.3.518-.967,1.182-1.117,1.421a6.684,6.684,0,0,0-.766,1.982,29.5,29.5,0,0,0-.565,3.673c-.158,1.438-.317,2.881-.364,4.324-.06,1.853.064,3.711-.1,5.556a17.872,17.872,0,0,1-1.289,5.219c-.158-.073-.317-.146-.471-.214.338-1.631.706-3.258.907-4.91.518-4.191,0-8.459.535-12.646a14.171,14.171,0,0,1,.6-2.761,3.231,3.231,0,0,1,1.588-2.2l1.045.552" transform="translate(-564.97 -2979.289)" fill="#fda2b2"/>
            <path id="Trazado_891407" data-name="Trazado 891407" d="M545.991,3046.872c-.137.321-.715,1.507-1.271,2.659l.013-3.8h0a.214.214,0,0,1,.051,0,2.691,2.691,0,0,0,1.2,1.143" transform="translate(-520.638 -2911.079)" fill="#fda2b2"/>
            <path id="Trazado_891408" data-name="Trazado 891408" d="M806.019,1702.731c-9.648,5.387-24.979,5.235-34.235-.344-5.492-3.3-7.613-7.766-6.41-11.978a7.577,7.577,0,0,1,.43-1.232,14.95,14.95,0,0,1,6.687-6.62c9.648-5.378,24.979-5.225,34.235.344a15.17,15.17,0,0,1,5.511,5.282,8.964,8.964,0,0,1,1.127,3.143c.65,4.1-1.824,8.33-7.345,11.406" transform="translate(-731.226 -1604.411)" fill="#7ac8ff"/>
            <g id="Grupo_1101523" data-name="Grupo 1101523" transform="translate(11.23 74.162)" style="mix-blend-mode: screen;isolation: isolate">
              <g id="Grupo_1101522" data-name="Grupo 1101522">
                <g id="Grupo_1101521" data-name="Grupo 1101521" clip-path="url(#clip-path-3)">
                  <path id="Trazado_891409" data-name="Trazado 891409" d="M261.662,1757.335l-1.49-.86c-5.279-3.048-7.616-11.1-5.219-17.987l18.4-52.859c2.4-6.886,8.62-10,13.9-6.949l1.49.86c5.279,3.048,7.616,11.1,5.219,17.987l-18.4,52.859c-2.4,6.886-8.62,10-13.9,6.949" transform="translate(-254.011 -1677.509)" fill="#666"/>
                </g>
              </g>
            </g>
            <path id="Trazado_891410" data-name="Trazado 891410" d="M882.882,267.676c.009,3.133-2.107,6.267-6.318,8.616-8.183,4.563-21.181,4.431-29.033-.294-3.81-2.293-5.708-5.247-5.716-8.2l.1,4.227c.008,2.955,1.906,5.909,5.716,8.2,7.851,4.725,20.849,4.857,29.033.294,4.212-2.348,6.327-5.482,6.318-8.616Z" transform="translate(-804.599 -255.842)" fill="#a6daff"/>
            <path id="Trazado_891411" data-name="Trazado 891411" d="M1335.763,272.449c.01,3.137-2.113,6.274-6.317,8.619a29.806,29.806,0,0,1-13.912,3.338v-4.23a29.884,29.884,0,0,0,13.806-3.338c4.2-2.335,6.317-5.472,6.317-8.588Z" transform="translate(-1257.376 -256.392)" fill="#7ac8ff"/>
            <path id="Trazado_891412" data-name="Trazado 891412" d="M847.531,20.155c-7.851-4.725-7.582-12.255.6-16.818s21.181-4.431,29.032.294,7.582,12.255-.6,16.818-21.181,4.431-29.033-.294" transform="translate(-804.599 0.001)" fill="#c5e7ff"/>
            <path id="Trazado_891413" data-name="Trazado 891413" d="M958.511,74.357c-5.952-3.582-5.748-9.29.456-12.749s16.057-3.359,22.009.222,5.747,9.29-.456,12.749-16.057,3.36-22.009-.222" transform="translate(-911.994 -56.466)" fill="#7ac8ff"/>
            <path id="Trazado_891414" data-name="Trazado 891414" d="M959.043,66.247c6.2-3.459,16.057-3.359,22.009.223a9.293,9.293,0,0,1,3.8,3.9c1.336-2.94.1-6.193-3.8-8.538-5.952-3.582-15.806-3.682-22.009-.222-4.241,2.365-5.674,5.781-4.257,8.85a9.606,9.606,0,0,1,4.257-4.211" transform="translate(-912.07 -56.466)" fill="#a6daff"/>
          </g>
        </g>
      </g>
    </g>
  </g>
</svg>
