<svg xmlns="http://www.w3.org/2000/svg" xmlns:xlink="http://www.w3.org/1999/xlink" width="330" height="213" viewBox="0 0 330 213">
  <defs>
    <clipPath id="clip-path">
      <rect id="Rectángulo_401637" data-name="Rectángulo 401637" width="255.166" height="207.426" fill="none"/>
    </clipPath>
  </defs>
  <g id="Grupo_1101720" data-name="Grupo 1101720" transform="translate(-250.051 -6278)">
    <rect id="_1729" data-name="1729" width="330" height="213" rx="20" transform="translate(250.051 6278)" fill="#bbcbc5"/>
    <g id="Grupo_1101530" data-name="Grupo 1101530" transform="translate(287.468 6283.333)">
      <g id="Grupo_1101529" data-name="Grupo 1101529" clip-path="url(#clip-path)">
        <path id="Trazado_891415" data-name="Trazado 891415" d="M113.271,137.059c2.253-5.994,4.247-12.1,6.821-17.953,3.473-7.893,9.687-12.928,17.946-15.345a142.068,142.068,0,0,1,27.152-4.747,10.127,10.127,0,0,1,1.152.022,18.3,18.3,0,0,1,1.408,4.263,33.323,33.323,0,0,0,8.329,14.207,14.29,14.29,0,0,0,9.365,4.352,3.973,3.973,0,0,1,1.593,1.457,75.945,75.945,0,0,0,8.473,9.712,5.878,5.878,0,0,0,1.374.954,2.545,2.545,0,0,0,3.366-.648,6.892,6.892,0,0,0,1.432-3.135c.43-1.708.827-2,2.44-1.475a32.491,32.491,0,0,1,13.052,7.827c.391.389.495.979.994,1.268a35.9,35.9,0,0,1,1.177,7.718c.445,4.7.8,9.406,1.2,14.109a1.541,1.541,0,0,1-.106,1,1.982,1.982,0,0,1-.989.578c-1.8.439-3.566,1-5.346,1.512a2.522,2.522,0,0,1-1.646.1c-.732-1.3-.5-2.757-.633-4.138a91.214,91.214,0,0,0-1.962-13.792,1.575,1.575,0,0,1,.087-1.438,16.812,16.812,0,0,1-1.185,1.278c-.336.26-.669.658-1.131.423-.523-.266-.245-.745-.157-1.149.446-2.05.744-4.127.949-5.242a92.616,92.616,0,0,1-2.834,12.467c-.862,2.8-1.674,5.611-2.617,8.386a5.19,5.19,0,0,1-2.722,3.409c-4.032,1.851-6.642,5.216-9.205,8.661q-4.669,6.272-9.138,12.684c-1.145,1.65-3.007,2.055-4.676,2.807a1.969,1.969,0,0,1-1.147-.533c-.663-.477-1.267-1.05-1.955-1.476a60.866,60.866,0,0,1-8.834-6.395c-1.444-1.3-3.482-1.64-5.313-2.252-5.63-1.882-11.193-3.945-16.707-6.14-.517-.206-1.065-.387-1.272-1a20.845,20.845,0,0,1,.571-4.733c1.182-6.273,2.09-12.592,3.21-18.875.522-2.929.926-5.877,1.429-8.808A13.115,13.115,0,0,1,149,132.308c.829-1.351.923-3.005,1.459-4.095-.267.877-.772,2.067-1.07,3.325-.089.376-.263.964-.8.854-.551-.114-.423-.71-.364-1.1a50.222,50.222,0,0,0,.377-8.252,32.9,32.9,0,0,0-2.275-11.719c-.127-.324-.164-.669-.32-.983a33.689,33.689,0,0,1,2.482,10.484,40.287,40.287,0,0,1-.478,11.585,30.238,30.238,0,0,1-3.337,8.389c-.588,1.042-1.032.951-1.659-.256a115.847,115.847,0,0,0-6.607-11.413c1.313,2.6,2.76,5.136,4.074,7.739a34.557,34.557,0,0,1,2.109,4.72,3.624,3.624,0,0,1,.274,1.774,17.323,17.323,0,0,1-2.762,6.724,23.124,23.124,0,0,0-4.772-2.591c-4.7-2.234-9.456-4.347-14.224-6.432-2.205-.964-4.459-1.826-6.6-2.943a2.272,2.272,0,0,1-1.243-1.063" transform="translate(-74.164 -64.821)" fill="#456c8b"/>
        <path id="Trazado_891416" data-name="Trazado 891416" d="M127.375,584.54H1.841c-1.827,0-1.828,0-1.828-1.792,0-1.812.045-3.625-.011-5.435-.032-1.043.4-1.5,1.376-1.265a14.256,14.256,0,0,0,3.345.19q114.016.009,228.032.007c6.945,0,13.891.02,20.836-.031,1.122-.008,1.594.266,1.448,1.435-.245,1.964.349,3.924.029,5.911-.129.8-.391,1.053-1.125.985-.257-.024-.517,0-.776,0H127.375" transform="translate(0 -377.128)" fill="#b7cfda"/>
        <path id="Trazado_891417" data-name="Trazado 891417" d="M94.945,209.233c3.508,1.934,7.267,3.319,10.907,4.962,3.8,1.716,7.628,3.366,11.365,5.217.332.553,0,1.006-.26,1.434-2.23,3.728-4.269,7.562-6.326,11.387-1.147,2.132-1.838,2.387-4.3,2.107a10.614,10.614,0,0,0-6.606,1.728,7.742,7.742,0,0,1,2.652-1.136,19.378,19.378,0,0,1,3.065-.406,12.321,12.321,0,0,1,3.067.331,36.009,36.009,0,0,1,5.7,2.051c2.708,1.624,5.709,2.619,8.545,3.969a3.067,3.067,0,0,1,1.179.76A100.754,100.754,0,0,0,134.1,245.67c3.5,1.3,7.058,2.464,10.581,3.714a11.147,11.147,0,0,1,4.706,3.066,10.273,10.273,0,0,0,3.46,2.612,29.03,29.03,0,0,1,6,4.205,13.553,13.553,0,0,1,3.8,3.214c1.523,1.577,3.072,3.137,4.562,4.748.716.774,1.563,1.526,1.423,2.762a.955.955,0,0,1-1.071.511,10.4,10.4,0,0,0-2.295.128,1.683,1.683,0,0,1-1.876-.77,5.2,5.2,0,0,1-.554-1.042c-.26.269-.394.649-.768.775-1.284-.056-1.282-.056-1.279,1.351,0,.425.021.85.05,1.276a32.719,32.719,0,0,1-.431,4.765c-.286.557-.786.587-1.329.564a21.058,21.058,0,0,1-4.93-1.016c-.934-.27-1.116-.983-1.025-1.834a21.055,21.055,0,0,1,.822-3.39c.4-1.451.257-1.8-1.133-1.4a4.55,4.55,0,0,1-1.289.071c-2.486-.022-3.126-.457-3.713-2.838-.505-2.047-1.171-4.043-1.562-5.448.5,1.629,1.205,3.871,1.748,6.157.363,1.53-.467,2.411-2.175,2.363-1.522-.043-2.937-.685-4.444-.83a4.567,4.567,0,0,1-2.271-2.17,19.653,19.653,0,0,1-1.874-4.352c-1.425-3.782-.478-2.907-4.442-3.475-6.214-.89-12.448-1.633-18.618-2.827a126.732,126.732,0,0,1-14.087-3.727,4.664,4.664,0,0,1-1.169-.535,25.544,25.544,0,0,0-5.264-2.6,24.879,24.879,0,0,1-5.174-3.2c-1.142-.8-2.484-1.384-3.094-2.778-.445-4.34.676-8.441,1.967-12.5q1.732-5.446,3.61-10.847c1.29-3.725,2.655-7.424,3.987-11.134" transform="translate(-55.838 -136.995)" fill="#eec8bb"/>
        <path id="Trazado_891418" data-name="Trazado 891418" d="M241.744,525.989c1.5-.332,2.741-.395,3.994,1.036,3.8,4.338,7.811,8.486,11.732,12.716.283.305.807.623.635,1.044-.219.535-.845.258-1.282.258q-69.836.021-139.672.014-53.655,0-107.31-.009c-.585,0-1.494.29-1.687-.186-.251-.622.643-.951,1.07-1.39,3.087-3.174,6.157-6.363,9.256-9.525.333-.339.251-.7.306-1.069,1.01.423.943,1.563,1.521,2.275a22.358,22.358,0,0,0,1.7,2.878c.413.737.062,1.132-.621,1.359-.613.2-1.279.165-2.193.491a28.144,28.144,0,0,0,5,.6q23.459.023,46.917-.011a37.1,37.1,0,0,0,5.962-.586c-.894-.15-1.7-.248-2.49-.418-1.138-.243-1.206-.414-.732-1.594a10.642,10.642,0,0,0,1.261-2.173,1.4,1.4,0,0,1,1.68-.99c5.189,1.1,10.284,2.569,15.414,3.893a42.767,42.767,0,0,0,13.914,1.46,226.091,226.091,0,0,1,22.856-.224c2.712.082,5.4-.038,8.1-.05,12.761-.054,25.522-.079,38.282.006,4.458.03,8.93.353,13.376.161,8.1-.35,16.2-.032,24.292-.207,1.352-.029,2.347.2,2.74,1.7a1.761,1.761,0,0,0,1.992,1.308,15.28,15.28,0,0,0,2.933-.313c.422-.347.2-.772.139-1.177-.076-.538-.021-1.02.568-1.262,1.14.112,2.314-.223,3.426.256.46.412.372,1.042.616,1.541.616,1.443,2.025,1.029,3.124,1.3a4.6,4.6,0,0,0,1.225.024c.418-.035.138-.255.237-.114.035.049,0,.093-.1.081-.7-.079-1.45.29-2.1-.245-.052-1.321.929-1.956,1.775-2.681a1.5,1.5,0,0,1,.627-.129c2.664.165,5.31-.372,7.974-.188.172.012.014.088.113,0,.127-.107-.142-.066-.17-.172-.861-1.341-.524-2.746-.2-4.124.119-.511.638-.667,1.142-.685a6.412,6.412,0,0,0,1.535-.185,17.619,17.619,0,0,1,3.55.184,6.345,6.345,0,0,0-1.94-.171c-1.607-.016-1.7-.152-1.151-1.717a3.869,3.869,0,0,0,.235-1.616c.016-.493-.088-1.035.424-1.381" transform="translate(-5.311 -344.261)" fill="#bcd2dc"/>
        <path id="Trazado_891419" data-name="Trazado 891419" d="M343.8,73c-.11.078-.049.6-.338.2-2.493-3.462-6.081-5.463-9.758-7.338a27.342,27.342,0,0,0-4.283-1.7c-1.165-.365-1.554.051-1.744,1.106a8.292,8.292,0,0,1-.74,2.317c-1.365,2.683-3.606,3.1-5.863,1.076a78.1,78.1,0,0,1-7.612-8.52,20.713,20.713,0,0,0-2.341-2.879c.022-.059.045-.118.066-.178.287-.386.744-.4,1.15-.515a6.6,6.6,0,0,0,3.813-3.464.971.971,0,0,0-.327-1.459c-3.692-2.124-4.909-5.952-6.549-9.482a29.45,29.45,0,0,1-1.509-4.385,3.409,3.409,0,0,1,.469-2.472c2-3.855,3.784-7.812,5.616-11.748a8.375,8.375,0,0,0,.647-1.817,3.238,3.238,0,0,0-1.279-3.631,3.75,3.75,0,0,0-3.983.566,5.53,5.53,0,0,0-1.872,3.84,3.217,3.217,0,0,1-.28,1.629,2.344,2.344,0,0,1-1.756.338l-.177-.1c1.3-4.019,3.258-7.77,4.79-11.7a24.08,24.08,0,0,1,2.666-5.431,7.367,7.367,0,0,1,6.462-3.368,1.116,1.116,0,0,0,1.152-.556A7.165,7.165,0,0,1,326.2.029c7.75-.395,13.323,3.25,17.37,9.581a7.011,7.011,0,0,0,2.458,2.634c2.9,1.656,4.45,4.335,3.858,7.676a7.6,7.6,0,0,1-5.906,6.332c-.416.109-.838.2-1.257.292-2.437.686-4.564-.178-6.59-1.383a19.259,19.259,0,0,1-5.815-5.76,22.627,22.627,0,0,1-1.436-2.451c-.644-1.277-.655-1.271-1.49-.028a22.151,22.151,0,0,1-2.893,3.793,10.375,10.375,0,0,1-5.378,2.9,2.653,2.653,0,0,0-2.109,1.659c-1.461,3.169-2.893,6.351-4.339,9.527a2.442,2.442,0,0,0-.117,2.24,43.744,43.744,0,0,1,2.2,5.1c.445,1.217.8,1.267,1.69.4A6.3,6.3,0,0,1,322.328,41a9.613,9.613,0,0,1,2.662.975c1.373.467,2.46,1.544,3.922,1.829a.627.627,0,0,1,.508.655,4.513,4.513,0,0,1-1.209,2.161,35.423,35.423,0,0,1-2.292,3.566,47.9,47.9,0,0,0,4.456,3.512c4.855,3.833,9.1,8.168,11.676,13.916A23.914,23.914,0,0,1,343.8,73" transform="translate(-199.799 0)" fill="#224059"/>
        <path id="Trazado_891420" data-name="Trazado 891420" d="M177.716,360.635c.879,2.243,1.487,4.645,3.612,6.157a1.132,1.132,0,0,1-.43,1.84c-1.462.829-1.009,2.072-.792,3.193a2.762,2.762,0,0,0,2.342,2.3,8.933,8.933,0,0,0,1.161.083,1.559,1.559,0,0,1,1.353.84c1.115,1.888,2.689,2.534,4.662,1.736a1.412,1.412,0,0,1,2.083.7c1.382,2.227,3.911,2.554,6.039,1.037a6.816,6.816,0,0,0,2.433-3.691q.2-2.585.41-5.17a3.717,3.717,0,0,1,1.522-2.6c.536-.3.448-.9.653-1.518l.88,1.761a.964.964,0,0,1,.122.713c-.36.413-.079.534.279.695,1.643.74,3.212,1.637,4.9,2.277.561.212,1.137.436,1.319,1.114a7.73,7.73,0,0,1-1.408,5.078,3.647,3.647,0,0,1-3.051,1.6,3.344,3.344,0,0,1-.631-.11c-1.327-.317-1.409-.265-1.715,1.095-.057.251-.1.5-.164.755-.557,2.348-.556,2.347,1.751,3.277.995.4,2,.783,2.983,1.2a2,2,0,0,1,1.251,1.038,1.3,1.3,0,0,1-.055.853,2.084,2.084,0,0,1-1.152.98,36.381,36.381,0,0,1-11.444,2.926c-3.61.354-7.219.157-10.828.224a2.547,2.547,0,0,1-1.847-.392c-3.181-.4-6.4-.488-9.556-1.09-.047-.438.318-.43.578-.532.97-.38,1.075-.694.461-1.565a7.144,7.144,0,0,0-2.553-2.288c-1.337-.685-2.489-1.648-3.8-2.362a207.045,207.045,0,0,0-17.905-10.564c-.729-.37-1.389-.862-2.133-1.206-.08-.037-.167-.017-.384.113a28.991,28.991,0,0,0,1.923,7.636c.551,1.261.984,2.571,1.648,3.787.176.323.6.984-.4.832l-1.245-.6c-.875-2.791-2.411-5.34-2.986-8.243a10.258,10.258,0,0,1-.262-1.912c-.013-1.41.183-2.854-.722-4.115a.777.777,0,0,1,.016-.747c1.306-2.858,1.907-5.946,2.909-8.9.369-.545.924-.374,1.413-.325,3.379.339,6.769.556,10.145.9,2.269.234,4.55.288,6.819.372,2.747.1,5.487.45,8.243.326a1.952,1.952,0,0,1,1.555.485" transform="translate(-95.937 -234.717)" fill="#214159"/>
        <path id="Trazado_891421" data-name="Trazado 891421" d="M391.286,279.57c2.457-.36,4.754-1.339,7.168-1.862.29-.063.585-.1.878-.156q.626,5.294,1.252,10.587c.268,2.253.634,4.5.78,6.76a7.082,7.082,0,0,0,1.249,3.326c2.51,3.983,3.93,8.464,5.953,12.667a21.75,21.75,0,0,0,6.493,8.32,13.741,13.741,0,0,1,5.825,9.076c.122.795.619,1.526.431,2.381-1.074,1.063-2.246.62-3.416.223-1.014-.958-.729-2.282-.972-3.457-.488-1.859-.692-3.782-1.322-5.612.733,2.306,1.048,4.7,1.546,7.053a.947.947,0,0,1-.161.79,3.723,3.723,0,0,1-3.907-1.185,4.976,4.976,0,0,1-1.255-3.175c-.15-1.2-.428-2.393-.444-3.254.155,1.218.413,2.784.581,4.361-.7.955-1.575.4-2.31.149a4.14,4.14,0,0,0-2.384-.1c-.6.136-1.042.314-1.116,1.012-.039.368-.08.865-.567.891-.589.032-.574-.514-.672-.92a16.98,16.98,0,0,0-.236-2.721c-.006-1.595-.281-3.169-.355-4.649.118,1.549.066,3.21.052,4.874a1.679,1.679,0,0,1-.552,1.4,2.425,2.425,0,0,1-1.3.272c-1.572-.025-2.948-.813-4.439-1.166a1.353,1.353,0,0,1-.963-1.381c-.016-.476-.22-.916-.214-1.39a7.863,7.863,0,0,1,.491-3.074,81.271,81.271,0,0,0-2.972,9.716,1.3,1.3,0,0,1-.245.589,6.185,6.185,0,0,1-4.049-1.615c-.541-.4-.243-1.021-.108-1.561.594-2.374,1.424-4.682,1.95-7.073.342-1.026-.468-1.624-.951-2.26a16.835,16.835,0,0,1-3.319-8.04,13.6,13.6,0,0,1,1.215-8.433,9.574,9.574,0,0,1,9.449-5.017,9.279,9.279,0,0,0-8.33,2.905c-1.211,1.236-1.818,1.146-2.532-.442a10.487,10.487,0,0,1-.837-6.317c.756-4.08,2.232-7.964,3.357-11.944a1.064,1.064,0,0,1,.457-.609.734.734,0,0,1,.805.062" transform="translate(-253.058 -181.727)" fill="#eec7ba"/>
        <path id="Trazado_891422" data-name="Trazado 891422" d="M34.471,521.028c-.664-.654-.74-1.625-1.272-2.35-.982-2.687-2.352-5.226-3.077-8.012a3.857,3.857,0,0,1,2.251-.438q21.732-.024,43.463,0c.945,0,1.922-.031,2.46,1.284a1.608,1.608,0,0,1,1.8-1.27c4.312-.038,8.623-.031,12.935,0a2.32,2.32,0,0,1,1.358.34c.58.512.325,1.1.125,1.667-.359,1.017-.828,1.99-1.228,2.99a35.82,35.82,0,0,0-1.552,3.827c-.126.162-.3.274-.437.427a1.961,1.961,0,0,1-2.669,1.1c-1.105-.382-2.221-.014-3.332.049q-9.341.525-18.7.563c-4.561.021-9.1-.165-13.65-.476-1.885-.129-3.783.174-5.674.067-3.3-.187-6.594.368-9.886-.019-1-.118-1.907.612-2.916.258" transform="translate(-19.722 -334.061)" fill="#416786"/>
        <path id="Trazado_891423" data-name="Trazado 891423" d="M337.6,70.684a10.387,10.387,0,0,0-3.042-1.007,5.461,5.461,0,0,0-5.426,1.964c-.643.821-1.139.6-1.594-.111a5.272,5.272,0,0,1-.584-1.285,20.348,20.348,0,0,0-2.008-4.6,1.824,1.824,0,0,1-.132-1.835q2.537-5.572,5.051-11.154a1.28,1.28,0,0,1,1.087-.778c3.948-.559,6.585-2.929,8.577-6.2.424-.7.869-1.379,1.418-2.249l2.335,4.233c1.879,3.053,3.214,6.473,6.107,8.839a15.024,15.024,0,0,0,2.808,1.81c.567.285,1.216.492,1.43,1.2-.521,1.443-1.45,2.706-1.838,4.207-.586.343-1.163.034-1.742-.028-1.052-.113-2.078-.548-3.16-.246a3.2,3.2,0,0,0-1.915,1.763,23.049,23.049,0,0,0-2.135,5.488c-.356,1.477-1.092,1.8-2.455,1.139a5.694,5.694,0,0,1-1.183-.766,1.665,1.665,0,0,0-1.6-.393" transform="translate(-212.552 -28.438)" fill="#eec7ba"/>
        <path id="Trazado_891425" data-name="Trazado 891425" d="M282,56.987a7.478,7.478,0,0,1,.937-4.595,4.78,4.78,0,0,1,2.856-2.067c2.649-.707,4.7,1.4,4.14,4.229a15.507,15.507,0,0,1-1.448,3.577q-2.454,5.19-4.988,10.341a3.5,3.5,0,0,0-.4,2.232c.885,3.386.43,6.915,1.109,10.326a37.435,37.435,0,0,0,1.9,7.6,1.437,1.437,0,0,1,.094,1.356.962.962,0,0,0-.058.127c-5.061.1-8.544-2.759-11.585-6.316-4.008-4.691-6.173-10.272-7.537-16.209a2.8,2.8,0,0,1-.024-.515,26.433,26.433,0,0,0,4.584-1.122C274.6,64.6,276.55,62.1,278.35,59.49a17.554,17.554,0,0,0,1.816-2.257l.078-.036a13.949,13.949,0,0,0,1.521,3.089c.2.224.33.5.548.712.276.263.613.642.977.3.329-.312-.075-.618-.273-.873A4.041,4.041,0,0,1,282,56.987" transform="translate(-174.812 -32.86)" fill="#eec7ba"/>
        <path id="Trazado_891426" data-name="Trazado 891426" d="M254.942,444.1c3.057,0,6.114.058,9.169-.023a37.68,37.68,0,0,0,14.564-3,2.45,2.45,0,0,0,1.335-.932c.851.98.574,2.23.632,3.327.143,2.7.328,5.394.608,8.085a9.885,9.885,0,0,1-.142,3.08,17.952,17.952,0,0,0-.07,6.912,3.406,3.406,0,0,1,.066,1.279c-.271.786-.87.739-1.507.593-2.842-.434-5.715-.636-8.563-1.064a9.707,9.707,0,0,1-4.2-1.868,29.508,29.508,0,0,1-7.939-8.573,6.011,6.011,0,0,0-1.4-1.3.476.476,0,0,1,.042-.573c.322-1.195-.739-1.846-1.113-2.765-.439-1.08-1.311-1.966-1.482-3.179" transform="translate(-166.923 -288.182)" fill="#a6c5d2"/>
        <path id="Trazado_891427" data-name="Trazado 891427" d="M457.5,449.9a21.408,21.408,0,0,1,4.223,4.9c-.166.671-.719.432-1.128.444a26.218,26.218,0,0,1-3.338-.273c-.772-.075-1.161.082-.743.991a21.021,21.021,0,0,1,1.617,4.616c.161.8.694.865,1.342.86,2.064-.018,4.128-.006,6.192-.007a3.183,3.183,0,0,1,1.4.145,20.9,20.9,0,0,1-.713,6.19c-.375,2.127-1.773,3.561-3.345,4.853a5.1,5.1,0,0,1-1.569.881c-3.16.6-6.335,1.085-9.445,1.964-1.712.484-3.567.324-5.339.712-.876.192-1.769.836-2.738.264-.3-.319-.046-.566.14-.777,2.2-2.5,2.531-5.46,2.1-8.6a10.311,10.311,0,0,1-.106-2.057,1.328,1.328,0,0,1,1.087-1.257,31.242,31.242,0,0,1,8.712-1.716c.585-.021.752-.3.771-.795a4.156,4.156,0,0,0-.255-1.523c-.423-1.222-.951-2.4-1.456-3.592a1.978,1.978,0,0,0-2.324-1.393,2.676,2.676,0,0,1-1.153-.1,4.023,4.023,0,0,1-2.516-2.326c.3-.693.988-.966,1.508-1.422.576-.4,1.1-.886,1.664.093.921,1.612,1.035,1.628,2.867,1.272.87-.145,1.244-.781,1.574-1.509.182-.4.2-1.09.975-.842" transform="translate(-290.562 -294.539)" fill="#5c3b48"/>
        <path id="Trazado_891428" data-name="Trazado 891428" d="M140.474,336.31c-7.182-.132-14.349-.562-21.509-1.113-2.225-.171-4.444-.432-6.666-.65-1.755-.468-3.512-.93-5.265-1.407-4.776-1.3-9.49-2.754-13.409-5.968a13.591,13.591,0,0,1-3.866-4.886c-.266-.646-.066-1.159.637-.871,3.7,1.509,7.653,2.272,11.284,3.962a110.559,110.559,0,0,0,17.269,4.55c5.569.965,11.187,1.641,16.785,2.434.891.126,1.789.208,2.685.285a1.177,1.177,0,0,1,1.178.97c.242.911.58,1.8.877,2.694" transform="translate(-58.696 -210.392)" fill="#de7f7a"/>
        <path id="Trazado_891429" data-name="Trazado 891429" d="M25.847,502.585c-.279-.223-.168-.695-.707-.808a1.764,1.764,0,0,1-1.316-2.453c.344-.876,1.165-.483,1.8-.583,1.469.323,2.9-.175,4.362-.174,4.1,0,8.2.162,12.29-.062,2.5-.137,4.983.263,7.457.03,4.693-.441,9.389-.1,14.081-.225.883.005,1.768,0,2.652,0a8.811,8.811,0,0,0,2.789,0c2.055-.092,4.081.424,6.14.254a6.477,6.477,0,0,0,1.648-.193,10.706,10.706,0,0,1,1.384-.058c1.5-.053,3,.609,4.51.053,1.669-.114,3.341-.022,5.01-.062a16.609,16.609,0,0,1,3.1.018c1.28.144,1.834.634,1.876,1.56a1.966,1.966,0,0,1-1.8,2.375,3.253,3.253,0,0,1-.645.045c-1.853-.088-3.708-.049-5.561-.049q-28.065,0-56.13,0a7.546,7.546,0,0,0-2.933.331" transform="translate(-15.505 -326.224)" fill="#426a87"/>
        <path id="Trazado_891430" data-name="Trazado 891430" d="M587.276,439.26a46.155,46.155,0,0,1,8.637,2.025,13.982,13.982,0,0,1,8.995,8.765c.969,2.613,2.134,5.155,2.877,7.851a1.376,1.376,0,0,1,.262.591c0,.438.015.879-.514,1.058-.983-.408-1.954.038-2.932.046-.775.007-1.551.029-2.325,0-1.315-.052-1.587-.306-1.642-1.611-.024-.56-.117-1.109-.159-1.665.249,2.506-.1,2.766-2.467,1.839-2.591-1.015-3.658-1.645-4.494-2.654.124,1.3.065,1.424-.707,1.509a.854.854,0,0,1-.146-.356c-.068-2.993-.258-5.979-.489-8.96.52-1,1.212-.4,1.719-.076,2.085,1.326,4.372,2.358,6.245,4.289a21.565,21.565,0,0,0-1.357-4.638,8.215,8.215,0,0,1,.56,2.1c.022.254.089.544-.14.723-.307.24-.582,0-.8-.173-1.283-1.01-2.651-1.9-4.009-2.8a7.4,7.4,0,0,0-2.535-1.224c-.382-.17-.509-.538-.681-.872-1.128-2.436-3.316-3.9-5.4-5.658a1.892,1.892,0,0,1,1.51-.1" transform="translate(-383.529 -287.531)" fill="#9e545c"/>
        <path id="Trazado_891432" data-name="Trazado 891432" d="M159.876,397.592c3.492,1.809,6.937,3.7,10.3,5.736a70.667,70.667,0,0,1,7.554,4.865,11.339,11.339,0,0,1,2.649,4.457c.332.959.282,1.687-.838,2a58.921,58.921,0,0,1-9.853-2.221c-1.143-.326-2.268-.718-3.4-1.08-1.653-3.735-3.139-7.537-4.644-11.158-.067.263.484.807-.139,1.2-1.494.044-2.078-.506-1.939-1.925a5.2,5.2,0,0,1,.307-1.874" transform="translate(-104.465 -260.323)" fill="#486d8b"/>
        <path id="Trazado_891433" data-name="Trazado 891433" d="M539.073,441.574c.794-.164,1.849.848,2.373-.529,1.165-.2,1.649.716,2.2,1.419a19.338,19.338,0,0,1,2.064,3.526,22.762,22.762,0,0,1,1.325,7.082c.036,3.37.037,6.729-1.07,9.975a14.4,14.4,0,0,1-4.889,7.289,1.052,1.052,0,0,1-.628.16c-.658-.184-1.512-.032-1.726-.99.047-.538.457-.8.835-1.084,3.789-2.84,4.919-6.885,5.138-11.342.034-.68-.2-1.127-.978-.908-1.779.5-3.4-.113-5.03-.677-1.56-.54-1.782-.448-2.467,1.055a2.76,2.76,0,0,1-.542,1.02c-1.515,1.273-1.521,2.943-1.353,4.694a42.151,42.151,0,0,1-.245,4.763c-.04,2.345.408,2.743,2.715,2.521.466-.045.945-.186,1.342.212a2.542,2.542,0,0,1-3.424.925,6.254,6.254,0,0,0-3.3-.844c-.364.026-.792-.06-.884-.563a.648.648,0,0,1,.286-.25c1.709-.6,1.712-.6,1.71-2.467,0-1.421.014-2.843-.01-4.264a3.478,3.478,0,0,0-1.822-3.317,5.773,5.773,0,0,1-2.516-2.86,3.359,3.359,0,0,0-.235-.46,3.785,3.785,0,0,0-3.014-1.451c-1.2.3-1.035,1.41-1.1,2.232a16.679,16.679,0,0,0,.866,6.481c.155.479.494.933.18,1.469-1.216-.136-1.859-1.354-1.539-2.915q0-.129,0-.258c-.622-.678.086-1.649-.513-2.332-.3-.189-.257-.492-.263-.78-.015-1.918-.515-3.987,1.618-5.241a2.746,2.746,0,0,1,2.594.24c.887.4,1.186.058,1.65-.733,1.111-1.9.541-3.541-.364-5.232-.237-.443-.677-.807-.593-1.389.049-3.08,1.413-4.29,4.717-4.184-.01.547-.483.665-.837.873q-.836.492-1.628,1.047c-1.429,1.005-1.473,1.232-.549,2.682a1.8,1.8,0,0,1,.334.548c.452,2.473,2.3,2.93,4.384,3.115a2.284,2.284,0,0,0,1.464-.322,18.449,18.449,0,0,0,2.388-1.964,15.062,15.062,0,0,1,3.34-2.186c.869-.408.93-.907.223-1.554a19.225,19.225,0,0,0-1.445-1.286c-.332-.247-.773-.426-.779-.949" transform="translate(-342.103 -288.755)" fill="#f7e7d8"/>
        <path id="Trazado_891434" data-name="Trazado 891434" d="M651.381,445.168c-.942.117-1.347-.171-1.311-1.244.089-2.622.049-5.25.031-7.875a4.218,4.218,0,0,1,1.588-3.515c.892-.707.4-.8-.3-.9.265-1.258,1.19-1.414,2.25-1.352a5.229,5.229,0,0,1,4.582,5.135c.168,2.879.069,5.769.034,8.654a1.247,1.247,0,0,1-.464,1.147c-2.138.016-4.275.113-6.411-.052" transform="translate(-425.631 -281.721)" fill="#3e6584"/>
        <path id="Trazado_891435" data-name="Trazado 891435" d="M659.84,417.64c0-2.926-.082-5.854.016-8.777.092-2.771-1.575-5.389-4.422-5.693a2.26,2.26,0,0,0-1.593.039c-.367.117-.882.248-.739-.493a1.075,1.075,0,0,0,.566-.832c.876-.689,1.9-.365,2.867-.4,1.819-.06,1.859-.052,1.849-1.91a28.427,28.427,0,0,0-.1-3.736,1.32,1.32,0,0,0-1.547-1.318c-.645.026-1.287.116-1.932.095-.59-.02-1.063-.1-1.077-.923-.015-.805.233-1.234,1.036-1.3a16.056,16.056,0,0,1,1.934.02c.969.04,1.426-.245,1.26-1.342a5.269,5.269,0,0,1,.056-2.677c2.239-.147,2.494-.095,2.206,2.048-.45,3.357-.4,6.715-.536,10.075a2.328,2.328,0,0,0,1.244,2.511,6.286,6.286,0,0,1,2.833,4.284c.193,3.273.033,6.548.086,9.822a.789.789,0,0,1-.755.88c-1.107.131-2.236.348-3.247-.38" transform="translate(-427.602 -254.272)" fill="#24435b"/>
        <path id="Trazado_891436" data-name="Trazado 891436" d="M549.624,441.572a13.06,13.06,0,0,1,3.03,2.577c.419.5.386.851-.173,1.109a28.009,28.009,0,0,0-6.163,4.418,1.9,1.9,0,0,1-2.251.386,1.556,1.556,0,0,0-.877-.174,2.307,2.307,0,0,1-2.992-2.051,4.838,4.838,0,0,0-1.139-2c-.794-.907-.443-1.489.313-2.125a33.164,33.164,0,0,1,3.357-2.146,11,11,0,0,1,6.9.006" transform="translate(-352.653 -288.753)" fill="#e56e72"/>
        <path id="Trazado_891437" data-name="Trazado 891437" d="M99.109,466.928c.708-.826.886-2.064,2-2.575.212.309.588.451.788.773h0c2.8,1.505,5.454,3.264,8.324,4.628,3.842,1.826,7.856,3.247,11.764,4.918.778.332,1.769.356,2.222,1.278a1.735,1.735,0,0,1-1.749.535c-1.739-.139-3.493-.05-5.222-.337a35.316,35.316,0,0,0-6.059-1.871,25.1,25.1,0,0,1-2.557-.269c-.6-.125-1.086-.3-1.1-1.023.113-.193.239-.355.49-.184-.078-.22-.274-.162-.431-.173a4.439,4.439,0,0,1-2.374-.915c-1.51-1.142-3.149-2.09-4.69-3.184a2.9,2.9,0,0,1-1.412-1.6" transform="translate(-64.892 -304.035)" fill="#c26b6c"/>
        <path id="Trazado_891438" data-name="Trazado 891438" d="M656.28,453.612c3.894.346,3.9.346,3.923-3.467.012-2.285,0-4.57-.007-6.855a2.115,2.115,0,0,1,.232,1.493c-.047,4.038-.151,8.082-.15,12.112,0,5.021.028,10.053.2,15.077-.208,1.046.21,2.145-.268,3.168-.559-.441-.461-1.079-.471-1.665-.029-1.634.008-3.269-.017-4.9-.021-1.412-.11-1.487-1.465-1.359a12.576,12.576,0,0,1-2.062.031c-1.753.116-3.506.055-5.258.033-.537-.006-1.141.034-1.446-.59.4-.614,1.046-.5,1.624-.514,1.284-.041,2.569-.011,3.853-.019.821-.006,1.136-.4,1.122-1.195s-.444-1.029-1.146-1.035c-1.8-.017-3.6.006-5.395-.012a3.079,3.079,0,0,1-1.746-.3c-.335-.415-.09-.724.184-1.029a5.506,5.506,0,0,1,2.653-.3c1.287-.027,2.576.007,3.863-.015.44-.007.93.093,1.343-.337-.421-.437-.912-.337-1.354-.344-1.545-.023-3.091,0-4.636-.016a2.11,2.11,0,0,1-1.578-.4q.009-.28.018-.559c2.371.008,4.743-.011,7.114.039.826.017,1.165-.223,1.13-1.091-.061-1.507-.04-3.018-.032-4.526,0-.825-.26-1.182-1.2-1.183a25.546,25.546,0,0,1-5.521-.16l6.489-.079" transform="translate(-424.041 -290.243)" fill="#a6c3d2"/>
        <path id="Trazado_891439" data-name="Trazado 891439" d="M29.945,509.253c-.011-.714.423-.815,1.019-.8,1.249.029,2.5.009,3.75.009q29.231,0,58.461.011c.531,0,1.136-.219,1.573.315a.606.606,0,0,1-.341.975,2.814,2.814,0,0,0-1.631-.262c-4.18,0-8.36.021-12.539-.018-1.016-.009-1.816.027-1.685,1.365.017.171-.173.363-.269.549-.128-.068-.26-.1-.265-.146-.17-1.719-1.281-1.787-2.7-1.782q-21.459.074-42.917.01c-.8,0-1.6.4-2.394.019a.306.306,0,0,1-.058-.244" transform="translate(-19.603 -332.892)" fill="#25425a"/>
        <path id="Trazado_891441" data-name="Trazado 891441" d="M658.175,388.159c.549,1.213.127,2.549.487,3.8.138.479-.3.642-.742.63-.9-.023-1.8-.049-2.7-.068-.56-.012-1.12-.091-1.167.768-.054.977.683.672,1.132.73a9.164,9.164,0,0,0,1.268-.126c2.278-.041,2.407.055,2.495,2.3.058,1.5-.013,3.01.025,4.513.019.755-.316.961-1.009.944-1.375-.033-2.751-.009-4.127-.009-.013-.991-.081-1.984-.026-2.971a60.779,60.779,0,0,0-.439-8.709c-.154-1.746.122-1.937,1.849-1.952a10.894,10.894,0,0,1,2.957.147" transform="translate(-427.768 -254.032)" fill="#3c6484"/>
        <path id="Trazado_891442" data-name="Trazado 891442" d="M505.872,500.278c.812.788-.065,2.492,1.546,2.847,1.112.581,1.469,1.858,2.415,2.615.512.41,1.206.726,1.353,1.494-.068.392-.374.549-.656.374-.652-.4-1.478-.371-2.057-1-.7-.761-.653.061-.767.465a1.372,1.372,0,0,1-.8.366,1.214,1.214,0,0,0-1.393-.057c-.6.3-1.191.915-2,.49-2.124-.483-4.289-.735-6.415-1.192-.448-.1-.958-.04-1.269-.492a13.136,13.136,0,0,0,4.6-5.4c.953.788,3.665.771,4.433-.077a1.19,1.19,0,0,1,1.007-.435" transform="translate(-324.644 -327.556)" fill="#f3e6da"/>
        <path id="Trazado_891443" data-name="Trazado 891443" d="M134.051,453.8c.872-2.513,1.576-5.083,2.62-7.536,1.58.6,2.745,1.9,4.322,2.535.528.211,1.213.2,1.572.78a5.233,5.233,0,0,1-.317,2.4,48.231,48.231,0,0,1-1.273,5.37c-.434.407-.879.2-1.3-.012-1.52-.76-3.081-1.431-4.609-2.171-.552-.268-1.233-.5-1.018-1.369" transform="translate(-87.743 -292.192)" fill="#476f8d"/>
        <path id="Trazado_891444" data-name="Trazado 891444" d="M489.515,470.507a2.315,2.315,0,0,1-1.371.251c-2.365.012-4.73-.009-7.093.063-.629.019-.708-.233-.774-.718a16.662,16.662,0,0,0-2-5.659c-.395-.736-.266-1.023.58-.954,1.45.119,2.9.222,4.35.341.331.027.667.177.963-.1a58.032,58.032,0,0,0,3.991,4.5,4.47,4.47,0,0,1,1.349,2.277" transform="translate(-313.014 -303.464)" fill="#9c555f"/>
        <path id="Trazado_891445" data-name="Trazado 891445" d="M154.484,394.56a1.937,1.937,0,0,1,.164,1.469c-.376,1.653-.089,2.011,1.631,2.141.736.516.837,1.385,1.127,2.127q1.415,3.615,3.106,7.107c.128.264.335.518.178.845a39.135,39.135,0,0,1-5.723-2.281c.524-.1.277-.321.136-.609a32.329,32.329,0,0,1-3.3-9.419c-.148-1-.891-2.395-.2-2.893.582-.423,1.666.841,2.557,1.3.114.059.217.139.325.209" transform="translate(-99.073 -257.29)" fill="#486f8e"/>
        <path id="Trazado_891446" data-name="Trazado 891446" d="M110.882,465.539c-.137-.893.522-.488.824-.444a33.359,33.359,0,0,1,5.842,1.539c.2.068.414.108.621.161a20.906,20.906,0,0,1,6.657,3.1q2.17,1.492,4.354,2.968a1.1,1.1,0,0,1,.2.164c.324.373.971.707.628,1.261-.32.519-.936.221-1.428.075a62.39,62.39,0,0,1-15.62-6.944,5.188,5.188,0,0,1-2.079-1.884" transform="translate(-72.588 -304.435)" fill="#dd7a7b"/>
        <path id="Trazado_891447" data-name="Trazado 891447" d="M143.044,385.4c1.242,1.565,1.023,3.414,1.126,5.241a16.061,16.061,0,0,0,1.614,5.63c.419.934.808,1.881,1.211,2.822.189.441.366.882,0,1.325-1.275-.516-2.817-.962-3.483-2.057a15.7,15.7,0,0,1-2.293-4.873c-.616-2.984.476-5.559,1.823-8.088" transform="translate(-92.349 -252.338)" fill="#45718e"/>
        <path id="Trazado_891448" data-name="Trazado 891448" d="M39.118,486.925c2.945-2.77,6.246-4.856,10.359-5.377a29.2,29.2,0,0,1,2.4,2.8,6.2,6.2,0,0,0,3.9,1.977,6.372,6.372,0,0,1,1.873.4c.405.173.724.418.113.772-2.9,0-5.8.251-8.7.056a1.981,1.981,0,0,1-.863-.521c-2.253-1.973-4.414-2.088-6.964-.427-.688.449-1.266,1.2-2.253,1-.332-.3.022-.462.132-.674" transform="translate(-25.436 -315.293)" fill="#e27574"/>
        <path id="Trazado_891449" data-name="Trazado 891449" d="M473.682,437.784c-.639.105-.5.714-.694,1.1-.382.765-.65,1.631-1.77,1.532-1.605.194-2.611-.7-2.716-2.452-.134-2.249.979-4.144,1.8-6.117.241-.582.833-.509,1.351-.494a6.307,6.307,0,0,0,3.352.011c.039,1.72-.81,3.2-1.324,4.762-.187.571-.49,1.105.005,1.659" transform="translate(-306.744 -282.42)" fill="#db7d7b"/>
        <path id="Trazado_891450" data-name="Trazado 891450" d="M389.014,67.548c-1.833-1.106-3.853-1.911-5.351-3.544a24.408,24.408,0,0,1-4.994-8.31,24.19,24.19,0,0,0,5.175,5.25,12.113,12.113,0,0,0,7.018,2.065,26.07,26.07,0,0,1-1.847,4.538" transform="translate(-247.933 -36.466)" fill="#d67e7e"/>
        <path id="Trazado_891452" data-name="Trazado 891452" d="M96.827,476.515c.585,1.134,1.719.793,2.643.909a2.617,2.617,0,0,1,1.064.142,31.641,31.641,0,0,0,5.864,1.786,11.961,11.961,0,0,0,7,.036c.905-.234,1.8-.421,2.274.71-1.109.512-2.279.215-3.414.21-2.342-.012-4.683-.131-7.025-.206-3.942-.2-7.362-2.165-11.039-3.257a42.289,42.289,0,0,1-7.76-3.1,18.073,18.073,0,0,1-2.842-1.767,2.232,2.232,0,0,1-.862-1.1c-.168-.6-.064-1.054.7-1a4.371,4.371,0,0,1,1.765.136l2.828.749c.944,2.915,3.6,3.567,6.01,4.544a8.663,8.663,0,0,1,2.8,1.2" transform="translate(-54.121 -307.643)" fill="#da8485"/>
        <path id="Trazado_891453" data-name="Trazado 891453" d="M78.239,484.656a20.579,20.579,0,0,0-2.119-.445c-3.277-.348-5.133-2.444-6.485-5.183A2,2,0,0,1,70.68,477.7c.86.04.98.973,1.594,1.325a5.592,5.592,0,0,1,.828.8c.913.825.959.8,1.382-.338.223-.6.232-1.428,1.2-1.429a.951.951,0,0,1,.622.436,2.469,2.469,0,0,1-.006,1.756,1.242,1.242,0,0,0,.84,1.608c1.468.7,2.984,1.283,4.442,1.995.356.174,1.254.311.5,1.085-.859.012-1.7.207-2.565.17-.47-.02-.957.013-1.271-.449" transform="translate(-45.593 -312.772)" fill="#703c4a"/>
        <path id="Trazado_891454" data-name="Trazado 891454" d="M646.13,429.958c.674.681,1.661-.245,2.332.455-.973-.235-1.463.514-2.074,1.017a4.362,4.362,0,0,0-1.841,3.656c-.071,2.881-.075,5.763-.078,8.645,0,.7.058,1.223-.959,1.218-.944,0-1.042-.43-1.019-1.167.095-3.132-.338-6.289.27-9.392a6.067,6.067,0,0,1,3.369-4.433" transform="translate(-420.63 -281.515)" fill="#355973"/>
        <path id="Trazado_891455" data-name="Trazado 891455" d="M530.209,454.64a21.2,21.2,0,0,1,1.333,2.023c1.4,2.086.3,3.909-.477,5.776-.22.531-.636.274-.986.145a7.493,7.493,0,0,0-2.947-.811.489.489,0,0,1-.438-.349c.114-2.317,1.308-4.224,2.363-6.182.2-.362.607-.46.939-.651a.9.9,0,0,0,.214.049" transform="translate(-344.852 -297.643)" fill="#e0736f"/>
        <path id="Trazado_891456" data-name="Trazado 891456" d="M578.244,443.956c-.728-1.194-1.411-2.417-2.2-3.569a3.239,3.239,0,0,0-1.7-1.324l-1.6-1.074a30.118,30.118,0,0,1,6.007.513h-1.214c2.288,1.623,4.358,3.2,5.4,5.719-1.009.7-2.052.025-3.078.06a6.422,6.422,0,0,1-1.616-.324" transform="translate(-375.002 -286.772)" fill="#e6c1b5"/>
        <path id="Trazado_891457" data-name="Trazado 891457" d="M99.01,317.375a49.8,49.8,0,0,1-6.838-2.032c-1.46-.486-3.062-.62-4.363-1.594-.6-.452-.7.058-.719.534a10.417,10.417,0,0,1-1.52-5.172,31.706,31.706,0,0,1,3.064,2.326,31.643,31.643,0,0,0,8.024,4.411,6.269,6.269,0,0,1,2.354,1.526" transform="translate(-56.026 -202.391)" fill="#e4a199"/>
        <path id="Trazado_891458" data-name="Trazado 891458" d="M147.393,443.823c-.851.587-1.347-.282-1.946-.543a10.921,10.921,0,0,1-3.731-2.564c.364-1.005.479-2.568,1.156-2.87.776-.346,1.718.966,2.616,1.513.844.513,1.661,1.07,2.49,1.607a1.1,1.1,0,0,1,.2.581c-.147.8-.074,1.674-.789,2.276" transform="translate(-92.788 -286.641)" fill="#23435c"/>
        <path id="Trazado_891459" data-name="Trazado 891459" d="M214.02,434.757a1.637,1.637,0,0,0,.294-2.375c-.6-.962-.57-2.29-1.786-2.91-.421-.215-.313-.753-.32-1.177,2.178,1.306,4.54,2.348,6.255,4.32a4.037,4.037,0,0,1,.635.956c.391.862.19,1.419-.86,1.451-.3.009-.609-.036-.837.229a12.143,12.143,0,0,1-3.381-.5" transform="translate(-138.939 -280.426)" fill="#385a73"/>
        <path id="Trazado_891460" data-name="Trazado 891460" d="M159.815,447.539q.007-.273.013-.546a90.049,90.049,0,0,0,12.4,4.3,88.6,88.6,0,0,0,15.051,2.719c2.655.233,5.307.488,7.974.516q0,.247,0,.494a1.831,1.831,0,0,1-1.569.406,83.524,83.524,0,0,1-20.433-2.856,81.533,81.533,0,0,1-11.778-3.888c-.627-.274-1.317-.462-1.661-1.147" transform="translate(-104.639 -292.668)" fill="#bbc9c9"/>
        <path id="Trazado_891461" data-name="Trazado 891461" d="M51.827,497.024l4.111.046c.525-.52,1.2-.378,1.833-.4,2.449-.1,4.9.181,7.347-.078a2.86,2.86,0,0,1,2.471,1.012c-3.27.016-6.541-.022-9.809.056-8.9.215-17.8.123-26.706.15a3.862,3.862,0,0,1-1.778-.148c1.243-.083,2.549.093,3.569-.885l-.2.6c.69.179,1.409-.282,2.1.095.1.054.25.01.377.014a1.016,1.016,0,0,0-.257-.016c-.206-.026-.464-.028-.4-.332.067-.345.347-.449.669-.467,1.955.05,3.91-.074,5.862.059.462.386.368.7-.2.726-1.216.06-2.435.024-3.27.021,1.919.2,4.217-.329,6.507.008-.528-.142-1.148.4-1.555-.4l9.334-.052" transform="translate(-19.182 -325.141)" fill="#ccadb2"/>
        <path id="Trazado_891462" data-name="Trazado 891462" d="M98,479.474a5.216,5.216,0,0,0-2.314-.761,5.272,5.272,0,0,1-2.259-.4c-3.977-1.41-8.059-2.541-11.807-4.546a4.367,4.367,0,0,1-1.479-1.013l-.475-.3c-1.7-.536-2.761-1.883-3.923-3.1.032-.223.153-.5.355-.445,1.5.434,3.094-.12,4.567.483a9.3,9.3,0,0,0-1.032-.013c-.44.041-1.1-.247-1.242.336-.126.5.319.929.755,1.253a23.082,23.082,0,0,0,3.408,2.073c3.655,1.847,7.612,2.89,11.435,4.289a37.052,37.052,0,0,0,6.713,2.14H98" transform="translate(-49.593 -307.014)" fill="#f6dcd2"/>
        <path id="Trazado_891463" data-name="Trazado 891463" d="M131.733,477.875c-.65-.583-1.527-.441-2.275-.711a26.9,26.9,0,0,1-5.13-1.922c-5.358-2.123-10.7-4.3-15.553-7.466-.567-.37-1.254-.6-1.586-1.265.431-.2.854.411,1.287.013,1.907,1.239,3.747,2.567,5.754,3.667a52.1,52.1,0,0,0,11.463,4.581c.566.154,1.043.654,1.731.453,0-.583-.725-.705-.791-1.232l.155-.106c.547-.095.886.283,1.215.6a16,16,0,0,0,5.13,3.076.352.352,0,0,1,.022.355l-1.424-.038" transform="translate(-70.183 -305.42)" fill="#f1d5ca"/>
        <path id="Trazado_891464" data-name="Trazado 891464" d="M371.938,114.384a5.345,5.345,0,0,1,1.018-2.057,13.751,13.751,0,0,0,2.413-5.5,1.592,1.592,0,0,1,.779-1.138,1.418,1.418,0,0,0,1.387-1.575,1.4,1.4,0,0,1,1.222-.615c.545.176,1.365-.107,1.441.857a43.434,43.434,0,0,1-5.529,7.538c-.868.87-1.494,2.021-2.731,2.492" transform="translate(-243.526 -67.765)" fill="#d48481"/>
        <path id="Trazado_891467" data-name="Trazado 891467" d="M73.725,469.979c.188-.08.4-.241.557.011.845,1.334,2.238,2.066,3.366,3.088-.927.37-.891,1.3-1.014,2.02-.191,1.119-.571.965-1.192.374a15.718,15.718,0,0,1-2.782-2.911l1.064-2.583" transform="translate(-47.575 -307.637)" fill="#af5e65"/>
        <path id="Trazado_891469" data-name="Trazado 891469" d="M106.8,477.791c-2.607-.852-5.343-1.4-7.558-3.178-.814-.655-1.644-1.314-1.247-2.564l.317-.236c1.968,1.848,4.425,3.008,6.543,4.65a4.785,4.785,0,0,0,2.145.8c.189.033.482.1.373.362-.047.114-.373.111-.572.162" transform="translate(-64.096 -308.919)" fill="#803c44"/>
        <path id="Trazado_891470" data-name="Trazado 891470" d="M168.965,414.041a55.325,55.325,0,0,1-4.411-10.079l-.6-2.128c.54-.132.7.263.819.583,1.34,3.705,2.868,7.333,4.482,10.925.132.293.273.547-.08.771a.268.268,0,0,1-.211-.072" transform="translate(-107.349 -263.083)" fill="#214159"/>
        <path id="Trazado_891471" data-name="Trazado 891471" d="M390.776,102.139a3.091,3.091,0,0,0-1.525-.558c-.569-.278-1.453-.308-1.059-1.344,1.788-.391,3.456.241,5.155.6.18.772-.2,1.111-.919,1.174-.55.048-1.1.085-1.652.126" transform="translate(-254.104 -65.549)" fill="#2a3b53"/>
        <path id="Trazado_891472" data-name="Trazado 891472" d="M142.9,475.057a16.28,16.28,0,0,1-4-2.538,25.747,25.747,0,0,0-6.439-3.416,3.027,3.027,0,0,1-.432-.259c.528.026.431-.551.726-.75.023.209-.028.464.207.572q3.268,1.5,6.543,2.989a.826.826,0,0,1,.665.274,6.306,6.306,0,0,0,1.9,1.854c.406.329.976.587.812,1.289Z" transform="translate(-86.443 -306.484)" fill="#f1d5ca"/>
        <path id="Trazado_891473" data-name="Trazado 891473" d="M529.043,454.471a16.556,16.556,0,0,0-3.117,6.968c-1.189-.643-.529-1.508-.28-2.324.2-1.163.852-2.165,1.1-3.34a1.785,1.785,0,0,1,2.3-1.3" transform="translate(-343.899 -297.523)" fill="#f7e7d8"/>
        <path id="Trazado_891474" data-name="Trazado 891474" d="M523.329,468.041c.118.772-.272,1.6.28,2.324l.253.215c-.019.084-.01.217-.06.244-2.049,1.144-1.437,3.228-1.766,4.978a2.313,2.313,0,0,1-.228-1.96,24.1,24.1,0,0,1,1.007-5.266c.082-.213.339-.359.515-.535" transform="translate(-341.582 -306.449)" fill="#f3e6da"/>
        <path id="Trazado_891475" data-name="Trazado 891475" d="M523.193,492.78c1.009.593.292,1.565.513,2.332-1.273-.535-.2-1.586-.513-2.332" transform="translate(-342.477 -322.647)" fill="#f3e6da"/>
        <path id="Trazado_891476" data-name="Trazado 891476" d="M105.688,464.751a.887.887,0,0,1-.788-.773c.392.389.725-.521,1.083-.068.3.377-.243.54-.295.841" transform="translate(-68.683 -303.66)" fill="#f1d5ca"/>
        <path id="Trazado_891477" data-name="Trazado 891477" d="M333.572,234.971l-.747.166c-1.481.883-3.211.825-4.812,1.257-1.531.413-3.109.638-4.67.915A2.465,2.465,0,0,0,321.3,239c-.694,1.754-1.464,3.478-2.115,5.25-2.265,6-4.333,12.063-6.04,18.247-.9,3.276-1.931,6.518-2.738,9.823-.311,1.273-.715,1.409-1.779.86a6.871,6.871,0,0,1-.656-3.193,6.11,6.11,0,0,0-1.841-2.737c-2.582-2.626-5.185-5.234-7.78-7.848a1.927,1.927,0,0,1,1.078-.671,8.716,8.716,0,0,0,4.342-3.6c3.179-4.582,6.464-9.094,9.795-13.568a20.967,20.967,0,0,1,8.022-6.724,3.114,3.114,0,0,0,1.791-1.9c.764-2.279,1.588-4.54,2.264-6.844.951-3.245,1.848-6.508,2.656-9.792.56-2.272.772-4.626,1.556-6.859a32.366,32.366,0,0,1-1.13,8.025c1.355-.749,2.04-1.958,3.234-2.708-1.624,1.922-.025,3.708.18,5.522.409,3.614.992,7.208,1.216,10.846a24.624,24.624,0,0,1,.217,3.851" transform="translate(-195.344 -137.128)" fill="#21405a"/>
        <path id="Trazado_891478" data-name="Trazado 891478" d="M178.455,188.538a74.285,74.285,0,0,1-9.828-4.4,1.155,1.155,0,0,1,.272-1.2,67.378,67.378,0,0,0,6.51-12.743c.178-.422.259-.933.8-1.105.677-1.58,1.284-3.194,2.048-4.73,1.051-2.114.186-3.979-.7-5.778-1.692-3.424-3.526-6.779-5.3-10.162-.12-.229-.233-.462-.349-.693-.1-.2-.189-.428.057-.557.214-.111.4.006.542.21.67,1,1.4,1.963,2.011,2.995,1.953,3.273,3.852,6.578,5.573,10.178,6.119-10.641,5.321-21.444,1.616-32.426a29.271,29.271,0,0,1,3.273,11.3,58.226,58.226,0,0,1-.2,11.855c.991-1.755,1.264-3.8,2.377-5.487a12.88,12.88,0,0,1-1.359,4.837,30.993,30.993,0,0,0-2.7,9.746q-1.749,11.047-3.667,22.066c-.356,2.026-.655,4.057-.972,6.088" transform="translate(-110.354 -83.896)" fill="#22425b"/>
        <path id="Trazado_891479" data-name="Trazado 891479" d="M147.1,241.5a73.041,73.041,0,0,1-7.578,15.045c-2.7-1.085-5.357-2.372-8.367-2.336a10.636,10.636,0,0,0-6.238,1.7c-.215.152-.464.42-.8.215-.105-.345.157-.458.358-.6,2.388-1.706,4.962-2.72,7.963-2.126,1.656.328,2.548-.591,3.255-1.913,1.6-2.987,3.249-5.945,4.845-8.934a21.63,21.63,0,0,0,2.092-3.829c1.157.531,2.319,1.048,3.466,1.6.5.239,1,.514,1.006,1.185" transform="translate(-81.246 -156.3)" fill="#dc807b"/>
        <path id="Trazado_891480" data-name="Trazado 891480" d="M170.985,223.018c2.616.587,4.812,2.076,7.113,3.34a32.81,32.81,0,0,1-7.113-3.34" transform="translate(-111.952 -146.021)" fill="#244866"/>
        <path id="Trazado_891481" data-name="Trazado 891481" d="M262.677,372.933a5.284,5.284,0,0,1-4.194,5.006c-1.631.441-3.794-.667-4.775-2.472-.261-.48-.358-.855-1.1-.414a3.723,3.723,0,0,1-5.441-1.734,1.057,1.057,0,0,0-1.243-.634c-3.223.273-4.283-2.647-3.859-5.449.056-.366.278-.455.609-.529a1.419,1.419,0,0,0,1.151-1.821c1.245-.18,2.338.521,3.538.615.34.027.676.132,1.016.143,1.765.055,2.3-.6,1.836-2.281-.631-2.317-1.293-4.625-1.929-6.94-.062-.225-.3-.455.062-.85.339.938.683,1.789.954,2.663q.878,2.826,1.691,5.673a1.635,1.635,0,0,0,1.4,1.3,8.611,8.611,0,0,0,3.955-.08c.789-.208,1.149-.136.866.824-.412,1.4-.737,2.822-1.087,4.238-.27,1.1,0,1.761,1.273,1.977,1.755.3,3.442,1.033,5.28.762" transform="translate(-158.434 -232.812)" fill="#dd807c"/>
        <path id="Trazado_891482" data-name="Trazado 891482" d="M316.8,384.307a8.211,8.211,0,0,1,.754,3.093.739.739,0,0,1-.942.091c-1.51-.7-3.026-1.4-4.5-2.178a.411.411,0,0,1-.254-.518q.011-.377.022-.755a1.5,1.5,0,0,0,1.827.691,5.107,5.107,0,0,1,2.5-.077c.314.084.46-.121.592-.348" transform="translate(-204.175 -251.45)" fill="#d6aea7"/>
        <path id="Trazado_891483" data-name="Trazado 891483" d="M304.516,382.047c-.381.942-1.221,1.616-1.522,2.6-.018-.843-.043-1.685-.051-2.527,0-.242-.09-.55.165-.695.355-.2.558.127.7.351.19.3.38.418.708.267" transform="translate(-198.341 -249.7)" fill="#d29592"/>
        <path id="Trazado_891484" data-name="Trazado 891484" d="M415.743,537.818a1.8,1.8,0,0,1-.467.189c-2.115.211-2.125.208-2.118,2.385a3.574,3.574,0,0,0,.253,2.02c-1.046.574-2.194.211-3.289.322a26.879,26.879,0,0,1-5.161-.005,1.194,1.194,0,0,1-.761-.807c-.391-1.026-1.1-1.033-1.975-.674s-1.5,1.154-2.414,1.447a13.816,13.816,0,0,1-3.287.057,1.085,1.085,0,0,1-1.039-.386c-1.131-1.1-2.519-1.963-3.195-3.715-.4.723-.261,1.416-.578,1.957a3.087,3.087,0,0,1-3.3,2.1c-5.691-.082-11.385,0-17.078-.044-3.837-.031-7.669.2-11.505.142-15.6-.24-31.2-.119-46.807-.116-8.49,0-16.98-.122-25.468.02a76.205,76.205,0,0,1-9.412-.315,5.6,5.6,0,0,1-1.51-.337c-1.344-.755-1.228-.89-.842-2.31.6-2.2,2.289-2.372,4.044-2.6a51.139,51.139,0,0,1,5.818-.094c4.871.041,9.743-.329,14.6-.219,7.415.167,14.829.257,22.243.185,3.661-.036,7.32-.321,10.985-.233,24.622.589,49.247.094,73.87.262a29.465,29.465,0,0,0,4-.26,2.177,2.177,0,0,0,1.293-.51c.07-.046.2-.122.215-.1.714.986,1.9,1.139,2.886,1.639" transform="translate(-180.404 -351.06)" fill="#b1ceda"/>
        <path id="Trazado_891485" data-name="Trazado 891485" d="M93.17,547.2l-.583,1.067,4.978.855c.01.086.02.173.031.259-1.307.214-2.609.481-3.923.631a59.771,59.771,0,0,1-6.841.312q-21.731-.019-43.462-.023a33.143,33.143,0,0,1-5.261-.578,1.729,1.729,0,0,1-1.2-.57,6.08,6.08,0,0,1,2.864-.669c1.074-.077,1.2-.474.621-1.285a1.8,1.8,0,0,1,1.681-.762c4.77.052,9.54-.183,14.3-.14,7.229.065,14.457.282,21.688.2,3.185-.034,6.364-.38,9.553-.245a16.269,16.269,0,0,1,5.553.944" transform="translate(-24.164 -357.642)" fill="#24415a"/>
        <path id="Trazado_891486" data-name="Trazado 891486" d="M96.976,540.194c-1.225.384-2.354-.264-3.534-.368a51.707,51.707,0,0,0-7.725-.036c-1.061.065-2.123.124-3.185.127-4.055.015-8.111.038-12.166,0-3.194-.034-6.386-.222-9.579-.227-2.859,0-5.721.253-8.576.192a47.244,47.244,0,0,1-5.246-.006,6.652,6.652,0,0,0-2.766.32,7.231,7.231,0,0,1-1.478-2.593,7.7,7.7,0,0,1,3.856-.581c2.066.208,4.189-.235,6.248-.1,3.762.242,7.518-.308,11.3.234,1.532.22,3.223.09,4.835.2,3.46.229,6.915-.073,10.374-.049a64.909,64.909,0,0,0,9.949-.389c2.08-.306,4.258-.077,6.383-.343a1.536,1.536,0,0,1,.892.049c1.45.873,2.268.2,2.875-1.092.749.176.868.785.8,1.376-.073.629-.693.278-1.049.42a.9.9,0,0,0-1.012.7,5.528,5.528,0,0,1-1.192,2.178" transform="translate(-27.97 -350.633)" fill="#32546f"/>
        <path id="Trazado_891487" data-name="Trazado 891487" d="M206.256,536.786c1.075-.461.81-1.108.249-1.8l.559-.039c.52-.426,1.062-.189,1.593-.041,6.668,1.857,13.376,3.555,20.151,4.977.806.169,1.473.675,2.288.772a37.817,37.817,0,0,0,8.866.73q45.852.016,91.7-.015c3.794,0,7.59-.069,11.381.033a2.514,2.514,0,0,0,2.807-1.662,3.065,3.065,0,0,1,.444-.619,3.323,3.323,0,0,1,1.584,1.115c.116.172.352.408.239.548-1.086,1.339.188,1.644.93,2.18.135.1.3.156.433.255.287.623,1.095.576,1.444,1.119-.817.886-1.967.516-2.941.683-1.893.326-2.719-.3-3.121-2.187-.169-.794-.543-.807-1.146-.805q-11.649.037-23.3.05-16.242.011-32.484,0c-15.4,0-30.8-.029-46.2.007-2.886.007-5.781.149-8.653.424-3.485.333-6.769-.539-10.066-1.373-5.6-1.417-11.174-2.9-16.76-4.355" transform="translate(-135.046 -350.1)" fill="#1e3b50"/>
        <path id="Trazado_891488" data-name="Trazado 891488" d="M674.932,521.3a2.229,2.229,0,0,0-.5-.032c-1.284.209-2.24-.05-2.34-1.584a.855.855,0,0,1-.552-.7,62.778,62.778,0,0,1-.126-6.509,1.728,1.728,0,0,1,.412-1.3c.982-.064,1.969-.089,2.945-.2.84-.1,1.007.273,1,1.023-.034,2.484-.01,4.968-.008,7.452-.632,1.229-.631,1.226.815,1.31.473.028.947.063,1.416.124a1.008,1.008,0,0,1,.714.427Z" transform="translate(-439.592 -334.544)" fill="#25445e"/>
        <path id="Trazado_891489" data-name="Trazado 891489" d="M635.565,550.763a12.3,12.3,0,0,1,1.906-1.443c1.923-.877,2.451-.63,2.788,1.476a.4.4,0,0,1-.033.621l-1.58,2.451c-1.19.572-2.043.009-2.811-.836-.439-.45-.194-1.035-.307-1.55a.532.532,0,0,1,.037-.72" transform="translate(-416.031 -359.355)" fill="#db7679"/>
        <path id="Trazado_891490" data-name="Trazado 891490" d="M613.188,545.106l-1.313-1.284c0-.34.012-.681,0-1.021-.015-.421.088-.785.537-.893.662-.16.47.438.578.731.5,1.358,1.812,1.983,2.678,3.008a9.906,9.906,0,0,0,.819.78c.08.035.117.081.109.14s-.022.1-.043.1a1.645,1.645,0,0,0,.053,1.473.583.583,0,0,1-.1.9c-.638-.168-1.591.121-1.538-1.055-.411-.422-.339-1.032-.588-1.515-.284-.551-.508-1.158-1.191-1.362" transform="translate(-400.624 -354.796)" fill="#e5e8e4"/>
        <path id="Trazado_891491" data-name="Trazado 891491" d="M649.367,554.755q.016-.311.032-.622a66.638,66.638,0,0,1,8.781-.091l1.248.266a74.044,74.044,0,0,1-10.062.447" transform="translate(-425.172 -362.692)" fill="#305367"/>
        <path id="Trazado_891492" data-name="Trazado 891492" d="M625.3,554.659a.377.377,0,0,0-.066-.237c1.192-.6,2.445-.184,3.67-.221q-.018.36-.037.72c-1.181-.2-2.408.225-3.568-.262" transform="translate(-409.373 -362.793)" fill="#355c65"/>
        <path id="Trazado_891493" data-name="Trazado 891493" d="M636.65,560.977a4.9,4.9,0,0,0,2.811.836l2.342.319c-1.755-.214-3.9,1.229-5.153-1.155" transform="translate(-416.846 -367.299)" fill="#81666c"/>
        <path id="Trazado_891494" data-name="Trazado 891494" d="M316.732,128.9A37.351,37.351,0,0,1,314,117.189c-.223-2.517-.255-5.051-.373-7.577a55.288,55.288,0,0,0,3.6,8.666,10.424,10.424,0,0,0,4.35,4.788c.727.373,1.068.872.625,1.657-1.224,2.173-2.7,4.021-5.471,4.172" transform="translate(-205.349 -71.768)" fill="#c96e6e"/>
        <path id="Trazado_891495" data-name="Trazado 891495" d="M371.242,100.471c-.031.751.634.954,1.059,1.344a1.454,1.454,0,0,0-1.054.529c-.762.229-.841,1.027-1.277,1.529-1.019,1.086-.928,2.6-1.457,3.88a5.017,5.017,0,0,1-1.93,2.591c-.041-.156.019-.41-.2-.426-1.629-.115-2.735-1.373-4.177-1.89.664-.172.01-.794.453-1.123a6.894,6.894,0,0,0,2.969,2.174c.79.309,1.264.052,1.411-.734a22.658,22.658,0,0,1,2.237-6.006,3.253,3.253,0,0,1,1.965-1.869" transform="translate(-237.155 -65.783)" fill="#bc6b68"/>
        <path id="Trazado_891496" data-name="Trazado 891496" d="M346.358,128.953c.621-1.317,1.131-1.589,2.464-1.081,1.083.412,2.134.914,3.175,1.424,1.464.718,1.5.958.5,2.418a8.555,8.555,0,0,0-6.141-2.761" transform="translate(-226.777 -83.567)" fill="#d8a4a3"/>
        <path id="Trazado_891497" data-name="Trazado 891497" d="M307.122,69.848c.372,1.344.517,2.788,1.785,3.716.414.3.237.734-.062,1a.874.874,0,0,1-1.274-.067c-1.152-1.263-2.314-2.541-2.2-4.439a3.29,3.29,0,0,1,1.756-.21" transform="translate(-199.933 -45.722)" fill="#cd7877"/>
        <path id="Trazado_891498" data-name="Trazado 891498" d="M309.783,336.21a34.209,34.209,0,0,0,5.7,2.6c.477.285.987.76,1.216-.24,1.431-6.244,3.386-12.341,5.261-18.458a107.129,107.129,0,0,1,3.729-10.281c.549.131.508.643.634,1.025,1.477,4.468,2.5,9.059,3.621,13.619a27.409,27.409,0,0,0,4.666,10.281,27.978,27.978,0,0,0,5.253,4.94c.462.362,1.1.547,1.247,1.231.478.937-.24,1.714-.407,2.545a46.717,46.717,0,0,1-1.358,4.666c-.194.622-.255.981.513,1.4a24.79,24.79,0,0,0,3.353,1.437c1.314-.1,2.349.676,3.473,1.138,1.382.569,2.659,1.38,4.085,1.861a5.107,5.107,0,0,1,1.334.647,5.931,5.931,0,0,0,1.87,1.018,8.772,8.772,0,0,1,4.321,3.2c-.412.616-.944.331-1.356.087a159.994,159.994,0,0,0-18.174-8.727c-6.132-2.655-12.168-5.532-18.4-7.961a26.527,26.527,0,0,1-4.091-2.114l-7.608-3.605c.367-.52.775-.268,1.119-.318" transform="translate(-202.097 -202.865)" fill="#f7f4ee"/>
        <path id="Trazado_891499" data-name="Trazado 891499" d="M320.242,402.746c3.974,1.4,7.743,3.283,11.61,4.934,4.341,1.854,8.673,3.731,12.967,5.69a101.828,101.828,0,0,1,11.834,5.971c.39.243.835.667,1.39.277.432-.159.657.16.92.393.276.633,1.194.626,1.367,1.362a9.376,9.376,0,0,0,2.32,2.138c-.11.651-.664.566-1.092.615a18.747,18.747,0,0,1-2.541-.02,3.62,3.62,0,0,1-1.5-.287c-3.183-1.238-6.426-2.307-9.654-3.42a49.2,49.2,0,0,0-6.9-2.307,3.381,3.381,0,0,0-1.51-.07,39.972,39.972,0,0,0-8.718-.906,24.672,24.672,0,0,0-6.1.99,2.557,2.557,0,0,1-1.768.086c-2.06-.892-4.24-1.456-6.308-2.323a4.217,4.217,0,0,1-1.535-.935,43,43,0,0,0-5.683-2.435c-1.009-.4-1.178-.9-.82-1.845a13.959,13.959,0,0,0,.6-2.37c.2-1.08.631-1.669,1.809-1.078a5.348,5.348,0,0,0,.734.247,2.791,2.791,0,0,0,2.33-.268,23.491,23.491,0,0,0,6.248-4.44" transform="translate(-201.892 -263.697)" fill="#a2c1cf"/>
        <path id="Trazado_891500" data-name="Trazado 891500" d="M327.6,438.051c2.531.911,5.077,1.784,7.584,2.758a2.4,2.4,0,0,0,1.825.064,25.777,25.777,0,0,1,10.435-.9,31.644,31.644,0,0,1,4.776.908,9.5,9.5,0,0,1,3.56.915c.094.462.49.6.845.787a1.767,1.767,0,0,1,1.029,1.025c-.051,1.477-.169,1.543-1.865,1.031a38.453,38.453,0,0,0-4.854-2.084,30.61,30.61,0,0,0-4.068-.647c-.981-.139-1.338.611-1.866,1.143a.786.786,0,0,1-.925-.214,2,2,0,0,0-2.041-1.06,11.5,11.5,0,0,0-9.478,5.6,22.518,22.518,0,0,0-2.007,4.743c-.751,2.1-.557,2.441,1.625,2.75a.692.692,0,0,1,.517.8c-.267.679-.9.732-1.484.851-1.41.287-1.732.676-1.6,2.1a14.237,14.237,0,0,1,.181,2.7c-.066.368-.113.79-.541.888-.456.1-.638-.27-.8-.618a18.886,18.886,0,0,1-.177-8.682,16.232,16.232,0,0,0-.115-4.878c-.28-3.08-.412-6.173-.606-9.261q.023-.36.046-.722" transform="translate(-214.463 -286.813)" fill="#f6f4ed"/>
        <path id="Trazado_891501" data-name="Trazado 891501" d="M326.525,399.37c-.028,1.191-1.131,1.554-1.83,2.085a26.252,26.252,0,0,1-4.234,2.66,2.237,2.237,0,0,1-2.514-.038c2.053.22,3.956-2.238,4.145-5a2.654,2.654,0,0,1,.258-1.487,19.707,19.707,0,0,1,4.175,1.78" transform="translate(-208.175 -260.322)" fill="#739ab4"/>
        <path id="Trazado_891502" data-name="Trazado 891502" d="M231.483,371.851c-1.548-.745-3.474-.923-4.108-2.922a1.828,1.828,0,0,1-.022-1.26c.208-.536.508-1.126,1.069-1.209.585-.086.6.635.8,1.02a36.563,36.563,0,0,0,2.263,4.37" transform="translate(-148.792 -239.935)" fill="#3e6784"/>
        <path id="Trazado_891503" data-name="Trazado 891503" d="M313.581,400.92c-.67-.068-.932-.4-.934-.956,0-.513.087-.955.764-.938a.747.747,0,0,1,.839.886c-.02.516-.166.926-.668,1.009" transform="translate(-204.705 -261.261)" fill="#bdcddb"/>
        <path id="Trazado_891504" data-name="Trazado 891504" d="M373.384,323.936a24.449,24.449,0,0,1-11.352-15.647c-1.27-5.172-2.521-10.349-4.07-15.448a49.384,49.384,0,0,1,2.546-6.335c.132-.305.271-.589.7-.666,3.553-.637,7.1-1.3,10.648-1.961-1.176,4.117-2.7,8.139-3.495,12.362a10.226,10.226,0,0,0,.968,6.519c.558,1.14.806,1.127,1.595.144a9.341,9.341,0,0,1,9.4-3.043c.259.076.491.18.44.622a9.364,9.364,0,0,0-4.291.2,8.688,8.688,0,0,0-6.715,6.737,15.708,15.708,0,0,0,2.978,13.955c.362.477.678.991,1.049,1.461.483.613.264.932-.4,1.1" transform="translate(-234.375 -185.869)" fill="#dd7f7b"/>
        <path id="Trazado_891505" data-name="Trazado 891505" d="M443.866,421.217l-.74-.476a19.259,19.259,0,0,0-4.428-2.9c-.771-.661-.3-.927.368-1.018a5.491,5.491,0,0,1,2.018.345,1.376,1.376,0,0,0,1.887-.992c.788-2.25,1.963-4.344,2.723-6.608a19.6,19.6,0,0,1-.368-5.11c.285,1.494.582,2.986.852,4.483a5.282,5.282,0,0,0,1.09,2.441,3.274,3.274,0,0,1,.242,2.382,11,11,0,0,0,.382,4.734c.749-1.369,1.3-2.821,1.934-4.23.263-.581.41-1.231,1.007-1.6q.005-.378.01-.755c0-.531-.491-1.145.267-1.543a8.088,8.088,0,0,0,.771,3.38,2.055,2.055,0,0,0-1.451,1.551c-.478,1.6-1.361,3.064-1.355,4.834a2.668,2.668,0,0,0,2.374,2.677c-2.2.626-2.454.483-3.542-2l-.937.595c-.462-.254-.355-.724-.433-1.126a.966.966,0,0,0-.921-.9,1.018,1.018,0,0,0-1.118.828c-.112.384.065.981-.631,1.008" transform="translate(-286.976 -264.82)" fill="#d57d7c"/>
        <path id="Trazado_891506" data-name="Trazado 891506" d="M442.952,417.947c.483.89-.26,1.543-.513,2.248-.605,1.687-1.421,3.3-2.072,4.967a1.134,1.134,0,0,1-1.538.834c-.743-.19-1.494-.364-2.25-.482-.489-.076-1.056-.092-.623.705a3.665,3.665,0,0,1-1.846-1,45.476,45.476,0,0,1,1.844-5.911.492.492,0,0,1,.482-.361c.063.231-.043.593.271.64.281.042.238-.278.274-.477.085-.48-.221-1.343.344-1.356,1.04-.024,2-.889,3.069-.29a3.761,3.761,0,0,0,2.558.481" transform="translate(-284.232 -273.197)" fill="#ecbbae"/>
        <path id="Trazado_891507" data-name="Trazado 891507" d="M416.044,411.176l-7.487-3.317c-.327-1.382.4-2.578.729-3.83a42.583,42.583,0,0,1,2.684-7.321c.229,1.336-.445,2.6-.321,3.911a46.3,46.3,0,0,1-.734,6.918c2.059-1.008,3.532-3,5.934-3.276l1.236-.032a.811.811,0,0,1,.221.94,25.455,25.455,0,0,1-2.262,6.006" transform="translate(-267.448 -259.744)" fill="#d6807c"/>
        <path id="Trazado_891508" data-name="Trazado 891508" d="M467.44,425.8c-.922,2.329-1.833,4.663-3.048,7.043-1.122-2.847-.649-5.6-.517-8.329a4.786,4.786,0,0,0,3.565,1.286" transform="translate(-303.583 -277.951)" fill="#e8ab9f"/>
        <path id="Trazado_891509" data-name="Trazado 891509" d="M420.724,411.678c-2.269.969-4.056,2.694-6.331,3.992.329-2.609.562-5.143,1.131-7.635-.058.551.315,1.035.189,1.628a.837.837,0,0,0,.612.877c1.523.183,2.835,1.149,4.4,1.138" transform="translate(-271.323 -267.161)" fill="#edaba1"/>
        <path id="Trazado_891510" data-name="Trazado 891510" d="M430.389,422.185c-.1-1.495,1.027-2.591,1.3-3.976a21.933,21.933,0,0,0,.745-2.97,2.41,2.41,0,0,0,.319-1.221.632.632,0,0,1,1.047-.335,8.928,8.928,0,0,1,.2,2.822c-.56,1.688-1.107,3.381-1.687,5.063-.147.428-.193.93-.639,1.209l-1.281-.593" transform="translate(-281.793 -270.753)" fill="#2f3f53"/>
        <path id="Trazado_891511" data-name="Trazado 891511" d="M438.282,402.175a1.026,1.026,0,0,0-1.047.334q0-3.268,0-6.537l.328-.027a30.959,30.959,0,0,1,.72,6.23" transform="translate(-286.278 -259.245)" fill="#ca8b84"/>
        <path id="Trazado_891512" data-name="Trazado 891512" d="M471.883,410.131c-.483.446-.148,1.034-.267,1.543a46.614,46.614,0,0,1-1.014-4.867c-.2-.9-.446-1.793-.576-2.715,1.1,1.863,1.386,3.98,1.857,6.039" transform="translate(-307.749 -264.579)" fill="#e8ab9f"/>
        <path id="Trazado_891513" data-name="Trazado 891513" d="M332.807,478.431l.31.412c.13,1.034-.522,1.017-1.283,1.063-8.14.491-16.286.169-24.428.2q-24.9.1-49.806-.02c-2.878-.014-5.767-.281-8.645-.158-6.935.3-13.871.174-20.807.2-3.271.01-6.537-.409-9.809-.209-6.19.378-12.386.1-18.578.253a21.586,21.586,0,0,1-8.021-.206q-8.008-1.981-16.01-3.988a2.67,2.67,0,0,1-1.878-1c.3-1.546,1.317-2.837,1.572-4.4l.341-.975c1.058-.341,2.054-.656,1.921-2.154-.066-.746-.229-1.125-.994-1.147-1.2-.035-2.394-.085-3.591-.128a1.293,1.293,0,0,0-.577-.356c-2.06-1.44-4.17-2.8-6.357-4.042a16.115,16.115,0,0,0-2.271-1.017c-1.915-.745-3.686-1.8-5.574-2.6-.576-.861-1.208.147-1.8-.05-.612-.365-1.1-.327-1.458.375a1.111,1.111,0,0,1-.859.695.556.556,0,0,1-.523-.3c.27-2.711,1.195-5.3,1.547-7.99l.572-2.311a88.283,88.283,0,0,0,18.457,5.818,91.117,91.117,0,0,0,10.68,1.467c2.106.183,4.2.2,6.3.2.81.019,1.213.445,1.661,1.151,2.615,4.117,5.812,7.7,10.244,9.93,1.3.654,2.85.572,4.289.785,1.909.283,3.838.422,5.759.623-.022.562-.5.476-.836.591-2.691-.147-5.377-.364-8.044-.77-1.434-.668-2.738.02-4.068.4-.628,1.357-.578,1.5.587,2.223.338.21.958.274.7.951a3.346,3.346,0,0,1-2.366.023,20.906,20.906,0,0,0-5.976.213,7.584,7.584,0,0,1-1.146.057,2.126,2.126,0,0,0-1.68.752c-.654,1.459-.539,1.831.934,2.217a50.53,50.53,0,0,0,9.494,1.568c4.555.3,9.111.491,13.671.618,1.384.038,2.735-.39,4.12-.222a70.161,70.161,0,0,0,12.541-1.465,11.028,11.028,0,0,1,3.23-.017,15.729,15.729,0,0,0,5.586.013,9.02,9.02,0,0,1,3.41.313,4.448,4.448,0,0,0,3.142-.142c.633-.273,1.33-.446,1.806.335-.156.99-1,.744-1.62.906a14.027,14.027,0,0,1,3.58.036c4.326.041,8.573-.723,12.842-1.249,5-.616,9.945-1.6,14.948-2.184a2.52,2.52,0,0,1,1.639.178c.829.232,1.211-.653,1.967-.8.62-.123.812.129,1.167.342,1.08-.04,1.9.714,2.8.847-.539-.387-1.554-.2-1.974-1.064-.334-.4-.473-.859.043-1.159.481-.279.861.038,1.136.459a4.5,4.5,0,0,0,2.221.841,1.761,1.761,0,0,1,2.053.875,1.038,1.038,0,0,0,.959.225,4.943,4.943,0,0,1,3.2.785,2.526,2.526,0,0,0,3.311-.617c.157-.427.453-.419.8-.257.2.873,1.173.354,1.572.87a1.907,1.907,0,0,1-1.981.874c-.177-.007.035.278-.023.116-.019-.054.012-.085.1-.087a65.834,65.834,0,0,1,6.942.6,58.678,58.678,0,0,0,7.481.014c3.738-.189,7.466-.542,11.209-.613,1.48-.135,1.48-.135,1.5-1.578,0-.213-.008-.427,0-.64.083-1.623.27-3.285-1.605-4.153a3.411,3.411,0,0,1,1.749-2.815c2.546,0,5.094.068,7.636-.026,1.363-.05,1.153.779,1.16,1.584s.179,1.632-1.168,1.567c-1.935-.094-3.878,0-5.818.012a2.341,2.341,0,0,0-.641,1.761c.027,1.075.023,2.152,0,3.227a1.279,1.279,0,0,0,1.148,1.437c1.594.363,3.2.679,4.776,1.118.531.148,1.116.221,1.4.8" transform="translate(-100.62 -293.703)" fill="#f6f4ed"/>
        <path id="Trazado_891514" data-name="Trazado 891514" d="M209.422,525.034c6.187,1.8,12.465,3.226,18.73,4.721,2.405.574,4.79.307,7.18.477-.031.029-.065.085-.093.083-1.916-.174-2.809.925-3.451,2.556-.3.758-.268,1.14.452,1.452a82.714,82.714,0,0,1-10.56-2.264c-4.5-1.1-8.982-2.291-13.472-3.443a.718.718,0,0,1-.07-.924c.471-.862.862-1.769,1.285-2.658" transform="translate(-136.189 -343.765)" fill="#a1c2d2"/>
        <path id="Trazado_891515" data-name="Trazado 891515" d="M364.735,85.715a.987.987,0,0,1-1.407.524A39.19,39.19,0,0,1,357,81.564a.666.666,0,0,1-.041-.946.816.816,0,0,1,1.173-.019c.914.644,1.8,1.323,2.7,1.987,1.11.818,2.224,1.63,3.329,2.454.236.176.512.333.569.675" transform="translate(-233.604 -52.615)" fill="#34405c"/>
        <path id="Trazado_891516" data-name="Trazado 891516" d="M361.279,93.972c.659.051,1.093.284,1.08,1.012s-.374,1.14-1.087,1.131-1.253-.334-1.23-1.155.689-.854,1.237-.988" transform="translate(-235.736 -61.528)" fill="#2b4057"/>
        <path id="Trazado_891517" data-name="Trazado 891517" d="M320.91,60.032a4.56,4.56,0,0,1-.128,1.142c-.145.389-.422.853-.9.78-.461-.069-.213-.566-.282-.873-.206-.924-.1-2.151-1.707-1.654-.554.171-.673-.117-.542-.633a2,2,0,0,1,1.563-1.535c.805-.188,1.241.435,1.614,1.031a3.039,3.039,0,0,1,.385,1.742" transform="translate(-207.751 -37.467)" fill="#d37f7a"/>
        <path id="Trazado_891518" data-name="Trazado 891518" d="M323.855,506.026c.26-.061.565.021.761-.24.475.081.962.436,1.412-.062.369.05.976.961.987-.274.983.644,2.324.562,3.139,1.548a.68.68,0,0,1-.312.27c-1.98.19-3.824-.541-5.731-.844-.169-.027-.244-.216-.256-.4" transform="translate(-212.044 -330.943)" fill="#f8ddcd"/>
        <path id="Trazado_891519" data-name="Trazado 891519" d="M434.6,475.416a44.565,44.565,0,0,1,.288,5.4,7.56,7.56,0,0,1-2.905,5.914,8.152,8.152,0,0,1-5.334.914c-.254-.426.016-.754.245-1.049,1.974-2.549,1.973-5.469,1.4-8.4-.628-3.213-1.393-6.4-2.226-9.571a4.864,4.864,0,0,1-.279-1.779.868.868,0,0,1,.866-.8,24.26,24.26,0,0,1,4.717-.162A2.5,2.5,0,0,1,432.7,467.4a40.088,40.088,0,0,1,1.856,5.356c.261.917-.159,1.78.049,2.658" transform="translate(-278.776 -304.989)" fill="#d8a399"/>
        <path id="Trazado_891520" data-name="Trazado 891520" d="M444.957,473.353a28.377,28.377,0,0,0-2.012-7.348,6.3,6.3,0,0,0-1.284-2.04.206.206,0,0,1,.034-.331,2.4,2.4,0,0,1,1.759.062,45.916,45.916,0,0,1,5.41,1.536c.167.042.107-.211.081-.041-.008.053-.051.067-.124.034-1.1-.507-2.344-.844-2.763-2.209,1.271-.189,2.581.165,3.834-.277a3.057,3.057,0,0,0,1.019.057c1.672-.5,2.507.436,3.016,1.782a27.227,27.227,0,0,1,1.58,4.185,3.186,3.186,0,0,1,0,1.652c-.15.46-.252.947-.925.43a1.5,1.5,0,0,0-1-.083,54.8,54.8,0,0,0-8.129,1.791c-.457.14-.41.484-.493.8" transform="translate(-289.133 -302.926)" fill="#9d555e"/>
        <path id="Trazado_891521" data-name="Trazado 891521" d="M422.35,521.283l5.336-.8a15.863,15.863,0,0,0,4.289-.837,4.571,4.571,0,0,1,1.522-.143c2.34.115,4.438-.908,6.651-1.382.165-.035.33-.177.48-.156,1.733.239,3.319-.742,5.037-.6,2.509.14,4.92.9,7.407,1.181.169.019.314.245.47.375-4.505.666-9,1.372-13.517,1.987-5.11.7-10.2,1.628-15.381,1.638-1.756,0-3.512-.153-5.432-.244,1.022-.469,2.1-.253,2.87-.947q.077-.251.268-.072" transform="translate(-274.479 -338.734)" fill="#1f3e56"/>
        <path id="Trazado_891522" data-name="Trazado 891522" d="M454.423,448.727a.822.822,0,0,0,.243-.824c-.107-1.253.808-1.488,1.66-1.414a1.244,1.244,0,0,1,1.125,1.672,2.512,2.512,0,0,0,.076.755,3.543,3.543,0,0,1-1.555,1.091c-.607-.316-1.4-.412-1.549-1.279" transform="translate(-297.533 -292.33)" fill="#e6a6a2"/>
        <path id="Trazado_891523" data-name="Trazado 891523" d="M162.043,474.43c.6-.136,1.194-1.2,1.788,0a10.448,10.448,0,0,0,2.954,2.712,1.049,1.049,0,0,0,1.1-.021c.538-.248,1.088.025,1.624-.083.77.368,1.686.41,2.333,1.05-.72.453-1.744-.058-2.356.756a11.358,11.358,0,0,0,8.852,3.363c.228.106.243.309.235.521l-5.213.035a3.588,3.588,0,0,1-.8-.37,65.487,65.487,0,0,1-9.207-6.108c-.6-.448-1.418-.858-1.313-1.856" transform="translate(-106.092 -310.264)" fill="#f6d5c8"/>
        <path id="Trazado_891524" data-name="Trazado 891524" d="M186.036,497.682a.535.535,0,0,1,.492.523c-1.433.484-2.864-.024-4.3-.007l-.088-.267c1.249-.834,2.582-.353,3.891-.25" transform="translate(-119.259 -325.705)" fill="#da8485"/>
        <path id="Trazado_891525" data-name="Trazado 891525" d="M609.524,490.818l-1.61,2.611c-.12.223-.038.49-.152.715a11.413,11.413,0,0,1-5.636,4.506,67.053,67.053,0,0,1-7.62.07c-1.647-.046-3.229.371-4.854.376-.586-.249-.363-.554-.051-.858a17.113,17.113,0,0,0,5.129-9.951,1.372,1.372,0,0,1,.585-1.091,1.3,1.3,0,0,0,.232-.974c.007-.342,0-.685,0-1.2,1.78,1.747,4.022,2.363,6.068,3.342.555.266.912.028.912-.626q0-1.233,0-2.465l.408-.016a13.028,13.028,0,0,1,.327,2.548c-.079,1.265.478,1.489,1.584,1.459a28.853,28.853,0,0,0,4.22-.287c.485-.085.735-.011.736.513a.377.377,0,0,1-.01.524l-.27.8" transform="translate(-385.835 -317.572)" fill="#5c3a47"/>
        <path id="Trazado_891526" data-name="Trazado 891526" d="M586.559,467.3a19.838,19.838,0,0,1-4.441,10.37,5.2,5.2,0,0,1-1.612,1.232,5.582,5.582,0,0,1-4.592.237c.474-.992,1.5-1.468,2.141-2.336a18.643,18.643,0,0,0,3.507-9.965,28.638,28.638,0,0,0-1.24-11.979c1.078-.555,2.123.13,3.191.117.48-.006.995.141,1.5.146l.434.815a1.366,1.366,0,0,1,.5,1.548,49.453,49.453,0,0,1,.61,9.816" transform="translate(-377.078 -297.678)" fill="#d8a299"/>
        <path id="Trazado_891527" data-name="Trazado 891527" d="M604.032,459.494a4.217,4.217,0,0,1-.5-1.548c.432-.525.8-.046,1.118.128a37.885,37.885,0,0,1,6.052,4.136,20.767,20.767,0,0,0-.916-3.9c.954.338.951,1.158,1.221,1.774a13.08,13.08,0,0,1,1.111,4.066.858.858,0,0,1-.173.577c-.126.148-.345.03-.431-.117-1.313-2.243-3.848-2.856-5.748-4.314a4.4,4.4,0,0,0-1.733-.8" transform="translate(-395.162 -299.684)" fill="#7b424d"/>
        <path id="Trazado_891528" data-name="Trazado 891528" d="M648.683,496.577q0-.262.01-.523l.269-1q3.553-.006,7.106-.011c.554,0,1.154-.1,1.149.789-.006.91-.634.76-1.17.761-2.455,0-4.909-.01-7.364-.018" transform="translate(-424.724 -324.128)" fill="#f2f1ed"/>
        <path id="Trazado_891529" data-name="Trazado 891529" d="M560.1,495.361l-.8.257c-3.982.837-4.573.348-4.278-3.725a29.929,29.929,0,0,0-.02-6.048,1.214,1.214,0,0,1,.431-1.149,6.3,6.3,0,0,0,1.987-3.107c.264-.962.886-1.078,1.681-.841.74.22,1.459.51,2.191.757a5.838,5.838,0,0,0,3.8.182c1.145-.386,1.289.118,1.253,1.1-.188,5.14-1.621,9.645-6.244,12.575" transform="translate(-363.357 -314.701)" fill="#e57071"/>
        <path id="Trazado_891530" data-name="Trazado 891530" d="M532.291,493.369l-2.053-.875a12.441,12.441,0,0,1-3.646-4.08,16.2,16.2,0,0,1-1.306-9.058c.2-1.359.8-1.786,2.136-1.425,1.316.357,2.465.84,2.943,2.369a4.044,4.044,0,0,0,2.224,2.421,3.506,3.506,0,0,1,2.036,3.563c.016,1.811-.063,3.625.013,5.434.054,1.288-.368,1.879-1.7,1.642a3.309,3.309,0,0,0-.645.01" transform="translate(-343.818 -312.845)" fill="#e46f71"/>
        <path id="Trazado_891531" data-name="Trazado 891531" d="M565.982,464.677a6.1,6.1,0,0,1-2.74-.622,4.589,4.589,0,0,0-1.983-.5,1.14,1.14,0,0,1-1.174-.8c-.845-1.83-.838-1.8.743-3.035,1.756-1.37,3.344-2.952,5.461-3.834.818-.34,1.254-.272,1.617.527a16.55,16.55,0,0,1,1.447,7.013.889.889,0,0,1-.684.947,8.644,8.644,0,0,1-2.686.31" transform="translate(-366.348 -298.36)" fill="#e66e70"/>
        <path id="Trazado_891532" data-name="Trazado 891532" d="M569.047,523.747l4.593-.237c2.9-.655,5.846-.457,8.781-.486,1.507-.015,3.014-.01,4.521-.014a1.475,1.475,0,0,1,1.218-.181,34.825,34.825,0,0,1,4.043,1.04.765.765,0,0,1,.139,1.193q-6.708.409-13.415.82c-4.552.284-9-.649-13.5-1.111a15.917,15.917,0,0,0,3.1-.957l.521-.066" transform="translate(-370.213 -342.283)" fill="#1e4159"/>
        <path id="Trazado_891533" data-name="Trazado 891533" d="M547.513,472.974a6.877,6.877,0,0,1-.127,1.059c-.316,1.2-1.776,2.753-2.686,2.7a3.746,3.746,0,0,1-3.148-1.95,4.34,4.34,0,0,1-.712-2.939c.34-1.9,1.528-3.042,3.1-3.039a3.656,3.656,0,0,1,3.5,3.181c.05.295.045.6.072.989" transform="translate(-354.082 -306.949)" fill="#e67271"/>
        <path id="Trazado_891534" data-name="Trazado 891534" d="M140.295,493.958c-.882.493-1.639-.18-2.4-.369-1.2-.3-2.538-.4-3.466-1.418a33.211,33.211,0,0,1,5.865,1.786" transform="translate(-88.018 -322.249)" fill="#f4bbb7"/>
        <path id="Trazado_891535" data-name="Trazado 891535" d="M657.838,519.2c-2.293-.549-4.581-1.123-6.883-1.631-.6-.134-.879-.323-.857-.993.053-1.63.076-3.265.015-4.894-.032-.869.429-.879,1.034-.827,2.233.429,4.494.056,6.735.241l-.044,8.1" transform="translate(-425.65 -334.467)" fill="#365c79"/>
        <path id="Trazado_891536" data-name="Trazado 891536" d="M528.546,519.794l2.706,1.157a5.906,5.906,0,0,1-3.528-.939c.162-.5.531-.209.822-.218" transform="translate(-345.527 -340.286)" fill="#535452"/>
        <path id="Trazado_891537" data-name="Trazado 891537" d="M41.354,493.576c-.2.454-.2.454.465.708-.923-.072-1.857.275-2.77-.167a8.505,8.505,0,0,0,2.73-1.6,5.08,5.08,0,0,1,7.1,1.305c.48.535,1.157.111,1.884.429H43.29c0-.051-.006-.1-.009-.155,1.141,0,2.283.02,3.424-.017.225-.007.879.277.57-.469a1.2,1.2,0,0,1-.724-.193,4.161,4.161,0,0,0-4.124-.091,1.4,1.4,0,0,1-1.072.251" transform="translate(-25.568 -321.887)" fill="#f0d2cf"/>
        <path id="Trazado_891538" data-name="Trazado 891538" d="M87.755,480.059c1.913.847,3.792,1.785,5.747,2.519,3.24,1.216,6.529,2.3,9.8,3.439-.821.535-1.766.279-2.631.308-2.232.075-4.47-.038-6.705-.076-1.768-1.171-3.844-1.684-5.715-2.647-.751-.386-1.049-.659-.78-1.506a11.721,11.721,0,0,0,.287-2.035" transform="translate(-57.206 -314.318)" fill="#c7696e"/>
        <path id="Trazado_891539" data-name="Trazado 891539" d="M45.724,495.111c2.322-1.542,4.161-1.531,5.92.034a14.239,14.239,0,0,1-5.92-.034" transform="translate(-29.938 -323.422)" fill="#db8281"/>
        <path id="Trazado_891540" data-name="Trazado 891540" d="M168.342,482.219c-1.272.474-2.6.052-3.891.25a8.422,8.422,0,0,1-4.092-1.93,9.442,9.442,0,0,0-2.356-1.71,9.124,9.124,0,0,0-2.173-1.887c-.406-.323-.816-.618-.685-1.229.226-.355.482-.694.674-1.066.464-.9.991-1.158,1.7-.238,1.828,2.238,4.335,3.627,6.644,5.253,1.333.939,2.783,1.711,4.181,2.558" transform="translate(-101.565 -310.242)" fill="#c46665"/>
        <path id="Trazado_891541" data-name="Trazado 891541" d="M384.7,107.288c.144-.745-.209-1.9,1.277-1.529.5,1.139.184,1.513-1.277,1.529" transform="translate(-251.879 -69.198)" fill="#3c2432"/>
        <path id="Trazado_891542" data-name="Trazado 891542" d="M278.043,398.07a5.548,5.548,0,0,1-.144,3,1.114,1.114,0,0,1-.977.889,1.135,1.135,0,0,1-.737-.064c-.25-.2.02-.461.133-.67.521-.971,1.055-1.934,1.725-3.158" transform="translate(-180.764 -260.636)" fill="#4d3539"/>
        <path id="Trazado_891543" data-name="Trazado 891543" d="M614.563,551.222c1.418.305,1.8.923,1.779,2.877a2.6,2.6,0,0,1-1.968-1.09c-.411-.472-.74-.993.252-1.279.482-.139-.135-.321-.063-.508" transform="translate(-401.998 -360.912)" fill="#4e6c81"/>
        <path id="Trazado_891544" data-name="Trazado 891544" d="M433.219,456.636l3.163,2.477c-2.775-.51-5.114-1.46-7.6-1.745-.343.111-.572-.119-.8-.3a27.512,27.512,0,0,0-4.925-2.979c-.416-.207-.87-.382-1.072-.862.012-.215.069-.378.34-.289,3.235.949,6.381,2.152,9.546,3.3.439.16.9.264,1.349.394" transform="translate(-276.294 -296.545)" fill="#383e4e"/>
        <path id="Trazado_891545" data-name="Trazado 891545" d="M407.271,448.043l-.239.247a8.952,8.952,0,0,1-4.443-1.477l-3.6-1.1c.564-.586,1.147-.073,1.664.046a32.787,32.787,0,0,1,6.613,2.285" transform="translate(-261.241 -291.649)" fill="#697881"/>
        <path id="Trazado_891546" data-name="Trazado 891546" d="M335.648,488.63c-.361-.434-.916-.379-1.38-.47a2.279,2.279,0,0,1-1.7-1.12c-.081-1.142-.205-2.283-.23-3.427-.023-1.077.407-1.8,1.655-1.745a2.418,2.418,0,0,0,1.669-.488c1.165-1.141,2.356-2.259,3.614-3.292,1.33-1.092,2.875-.848,4.291-.234,2.3,1,4.272,2.416,5.062,5a12.163,12.163,0,0,0,.674,1.674,1.1,1.1,0,0,1-.086,1.216,9.96,9.96,0,0,0-1.4,3.435c-.352,1.221-.79,1.494-2.094,1.289-2.628-.412-5.232-.966-7.858-1.4-.739-.122-1.579.182-2.221-.437" transform="translate(-217.598 -312.532)" fill="#e66f71"/>
        <path id="Trazado_891547" data-name="Trazado 891547" d="M336.077,461.4c-2.219,0-2.637-.456-1.991-2.487,1.209-3.8,2.636-7.49,6.419-9.574a11.65,11.65,0,0,1,6.121-1.686c.878.033,1.652.213,1.636,1.344a1.373,1.373,0,0,1,.287,1.09,22.324,22.324,0,0,0,.033,5.012,7.88,7.88,0,0,0,1.179,4.02,1.778,1.778,0,0,1,.216.467,1.071,1.071,0,0,1-.4,1.259.935.935,0,0,1-1.194-.037c-.675-.461-1.3-.991-1.97-1.46a7.553,7.553,0,0,0-2.909-1.32,4.249,4.249,0,0,0-4.348,1.227c-.842.938-1.643,2.025-3.082,2.143" transform="translate(-218.561 -293.095)" fill="#e57172"/>
        <path id="Trazado_891548" data-name="Trazado 891548" d="M377.182,449.519c.1-1.325.935-1.5,2.068-1.457a19.446,19.446,0,0,1,8.767,2.762,7.228,7.228,0,0,1,3.186,2.82c.276.479.583.954.3,1.544a2.7,2.7,0,0,1-1.479.719c-1.576.464-3.138.937-4.15,2.393-.418.6-1.06.515-1.647.354a5.671,5.671,0,0,0-3.759.277c-1.788.718-2.762.171-3.244-1.683a24.814,24.814,0,0,1-.418-6.795,1.335,1.335,0,0,1,.378-.933" transform="translate(-246.686 -293.364)" fill="#e66f71"/>
        <path id="Trazado_891549" data-name="Trazado 891549" d="M353.358,451.811c.177,2.233-.165,4.485.224,6.71a5.833,5.833,0,0,0,.351,1.5c.433.909,1.007,1.613,2.2,1.006a5.853,5.853,0,0,1,4.754-.357c.384.136.667.121.868-.26.935-1.778,2.747-2.077,4.418-2.6a3.215,3.215,0,0,0,1.419-.556,1.862,1.862,0,0,1,.408,1.706c-.928.366-1.958.164-2.888.539-.85.343-1.8.689-1.939,1.681a4.65,4.65,0,0,0,1.085,3.2c.281.412.879.26,1.333.135.95-.26,1.916-.45,2.862-.727a2.2,2.2,0,0,1,1.5-.116,1.006,1.006,0,0,1,.238,1.143,15.016,15.016,0,0,1-4.953,1.31,1.853,1.853,0,0,0-1.751,1.208c-1.285,2.807-3.758,3.811-6.747,2.882-.654-.2-1.414-.831-2.009-.046a2.873,2.873,0,0,0-.553,2.791c.118.331.5.663.061,1.035-1.065.452-2.109.017-3.159-.074-3.075-.265-6.077-.993-9.117-1.475-.416-.066-1-.031-1.045-.707l-.012.015c2.831-.15,5.523.731,8.273,1.155,3.112.48,3.1.562,4.06-2.353.094-.285.095-.642.272-.853,1.814-2.158-.129-3.81-.915-5.443-.676-1.4-2.222-2.244-3.71-2.884-2.244-.965-3.544-.693-5.2,1.089a6.7,6.7,0,0,1-2.765,2.039.542.542,0,0,0-.549-.545,12.5,12.5,0,0,0,2.587-2.1,5.033,5.033,0,0,1,6.364-1.2,14.349,14.349,0,0,1,3.392,2.309c.31.262.591.727,1.049.189.3-.35.5-.7.118-1.131-1.58-1.766-1.364-3.989-1.506-6.106a22.41,22.41,0,0,1,.181-4.367l.8.255" transform="translate(-222.861 -295.656)" fill="#f8ddcd"/>
        <path id="Trazado_891550" data-name="Trazado 891550" d="M411.337,466.078l-.283-1.116a1.332,1.332,0,0,1-.572-1.1c-.18-1.329-1.05-2.434-1.2-3.769a1.714,1.714,0,0,1-.51-1.542c-.508-1.893-2.084-2.907-3.4-4.133a.974.974,0,0,1,.377.055c1.1.7,1.308.151,1.208-.848a.865.865,0,0,1,.95.18,8.481,8.481,0,0,1,3.43,5.022c.864,3.671,1.794,7.328,2.572,11.018.733,3.477.6,6.842-2,9.662l-.268.072a1.109,1.109,0,0,0-1.4-.219,5.5,5.5,0,0,1-4.278.022,9.216,9.216,0,0,0-2.655-.132c-.211-.9.49-.758.98-.856a19.227,19.227,0,0,0,3.845.206,3.784,3.784,0,0,0,3.7-2.667,10.493,10.493,0,0,0,.289-5.086,21.478,21.478,0,0,0-.7-3.269,2.029,2.029,0,0,1-.083-1.5" transform="translate(-264.04 -296.96)" fill="#f8ebe0"/>
        <path id="Trazado_891551" data-name="Trazado 891551" d="M415.355,456.129c-1.185-1.966-2.123-4.139-4.38-5.2-.4-.632-1.548-.478-1.567-1.5a23.071,23.071,0,0,1,4.443,1.477c1.749.986,3.511,1.948,5.237,2.971a11.552,11.552,0,0,1,1.456,1.21,1.534,1.534,0,0,1,.043.216,35.534,35.534,0,0,1-4.631.383c-.367.032-.561.079-.6.449" transform="translate(-268.059 -294.259)" fill="#e0b6ae"/>
        <path id="Trazado_891552" data-name="Trazado 891552" d="M304.08,515.119c-5.892.487-11.764-.067-17.642-.326a1.791,1.791,0,0,1-.48-.164c-.6-.6-1.077-1.3-1.647-1.918-.263-.286-.273-.505.1-.682,1.422-.379,2.812.147,4.216.206,1.017.042,2.048.21,3.072.155,3.135-.17,6.253.435,8.954.194-3.772-.829-8-1.523-12.2-2.382a8.112,8.112,0,0,1-1.552-.993,2.841,2.841,0,0,1-.369-.107c-1.885-.831-1.935-.944-1.33-3,.468-.353.932-.046,1.323.1,4.571,1.745,9.4,2.379,14.147,3.382,2.606.551,5.242.92,7.854,1.418.305.881-.028,1.28-1.108,1.248-.676-.02-1.406-.27-1.746.622-.876.5-1.118,1.458-1.6,2.242" transform="translate(-186.028 -331.263)" fill="#bb6563"/>
        <path id="Trazado_891553" data-name="Trazado 891553" d="M310.16,506.29c2.723.645,5.478,1.122,8.246,1.518a29.453,29.453,0,0,0,5.332.572c.407-.394.83-.22,1.255-.04.7.362,1.49.421,2.208.712.411.167,1.119.229,1,.771-.12.57-.756.353-1.216.269a11.977,11.977,0,0,1-1.389-.278,20.089,20.089,0,0,0-6.317-1.008,75.841,75.841,0,0,1-10.513-.849,12.936,12.936,0,0,0-2.6-.5c-.383.031-.2.315-.222.144a.038.038,0,0,1,.036-.05,9.269,9.269,0,0,1,2.674.331,81.678,81.678,0,0,0,13.086,1.005c.65.006,1.3.023,1.664.707a.935.935,0,0,1-.8.417,50.812,50.812,0,0,1-13.473-.907c-4.641-1.115-9.39-1.714-13.984-3.027-.719-.206-1.92-.329-1.742-1.162.172-.806,1.341-.581,2.138-.486.038,0,.073.045.108.068l8.253.792a59.928,59.928,0,0,0,6.251,1" transform="translate(-192.098 -330.207)" fill="#d37f7e"/>
        <path id="Trazado_891554" data-name="Trazado 891554" d="M273.6,514.955c.541.081,1.16.008,1.391.7-.77.663-1.637-.094-2.33.16,3.012.02,6.014.849,9.07,1.3.72.106,1.43.269,2.147.392.28.048.688.017.63.431-.049.349-.425.352-.731.357-.948.013-1.882-.165-2.833-.158a81.165,81.165,0,0,1-14.979-1.291,3.944,3.944,0,0,1-.867-.238,3.016,3.016,0,0,1-.424-.14c-.386-.347-1.141-.471-.779-1.275a34.964,34.964,0,0,1,7.586-.373c.688.081,1.389.563,2.118.135" transform="translate(-172.725 -337.01)" fill="#dc817f"/>
        <path id="Trazado_891555" data-name="Trazado 891555" d="M266.7,520.423a3.2,3.2,0,0,1,1.8,2.358,39.159,39.159,0,0,1-10.194-1.775c-.409-.121-.952-.24-.827-.792.14-.618-.317-1.469.612-1.824a9.679,9.679,0,0,1,1.221.272c.359.137.753.13,1.111.273,1.582.319,3.142.738,4.75.934a2.214,2.214,0,0,1,1.527.554" transform="translate(-168.575 -339.415)" fill="#9d5459"/>
        <path id="Trazado_891556" data-name="Trazado 891556" d="M291.647,504.3a4.44,4.44,0,0,0-2.46.526c4.832,1.96,9.85,2.087,14.562,3.411,4.878,1.371,9.847,1.292,14.828,1.225a.327.327,0,0,1-.075.421c-2.558.695-5.122,1.171-7.714.148a151.811,151.811,0,0,1-21.135-4.287c-.827-.235-1.492-.861-2.384-.894,1.428-.437,2.808-1.249,4.378-.549" transform="translate(-188.089 -330.012)" fill="#f8dfd4"/>
        <path id="Trazado_891557" data-name="Trazado 891557" d="M190.372,489.827a6.869,6.869,0,0,1-4.875-.283,49.234,49.234,0,0,1-5.083-3.2c1.316-.326,2.231-1.248,3.462-.636a59.773,59.773,0,0,1,6.5,4.118" transform="translate(-118.126 -317.882)" fill="#e67778"/>
        <path id="Trazado_891558" data-name="Trazado 891558" d="M341.913,528.012a2.025,2.025,0,0,1,1.561-2.382c3.112.857,6.237.221,9.358.077a2.238,2.238,0,0,1,1.506.147.528.528,0,0,1,.04.652c-4.121.779-8.232,1.651-12.465,1.505" transform="translate(-223.861 -344.156)" fill="#404752"/>
        <path id="Trazado_891559" data-name="Trazado 891559" d="M641.931,516.282c-.02-.36.112-.764-.291-1.014a7.7,7.7,0,0,1,.026-5.385l.216-.522c.045.232.179.447.409.425,1.466-.136,1.5.776,1.444,1.85-.054.987-.013,1.98-.006,2.97.013,1.736.016,1.736-1.8,1.676" transform="translate(-419.803 -333.504)" fill="#375568"/>
        <path id="Trazado_891560" data-name="Trazado 891560" d="M394.091,522.3c-.368.141-.974-.179-1.044.539-.3.144-.522.518-.892.445-1.506-.3-3.064,0-4.557-.408.673-.8-.128-1.624.042-2.433a16.261,16.261,0,0,1,4.293.347c.519.1.713.01.569-.53,1.471-.449,1.917.124,1.59,2.039" transform="translate(-253.779 -340.544)" fill="#cc807c"/>
        <path id="Trazado_891561" data-name="Trazado 891561" d="M380.558,519.907c.9,1.089.888,1.978-.027,2.327l-3.3.021q-.017-.288-.033-.576a1.61,1.61,0,0,1-.012-2.088.591.591,0,0,1,.017-.234l.815-.051a2.242,2.242,0,0,1,2.543.6" transform="translate(-246.712 -339.904)" fill="#ae6065"/>
        <path id="Trazado_891562" data-name="Trazado 891562" d="M172.212,478.11c-.9.278-1.908.912-2.745.46a9.437,9.437,0,0,1-3.284-2.846c-.106-.152.2-.194.351-.222l5.678,2.608" transform="translate(-108.794 -311.334)" fill="#db867f"/>
        <path id="Trazado_891563" data-name="Trazado 891563" d="M260.354,517.316a1.527,1.527,0,0,1-1.062-.538c.524-.321.847-1.062,1.653-.792-.067.571.616.584.75,1.005-.394.327-.907.162-1.341.324" transform="translate(-169.771 -337.804)" fill="#f6e2d3"/>
        <path id="Trazado_891564" data-name="Trazado 891564" d="M632.878,510.873q-.013,2.692-.026,5.385l-5.108-1.037a.564.564,0,0,1,.4-.454,11.769,11.769,0,0,0,4.739-3.894" transform="translate(-411.015 -334.493)" fill="#e3dcd3"/>
        <path id="Trazado_891565" data-name="Trazado 891565" d="M388.547,502.436c-.107-.22-.538-.307-.4-.592.689-1.377-.275-1.371-1.165-1.446a.866.866,0,0,1-.967.146c-1.708-.647-3.5-1-5.237-1.558a1.266,1.266,0,0,0-.908-.132c-1.125-.962-.933-3.674.289-4.471.437-.286.731,0,1.073.127,1.544.558,3.067,1.153,4.728.355a4.658,4.658,0,0,0,2.674-2.969,1.271,1.271,0,0,1,1.481-1.062,10.652,10.652,0,0,0,3.029-.564,6.137,6.137,0,0,1,2.382-.471,20.147,20.147,0,0,1,1.332,7.812c-.132,2.66-1.565,5.512-5.379,5.144a14.75,14.75,0,0,1-2.938-.32" transform="translate(-248.235 -320.683)" fill="#e46f70"/>
        <path id="Trazado_891566" data-name="Trazado 891566" d="M385.189,479.222a3.733,3.733,0,0,1,3.872,3.915,4.271,4.271,0,0,1-4.171,4.386,4.62,4.62,0,0,1-4.589-4.45c.053-2.105,2.266-3.848,4.888-3.851" transform="translate(-249.001 -313.77)" fill="#e67273"/>
        <path id="Trazado_891567" data-name="Trazado 891567" d="M410.5,472.474c1.157,1.416,1.421,3.157,1.77,4.867a25.324,25.324,0,0,1-4.8,1.313c-.783.169-1.4.017-1.533-.983a6.368,6.368,0,0,0-.548-1.434,2.156,2.156,0,0,1,1.225-3.133,7.769,7.769,0,0,1,3.885-.631" transform="translate(-265.258 -309.339)" fill="#e77173"/>
        <path id="Trazado_891568" data-name="Trazado 891568" d="M271.867,519.8a29.705,29.705,0,0,1-6.517-1.274c.106-.258.414-.294.557-.512,6.378,1.362,12.866,1.46,19.356,1.619l-11.8-2.016c0-.059,0-.118.007-.177h2.539a110.785,110.785,0,0,1,13.512,2.838c-.764.077-1.527.191-2.293.221s-1.551-.025-2.326-.037c-4.352-.068-8.7-.266-13.034-.662" transform="translate(-173.738 -338.796)" fill="#f6e2d3"/>
        <path id="Trazado_891569" data-name="Trazado 891569" d="M356.52,520.452l.012,2.088a65.015,65.015,0,0,1-8.861.55,2.287,2.287,0,0,1-2.01-.851c-.125-.243-.873-.512,0-.719.52-.123,1.024-.4,1.606-.127.67.313,1.136-.036,1.476-.608a30.051,30.051,0,0,0,7.772-.334" transform="translate(-226.049 -340.765)" fill="#d37f7e"/>
        <path id="Trazado_891570" data-name="Trazado 891570" d="M353.491,515.18c2.094.358,4.157.851,6.2,1.412.208.366.794.365.887,1.06l-5.793-.773-2.543-.6a19.416,19.416,0,0,0-6.2-.678,35.553,35.553,0,0,1-8.587-1.087l-.007.009c6.438,1.016,13.073.074,19.416,2.056-1.021-.787-2.393-.583-3.373-1.4" transform="translate(-220.944 -336.877)" fill="#f8ddcd"/>
        <path id="Trazado_891571" data-name="Trazado 891571" d="M332.212,513.638a7.536,7.536,0,0,1-2.772-.41,4.865,4.865,0,0,1,2.765.419l.007-.009" transform="translate(-215.701 -336.001)" fill="#f8ddcd"/>
        <path id="Trazado_891572" data-name="Trazado 891572" d="M263.955,518.883c.289.687-.315.4-.557.512-.348-.05-.741.108-1.03-.222.329-.6.855-.378,1.341-.325a.621.621,0,0,1,.246.034" transform="translate(-171.785 -339.661)" fill="#f6f4ed"/>
      </g>
    </g>
  </g>
</svg>
