<svg id="Grupo_1101460" data-name="Grupo 1101460" xmlns="http://www.w3.org/2000/svg" xmlns:xlink="http://www.w3.org/1999/xlink" width="85" height="62.616" viewBox="0 0 85 62.616">
  <defs>
    <clipPath id="clip-path">
      <rect id="Rectángulo_401525" data-name="Rectángulo 401525" width="85" height="62.616" fill="none"/>
    </clipPath>
  </defs>
  <g id="Grupo_1099892" data-name="Grupo 1099892" clip-path="url(#clip-path)">
    <path id="Trazado_884147" data-name="Trazado 884147" d="M6.708,36.452C22.851,49.532,24.967,51.5,28.639,53.228c2.687,1.264,5.647,1.925,8.218,3.41,2.128,1.229,3.92,2.986,6.076,4.165,8.953,4.9,19.732-1.624,24.239-2.924C70.219,57,80.1,56.513,83.916,44.548c2.29-7.174.764-18.934-3.332-22.955-1.858-1.824-4.446-2.65-6.689-3.97-2.915-1.717-5.283-4.3-8.324-5.778-2.243-1.092-4.756-1.535-7-2.617a50.562,50.562,0,0,1-5.452-3.507c-12.655-8.237-34.546-5.6-42.6-1.135C.779,9.978-4.563,27.319,6.708,36.452Z" transform="translate(-0.179 -0.179)" fill="none" stroke="#8a4c45" stroke-linecap="round" stroke-linejoin="round" stroke-width="0.75"/>
    <path id="Trazado_884148" data-name="Trazado 884148" d="M1.549,34.03c4.311,12.976,21.8,14.137,31.6,21.748,6.192,4.808,11.74,14.294,20.7,14.457,3.338.061,17.547-3.891,22.611-6.891,4.572-2.709,7.8-6.86,7.763-12.175a35.431,35.431,0,0,1,.686-4.969" transform="translate(-0.741 -16.274)" fill="none" stroke="#8a4c45" stroke-linecap="round" stroke-linejoin="round" stroke-width="0.75"/>
    <path id="Trazado_884149" data-name="Trazado 884149" d="M24.785,28.979C30.038,17.295,40.777,4.25,44.376,4.684" transform="translate(-11.853 -2.235)" fill="none" stroke="#8a4c45" stroke-linecap="round" stroke-linejoin="round" stroke-width="0.75"/>
    <path id="Trazado_884150" data-name="Trazado 884150" d="M46.1,31.9A53.547,53.547,0,0,1,70.559,6.822" transform="translate(-22.045 -3.262)" fill="none" stroke="#8a4c45" stroke-linecap="round" stroke-linejoin="round" stroke-width="0.75"/>
    <path id="Trazado_884151" data-name="Trazado 884151" d="M65.212,48.144C69.732,38.094,78.2,27.76,87.95,22.622" transform="translate(-31.185 -10.818)" fill="none" stroke="#8a4c45" stroke-linecap="round" stroke-linejoin="round" stroke-width="0.75"/>
    <path id="Trazado_884152" data-name="Trazado 884152" d="M86.212,61.747c3.848-11.059,11.32-23.015,22.073-27.65" transform="translate(-41.228 -16.306)" fill="none" stroke="#8a4c45" stroke-linecap="round" stroke-linejoin="round" stroke-width="0.75"/>
    <path id="Trazado_884153" data-name="Trazado 884153" d="M100.559,71.99c5.09-12.091,15.256-21.183,25.107-29.848" transform="translate(-48.089 -20.153)" fill="none" stroke="#8a4c45" stroke-linecap="round" stroke-linejoin="round" stroke-width="0.75"/>
    <path id="Trazado_884154" data-name="Trazado 884154" d="M26.052,11.766Q40.84,9.083,55.7,6.847" transform="translate(-12.458 -3.274)" fill="none" stroke="#8a4c45" stroke-linecap="round" stroke-linejoin="round" stroke-width="0.75"/>
    <path id="Trazado_884155" data-name="Trazado 884155" d="M17.548,26.024c5.362.763,7.322.1,44.273-5.98" transform="translate(-8.392 -9.585)" fill="none" stroke="#8a4c45" stroke-linecap="round" stroke-linejoin="round" stroke-width="0.75"/>
    <path id="Trazado_884156" data-name="Trazado 884156" d="M18.377,42.126c2.861,1.291,5.82,2.356,50.929-3.232" transform="translate(-8.788 -18.6)" fill="none" stroke="#8a4c45" stroke-linecap="round" stroke-linejoin="round" stroke-width="0.75"/>
    <path id="Trazado_884157" data-name="Trazado 884157" d="M54.5,61.528c2.5,1.78,3.191,2.447,52.492-1.965" transform="translate(-26.065 -28.484)" fill="none" stroke="#8a4c45" stroke-linecap="round" stroke-linejoin="round" stroke-width="0.75"/>
    <path id="Trazado_884158" data-name="Trazado 884158" d="M78.633,80.762a132.912,132.912,0,0,0,29.431,2.2" transform="translate(-37.603 -38.622)" fill="none" stroke="#8a4c45" stroke-linecap="round" stroke-linejoin="round" stroke-width="0.75"/>
    <path id="Trazado_884159" data-name="Trazado 884159" d="M2.034,45.342a.811.811,0,0,0,.55-.544" transform="translate(-0.973 -21.423)" fill="none" stroke="#8a4c45" stroke-linecap="round" stroke-linejoin="round" stroke-width="0.75"/>
    <path id="Trazado_884160" data-name="Trazado 884160" d="M1.861,42.532l.273-.183" transform="translate(-0.89 -20.252)" fill="none" stroke="#8a4c45" stroke-linecap="round" stroke-linejoin="round" stroke-width="0.75"/>
    <path id="Trazado_884161" data-name="Trazado 884161" d="M3.1,47.123l.907-1.1" transform="translate(-1.482 -22.01)" fill="none" stroke="#8a4c45" stroke-linecap="round" stroke-linejoin="round" stroke-width="0.75"/>
    <path id="Trazado_884162" data-name="Trazado 884162" d="M3.761,49.847a5.033,5.033,0,0,1,1.93-1.719" transform="translate(-1.799 -23.015)" fill="none" stroke="#8a4c45" stroke-linecap="round" stroke-linejoin="round" stroke-width="0.75"/>
    <path id="Trazado_884163" data-name="Trazado 884163" d="M4.322,52.58a10.862,10.862,0,0,1,2.726-2.2" transform="translate(-2.067 -24.093)" fill="none" stroke="#8a4c45" stroke-linecap="round" stroke-linejoin="round" stroke-width="0.75"/>
    <path id="Trazado_884164" data-name="Trazado 884164" d="M5.909,56.059l1.542-1.287" transform="translate(-2.826 -26.193)" fill="none" stroke="#8a4c45" stroke-linecap="round" stroke-linejoin="round" stroke-width="0.75"/>
    <path id="Trazado_884165" data-name="Trazado 884165" d="M11.017,52.867l.727-.368" transform="translate(-5.268 -25.106)" fill="none" stroke="#8a4c45" stroke-linecap="round" stroke-linejoin="round" stroke-width="0.75"/>
    <path id="Trazado_884166" data-name="Trazado 884166" d="M14.477,61.911a37.211,37.211,0,0,1,4.755-2.9" transform="translate(-6.923 -28.22)" fill="none" stroke="#8a4c45" stroke-linecap="round" stroke-linejoin="round" stroke-width="0.75"/>
    <path id="Trazado_884167" data-name="Trazado 884167" d="M18.694,62.971a20.951,20.951,0,0,1,4.135-2.794" transform="translate(-8.94 -28.777)" fill="none" stroke="#8a4c45" stroke-linecap="round" stroke-linejoin="round" stroke-width="0.75"/>
    <path id="Trazado_884168" data-name="Trazado 884168" d="M21.969,65.863a19.94,19.94,0,0,1,3.518-2.2" transform="translate(-10.506 -30.445)" fill="none" stroke="#8a4c45" stroke-linecap="round" stroke-linejoin="round" stroke-width="0.75"/>
    <path id="Trazado_884169" data-name="Trazado 884169" d="M24.982,69.41l1.932-1.355" transform="translate(-11.947 -32.545)" fill="none" stroke="#8a4c45" stroke-linecap="round" stroke-linejoin="round" stroke-width="0.75"/>
    <path id="Trazado_884170" data-name="Trazado 884170" d="M28.016,71.947l.243-.122" transform="translate(-13.398 -34.348)" fill="none" stroke="#8a4c45" stroke-linecap="round" stroke-linejoin="round" stroke-width="0.75"/>
    <path id="Trazado_884171" data-name="Trazado 884171" d="M43.664,79.756a27.01,27.01,0,0,1,5.794-3.6" transform="translate(-20.881 -36.42)" fill="none" stroke="#8a4c45" stroke-linecap="round" stroke-linejoin="round" stroke-width="0.75"/>
    <path id="Trazado_884172" data-name="Trazado 884172" d="M47.172,83.985a26.476,26.476,0,0,1,4.591-3.317" transform="translate(-22.558 -38.577)" fill="none" stroke="#8a4c45" stroke-linecap="round" stroke-linejoin="round" stroke-width="0.75"/>
    <path id="Trazado_884173" data-name="Trazado 884173" d="M51.59,87.188a26.186,26.186,0,0,1,3.857-2.363" transform="translate(-24.671 -40.564)" fill="none" stroke="#8a4c45" stroke-linecap="round" stroke-linejoin="round" stroke-width="0.75"/>
    <path id="Trazado_884174" data-name="Trazado 884174" d="M53.922,90.779a20.513,20.513,0,0,0,2.157-1.273" transform="translate(-25.786 -42.803)" fill="none" stroke="#8a4c45" stroke-linecap="round" stroke-linejoin="round" stroke-width="0.75"/>
    <path id="Trazado_884175" data-name="Trazado 884175" d="M55.525,93.524a.174.174,0,0,0,.1.246l1.216-.74" transform="translate(-26.543 -44.488)" fill="none" stroke="#8a4c45" stroke-linecap="round" stroke-linejoin="round" stroke-width="0.75"/>
    <path id="Trazado_884176" data-name="Trazado 884176" d="M68.848,98.277A24.921,24.921,0,0,1,73.3,95.534" transform="translate(-32.924 -45.686)" fill="none" stroke="#8a4c45" stroke-linecap="round" stroke-linejoin="round" stroke-width="0.75"/>
    <path id="Trazado_884177" data-name="Trazado 884177" d="M72.631,101.356l3.822-2.535" transform="translate(-34.733 -47.258)" fill="none" stroke="#8a4c45" stroke-linecap="round" stroke-linejoin="round" stroke-width="0.75"/>
    <path id="Trazado_884178" data-name="Trazado 884178" d="M75.955,102.764c-.013.115-.026.23-.039.345l2.978-1.662" transform="translate(-36.304 -48.513)" fill="none" stroke="#8a4c45" stroke-linecap="round" stroke-linejoin="round" stroke-width="0.75"/>
    <path id="Trazado_884179" data-name="Trazado 884179" d="M78.863,106.056a5.823,5.823,0,0,0,1.541-.717" transform="translate(-37.713 -50.375)" fill="none" stroke="#8a4c45" stroke-linecap="round" stroke-linejoin="round" stroke-width="0.75"/>
    <path id="Trazado_884180" data-name="Trazado 884180" d="M82.521,107.832a.524.524,0,0,0,.717-.15" transform="translate(-39.463 -51.495)" fill="none" stroke="#8a4c45" stroke-linecap="round" stroke-linejoin="round" stroke-width="0.75"/>
    <path id="Trazado_884181" data-name="Trazado 884181" d="M99.9,109.259a44.319,44.319,0,0,1,4.195-3.647" transform="translate(-47.774 -50.505)" fill="none" stroke="#8a4c45" stroke-linecap="round" stroke-linejoin="round" stroke-width="0.75"/>
    <path id="Trazado_884182" data-name="Trazado 884182" d="M108.987,108.165l2.006-2.553" transform="translate(-52.119 -50.505)" fill="none" stroke="#8a4c45" stroke-linecap="round" stroke-linejoin="round" stroke-width="0.75"/>
    <path id="Trazado_884183" data-name="Trazado 884183" d="M115.274,107.279l2.189-2.37" transform="translate(-55.126 -50.169)" fill="none" stroke="#8a4c45" stroke-linecap="round" stroke-linejoin="round" stroke-width="0.75"/>
    <path id="Trazado_884184" data-name="Trazado 884184" d="M120.861,105.665l1.278-1.458" transform="translate(-57.797 -49.833)" fill="none" stroke="#8a4c45" stroke-linecap="round" stroke-linejoin="round" stroke-width="0.75"/>
    <path id="Trazado_884185" data-name="Trazado 884185" d="M134.507,102.952a11.566,11.566,0,0,0,6.194-2.94" transform="translate(-64.323 -47.827)" fill="none" stroke="#8a4c45" stroke-linecap="round" stroke-linejoin="round" stroke-width="0.75"/>
    <path id="Trazado_884186" data-name="Trazado 884186" d="M149.88,95.2l1.824-1.824" transform="translate(-71.675 -44.655)" fill="none" stroke="#8a4c45" stroke-linecap="round" stroke-linejoin="round" stroke-width="0.75"/>
    <path id="Trazado_884187" data-name="Trazado 884187" d="M25.551,77.746A11.863,11.863,0,0,1,30.38,81.2" transform="translate(-12.219 -37.179)" fill="none" stroke="#8a4c45" stroke-linecap="round" stroke-linejoin="round" stroke-width="0.75"/>
    <path id="Trazado_884188" data-name="Trazado 884188" d="M39.352,88.206l.763.883" transform="translate(-18.819 -42.181)" fill="none" stroke="#8a4c45" stroke-linecap="round" stroke-linejoin="round" stroke-width="0.75"/>
    <line id="Línea_1203" data-name="Línea 1203" x2="1.06" y2="1.483" transform="translate(4.535 31.757)" fill="none" stroke="#8a4c45" stroke-linecap="round" stroke-linejoin="round" stroke-width="0.75"/>
    <path id="Trazado_884189" data-name="Trazado 884189" d="M83.4,112.687a7.124,7.124,0,0,0,4.236,1.728" transform="translate(-39.882 -53.888)" fill="none" stroke="#8a4c45" stroke-linecap="round" stroke-linejoin="round" stroke-width="0.75"/>
    <path id="Trazado_884190" data-name="Trazado 884190" d="M98.857,116.309l1.64-.549" transform="translate(-47.275 -55.358)" fill="none" stroke="#8a4c45" stroke-linecap="round" stroke-linejoin="round" stroke-width="0.75"/>
    <path id="Trazado_884191" data-name="Trazado 884191" d="M138.815,96.165l-.182,1.277" transform="translate(-66.296 -45.987)" fill="none" stroke="#8a4c45" stroke-linecap="round" stroke-linejoin="round" stroke-width="0.75"/>
    <path id="Trazado_884192" data-name="Trazado 884192" d="M141.842,95.473a.265.265,0,0,1,.167.358" transform="translate(-67.831 -45.657)" fill="none" stroke="#8a4c45" stroke-linecap="round" stroke-linejoin="round" stroke-width="0.75"/>
    <line id="Línea_1204" data-name="Línea 1204" x2="0.183" y2="0.365" transform="translate(75.47 49.088)" fill="none" stroke="#8a4c45" stroke-linecap="round" stroke-linejoin="round" stroke-width="0.75"/>
    <path id="Trazado_884193" data-name="Trazado 884193" d="M25.162,21.035a16.217,16.217,0,0,0-1.472,3.642" transform="translate(-11.329 -10.059)" fill="none" stroke="#8a4c45" stroke-linecap="round" stroke-linejoin="round" stroke-width="0.75"/>
    <path id="Trazado_884194" data-name="Trazado 884194" d="M28.65,23.134l-.723,1.28" transform="translate(-13.355 -11.063)" fill="none" stroke="#8a4c45" stroke-linecap="round" stroke-linejoin="round" stroke-width="0.75"/>
    <path id="Trazado_884195" data-name="Trazado 884195" d="M33.045,19.992l-1.276,2.553" transform="translate(-15.192 -9.56)" fill="none" stroke="#8a4c45" stroke-linecap="round" stroke-linejoin="round" stroke-width="0.75"/>
    <path id="Trazado_884196" data-name="Trazado 884196" d="M37.019,20.322l-1.093,2.007" transform="translate(-17.18 -9.718)" fill="none" stroke="#8a4c45" stroke-linecap="round" stroke-linejoin="round" stroke-width="0.75"/>
    <path id="Trazado_884197" data-name="Trazado 884197" d="M37.4,5.664q-.556,1.182-1.11,2.364" transform="translate(-17.354 -2.709)" fill="none" stroke="#8a4c45" stroke-linecap="round" stroke-linejoin="round" stroke-width="0.75"/>
    <path id="Trazado_884198" data-name="Trazado 884198" d="M41.33,4.95l-.98,2.158" transform="translate(-19.296 -2.367)" fill="none" stroke="#8a4c45" stroke-linecap="round" stroke-linejoin="round" stroke-width="0.75"/>
    <path id="Trazado_884199" data-name="Trazado 884199" d="M44.71,6A1.7,1.7,0,0,1,44,7.112" transform="translate(-21.042 -2.868)" fill="none" stroke="#8a4c45" stroke-linecap="round" stroke-linejoin="round" stroke-width="0.75"/>
    <path id="Trazado_884200" data-name="Trazado 884200" d="M49.4,5.654a1.181,1.181,0,0,1-.173.911" transform="translate(-23.539 -2.704)" fill="none" stroke="#8a4c45" stroke-linecap="round" stroke-linejoin="round" stroke-width="0.75"/>
    <path id="Trazado_884201" data-name="Trazado 884201" d="M7.256,29.28a5.317,5.317,0,0,1-.525-4.671A15.732,15.732,0,0,1,9.1,20.371" transform="translate(-3.075 -9.742)" fill="none" stroke="#8a4c45" stroke-linecap="round" stroke-linejoin="round" stroke-width="0.75"/>
    <path id="Trazado_884202" data-name="Trazado 884202" d="M15.29,14.387l.914-.726" transform="translate(-7.312 -6.533)" fill="none" stroke="#8a4c45" stroke-linecap="round" stroke-linejoin="round" stroke-width="0.75"/>
    <path id="Trazado_884203" data-name="Trazado 884203" d="M153.954,69.261a16.246,16.246,0,0,1-1.257,5.111" transform="translate(-73.021 -33.122)" fill="none" stroke="#8a4c45" stroke-linecap="round" stroke-linejoin="round" stroke-width="0.75"/>
    <path id="Trazado_884204" data-name="Trazado 884204" d="M144.292,85.555a3.423,3.423,0,0,0,1.633-.926" transform="translate(-69.002 -40.471)" fill="none" stroke="#8a4c45" stroke-linecap="round" stroke-linejoin="round" stroke-width="0.75"/>
    <path id="Trazado_884205" data-name="Trazado 884205" d="M17.772,37.566a11.169,11.169,0,0,0,2.546-2.561" transform="translate(-8.499 -16.74)" fill="none" stroke="#8a4c45" stroke-linecap="round" stroke-linejoin="round" stroke-width="0.75"/>
    <path id="Trazado_884206" data-name="Trazado 884206" d="M21.646,39.48l1.625-2.019" transform="translate(-10.351 -17.914)" fill="none" stroke="#8a4c45" stroke-linecap="round" stroke-linejoin="round" stroke-width="0.75"/>
    <path id="Trazado_884207" data-name="Trazado 884207" d="M24.764,41.7a1.093,1.093,0,0,0,.714-.749" transform="translate(-11.842 -19.581)" fill="none" stroke="#8a4c45" stroke-linecap="round" stroke-linejoin="round" stroke-width="0.75"/>
    <path id="Trazado_884208" data-name="Trazado 884208" d="M37,36.731a34.211,34.211,0,0,1,3.272-3.475" transform="translate(-17.695 -15.903)" fill="none" stroke="#8a4c45" stroke-linecap="round" stroke-linejoin="round" stroke-width="0.75"/>
    <path id="Trazado_884209" data-name="Trazado 884209" d="M40.9,37.979l3.582-4.07" transform="translate(-19.558 -16.216)" fill="none" stroke="#8a4c45" stroke-linecap="round" stroke-linejoin="round" stroke-width="0.75"/>
    <path id="Trazado_884210" data-name="Trazado 884210" d="M46.774,39.6l1.094-1.094" transform="translate(-22.368 -18.414)" fill="none" stroke="#8a4c45" stroke-linecap="round" stroke-linejoin="round" stroke-width="0.75"/>
    <path id="Trazado_884211" data-name="Trazado 884211" d="M49.57,41.148l.365-.547" transform="translate(-23.705 -19.416)" fill="none" stroke="#8a4c45" stroke-linecap="round" stroke-linejoin="round" stroke-width="0.75"/>
    <path id="Trazado_884212" data-name="Trazado 884212" d="M53.53,13.27l-3.575,5.337" transform="translate(-23.889 -6.346)" fill="none" stroke="#8a4c45" stroke-linecap="round" stroke-linejoin="round" stroke-width="0.75"/>
    <path id="Trazado_884213" data-name="Trazado 884213" d="M57.691,15.08l-2.951,3.8" transform="translate(-26.177 -7.211)" fill="none" stroke="#8a4c45" stroke-linecap="round" stroke-linejoin="round" stroke-width="0.75"/>
    <path id="Trazado_884214" data-name="Trazado 884214" d="M61.7,15.786l-1.642,2.553" transform="translate(-28.719 -7.549)" fill="none" stroke="#8a4c45" stroke-linecap="round" stroke-linejoin="round" stroke-width="0.75"/>
    <path id="Trazado_884215" data-name="Trazado 884215" d="M65.693,16.485A5.567,5.567,0,0,1,64.6,17.944" transform="translate(-30.892 -7.883)" fill="none" stroke="#8a4c45" stroke-linecap="round" stroke-linejoin="round" stroke-width="0.75"/>
    <path id="Trazado_884216" data-name="Trazado 884216" d="M83.852,14.039l-.729,2.188" transform="translate(-39.751 -6.714)" fill="none" stroke="#8a4c45" stroke-linecap="round" stroke-linejoin="round" stroke-width="0.75"/>
    <path id="Trazado_884217" data-name="Trazado 884217" d="M86.776,14.731l-.567,1.818" transform="translate(-41.226 -7.045)" fill="none" stroke="#8a4c45" stroke-linecap="round" stroke-linejoin="round" stroke-width="0.75"/>
    <path id="Trazado_884218" data-name="Trazado 884218" d="M90,14.746q-.095.638-.19,1.275" transform="translate(-42.947 -7.052)" fill="none" stroke="#8a4c45" stroke-linecap="round" stroke-linejoin="round" stroke-width="0.75"/>
    <path id="Trazado_884219" data-name="Trazado 884219" d="M95.354,14.74a.634.634,0,0,1,0,.91" transform="translate(-45.6 -7.049)" fill="none" stroke="#8a4c45" stroke-linecap="round" stroke-linejoin="round" stroke-width="0.75"/>
    <path id="Trazado_884220" data-name="Trazado 884220" d="M66.685,4.255l.183.729" transform="translate(-31.89 -2.035)" fill="none" stroke="#8a4c45" stroke-linecap="round" stroke-linejoin="round" stroke-width="0.75"/>
    <line id="Línea_1205" data-name="Línea 1205" y2="0.365" transform="translate(37.537 2.219)" fill="none" stroke="#8a4c45" stroke-linecap="round" stroke-linejoin="round" stroke-width="0.75"/>
    <path id="Trazado_884221" data-name="Trazado 884221" d="M75.084,3.9l.183.183" transform="translate(-35.906 -1.866)" fill="none" stroke="#8a4c45" stroke-linecap="round" stroke-linejoin="round" stroke-width="0.75"/>
    <path id="Trazado_884222" data-name="Trazado 884222" d="M36.841,50.394q-.1.637-.2,1.274" transform="translate(-17.522 -24.099)" fill="none" stroke="#8a4c45" stroke-linecap="round" stroke-linejoin="round" stroke-width="0.75"/>
    <path id="Trazado_884223" data-name="Trazado 884223" d="M41.053,50.42l-.242.709" transform="translate(-19.516 -24.112)" fill="none" stroke="#8a4c45" stroke-linecap="round" stroke-linejoin="round" stroke-width="0.75"/>
    <line id="Línea_1206" data-name="Línea 1206" y2="0.547" transform="translate(16.929 26.839)" fill="none" stroke="#8a4c45" stroke-linecap="round" stroke-linejoin="round" stroke-width="0.75"/>
    <path id="Trazado_884224" data-name="Trazado 884224" d="M54.629,50.022q-.641,2.188-1.282,4.375" transform="translate(-25.511 -23.921)" fill="none" stroke="#8a4c45" stroke-linecap="round" stroke-linejoin="round" stroke-width="0.75"/>
    <path id="Trazado_884225" data-name="Trazado 884225" d="M59.569,49.355a15.335,15.335,0,0,0-1.33,4.363" transform="translate(-27.851 -23.602)" fill="none" stroke="#8a4c45" stroke-linecap="round" stroke-linejoin="round" stroke-width="0.75"/>
    <path id="Trazado_884226" data-name="Trazado 884226" d="M62.7,50.38q-.448,1.734-.9,3.469" transform="translate(-29.555 -24.092)" fill="none" stroke="#8a4c45" stroke-linecap="round" stroke-linejoin="round" stroke-width="0.75"/>
    <path id="Trazado_884227" data-name="Trazado 884227" d="M66.771,51.106,66.03,53.29" transform="translate(-31.576 -24.44)" fill="none" stroke="#8a4c45" stroke-linecap="round" stroke-linejoin="round" stroke-width="0.75"/>
    <path id="Trazado_884228" data-name="Trazado 884228" d="M71.24,51.437l.183.182" transform="translate(-34.068 -24.598)" fill="none" stroke="#8a4c45" stroke-linecap="round" stroke-linejoin="round" stroke-width="0.75"/>
    <path id="Trazado_884229" data-name="Trazado 884229" d="M65.35,32.89a6.683,6.683,0,0,0-1.438,3.478" transform="translate(-30.564 -15.728)" fill="none" stroke="#8a4c45" stroke-linecap="round" stroke-linejoin="round" stroke-width="0.75"/>
    <path id="Trazado_884230" data-name="Trazado 884230" d="M70.58,30.442l-1.409,4.03" transform="translate(-33.079 -14.558)" fill="none" stroke="#8a4c45" stroke-linecap="round" stroke-linejoin="round" stroke-width="0.75"/>
    <path id="Trazado_884231" data-name="Trazado 884231" d="M74.8,30.5l-1.186,3.433" transform="translate(-35.202 -14.586)" fill="none" stroke="#8a4c45" stroke-linecap="round" stroke-linejoin="round" stroke-width="0.75"/>
    <path id="Trazado_884232" data-name="Trazado 884232" d="M79.111,30.435,77.853,33" transform="translate(-37.23 -14.554)" fill="none" stroke="#8a4c45" stroke-linecap="round" stroke-linejoin="round" stroke-width="0.75"/>
    <path id="Trazado_884233" data-name="Trazado 884233" d="M83.71,30.13l-.545,1.46" transform="translate(-39.771 -14.409)" fill="none" stroke="#8a4c45" stroke-linecap="round" stroke-linejoin="round" stroke-width="0.75"/>
    <path id="Trazado_884234" data-name="Trazado 884234" d="M88.009,28.722a.784.784,0,0,1,0,.726" transform="translate(-42.087 -13.735)" fill="none" stroke="#8a4c45" stroke-linecap="round" stroke-linejoin="round" stroke-width="0.75"/>
    <path id="Trazado_884235" data-name="Trazado 884235" d="M103.257,30.826l-.935,1.812" transform="translate(-48.932 -14.741)" fill="none" stroke="#8a4c45" stroke-linecap="round" stroke-linejoin="round" stroke-width="0.75"/>
    <path id="Trazado_884236" data-name="Trazado 884236" d="M106.753,29.068l-.912,2.371" transform="translate(-50.615 -13.901)" fill="none" stroke="#8a4c45" stroke-linecap="round" stroke-linejoin="round" stroke-width="0.75"/>
    <path id="Trazado_884237" data-name="Trazado 884237" d="M110.582,28.369l-.547,2.188" transform="translate(-52.62 -13.566)" fill="none" stroke="#8a4c45" stroke-linecap="round" stroke-linejoin="round" stroke-width="0.75"/>
    <path id="Trazado_884238" data-name="Trazado 884238" d="M113.255,29.08a5.369,5.369,0,0,1-.785,2.178" transform="translate(-53.785 -13.906)" fill="none" stroke="#8a4c45" stroke-linecap="round" stroke-linejoin="round" stroke-width="0.75"/>
    <path id="Trazado_884239" data-name="Trazado 884239" d="M119.747,28.995a1.784,1.784,0,0,1-.338,1.651" transform="translate(-57.103 -13.866)" fill="none" stroke="#8a4c45" stroke-linecap="round" stroke-linejoin="round" stroke-width="0.75"/>
    <path id="Trazado_884240" data-name="Trazado 884240" d="M124.011,29.805a.461.461,0,0,1,.377.529" transform="translate(-59.304 -14.253)" fill="none" stroke="#8a4c45" stroke-linecap="round" stroke-linejoin="round" stroke-width="0.75"/>
    <path id="Trazado_884241" data-name="Trazado 884241" d="M79.864,51.79a34.513,34.513,0,0,1-1.292,5.1" transform="translate(-37.574 -24.767)" fill="none" stroke="#8a4c45" stroke-linecap="round" stroke-linejoin="round" stroke-width="0.75"/>
    <path id="Trazado_884242" data-name="Trazado 884242" d="M85.068,48.979a17.628,17.628,0,0,0-.888,5.842" transform="translate(-40.254 -23.422)" fill="none" stroke="#8a4c45" stroke-linecap="round" stroke-linejoin="round" stroke-width="0.75"/>
    <path id="Trazado_884243" data-name="Trazado 884243" d="M89.382,49a22.373,22.373,0,0,0-.837,4.547" transform="translate(-42.343 -23.432)" fill="none" stroke="#8a4c45" stroke-linecap="round" stroke-linejoin="round" stroke-width="0.75"/>
    <path id="Trazado_884244" data-name="Trazado 884244" d="M94.33,47.948q-.385,1.819-.771,3.639" transform="translate(-44.741 -22.929)" fill="none" stroke="#8a4c45" stroke-linecap="round" stroke-linejoin="round" stroke-width="0.75"/>
    <path id="Trazado_884245" data-name="Trazado 884245" d="M99.084,46.9l-.2,1.64" transform="translate(-47.29 -22.428)" fill="none" stroke="#8a4c45" stroke-linecap="round" stroke-linejoin="round" stroke-width="0.75"/>
    <path id="Trazado_884246" data-name="Trazado 884246" d="M104.483,44.8l-.364,1.095" transform="translate(-49.791 -21.426)" fill="none" stroke="#8a4c45" stroke-linecap="round" stroke-linejoin="round" stroke-width="0.75"/>
    <path id="Trazado_884247" data-name="Trazado 884247" d="M111.451,51.088a3.8,3.8,0,0,1-.36,2.007" transform="translate(-53.125 -24.431)" fill="none" stroke="#8a4c45" stroke-linecap="round" stroke-linejoin="round" stroke-width="0.75"/>
    <path id="Trazado_884248" data-name="Trazado 884248" d="M116.191,47.247a32.74,32.74,0,0,1-.937,3.824" transform="translate(-55.116 -22.594)" fill="none" stroke="#8a4c45" stroke-linecap="round" stroke-linejoin="round" stroke-width="0.75"/>
    <path id="Trazado_884249" data-name="Trazado 884249" d="M120.208,44.446a12.991,12.991,0,0,1-.771,4.371" transform="translate(-57.116 -21.255)" fill="none" stroke="#8a4c45" stroke-linecap="round" stroke-linejoin="round" stroke-width="0.75"/>
    <path id="Trazado_884250" data-name="Trazado 884250" d="M124.431,42.7l-1.459,5.289" transform="translate(-58.807 -20.42)" fill="none" stroke="#8a4c45" stroke-linecap="round" stroke-linejoin="round" stroke-width="0.75"/>
    <path id="Trazado_884251" data-name="Trazado 884251" d="M129.151,40.95A15.236,15.236,0,0,1,127.91,45.7" transform="translate(-61.168 -19.583)" fill="none" stroke="#8a4c45" stroke-linecap="round" stroke-linejoin="round" stroke-width="0.75"/>
    <path id="Trazado_884252" data-name="Trazado 884252" d="M134.219,40.95a11.605,11.605,0,0,1-1.065,3.114" transform="translate(-63.676 -19.583)" fill="none" stroke="#8a4c45" stroke-linecap="round" stroke-linejoin="round" stroke-width="0.75"/>
    <path id="Trazado_884253" data-name="Trazado 884253" d="M139.774,41.65l-.729,1.459" transform="translate(-66.493 -19.918)" fill="none" stroke="#8a4c45" stroke-linecap="round" stroke-linejoin="round" stroke-width="0.75"/>
    <line id="Línea_1207" data-name="Línea 1207" y2="0.547" transform="translate(75.288 21.003)" fill="none" stroke="#8a4c45" stroke-linecap="round" stroke-linejoin="round" stroke-width="0.75"/>
    <path id="Trazado_884254" data-name="Trazado 884254" d="M74.769,69.979q-.4,1.45-.8,2.9" transform="translate(-35.375 -33.465)" fill="none" stroke="#8a4c45" stroke-linecap="round" stroke-linejoin="round" stroke-width="0.75"/>
    <path id="Trazado_884255" data-name="Trazado 884255" d="M78.427,71.009l-.547,1.459" transform="translate(-37.243 -33.957)" fill="none" stroke="#8a4c45" stroke-linecap="round" stroke-linejoin="round" stroke-width="0.75"/>
    <path id="Trazado_884256" data-name="Trazado 884256" d="M82.272,71.708,81.725,72.8" transform="translate(-39.082 -34.292)" fill="none" stroke="#8a4c45" stroke-linecap="round" stroke-linejoin="round" stroke-width="0.75"/>
    <path id="Trazado_884257" data-name="Trazado 884257" d="M86.441,69.961a1.954,1.954,0,0,1-.19,1.089" transform="translate(-41.246 -33.456)" fill="none" stroke="#8a4c45" stroke-linecap="round" stroke-linejoin="round" stroke-width="0.75"/>
    <path id="Trazado_884258" data-name="Trazado 884258" d="M97.875,69.258a22.851,22.851,0,0,0-1.438,4.383" transform="translate(-46.118 -33.12)" fill="none" stroke="#8a4c45" stroke-linecap="round" stroke-linejoin="round" stroke-width="0.75"/>
    <path id="Trazado_884259" data-name="Trazado 884259" d="M101.016,71.369q-.191,1.276-.381,2.551" transform="translate(-48.125 -34.13)" fill="none" stroke="#8a4c45" stroke-linecap="round" stroke-linejoin="round" stroke-width="0.75"/>
    <path id="Trazado_884260" data-name="Trazado 884260" d="M105.43,70.328a7.036,7.036,0,0,1-.741,2.7" transform="translate(-50.064 -33.632)" fill="none" stroke="#8a4c45" stroke-linecap="round" stroke-linejoin="round" stroke-width="0.75"/>
    <path id="Trazado_884261" data-name="Trazado 884261" d="M109.2,70.317l-.2,1.274" transform="translate(-52.127 -33.627)" fill="none" stroke="#8a4c45" stroke-linecap="round" stroke-linejoin="round" stroke-width="0.75"/>
    <path id="Trazado_884262" data-name="Trazado 884262" d="M115.111,67.514q-.091.456-.182.912" transform="translate(-54.961 -32.286)" fill="none" stroke="#8a4c45" stroke-linecap="round" stroke-linejoin="round" stroke-width="0.75"/>
    <path id="Trazado_884263" data-name="Trazado 884263" d="M123.4,71.028l-.768,3.456" transform="translate(-58.643 -33.967)" fill="none" stroke="#8a4c45" stroke-linecap="round" stroke-linejoin="round" stroke-width="0.75"/>
    <path id="Trazado_884264" data-name="Trazado 884264" d="M128.615,69.3a19.661,19.661,0,0,0-1.188,4.9" transform="translate(-60.937 -33.14)" fill="none" stroke="#8a4c45" stroke-linecap="round" stroke-linejoin="round" stroke-width="0.75"/>
    <path id="Trazado_884265" data-name="Trazado 884265" d="M133.361,68.58l-1.312,4.732" transform="translate(-63.148 -32.796)" fill="none" stroke="#8a4c45" stroke-linecap="round" stroke-linejoin="round" stroke-width="0.75"/>
    <path id="Trazado_884266" data-name="Trazado 884266" d="M138.425,67.543,136.9,71.9" transform="translate(-65.466 -32.3)" fill="none" stroke="#8a4c45" stroke-linecap="round" stroke-linejoin="round" stroke-width="0.75"/>
    <path id="Trazado_884267" data-name="Trazado 884267" d="M143.113,68.236l-.969,2.715" transform="translate(-67.975 -32.631)" fill="none" stroke="#8a4c45" stroke-linecap="round" stroke-linejoin="round" stroke-width="0.75"/>
    <line id="Línea_1208" data-name="Línea 1208" x1="0.376" y2="1.091" transform="translate(76.399 35.42)" fill="none" stroke="#8a4c45" stroke-linecap="round" stroke-linejoin="round" stroke-width="0.75"/>
    <path id="Trazado_884268" data-name="Trazado 884268" d="M141.575,53.234l-.795,1.795" transform="translate(-67.323 -25.457)" fill="none" stroke="#8a4c45" stroke-linecap="round" stroke-linejoin="round" stroke-width="0.75"/>
    <path id="Trazado_884269" data-name="Trazado 884269" d="M144.281,52.484l-.383,1.637" transform="translate(-68.814 -25.099)" fill="none" stroke="#8a4c45" stroke-linecap="round" stroke-linejoin="round" stroke-width="0.75"/>
    <path id="Trazado_884270" data-name="Trazado 884270" d="M146.581,51.778l-.508,2.379" transform="translate(-69.854 -24.761)" fill="none" stroke="#8a4c45" stroke-linecap="round" stroke-linejoin="round" stroke-width="0.75"/>
    <path id="Trazado_884271" data-name="Trazado 884271" d="M150.243,51.441a13.909,13.909,0,0,1-.771,2.538" transform="translate(-71.48 -24.6)" fill="none" stroke="#8a4c45" stroke-linecap="round" stroke-linejoin="round" stroke-width="0.75"/>
    <path id="Trazado_884272" data-name="Trazado 884272" d="M155.021,52.144q-.091.729-.182,1.459" transform="translate(-74.046 -24.936)" fill="none" stroke="#8a4c45" stroke-linecap="round" stroke-linejoin="round" stroke-width="0.75"/>
    <path id="Trazado_884273" data-name="Trazado 884273" d="M91.13,89.878l-.382,2.185" transform="translate(-43.397 -42.981)" fill="none" stroke="#8a4c45" stroke-linecap="round" stroke-linejoin="round" stroke-width="0.75"/>
    <path id="Trazado_884274" data-name="Trazado 884274" d="M94.673,90.233l-.365,1.642" transform="translate(-45.099 -43.151)" fill="none" stroke="#8a4c45" stroke-linecap="round" stroke-linejoin="round" stroke-width="0.75"/>
    <path id="Trazado_884275" data-name="Trazado 884275" d="M97.476,89.186l-.365,1.459" transform="translate(-46.44 -42.65)" fill="none" stroke="#8a4c45" stroke-linecap="round" stroke-linejoin="round" stroke-width="0.75"/>
    <path id="Trazado_884276" data-name="Trazado 884276" d="M101.128,87.794a1.072,1.072,0,0,1-.157.916" transform="translate(-48.286 -41.984)" fill="none" stroke="#8a4c45" stroke-linecap="round" stroke-linejoin="round" stroke-width="0.75"/>
    <path id="Trazado_884277" data-name="Trazado 884277" d="M112.365,89.507a11.525,11.525,0,0,0-1.614,3.117" transform="translate(-52.963 -42.803)" fill="none" stroke="#8a4c45" stroke-linecap="round" stroke-linejoin="round" stroke-width="0.75"/>
    <path id="Trazado_884278" data-name="Trazado 884278" d="M116.19,91.281l-.912,1.824" transform="translate(-55.128 -43.652)" fill="none" stroke="#8a4c45" stroke-linecap="round" stroke-linejoin="round" stroke-width="0.75"/>
    <path id="Trazado_884279" data-name="Trazado 884279" d="M120.355,90.925l-.544,1.46" transform="translate(-57.295 -43.482)" fill="none" stroke="#8a4c45" stroke-linecap="round" stroke-linejoin="round" stroke-width="0.75"/>
    <path id="Trazado_884280" data-name="Trazado 884280" d="M124.2,90.582l-.183.912" transform="translate(-59.306 -43.318)" fill="none" stroke="#8a4c45" stroke-linecap="round" stroke-linejoin="round" stroke-width="0.75"/>
    <line id="Línea_1209" data-name="Línea 1209" y2="0.547" transform="translate(67.628 46.535)" fill="none" stroke="#8a4c45" stroke-linecap="round" stroke-linejoin="round" stroke-width="0.75"/>
  </g>
</svg>
