<svg xmlns="http://www.w3.org/2000/svg" xmlns:xlink="http://www.w3.org/1999/xlink" width="85" height="85" viewBox="0 0 85 85">
  <defs>
    <clipPath id="clip-path">
      <rect id="Rectángulo_401722" data-name="Rectángulo 401722" width="54.308" height="54.308" transform="translate(15.648 15.451)" fill="#fff" stroke="#fff" stroke-width="1"/>
    </clipPath>
  </defs>
  <g id="Grupo_1101688" data-name="Grupo 1101688" transform="translate(0 0.197)">
    <g id="Grupo_1101517" data-name="Grupo 1101517" transform="translate(0 -0.197)">
      <path id="Trazado_883915" data-name="Trazado 883915" d="M85,42.5A42.5,42.5,0,1,1,42.5,0,42.5,42.5,0,0,1,85,42.5" transform="translate(0 -0.001)" fill="#464442"/>
    </g>
    <g id="Enmascarar_grupo_1099807" data-name="Enmascarar grupo 1099807" clip-path="url(#clip-path)">
      <g id="certificacion" transform="translate(14.815 14.688)">
        <path id="Trazado_893501" data-name="Trazado 893501" d="M15.339,27.61a.828.828,0,0,0-.877.877A6.1,6.1,0,0,0,20.6,34.622a4.635,4.635,0,0,1,3.068,1.315,6.355,6.355,0,0,0,8.765,0A3.979,3.979,0,0,1,35.5,34.622a6.1,6.1,0,0,0,6.136-6.136,4.635,4.635,0,0,1,1.315-3.068,6.19,6.19,0,0,0,0-8.677,3.979,3.979,0,0,1-1.315-3.068A6.1,6.1,0,0,0,35.5,7.538a4.635,4.635,0,0,1-3.068-1.315,6.037,6.037,0,0,0-4.295-1.841,5.893,5.893,0,0,0-4.47,1.841A3.979,3.979,0,0,1,20.6,7.538a6.1,6.1,0,0,0-6.136,6.136,4.635,4.635,0,0,1-1.315,3.068,6.19,6.19,0,0,0,0,8.677.868.868,0,0,0,1.227-1.227,4.5,4.5,0,0,1,0-6.223,6.359,6.359,0,0,0,1.841-4.295A4.34,4.34,0,0,1,20.6,9.291,5.886,5.886,0,0,0,24.893,7.45a4.448,4.448,0,0,1,3.155-1.315A4.253,4.253,0,0,1,31.116,7.45a6.359,6.359,0,0,0,4.295,1.841,4.34,4.34,0,0,1,4.383,4.383,5.886,5.886,0,0,0,1.841,4.295,4.5,4.5,0,0,1,0,6.223,6.359,6.359,0,0,0-1.841,4.295,4.34,4.34,0,0,1-4.383,4.383,5.886,5.886,0,0,0-4.295,1.841,4.5,4.5,0,0,1-6.223,0A6.359,6.359,0,0,0,20.6,32.869a4.34,4.34,0,0,1-4.383-4.383A.828.828,0,0,0,15.339,27.61Z" fill="#fff"/>
        <path id="Trazado_893502" data-name="Trazado 893502" d="M48.208,21.036a20.229,20.229,0,0,0-.263-3.243.843.843,0,0,0-1.665.263,17.117,17.117,0,0,1,.263,2.98A18.407,18.407,0,1,1,28.136,2.63,18.146,18.146,0,0,1,42.16,9.2a.87.87,0,1,0,1.315-1.139,20.155,20.155,0,1,0,4.733,12.972Z" fill="#fff"/>
        <path id="Trazado_893503" data-name="Trazado 893503" d="M45.316,14.638a.851.851,0,0,0,1.052.526.912.912,0,0,0,.526-1.139c-.263-.614-.526-1.315-.789-1.841a.863.863,0,0,0-1.578.7A15.423,15.423,0,0,1,45.316,14.638Z" fill="#fff"/>
        <path id="Trazado_893504" data-name="Trazado 893504" d="M47.419,45.4l-1.841-.263a.777.777,0,0,0-.877.526l-2.717,6.486L35.937,41.634a.9.9,0,0,0-1.578.877l6.924,12.008a.92.92,0,0,0,.789.438,1.132,1.132,0,0,0,.877-.526l3.155-7.45,1.227.175a.828.828,0,0,0,.964-.789.9.9,0,0,0-.877-.964Z" fill="#fff"/>
        <path id="Trazado_893505" data-name="Trazado 893505" d="M55.045,46.631,47.507,33.57a.9.9,0,0,0-1.578.877l6.662,11.57-1.578-.175a.828.828,0,0,0-.964.789.87.87,0,0,0,.789.964l3.418.438a1.082,1.082,0,0,0,.7-.351c.175-.438.263-.789.088-1.052Z" fill="#fff"/>
        <path id="Trazado_893506" data-name="Trazado 893506" d="M21.3,41.371a.887.887,0,0,0-1.227.351L14.024,52.24l-2.8-6.486a.833.833,0,0,0-.877-.526l-6.924.789,6.837-11.833a.9.9,0,1,0-1.578-.877L.964,46.631a.946.946,0,0,0,0,.964.833.833,0,0,0,.877.351L9.9,46.981l3.243,7.45a1.029,1.029,0,0,0,.877.526.921.921,0,0,0,.789-.438l6.924-12.008a1,1,0,0,0-.438-1.139Z" fill="#fff"/>
        <path id="Trazado_893507" data-name="Trazado 893507" d="M19.9,22.176A.868.868,0,0,0,18.67,23.4l5.259,5.259a.847.847,0,0,0,1.227,0L37.427,16.391A.868.868,0,0,0,36.2,15.164L24.542,26.821Z" fill="#fff"/>
        <path id="Trazado_893508" data-name="Trazado 893508" d="M8.677,42.862c.438.438,1.052-.088,1.227-.351L12.008,39a.887.887,0,1,0-1.49-.964l-2.1,3.506a.947.947,0,0,0,.263,1.315Z" fill="#fff"/>
        <path id="Trazado_893509" data-name="Trazado 893509" d="M39.093,41.284a.97.97,0,0,0-.351,1.227l2.542,4.383a.886.886,0,0,0,1.227.351.97.97,0,0,0,.351-1.227L40.32,41.634A.97.97,0,0,0,39.093,41.284Z" fill="#fff"/>
        <path id="Trazado_893510" data-name="Trazado 893510" d="M29.451,11.57a.96.96,0,0,0,1.139-.789c.175-.789-.877-.964-.877-.964a9.708,9.708,0,0,0-1.665-.175.877.877,0,1,0,0,1.753A8.74,8.74,0,0,1,29.451,11.57Z" fill="#fff"/>
        <path id="Trazado_893511" data-name="Trazado 893511" d="M24.279,10.343a10.9,10.9,0,0,0-6.924,6.924.912.912,0,0,0,.526,1.139.894.894,0,0,0,1.052-.526,9.739,9.739,0,0,1,5.873-5.873.912.912,0,0,0,.526-1.139.735.735,0,0,0-1.052-.526Z" fill="#fff"/>
      </g>
    </g>
  </g>
</svg>
