<svg xmlns="http://www.w3.org/2000/svg" width="74.313" height="74.269" viewBox="0 0 74.313 74.269">
  <g id="Grupo_1101558" data-name="Grupo 1101558" transform="translate(-180 -8958)">
    <path id="Trazado_883915" data-name="Trazado 883915" d="M74.131,37.066A37.065,37.065,0,1,1,37.065,0,37.065,37.065,0,0,1,74.131,37.066" transform="translate(180.182 8958.137)" fill="#464442"/>
    <rect id="Rectángulo_401506" data-name="Rectángulo 401506" width="74.131" height="74.131" transform="translate(180 8958)" fill="none"/>
    <g id="b1" transform="translate(157.668 8968.138)">
      <g id="Grupo_1101553" data-name="Grupo 1101553" transform="translate(35.514 0)">
        <g id="Grupo_1101552" data-name="Grupo 1101552" transform="translate(0)">
          <g id="Grupo_1101551" data-name="Grupo 1101551">
            <g id="Grupo_1101550" data-name="Grupo 1101550">
              <g id="Grupo_1101549" data-name="Grupo 1101549">
                <g id="Grupo_1101548" data-name="Grupo 1101548">
                  <path id="Trazado_892068" data-name="Trazado 892068" d="M56.208,61.9a20.681,20.681,0,0,1-20.694-20.62c0-17.507,19.243-31.981,20.062-32.589a1.061,1.061,0,0,1,1.264,0,64.679,64.679,0,0,1,7.782,7.117,1.061,1.061,0,0,1-1.547,1.452A67.192,67.192,0,0,0,56.21,10.89c-3.319,2.656-18.574,15.672-18.574,30.392a18.573,18.573,0,0,0,37.145,0,24.058,24.058,0,0,0-.989-6.678,1.061,1.061,0,0,1,2.038-.59A26.178,26.178,0,0,1,76.9,41.281,20.681,20.681,0,0,1,56.208,61.9Z" transform="translate(-35.514 -7.584)" fill="#fff"/>
                  <path id="Trazado_892069" data-name="Trazado 892069" d="M278.459,28.332a11.086,11.086,0,0,1-11.093-11.055c0-9.2,10.034-16.751,10.461-17.068a1.061,1.061,0,0,1,1.264,0c.427.317,10.461,7.865,10.461,17.068A11.086,11.086,0,0,1,278.459,28.332Zm0-25.915c-2.139,1.771-8.972,7.968-8.972,14.86a8.971,8.971,0,0,0,17.942,0C287.43,10.371,280.6,4.185,278.459,2.417Z" transform="translate(-242.769 0)" fill="#fff"/>
                </g>
              </g>
              <path id="Trazado_892070" data-name="Trazado 892070" d="M329.032,119.023a1.061,1.061,0,0,1,.931.552,9.064,9.064,0,0,0,3.608,3.611,1.061,1.061,0,0,1,0,1.861,9.064,9.064,0,0,0-3.608,3.611,1.061,1.061,0,0,1-.931.552h0a1.061,1.061,0,0,1-.931-.552,9.063,9.063,0,0,0-3.608-3.611,1.061,1.061,0,0,1,0-1.861,9.064,9.064,0,0,0,3.608-3.611A1.061,1.061,0,0,1,329.032,119.023Zm2.09,5.093a11.165,11.165,0,0,1-2.09-2.091,11.164,11.164,0,0,1-2.09,2.091,11.162,11.162,0,0,1,2.09,2.091A11.165,11.165,0,0,1,331.122,124.116Z" transform="translate(-293.343 -106.396)" fill="#fff"/>
            </g>
          </g>
        </g>
      </g>
      <g id="Grupo_1101556" data-name="Grupo 1101556" transform="translate(48.961 27.492)">
        <g id="Grupo_1101554" data-name="Grupo 1101554">
          <path id="Trazado_892071" data-name="Trazado 892071" d="M163.331,259.14h3.7a4,4,0,0,1,0,7.992c-.8,0-3.7.013-3.7.013a1.061,1.061,0,0,1-1.066-1.061V260.2A1.061,1.061,0,0,1,163.331,259.14Zm1.061,5.879c.914,0,2.158-.008,2.642-.008a1.874,1.874,0,0,0,0-3.749h-2.642Z" transform="translate(-162.27 -259.14)" fill="#fff"/>
          <path id="Trazado_892072" data-name="Trazado 892072" d="M163.331,314.508h4.349a4.495,4.495,0,0,1,0,8.989c-.939,0-4.344.015-4.345.015a1.061,1.061,0,0,1-1.066-1.061v-6.883A1.061,1.061,0,0,1,163.331,314.508Zm1.061,6.878c1.085,0,2.689-.011,3.288-.011a2.373,2.373,0,0,0,0-4.746h-3.288Z" transform="translate(-162.27 -308.634)" fill="#fff"/>
        </g>
        <g id="Grupo_1101555" data-name="Grupo 1101555" transform="translate(10.709 4.851)">
          <path id="Trazado_892073" data-name="Trazado 892073" d="M265.961,314.894a1.061,1.061,0,0,1-1.061-1.061v-6.844h-.628a1.061,1.061,0,0,1,0-2.122h1.688a1.061,1.061,0,0,1,1.061,1.061v7.905A1.061,1.061,0,0,1,265.961,314.894Z" transform="translate(-263.212 -304.867)" fill="#fff"/>
        </g>
      </g>
    </g>
  </g>
</svg>
