<svg xmlns="http://www.w3.org/2000/svg" width="85" height="85" viewBox="0 0 85 85">
  <g id="Grupo_1101559" data-name="Grupo 1101559" transform="translate(-180.182 -9395.003)">
    <path id="Trazado_883915" data-name="Trazado 883915" d="M85,42.5A42.5,42.5,0,1,1,42.5,0,42.5,42.5,0,0,1,85,42.5" transform="translate(180.182 9395.002)" fill="#bbcbc5"/>
    <g id="filete" transform="translate(192.07 9408.599)">
      <path id="Trazado_892069" data-name="Trazado 892069" d="M68.441,195.734h-.007c.188-7.763-6.491-14.989-16.423-15.244-1.623-.042-3.5-.018-5.528.057-11.555.418-28.066,2.446-29.757,2.96A9.509,9.509,0,0,0,10,192.6c0,5.464,0,8.542,0,10.646a4.6,4.6,0,0,0,2.781,4.315c4.155,1.664,7.68,1.083,11.279.438,3.635-.646,5.627-.8,14.114,4.394,7.424,4.544,15.8,5.779,23,3.469,3.924-1.258,7.275-4.951,7.272-9.072C68.443,203.271,68.442,197.9,68.441,195.734Z" transform="translate(-8.814 -160.695)" fill="#bf7126"/>
      <path id="Trazado_892070" data-name="Trazado 892070" d="M302.952,286.056a1.188,1.188,0,1,0,1.68,0A1.188,1.188,0,0,0,302.952,286.056Z" transform="translate(-266.665 -253.435)"/>
      <path id="Trazado_892071" data-name="Trazado 892071" d="M60.8,186.335a15.152,15.152,0,0,0-4.708-10.627A18.88,18.88,0,0,0,43.226,170.5c-10.374-.267-31.516,2.273-31.879,2.427a35.122,35.122,0,0,0-3.784.642A10.7,10.7,0,0,0,0,183.792c0,6.4,0,9.046,0,10.645a5.815,5.815,0,0,0,3.527,5.418c4.471,1.79,8.259,1.163,11.929.505,3.284-.584,4.933-.877,13.286,4.237,7.175,4.392,15.946,6.164,23.981,3.587,4.7-1.5,8.089-5.8,8.085-10.2C60.807,197.964,60.8,189.3,60.8,186.335Zm-8.83,12.182L41.325,187.871a1.188,1.188,0,1,0-1.68,1.68l9.858,9.858a20.212,20.212,0,0,1-11.479-.856L14.4,174.924c2.653-.327,6.011-.7,9.587-1.037l8.943,8.944a1.188,1.188,0,0,0,1.68-1.68l-7.54-7.541c3.439-.293,6.949-.535,10.129-.662L57.226,192.98A10.614,10.614,0,0,1,51.972,198.517Zm-8.807-25.645A16.2,16.2,0,0,1,54.428,177.4a12.782,12.782,0,0,1,4.01,8.933c0,.191,0,.379-.007.565a18.912,18.912,0,0,1-.4,3.525L40.465,172.859C41.445,172.847,42.348,172.851,43.165,172.872Zm-34.91,2.966c.243-.074,1.218-.253,3.169-.527l19.6,19.6c-4.719-2.677-9.216-4.756-14.373-4.294L4.4,178.362A8.343,8.343,0,0,1,8.256,175.838Zm-5.88,7.954a8.283,8.283,0,0,1,.715-3.376l10.616,10.616-.089.015c-2.456.415-4.86.929-7.129-.27A7.84,7.84,0,0,1,2.376,183.792ZM52,205.924c-7.284,2.336-15.337.737-22.015-3.351-8.735-5.348-11.012-5.249-14.944-4.55-3.477.623-6.75,1.181-10.628-.372a3.433,3.433,0,0,1-2.046-3.212c0-1.039,0-2.316,0-4a10.011,10.011,0,0,0,3.015,2.439c3.61,1.907,7.125.625,10.86.17,3.323-.4,6.837-.273,16.223,5.472,5.9,3.615,14.1,5.135,20.33,2.24a13.022,13.022,0,0,0,5.649-4.99c0,.783,0,1.533,0,2.213C58.446,201.331,55.675,204.745,52,205.924Z" transform="translate(0 -151.89)"/>
      <path id="Trazado_892072" data-name="Trazado 892072" d="M148.932,20.889a4.043,4.043,0,0,0,0-6.728,1.188,1.188,0,0,0-1.318,1.977,1.667,1.667,0,0,1,0,2.774,4.043,4.043,0,0,0,0,6.728,1.188,1.188,0,0,0,1.318-1.977,1.667,1.667,0,0,1,0-2.774Z" transform="translate(-128.497 -13.962)"/>
      <path id="Trazado_892073" data-name="Trazado 892073" d="M238.943,20.889a4.043,4.043,0,0,0,0-6.728,1.188,1.188,0,1,0-1.318,1.977,1.667,1.667,0,0,1,0,2.774,4.043,4.043,0,0,0,0,6.728,1.188,1.188,0,0,0,1.318-1.977,1.667,1.667,0,0,1,0-2.774Z" transform="translate(-207.818 -13.962)"/>
      <path id="Trazado_892074" data-name="Trazado 892074" d="M328.953,20.889a4.043,4.043,0,0,0,0-6.728,1.188,1.188,0,1,0-1.318,1.977,1.667,1.667,0,0,1,0,2.774,4.043,4.043,0,0,0,0,6.728,1.188,1.188,0,0,0,1.318-1.977,1.667,1.667,0,0,1,0-2.774Z" transform="translate(-287.138 -13.962)"/>
    </g>
  </g>
</svg>
