<svg id="Grupo_1101681" data-name="Grupo 1101681" xmlns="http://www.w3.org/2000/svg" xmlns:xlink="http://www.w3.org/1999/xlink" width="179.728" height="204.865" viewBox="0 0 179.728 204.865">
  <defs>
    <clipPath id="clip-path">
      <rect id="Rectángulo_401717" data-name="Rectángulo 401717" width="179.728" height="204.865" fill="none"/>
    </clipPath>
    <clipPath id="clip-path-3">
      <rect id="Rectángulo_401713" data-name="Rectángulo 401713" width="11.505" height="77.859" fill="none"/>
    </clipPath>
    <clipPath id="clip-path-4">
      <rect id="Rectángulo_401714" data-name="Rectángulo 401714" width="9.158" height="27.742" fill="none"/>
    </clipPath>
    <clipPath id="clip-path-5">
      <rect id="Rectángulo_401715" data-name="Rectángulo 401715" width="13.466" height="7.95" fill="none"/>
    </clipPath>
  </defs>
  <g id="Grupo_1101680" data-name="Grupo 1101680" clip-path="url(#clip-path)">
    <g id="Grupo_1101679" data-name="Grupo 1101679">
      <g id="Grupo_1101678" data-name="Grupo 1101678" clip-path="url(#clip-path)">
        <path id="Trazado_893051" data-name="Trazado 893051" d="M203.869,388.1a17.781,17.781,0,0,1-17.789,17.373H82.546V255.693H97.961v.005a17.952,17.952,0,0,1,4.178.493c9.573,2.292,16.191,6.6,21.217,11.936,5.734,6.084,9.388,13.509,12.974,20.8,4.244,8.633,8.329,16.936,15.713,23.642a46.615,46.615,0,0,0,12.461,8.062c30.887,13.9,37.9,47.15,39.324,65.731a15.165,15.165,0,0,1,.041,1.742" transform="translate(-64.764 -200.612)" fill="#e6a6b1"/>
        <path id="Trazado_893052" data-name="Trazado 893052" d="M238.977,870.369a17.781,17.781,0,0,1-17.789,17.373H127.294V870.369Z" transform="translate(-99.873 -682.877)" fill="#db97a4"/>
        <path id="Trazado_893053" data-name="Trazado 893053" d="M199.9,357.86H143.539V313.418h27.67c5.734,6.084,9.388,13.509,12.975,20.8,4.244,8.633,8.329,16.936,15.713,23.642" transform="translate(-112.618 -245.903)" fill="#db97a4"/>
        <path id="Trazado_893054" data-name="Trazado 893054" d="M17.793,405.485A17.813,17.813,0,0,1,0,387.692V273.5a17.787,17.787,0,0,1,21.959-17.3c20.5,4.912,27.462,19.056,34.191,32.734,6.182,12.567,12.021,24.436,28.173,31.7,30.886,13.9,37.894,47.149,39.323,65.733A17.779,17.779,0,0,1,105.9,405.485Z" transform="translate(0 -200.622)" fill="#ffccd4"/>
        <path id="Trazado_893055" data-name="Trazado 893055" d="M48.61,301.939c2.347-3.635,4.549-7.394,6.57-11.253a1.514,1.514,0,0,0-.389-1.871,36.2,36.2,0,0,0-12.834-6.677,14.136,14.136,0,0,0-18.1,13.6v30.687a1.507,1.507,0,0,0,2.473,1.155A111.55,111.55,0,0,0,48.61,301.939" transform="translate(-18.715 -220.897)" fill="#e6536a"/>
        <path id="Trazado_893056" data-name="Trazado 893056" d="M42.539,491.043c-3.941,4.466-7.659,9.123-11.592,13.591a33.6,33.6,0,0,1-7.095,6.525v8.46a1.507,1.507,0,0,0,2.333,1.262,59,59,0,0,0,19.122-20.546c3.517-6.392,5.934-13.258,8.653-19.981a75.208,75.208,0,0,0-11.421,10.688" transform="translate(-18.715 -376.878)" fill="#e6536a"/>
        <path id="Trazado_893057" data-name="Trazado 893057" d="M31.953,388.4c3.9-4.76,7.874-9.521,12.1-13.995a65.537,65.537,0,0,1,10.669-9.1A74.918,74.918,0,0,1,62.433,350.7c.91-1.29,1.89-2.613,2.936-3.928a1.51,1.51,0,0,0,.144-1.68,56.672,56.672,0,0,0-5.7-8.451,1.5,1.5,0,0,0-2.462.247c-2.048,3.758-4.267,7.4-6.62,10.911-1.736,2.589-3.565,5.144-5.485,7.64A116.853,116.853,0,0,1,37.123,367.4a85.994,85.994,0,0,1-13.269,13.541v15.638c3.181-2.122,5.814-5.383,8.1-8.172" transform="translate(-18.715 -263.702)" fill="#e6536a"/>
        <path id="Trazado_893058" data-name="Trazado 893058" d="M38.2,462.868c.176-.243.344-.492.517-.737A96.334,96.334,0,0,1,24.471,475.08a1.5,1.5,0,0,0-.618,1.211v2.044A82.752,82.752,0,0,0,38.2,462.868" transform="translate(-18.715 -362.58)" fill="#e6536a"/>
        <path id="Trazado_893059" data-name="Trazado 893059" d="M302.247,743.689c7.135-5.117,12.221-12.307,19.12-17.673a34.908,34.908,0,0,1,13.1-6.385,1.5,1.5,0,0,0,1.1-1.763,84.155,84.155,0,0,0-7.672-22.228,1.5,1.5,0,0,0-2-.64,178.854,178.854,0,0,0-29.979,18.513c-2.357,1.817-4.7,3.7-6.99,5.652a1.62,1.62,0,0,0-.523,1v.006c-1.314,8.065-4.86,15.441-9.162,22.419a1.505,1.505,0,0,0,1.277,2.3h19.53a1.511,1.511,0,0,0,.842-.255q.69-.463,1.36-.943" transform="translate(-218.906 -545.162)" fill="#e6536a"/>
        <path id="Trazado_893060" data-name="Trazado 893060" d="M445.09,827.176a1.514,1.514,0,0,0-1.92-1.246,37.722,37.722,0,0,0-16,9.766c-3.2,3.173-6.235,6.4-9.485,9.372a1.5,1.5,0,0,0,1.009,2.62H433.22a12.64,12.64,0,0,0,12.621-13.58c-.165-2.143-.407-4.473-.751-6.931" transform="translate(-327.318 -647.963)" fill="#e6536a"/>
        <path id="Trazado_893061" data-name="Trazado 893061" d="M240.418,847.242a1.509,1.509,0,0,0-2.481-1.61,101.623,101.623,0,0,0-7.527,8.547,66.3,66.3,0,0,0-4.45,6.364,1.508,1.508,0,0,0,1.289,2.289h3.818a1.508,1.508,0,0,0,1.26-.677,84.593,84.593,0,0,0,8.091-14.913" transform="translate(-177.111 -663.108)" fill="#e6536a"/>
        <path id="Trazado_893062" data-name="Trazado 893062" d="M31.219,669.865a63.147,63.147,0,0,1-6.614,4.454,1.506,1.506,0,0,0-.751,1.3v4.619a1.506,1.506,0,0,0,2.679.945c2.4-3.018,4.7-6.113,6.856-9.288a1.5,1.5,0,0,0-2.171-2.028" transform="translate(-18.715 -525.308)" fill="#e6536a"/>
        <path id="Trazado_893063" data-name="Trazado 893063" d="M143.91,435.01c5.845-5.672,11.339-11.671,16.648-17.836-2.508-4.383-4.62-8.872-6.782-13.207a1.508,1.508,0,0,0-2.583-.191c-1.384,1.947-2.619,3.895-3.693,5.714-5.308,8.992-7.916,19.363-12.485,28.709a1.291,1.291,0,0,0-.054.127c-.852,2.368-1.8,4.695-2.817,6.99,3.907-3.53,8.136-6.784,11.766-10.306" transform="translate(-103.678 -316.292)" fill="#e6536a"/>
        <path id="Trazado_893064" data-name="Trazado 893064" d="M100.93,496.183c-12.5-5.623-19.483-13.906-24.688-22.71C71.209,479.326,66,485.03,60.463,490.406c-4.047,3.927-8.345,7.525-12.553,11.27-.75.668-1.491,1.346-2.213,2.04a145.046,145.046,0,0,1-21.475,31.8,1.494,1.494,0,0,0-.367.981v20.543a14.16,14.16,0,0,0,14.16,14.16H61.385a1.512,1.512,0,0,0,1.349-.842c3.275-6.518,8.449-12.54,12.724-17.022A153.545,153.545,0,0,1,90.63,539.46a.6.6,0,0,1,.25-.364c5.231-3.657,8.084-9.371,11.554-14.536a.611.611,0,0,1,.142-.271c.039-.044.084-.082.124-.125l.058-.086a47.319,47.319,0,0,1,10.848-11.486,50.47,50.47,0,0,1,5.265-3.384,53.762,53.762,0,0,0-17.941-13.024" transform="translate(-18.715 -371.479)" fill="#e6536a"/>
        <path id="Trazado_893065" data-name="Trazado 893065" d="M412.4,652.222c3.8-1.522,7.788-2.617,11.534-4.271q-1.646-2.315-3.542-4.505a44.743,44.743,0,0,0-6.425,4.31,46.092,46.092,0,0,0-6.8,6.887,41.728,41.728,0,0,1,5.232-2.42" transform="translate(-319.458 -504.837)" fill="#e6536a"/>
        <path id="Trazado_893066" data-name="Trazado 893066" d="M391.656,668.932c-3.044,1.3-6.191,2.283-9.3,3.445-3.614,1.351-7.881,2.831-10.685,5.636q-1.119,1.6-2.173,3.268c-1.375,2.186-2.767,4.376-4.337,6.409a189.381,189.381,0,0,1,26.429-15.8,1.507,1.507,0,0,0,.591-2.181c-.171-.26-.352-.515-.527-.772" transform="translate(-286.5 -524.833)" fill="#e6536a"/>
        <path id="Trazado_893067" data-name="Trazado 893067" d="M123.56,739.32a11.861,11.861,0,1,1,9.912-13.531,11.86,11.86,0,0,1-9.912,13.531" transform="translate(-86.217 -561.554)" fill="#ffccd4"/>
        <path id="Trazado_893068" data-name="Trazado 893068" d="M135.973,749.179a8.173,8.173,0,1,1,6.83-9.324,8.173,8.173,0,0,1-6.83,9.324" transform="translate(-99.291 -575.043)" fill="#842c37"/>
        <path id="Trazado_893069" data-name="Trazado 893069" d="M741.523,322.679c5.018,10,2.958,25.606,2.958,25.606l-19-15.222Z" transform="translate(-569.197 -253.169)" fill="#ffebe3"/>
        <path id="Trazado_893070" data-name="Trazado 893070" d="M618.414,201.163a10.843,10.843,0,0,1-14.188.4,10.309,10.309,0,0,1-1.153-1.073l-1.585-1.72-.067-.072-9.881-10.722-2.42-2.624-9.411-10.207-5.492-5.962A10.863,10.863,0,0,1,584.374,151.2a10.711,10.711,0,0,1,2.574.866,10.92,10.92,0,0,1,3.3,2.448l5.108,5.546,9.546,10.351,3.465,3.768,10.726,11.639a10.919,10.919,0,0,1,2.6,5.044,10.84,10.84,0,0,1-3.277,10.3" transform="translate(-448.291 -118.466)" fill="#ffebe3"/>
        <path id="Trazado_893071" data-name="Trazado 893071" d="M692.683,914.546H656.734l-2.941-10.013h26.646s3.042,4.311,7.283,5.057c3.839.675,4.96,4.956,4.96,4.956" transform="translate(-512.955 -709.681)" fill="#ffebe3"/>
        <path id="Trazado_893072" data-name="Trazado 893072" d="M547.607,433h-35.9l30.607,101.577H568.9Z" transform="translate(-401.478 -339.722)" fill="#29212e"/>
        <path id="Trazado_893073" data-name="Trazado 893073" d="M491.891,163.325v45.56H440.7v-45.56a15.95,15.95,0,0,1,15.972-15.972h19.252a15.95,15.95,0,0,1,15.972,15.972" transform="translate(-345.762 -115.611)" fill="#44b8fa"/>
        <path id="Trazado_893074" data-name="Trazado 893074" d="M326.046,843.53c-2.826-2.841-1.451-7.124-1.451-7.124l-21.983-15.058-6.6,7.617,29.657,20.316s2.933-3.18.375-5.751" transform="translate(-232.247 -644.416)" fill="#ffebe3"/>
        <path id="Trazado_893075" data-name="Trazado 893075" d="M560.631,102.012l-7.556-5.73,4.2-14.03,8.416,1.848Z" transform="translate(-433.934 -64.534)" fill="#ffb293"/>
        <path id="Trazado_893076" data-name="Trazado 893076" d="M607.531,74.908l-1.789-.393a5.319,5.319,0,0,0-6.337,4.055l1.789.393a5.319,5.319,0,0,0,6.337-4.055" transform="translate(-470.283 -58.365)" fill="#29212e"/>
        <path id="Trazado_893077" data-name="Trazado 893077" d="M607.531,62.862l-1.789-.393a5.319,5.319,0,0,0-6.337,4.055l1.789.393a5.32,5.32,0,0,0,6.337-4.055" transform="translate(-470.283 -48.914)" fill="#29212e"/>
        <path id="Trazado_893078" data-name="Trazado 893078" d="M594.545,57.644l-1.821.2a5.32,5.32,0,0,0-4.7,5.874h0l1.821-.2a5.319,5.319,0,0,0,4.7-5.874" transform="translate(-461.328 -45.227)" fill="#29212e"/>
        <path id="Trazado_893079" data-name="Trazado 893079" d="M582.887,68.791A5.533,5.533,0,1,1,578.67,62.2a5.533,5.533,0,0,1,4.218,6.591" transform="translate(-448.741 -48.699)" fill="#ffb293"/>
        <path id="Trazado_893080" data-name="Trazado 893080" d="M591.465,95.266l-4.257-.935-.4-8.818,7.867.4.02,6.741a2.716,2.716,0,0,1-3.227,2.616" transform="translate(-460.397 -67.092)" fill="#ffb293"/>
        <path id="Trazado_893081" data-name="Trazado 893081" d="M609,114.723a2.04,2.04,0,0,1-1.219-1.171l.255-.1a1.8,1.8,0,0,0,1.033,1.006Z" transform="translate(-476.856 -89.013)" fill="#29212e"/>
        <path id="Trazado_893082" data-name="Trazado 893082" d="M578.564,66.516h-4.2c-1.736-.025-1.85,2.694-4.014,3.638a8.114,8.114,0,0,1-3.938.68l1.323-4.419a5.534,5.534,0,0,1,6.59-4.221,5.394,5.394,0,0,1,4.241,4.321" transform="translate(-444.396 -48.695)" fill="#29212e"/>
        <path id="Trazado_893083" data-name="Trazado 893083" d="M580.9,90.891a1.814,1.814,0,1,1-1.383-2.161,1.814,1.814,0,0,1,1.383,2.161" transform="translate(-452.951 -69.583)" fill="#ffb293"/>
        <path id="Trazado_893084" data-name="Trazado 893084" d="M478.548,433H443.1l9.213,51.857a15.748,15.748,0,0,0,31.169-4.383Z" transform="translate(-347.649 -339.722)" fill="#596680"/>
        <path id="Trazado_893085" data-name="Trazado 893085" d="M348.568,694.394l39.7-39.181-28.608-14.824-33.025,38.982Z" transform="translate(-256.275 -502.439)" fill="#596680"/>
        <path id="Trazado_893086" data-name="Trazado 893086" d="M351.722,539.6l-1.149-.787,35.033-40.811-1.4-41.217,1.383-.047,1.419,41.757Z" transform="translate(-275.054 -358.351)" fill="#29212e"/>
        <path id="Trazado_893087" data-name="Trazado 893087" d="M448.277,187.868c0,15.725.07,64.645.07,64.645H414.483l4.992-89.2a16.639,16.639,0,0,1,16.63-15.954s.115.047.311.138a15.6,15.6,0,0,1,1.771.969c.305.191.634.408.981.655,3.662,2.6,9.288,8.419,9.18,19.51-.035,3.794-.056,8.587-.067,13.714v1.976q0,1.757,0,3.541" transform="translate(-325.196 -115.619)" fill="#ffebe3"/>
        <rect id="Rectángulo_401712" data-name="Rectángulo 401712" width="13.158" height="0.977" transform="translate(96.482 91.579)" fill="#d6c5cf"/>
        <g id="Grupo_1101671" data-name="Grupo 1101671" transform="translate(89.287 59.035)" opacity="0.26" style="mix-blend-mode: multiply;isolation: isolate">
          <g id="Grupo_1101670" data-name="Grupo 1101670">
            <g id="Grupo_1101669" data-name="Grupo 1101669" clip-path="url(#clip-path-3)">
              <path id="Trazado_893088" data-name="Trazado 893088" d="M414.483,351.909h9.039l2.465-75.962-7.147-1.9Z" transform="translate(-414.483 -274.049)" fill="#a35a5f"/>
            </g>
          </g>
        </g>
        <path id="Trazado_893089" data-name="Trazado 893089" d="M619.435,104.211h-.826v-.293h.533v-1.012h.293Z" transform="translate(-485.351 -80.738)" fill="#29212e"/>
        <path id="Trazado_893090" data-name="Trazado 893090" d="M628.5,252.2h-5.5s-12.652-43.939-11.765-66.742v-8.255c0-12.944-2.367-20.409-4.822-24.673a16.828,16.828,0,0,0-2.567-3.445,9.426,9.426,0,0,0-2.381-1.827,3.707,3.707,0,0,0-.476-.209c.068,0,.135,0,.206,0s.027-.093.1-.087c16.835.264,17.243,16.532,17.243,16.532.735,8,1.4,23.654,3.331,46.924.851,10.248,6.631,41.778,6.631,41.778" transform="translate(-471.531 -115.31)" fill="#ffebe3"/>
        <path id="Trazado_893091" data-name="Trazado 893091" d="M601.2,147.366l.27.205a3.722,3.722,0,0,0-.476-.209c.067,0,.135,0,.205,0" transform="translate(-471.532 -115.619)" fill="#d6c5cf"/>
        <path id="Trazado_893092" data-name="Trazado 893092" d="M621.649,187.5l4.646-14.774-6.047-4.878,2.3-3.21-5.718-4.381a16.825,16.825,0,0,0-2.566-3.445l9.9,7.585-2.311,3.233,5.806,4.684-6.005,19.093Z" transform="translate(-481.939 -123.031)" fill="#d6c5cf"/>
        <path id="Trazado_893093" data-name="Trazado 893093" d="M545.146,132.385l8.4,6.268-1.459,5.086-9.238-8.129Z" transform="translate(-425.914 -103.867)" fill="#44b8fa"/>
        <path id="Trazado_893094" data-name="Trazado 893094" d="M592.771,139.5l-1.4,4.866,3.581,4.42.716-6.827Z" transform="translate(-463.977 -109.452)" fill="#44b8fa"/>
        <path id="Trazado_893095" data-name="Trazado 893095" d="M586.95,162.091l-1.213,4.955,3.284,2.257-.011,44.627L594,221.741l4.441-6.952-8.535-45.773.62-2.5Z" transform="translate(-459.56 -127.174)" fill="#29212e"/>
        <path id="Trazado_893096" data-name="Trazado 893096" d="M517.191,186.382v1.976l-10.322-14.01,6.763-7.785-11.318-5.183L507.1,152.5c.305.191.634.408.981.655l-4.135,7.676,11.6,5.316-7.174,8.26Z" transform="translate(-394.107 -119.651)" fill="#d6c5cf"/>
        <path id="Trazado_893097" data-name="Trazado 893097" d="M436.355,164.388l.641,2.073,5.593,18.256,1.1,3.6L445.5,194.2l3.075,10.043a9.48,9.48,0,0,1-.933,7.862,10.133,10.133,0,0,1-6.648,4.536,12.178,12.178,0,0,1-13.667-7.3,4.911,4.911,0,0,1-.194-.578l-.021-.044-1.4-4.564L422.568,193.9l-7.236-23.627-.442-1.411a9.55,9.55,0,0,1,.058-6.022c.041-.135.1-.276.149-.406a9.953,9.953,0,0,1,7.374-5.97,12.111,12.111,0,0,1,13.883,7.922" transform="translate(-325.157 -122.567)" fill="#ffebe3"/>
        <path id="Trazado_893098" data-name="Trazado 893098" d="M342.26,25.191l81.667,81.675a10.265,10.265,0,0,1-14.518,14.517L327.742,39.708Z" transform="translate(-257.141 -19.764)" fill="#d5e5fd"/>
        <path id="Trazado_893099" data-name="Trazado 893099" d="M399.749,89.344a2.819,2.819,0,0,1,3.986,0l68.258,68.265a8.379,8.379,0,0,1-.295,12.123,8.528,8.528,0,0,1-11.719-.443l-68.091-68.1a2.819,2.819,0,0,1,0-3.986Z" transform="translate(-306.821 -69.451)" fill="#ffa3b4"/>
        <path id="Trazado_893100" data-name="Trazado 893100" d="M398.866,107.819c.747-3.631,1.173-7.463,3.547-10.4-.243-2.913-.672-5.821-1.178-8.675a2.8,2.8,0,0,0-1.486.777l-7.861,7.86a2.819,2.819,0,0,0,0,3.987l6.882,6.883c.032-.144.066-.286.1-.431" transform="translate(-306.822 -69.627)" fill="#e6536a"/>
        <path id="Trazado_893101" data-name="Trazado 893101" d="M429.316,151.524l2.381,2.381a40.7,40.7,0,0,0,.93-9.917.777.777,0,0,0-1.5-.273c-.918,2.468-1.171,5.2-1.811,7.809" transform="translate(-336.834 -112.368)" fill="#e6536a"/>
        <path id="Trazado_893102" data-name="Trazado 893102" d="M496,197.937c-.9-1.747-3.448-5.05-5.612-2.636a13.016,13.016,0,0,0-2.7,6.308c-.165.866-.287,1.733-.393,2.6l9.921,9.921c.1-1.092.179-2.185.212-3.283.121-4.109.514-9.138-1.431-12.912" transform="translate(-382.33 -152.561)" fill="#e6536a"/>
        <path id="Trazado_893103" data-name="Trazado 893103" d="M470.176,129.585c.718,3.039,3.816-.834,4.307-1.674.7-1.19,1.451-2.345,2.1-3.563.028-.052.054-.105.081-.158l-5.473-5.473a19.4,19.4,0,0,0-1.015,10.868" transform="translate(-368.598 -93.143)" fill="#e6536a"/>
        <path id="Trazado_893104" data-name="Trazado 893104" d="M464.083,132.353l5.229,5.23a23.25,23.25,0,0,0,1.241-6.7,36.221,36.221,0,0,0-1.91-11.089c-.854-2.847-2.721-6.323-3.034-9.607l-5.552-5.553a3.3,3.3,0,0,0-5.066.47c-2.088,3.094-4.264,5.125-5.651,3.107-1.56-2.271-.919-6.186-.634-8.721a19.345,19.345,0,0,1,1.2-5.008l-4.792-4.793a2.792,2.792,0,0,0-1.312-.732c1.349,7.729,2.124,15.781.225,23.339l8.064,8.065a23.161,23.161,0,0,1,.818-3.716c1.055-3.313,3.293-7.689,7.314-5.32,4.087,2.408,4.32,9.119,4.309,13.222a74.05,74.05,0,0,1-.449,7.808" transform="translate(-348.199 -69.793)" fill="#e6536a"/>
        <path id="Trazado_893105" data-name="Trazado 893105" d="M557.947,200.418,550.534,193a33.946,33.946,0,0,0,1.483,4.431,55.45,55.45,0,0,1,2.635,8.9l0,.022a.771.771,0,0,0,1.457.191,25.1,25.1,0,0,0,1.834-6.134" transform="translate(-431.94 -151.428)" fill="#e6536a"/>
        <path id="Trazado_893106" data-name="Trazado 893106" d="M571.782,243.645c-.278-3.545-.786-7.8.32-11.373l-2.029-2.029a23.025,23.025,0,0,1-2.421,7.091,7.5,7.5,0,0,0-1.033,3.622,30.13,30.13,0,0,1-1.4,8.122l5.806,5.806a29.843,29.843,0,0,0,.762-11.24" transform="translate(-443.458 -180.646)" fill="#e6536a"/>
        <path id="Trazado_893107" data-name="Trazado 893107" d="M611.945,286.915c-2.112-1.729-3.776,3.058-4.176,4.282a26.676,26.676,0,0,0-1.3,6.728,20.091,20.091,0,0,0-.063,4.281l5.346,5.346a100.038,100.038,0,0,0,1.263-15.526c.007-1.439.182-4.083-1.075-5.112" transform="translate(-475.699 -224.817)" fill="#e6536a"/>
        <path id="Trazado_893108" data-name="Trazado 893108" d="M604.812,257.735c-.079,2.572-.155,5.148-.371,7.713q-.338,4.02-.991,8l4.426,4.426a13.863,13.863,0,0,1,3.717-5.846c2.509-2.37,4.956-4.658,6.42-7.71l-2.531-2.53c-.2.5-.4,1-.61,1.493-.84,1.99-1.728,3.971-2.713,5.895a6.475,6.475,0,0,1-2.278,2.92c-2.788,1.548-3.757-4.843-3.838-6.251a31.2,31.2,0,0,1,1.647-11.85l-11.663-11.664c-1.375,4.732.039,10.791.03,15.287a21.9,21.9,0,0,1-1.08,7.358l1.777,1.778a27.69,27.69,0,0,1,.108-2.948,26.264,26.264,0,0,1,1.541-8c.523-1.344,1.365-3.87,2.878-4.494A2.1,2.1,0,0,1,604,252.326a11.126,11.126,0,0,1,.817,5.408" transform="translate(-466.811 -190.126)" fill="#e6536a"/>
        <path id="Trazado_893109" data-name="Trazado 893109" d="M667.332,359.273c.023-2.9-.281-5.819-.119-8.72a13.85,13.85,0,0,1,.6-3.7l-.478-.478a17.261,17.261,0,0,1-3.021,4.408c-1.948,2.038-4.26,3.75-5.71,6.212a11.351,11.351,0,0,0-1.306,3.036l7.459,7.46a14.7,14.7,0,0,0,2.575-8.22" transform="translate(-515.705 -271.761)" fill="#e6536a"/>
        <path id="Trazado_893110" data-name="Trazado 893110" d="M698.477,362.745a27.228,27.228,0,0,1,.512-4.992,1.363,1.363,0,0,0-2.326.873c-.081,1.428.012,2.873.042,4.055.073,2.9.433,5.987-.29,8.838a15.9,15.9,0,0,1-2.3,5.057l2.243,2.243c2.854-4.481,2.056-11.152,2.115-16.075" transform="translate(-544.594 -280.372)" fill="#e6536a"/>
        <path id="Trazado_893111" data-name="Trazado 893111" d="M753.875,432.283a9.28,9.28,0,0,0-.829-1.519,15.952,15.952,0,0,0-3.57-3.621.88.88,0,0,0-1.351,1.044q.1.224.194.448a19.239,19.239,0,0,1,1.947,7.707,8.064,8.064,0,0,0,1.517-1.082,8.365,8.365,0,0,0,2.093-2.978" transform="translate(-586.904 -334.979)" fill="#e6536a"/>
        <path id="Trazado_893112" data-name="Trazado 893112" d="M726.033,373.36c2.524,5.21,7.484,7.469,9.186,10.453.13.228.238.46.35.692a8.368,8.368,0,0,0-2.071-8.395l-9.1-9.1c-.252,2.043.967,4.973,1.634,6.349" transform="translate(-568.325 -287.951)" fill="#e6536a"/>
        <path id="Trazado_893113" data-name="Trazado 893113" d="M718.566,385.24c.156-4.254-2.039-8.071-3.716-11.839a57.905,57.905,0,0,1-2.811-6.876,10.026,10.026,0,0,1-.62-4.4l-.715-.715a46.131,46.131,0,0,0-.314,8.224c.087,3.635-.066,8.068-1.742,11.562a1.919,1.919,0,0,0,.347,2.2,8.651,8.651,0,0,0,9.57,1.845" transform="translate(-555.838 -283.555)" fill="#e6536a"/>
        <path id="Trazado_893114" data-name="Trazado 893114" d="M649.264,309.225c.064,1.875.183,4.268,1.33,5.859,1.218,1.689,2.346.362,3.08-.952a69.663,69.663,0,0,0,3.917-8.392l-6.786-6.786a29.6,29.6,0,0,0-1.541,10.271" transform="translate(-509.39 -234.554)" fill="#e6536a"/>
        <path id="Trazado_893115" data-name="Trazado 893115" d="M303.322,19.376l.777.777a2.6,2.6,0,0,0,3.674,0L322.705,5.224a2.612,2.612,0,0,0,.011-3.685l-.777-.777a2.625,2.625,0,0,0-3.7,0L303.311,15.692a2.612,2.612,0,0,0,.011,3.685" transform="translate(-237.38 0)" fill="#d5e5fd"/>
        <path id="Trazado_893116" data-name="Trazado 893116" d="M353.117,9.46l-6.546,6.546a.373.373,0,0,1-.528-.528l6.546-6.546a.373.373,0,0,1,.528.528" transform="translate(-271.414 -6.922)" fill="#fff"/>
        <path id="Trazado_893117" data-name="Trazado 893117" d="M665.753,432.831l-2.6-1.444-5.642-3.13-4.259-2.363-6.875,12.391,8.277,4.592a.742.742,0,0,1,.04,1.274,2.337,2.337,0,0,0-.88,3,2.271,2.271,0,0,0,3.249.88l13.347-8.555c.994-.637,1.25-3.459-4.657-6.642" transform="translate(-507.136 -334.15)" fill="#ffb293"/>
        <path id="Trazado_893118" data-name="Trazado 893118" d="M650.247,440.435a13.844,13.844,0,0,0,9.206-2.9,14.73,14.73,0,0,1,8.85-3.283l-11.182-6.2Z" transform="translate(-510.173 -335.836)" fill="#ffb293"/>
        <path id="Trazado_893119" data-name="Trazado 893119" d="M515.678,355.583l-6.872,12.387s-15.773-4.808-26.174-8.89a61.56,61.56,0,0,1-6.864-3.054c-6.152-3.409-7.135-9.507-4.23-14.758.068-.112.125-.219.2-.32a5.181,5.181,0,0,1,.327-.528,10.579,10.579,0,0,1,3.836-3.435,9.872,9.872,0,0,1,1.293-.6,10.825,10.825,0,0,1,9.108.662l9.862,6.221Z" transform="translate(-368.731 -263.371)" fill="#ffebe3"/>
        <path id="Trazado_893120" data-name="Trazado 893120" d="M576.207,361.194l22.824,14.4-6.874,12.391s-10.649-1.828-11.149-12.976c-.481-10.7-4.8-13.816-4.8-13.816" transform="translate(-452.082 -283.387)" fill="#fff"/>
        <g id="Grupo_1101674" data-name="Grupo 1101674" transform="translate(93.011 59.035)" opacity="0.26" style="mix-blend-mode: multiply;isolation: isolate">
          <g id="Grupo_1101673" data-name="Grupo 1101673">
            <g id="Grupo_1101672" data-name="Grupo 1101672" clip-path="url(#clip-path-4)">
              <path id="Trazado_893121" data-name="Trazado 893121" d="M440.931,301.791l-9.158-17.815.633-9.926Z" transform="translate(-431.773 -274.049)" fill="#a35a5f"/>
            </g>
          </g>
        </g>
        <g id="Grupo_1101677" data-name="Grupo 1101677" transform="translate(109.64 93.936)" opacity="0.26" style="mix-blend-mode: multiply;isolation: isolate">
          <g id="Grupo_1101676" data-name="Grupo 1101676">
            <g id="Grupo_1101675" data-name="Grupo 1101675" clip-path="url(#clip-path-5)">
              <path id="Trazado_893122" data-name="Trazado 893122" d="M522.429,441.2l-13.463-5.136,13.466,7.95Z" transform="translate(-508.966 -436.068)" fill="#a35a5f"/>
            </g>
          </g>
        </g>
        <path id="Trazado_893123" data-name="Trazado 893123" d="M767.937,395.648h0a5.091,5.091,0,0,1-6.156-3.733l-2.23-9.1a5.091,5.091,0,0,1,9.889-2.423l2.23,9.1a5.091,5.091,0,0,1-3.733,6.156" transform="translate(-595.816 -295.402)" fill="#ffb293"/>
      </g>
    </g>
  </g>
</svg>
