<svg xmlns="http://www.w3.org/2000/svg" xmlns:xlink="http://www.w3.org/1999/xlink" width="497.543" height="267.187" viewBox="0 0 497.543 267.187">
  <defs>
    <clipPath id="clip-path">
      <rect id="Rectángulo_401735" data-name="Rectángulo 401735" width="497.543" height="234.112" fill="none"/>
    </clipPath>
    <clipPath id="clip-path-2">
      <rect id="Rectángulo_401734" data-name="Rectángulo 401734" width="497.544" height="234.112" fill="none"/>
    </clipPath>
    <clipPath id="clip-path-3">
      <rect id="Rectángulo_401725" data-name="Rectángulo 401725" width="258.271" height="179.8" fill="none"/>
    </clipPath>
    <clipPath id="clip-path-4">
      <rect id="Rectángulo_401727" data-name="Rectángulo 401727" width="343.012" height="232.647" fill="none"/>
    </clipPath>
    <clipPath id="clip-path-5">
      <path id="Trazado_893562" data-name="Trazado 893562" d="M606.475,0H314.412a25.5,25.5,0,0,0-25.474,25.474v181.7a25.5,25.5,0,0,0,25.474,25.474H606.475a25.5,25.5,0,0,0,25.474-25.474V25.474A25.5,25.5,0,0,0,606.475,0" transform="translate(-288.938)" fill="none"/>
    </clipPath>
    <linearGradient id="linear-gradient" x1="-0.202" y1="1.006" x2="-0.201" y2="1.006" gradientUnits="objectBoundingBox">
      <stop offset="0" stop-color="#fff"/>
      <stop offset="1"/>
    </linearGradient>
    <clipPath id="clip-path-6">
      <rect id="Rectángulo_401728" data-name="Rectángulo 401728" width="275.545" height="232.647" fill="none"/>
    </clipPath>
    <clipPath id="clip-path-7">
      <path id="Trazado_893564" data-name="Trazado 893564" d="M491.472,232.647H426.46L575.955,0h65.012Z" transform="translate(-426.46)" fill="none"/>
    </clipPath>
    <linearGradient id="linear-gradient-2" x1="0.092" y1="1.006" x2="0.093" y2="1.006" xlink:href="#linear-gradient"/>
    <clipPath id="clip-path-8">
      <path id="Trazado_893566" data-name="Trazado 893566" d="M785.357,232.647H732.673L882.167,0h52.684Z" transform="translate(-732.673)" fill="none"/>
    </clipPath>
    <linearGradient id="linear-gradient-3" x1="-0.052" y1="1.006" x2="-0.051" y2="1.006" xlink:href="#linear-gradient"/>
    <clipPath id="clip-path-9">
      <rect id="Rectángulo_401731" data-name="Rectángulo 401731" width="19.16" height="35.84" fill="none"/>
    </clipPath>
    <clipPath id="clip-path-10">
      <rect id="Rectángulo_401736" data-name="Rectángulo 401736" width="134.201" height="134.201" fill="#7c1815"/>
    </clipPath>
  </defs>
  <g id="Grupo_1101710" data-name="Grupo 1101710" transform="translate(0 31.144)">
    <g id="Grupo_1101709" data-name="Grupo 1101709" transform="translate(0 1.931)" clip-path="url(#clip-path)">
      <rect id="Rectángulo_401724" data-name="Rectángulo 401724" width="10.814" height="9.382" transform="translate(64.957 108.383) rotate(-5.153)" fill="#de9a80"/>
      <g id="Grupo_1101708" data-name="Grupo 1101708">
        <g id="Grupo_1101707" data-name="Grupo 1101707" clip-path="url(#clip-path-2)">
          <path id="Trazado_893515" data-name="Trazado 893515" d="M310.165,452.866l-.512-5.676a2.862,2.862,0,0,1,2.594-3.108l5.43-.49a2.862,2.862,0,0,1,3.107,2.594l.512,5.676a2.862,2.862,0,0,1-2.594,3.107l-5.43.49a2.862,2.862,0,0,1-3.107-2.594" transform="translate(-235.454 -337.303)" fill="#de9a80"/>
          <path id="Trazado_893516" data-name="Trazado 893516" d="M328.628,452.493l2.122-5.951a3.363,3.363,0,0,1,6.336,2.26l-2.122,5.951a3.363,3.363,0,1,1-6.336-2.26" transform="translate(-249.742 -337.856)" fill="#ffb293"/>
          <path id="Trazado_893517" data-name="Trazado 893517" d="M142.938,465.921a9.567,9.567,0,0,1-10.227-7.661,10.2,10.2,0,0,1,.221-5.2,8.078,8.078,0,0,1,1.676-3.012.273.273,0,0,1,.074-.078,9.735,9.735,0,0,1,5.525-2.974c3.877-.776,12.189-1.069,19.222-1.155,6.393-.1,11.725-.033,11.725-.033l2.454,12.247-27.27,7.1-2.279.6-.09.018a9,9,0,0,1-1.031.154" transform="translate(-100.737 -338.977)" fill="#ffebe3"/>
          <path id="Trazado_893518" data-name="Trazado 893518" d="M225.324,446.091l4-.041-4,11.885Z" transform="translate(-171.338 -339.18)" fill="#d6c5cf"/>
          <path id="Trazado_893519" data-name="Trazado 893519" d="M354.037,441.707h0a2.288,2.288,0,0,1,2.073-2.484l.475-.043a2.288,2.288,0,0,1,.411,4.557l-.475.043a2.288,2.288,0,0,1-2.484-2.073" transform="translate(-269.206 -333.949)" fill="#ffb293"/>
          <path id="Trazado_893520" data-name="Trazado 893520" d="M334.328,434.243l-.294-3.264,6.917-.624.014.16a3.117,3.117,0,0,1-2.825,3.384Z" transform="translate(-254.002 -327.246)" fill="#ffb293"/>
          <path id="Trazado_893521" data-name="Trazado 893521" d="M316.846,435.172l-.241-2.669-2.169.2a5.4,5.4,0,0,0-4.893,5.863l.119,1.323,3.516-.317a4.047,4.047,0,0,0,3.667-4.394" transform="translate(-235.363 -328.879)" fill="#ffb293"/>
          <path id="Trazado_893522" data-name="Trazado 893522" d="M636.806,251.6H344.743A16.753,16.753,0,0,1,327.99,234.85V53.151A16.753,16.753,0,0,1,344.743,36.4H636.806a16.753,16.753,0,0,1,16.753,16.753v181.7A16.753,16.753,0,0,1,636.806,251.6" transform="translate(-249.406 -27.677)" fill="#917584"/>
          <path id="Trazado_893523" data-name="Trazado 893523" d="M609.128,232.647H317.065a25.5,25.5,0,0,1-25.474-25.474V25.474A25.5,25.5,0,0,1,317.065,0H609.128A25.5,25.5,0,0,1,634.6,25.474v181.7a25.5,25.5,0,0,1-25.474,25.474M317.065,17.441a8.042,8.042,0,0,0-8.033,8.033v181.7a8.042,8.042,0,0,0,8.033,8.033H609.128a8.042,8.042,0,0,0,8.033-8.033V25.474a8.042,8.042,0,0,0-8.033-8.033Z" transform="translate(-221.728)" fill="#d1b7c4"/>
          <path id="Trazado_893524" data-name="Trazado 893524" d="M609.128,2.917a22.583,22.583,0,0,1,22.558,22.558v181.7a22.583,22.583,0,0,1-22.558,22.558H317.065a22.583,22.583,0,0,1-22.558-22.558V25.475A22.583,22.583,0,0,1,317.065,2.917ZM317.065,218.123H609.128a10.962,10.962,0,0,0,10.949-10.949V25.475a10.962,10.962,0,0,0-10.949-10.949H317.065a10.961,10.961,0,0,0-10.949,10.949v181.7a10.961,10.961,0,0,0,10.949,10.949M609.128,0H317.065a25.5,25.5,0,0,0-25.474,25.474v181.7a25.5,25.5,0,0,0,25.474,25.474H609.128A25.5,25.5,0,0,0,634.6,207.174V25.475A25.5,25.5,0,0,0,609.128,0M317.065,215.207a8.042,8.042,0,0,1-8.033-8.033V25.475a8.042,8.042,0,0,1,8.033-8.033H609.128a8.042,8.042,0,0,1,8.033,8.033v181.7a8.042,8.042,0,0,1-8.033,8.033Z" transform="translate(-221.728 -0.001)" fill="#e3d1db"/>
          <g id="Grupo_1101691" data-name="Grupo 1101691" transform="translate(117.143 28.624)" style="mix-blend-mode: multiply;isolation: isolate">
            <g id="Grupo_1101690" data-name="Grupo 1101690">
              <g id="Grupo_1101689" data-name="Grupo 1101689" clip-path="url(#clip-path-3)">
                <path id="Trazado_893525" data-name="Trazado 893525" d="M729.99,119.469H605.082a20.969,20.969,0,0,0-20.928,22.542c1.117,14.537,5.133,36.681,18.336,54.731a53.25,53.25,0,0,1-10.347-7.348c-8.733-7.93-13.563-17.75-18.583-27.959-4.242-8.623-8.562-17.4-15.344-24.6-5.943-6.314-13.77-11.406-25.091-14.116a21.227,21.227,0,0,0-4.941-.583v-.006H509.954v0h0a21.061,21.061,0,0,0-21.027,21.047V278.225a21.066,21.066,0,0,0,21.029,21.042v0H632.4a21.029,21.029,0,0,0,21.038-20.546,17.912,17.912,0,0,0-.048-2.06c-1.121-14.58-5.151-36.8-18.4-54.9,15.73,8.658,22.089,21.567,28.781,35.171,7.936,16.133,16.143,32.815,40.327,38.609a21.161,21.161,0,0,0,4.6.576v.016h21.3c.073,0,.151,0,.224-.006A17.208,17.208,0,0,0,747.2,278.923V136.675a17.2,17.2,0,0,0-17.206-17.206" transform="translate(-488.925 -119.469)" fill="#917584"/>
              </g>
            </g>
          </g>
          <path id="Trazado_893526" data-name="Trazado 893526" d="M705.57,279.866a21.029,21.029,0,0,1-21.038,20.546H562.09V123.272h18.231v.006a21.237,21.237,0,0,1,4.94.583c11.321,2.71,19.148,7.8,25.091,14.116,6.782,7.195,11.1,15.976,15.344,24.6,5.02,10.209,9.851,20.029,18.583,27.959a55.136,55.136,0,0,0,14.736,9.535c36.528,16.438,44.817,55.761,46.506,77.735a17.941,17.941,0,0,1,.049,2.06" transform="translate(-427.418 -93.737)" fill="#e6a6b1"/>
          <path id="Trazado_893527" data-name="Trazado 893527" d="M741.751,776.858A21.029,21.029,0,0,1,720.713,797.4H609.671V776.858Z" transform="translate(-463.599 -590.729)" fill="#db97a4"/>
          <path id="Trazado_893528" data-name="Trazado 893528" d="M693.594,237.209H626.944V184.651h32.724c6.782,7.195,11.1,15.976,15.344,24.6,5.02,10.209,9.851,20.029,18.583,27.959" transform="translate(-476.733 -140.41)" fill="#db97a4"/>
          <path id="Trazado_893529" data-name="Trazado 893529" d="M495.361,300.419a21.066,21.066,0,0,1-21.042-21.042V144.332a21.035,21.035,0,0,1,25.97-20.46c24.249,5.809,32.478,22.536,40.435,38.712,7.311,14.861,14.216,28.9,33.318,37.495,36.527,16.437,44.815,55.76,46.5,77.738a21.025,21.025,0,0,1-20.984,22.6Z" transform="translate(-360.676 -93.747)" fill="#ffccd4"/>
          <path id="Trazado_893530" data-name="Trazado 893530" d="M528.959,174.878c2.776-4.3,5.379-8.744,7.77-13.308a1.79,1.79,0,0,0-.46-2.212,42.8,42.8,0,0,0-15.178-7.9,16.718,16.718,0,0,0-21.411,16.085v36.292a1.782,1.782,0,0,0,2.924,1.365c10.371-8.544,19.155-19.178,26.353-30.326" transform="translate(-379.962 -114.641)" fill="#e6536a"/>
          <path id="Trazado_893531" data-name="Trazado 893531" d="M521.781,374.8c-4.661,5.281-9.058,10.79-13.709,16.074a39.731,39.731,0,0,1-8.39,7.717v10.005a1.782,1.782,0,0,0,2.758,1.493,69.781,69.781,0,0,0,22.614-24.3c4.159-7.559,7.018-15.68,10.233-23.63a88.9,88.9,0,0,0-13.506,12.64" transform="translate(-379.962 -275.386)" fill="#e6536a"/>
          <path id="Trazado_893532" data-name="Trazado 893532" d="M509.261,270.625c4.613-5.629,9.312-11.26,14.314-16.55a77.5,77.5,0,0,1,12.617-10.758,88.6,88.6,0,0,1,9.114-17.285c1.076-1.525,2.235-3.09,3.472-4.645a1.785,1.785,0,0,0,.17-1.987,67.011,67.011,0,0,0-6.735-10,1.774,1.774,0,0,0-2.912.292c-2.421,4.444-5.047,8.756-7.829,12.9-2.053,3.062-4.216,6.083-6.486,9.035a138.216,138.216,0,0,1-9.612,14.145A101.706,101.706,0,0,1,499.683,261.8V280.29c3.762-2.51,6.876-6.367,9.578-9.664" transform="translate(-379.963 -158.754)" fill="#e6536a"/>
          <path id="Trazado_893533" data-name="Trazado 893533" d="M516.654,343.65c.208-.288.407-.582.612-.872a113.923,113.923,0,0,1-16.854,15.314,1.774,1.774,0,0,0-.73,1.432v2.417a97.848,97.848,0,0,0,16.972-18.292" transform="translate(-379.962 -260.651)" fill="#e6536a"/>
          <path id="Trazado_893534" data-name="Trazado 893534" d="M798.471,647.988c8.438-6.052,14.453-14.555,22.612-20.9a41.283,41.283,0,0,1,15.489-7.551,1.776,1.776,0,0,0,1.3-2.085,99.506,99.506,0,0,0-9.074-26.288,1.779,1.779,0,0,0-2.361-.758A211.524,211.524,0,0,0,790.983,612.3c-2.787,2.149-5.554,4.377-8.267,6.685a1.915,1.915,0,0,0-.619,1.18v.007c-1.555,9.538-5.747,18.261-10.836,26.513a1.78,1.78,0,0,0,1.51,2.72h23.1a1.789,1.789,0,0,0,1-.3q.816-.548,1.608-1.115" transform="translate(-586.267 -448.809)" fill="#e6536a"/>
          <path id="Trazado_893535" data-name="Trazado 893535" d="M950.913,731.087a1.791,1.791,0,0,0-2.27-1.474,44.616,44.616,0,0,0-18.924,11.55c-3.79,3.752-7.374,7.569-11.217,11.083a1.78,1.78,0,0,0,1.193,3.1h17.181a14.948,14.948,0,0,0,14.925-16.06c-.195-2.535-.482-5.29-.888-8.2" transform="translate(-697.99 -554.748)" fill="#e6536a"/>
          <path id="Trazado_893536" data-name="Trazado 893536" d="M731.707,752.514a1.785,1.785,0,0,0-2.934-1.9,120.275,120.275,0,0,0-8.9,10.108,78.418,78.418,0,0,0-5.263,7.526,1.784,1.784,0,0,0,1.524,2.707h4.516a1.783,1.783,0,0,0,1.49-.8,100,100,0,0,0,9.569-17.637" transform="translate(-543.196 -570.356)" fill="#e6536a"/>
          <path id="Trazado_893537" data-name="Trazado 893537" d="M508.393,563.7a74.652,74.652,0,0,1-7.821,5.267,1.781,1.781,0,0,0-.888,1.536v5.463a1.781,1.781,0,0,0,3.169,1.117c2.842-3.569,5.555-7.23,8.109-10.984a1.779,1.779,0,0,0-2.568-2.4" transform="translate(-379.963 -428.349)" fill="#e6536a"/>
          <path id="Trazado_893538" data-name="Trazado 893538" d="M628.743,317.743c6.913-6.707,13.41-13.8,19.688-21.093-2.967-5.184-5.463-10.492-8.02-15.62a1.784,1.784,0,0,0-3.055-.226c-1.636,2.3-3.1,4.606-4.367,6.757-6.278,10.635-9.361,22.9-14.765,33.953a1.552,1.552,0,0,0-.063.151c-1.007,2.8-2.129,5.552-3.332,8.267,4.62-4.175,9.622-8.023,13.915-12.188" transform="translate(-467.52 -212.949)" fill="#e6536a"/>
          <path id="Trazado_893539" data-name="Trazado 893539" d="M590.834,381.695c-14.779-6.65-23.042-16.445-29.2-26.858-5.952,6.922-12.108,13.668-18.66,20.025-4.787,4.644-9.869,8.9-14.846,13.328-.887.789-1.763,1.592-2.618,2.412-6.544,13.577-15.386,26.086-25.4,37.613a1.768,1.768,0,0,0-.435,1.16v24.3a16.746,16.746,0,0,0,16.745,16.746h27.639a1.789,1.789,0,0,0,1.6-1c3.873-7.708,9.992-14.831,15.047-20.131a181.6,181.6,0,0,1,17.944-16.414.712.712,0,0,1,.3-.431c6.187-4.324,9.56-11.082,13.665-17.191a.725.725,0,0,1,.168-.321c.046-.052.1-.1.147-.148l.068-.1A55.952,55.952,0,0,1,605.825,401.1a59.7,59.7,0,0,1,6.227-4,63.581,63.581,0,0,0-21.217-15.4" transform="translate(-379.962 -269.821)" fill="#e6536a"/>
          <path id="Trazado_893540" data-name="Trazado 893540" d="M913.45,545.95c4.492-1.8,9.211-3.094,13.64-5.051q-1.947-2.737-4.189-5.328a52.923,52.923,0,0,0-7.6,5.1,54.521,54.521,0,0,0-8.039,8.144,49.324,49.324,0,0,1,6.187-2.862" transform="translate(-689.89 -407.253)" fill="#e6536a"/>
          <path id="Trazado_893541" data-name="Trazado 893541" d="M893.929,562.67c-3.6,1.533-7.321,2.7-11,4.074-4.274,1.6-9.32,3.348-12.637,6.665q-1.324,1.889-2.57,3.865c-1.626,2.585-3.272,5.175-5.13,7.579a223.946,223.946,0,0,1,31.256-18.691,1.783,1.783,0,0,0,.7-2.579c-.2-.307-.416-.609-.623-.914" transform="translate(-655.926 -427.859)" fill="#e6536a"/>
          <path id="Trazado_893542" data-name="Trazado 893542" d="M607.332,640.327a14.027,14.027,0,1,1,11.723-16,14.027,14.027,0,0,1-11.723,16" transform="translate(-449.526 -465.702)" fill="#ffccd4"/>
          <path id="Trazado_893543" data-name="Trazado 893543" d="M620.023,649.935a9.665,9.665,0,1,1,8.078-11.027,9.665,9.665,0,0,1-8.078,11.027" transform="translate(-462.999 -479.602)" fill="#842c37"/>
          <path id="Trazado_893544" data-name="Trazado 893544" d="M1092.323,129.373V271.62a17.208,17.208,0,0,1-16.982,17.206c-.073.006-.151.006-.224.006h-21.3v-5.757a46.2,46.2,0,0,1-6.624-4.443,47.88,47.88,0,0,1-4.824-4.466c-6.764-7.176-11.073-15.933-15.3-24.533-5.006-10.182-9.824-19.975-18.533-27.885a54.986,54.986,0,0,0-14.7-9.509c-36.43-16.394-44.7-55.612-46.381-77.527a17.885,17.885,0,0,1-.049-2.054,20.972,20.972,0,0,1,20.982-20.491h106.726a17.2,17.2,0,0,1,17.206,17.206" transform="translate(-720.41 -85.293)" fill="#e6a6b1"/>
          <path id="Trazado_893545" data-name="Trazado 893545" d="M1409.058,771.517V773a17.208,17.208,0,0,1-16.982,17.206h-21.2l-6.95-18.685Z" transform="translate(-1037.145 -586.668)" fill="#db97a4"/>
          <path id="Trazado_893546" data-name="Trazado 893546" d="M1360.528,129.373v1.479h-60.418V112.167h43.212a17.2,17.2,0,0,1,17.206,17.206" transform="translate(-988.615 -85.293)" fill="#db97a4"/>
          <path id="Trazado_893547" data-name="Trazado 893547" d="M996.439,112.166a21.009,21.009,0,0,1,20.986,20.986V267.835a20.979,20.979,0,0,1-25.9,20.405c-24.184-5.794-32.391-22.476-40.327-38.609-7.291-14.822-14.178-28.821-33.229-37.394-36.43-16.393-44.7-55.611-46.38-77.53a20.969,20.969,0,0,1,20.928-22.542Z" transform="translate(-662.718 -85.292)" fill="#ffccd4"/>
          <path id="Trazado_893548" data-name="Trazado 893548" d="M1308.067,624.412c-2.769,4.287-5.365,8.72-7.75,13.272a1.785,1.785,0,0,0,.458,2.207,42.682,42.682,0,0,0,15.137,7.875,16.673,16.673,0,0,0,21.354-16.042V595.529a1.777,1.777,0,0,0-2.916-1.362c-10.344,8.521-19.1,19.127-26.283,30.244" transform="translate(-988.619 -451.495)" fill="#e6536a"/>
          <path id="Trazado_893549" data-name="Trazado 893549" d="M1320.43,446.018c4.648-5.267,9.033-10.761,13.672-16.03a39.636,39.636,0,0,1,8.368-7.7v-9.979a1.777,1.777,0,0,0-2.751-1.489,69.6,69.6,0,0,0-22.554,24.234c-4.148,7.539-7,15.638-10.206,23.567a88.692,88.692,0,0,0,13.47-12.606" transform="translate(-993.823 -312.169)" fill="#e6536a"/>
          <path id="Trazado_893550" data-name="Trazado 893550" d="M1288.965,476.191c-4.6,5.614-9.287,11.23-14.276,16.506a77.281,77.281,0,0,1-12.583,10.729,88.375,88.375,0,0,1-9.09,17.239c-1.073,1.521-2.229,3.082-3.462,4.633a1.78,1.78,0,0,0-.17,1.982,66.875,66.875,0,0,0,6.717,9.968,1.769,1.769,0,0,0,2.9-.291c2.415-4.432,5.033-8.732,7.807-12.869,2.048-3.053,4.2-6.067,6.469-9.011a137.829,137.829,0,0,1,9.586-14.107A101.419,101.419,0,0,1,1298.518,485V466.553c-3.752,2.5-6.858,6.349-9.553,9.638" transform="translate(-949.871 -354.771)" fill="#e6536a"/>
          <path id="Trazado_893551" data-name="Trazado 893551" d="M1382.587,569.072c-.208.287-.406.58-.61.869a113.621,113.621,0,0,1,16.808-15.273,1.77,1.77,0,0,0,.728-1.428v-2.41a97.584,97.584,0,0,0-16.926,18.242" transform="translate(-1050.867 -418.856)" fill="#e6536a"/>
          <path id="Trazado_893552" data-name="Trazado 893552" d="M945.368,138.873c-8.416,6.036-14.414,14.516-22.552,20.845a41.168,41.168,0,0,1-15.448,7.531,1.772,1.772,0,0,0-1.3,2.079,99.24,99.24,0,0,0,9.049,26.218,1.774,1.774,0,0,0,2.355.756,210.974,210.974,0,0,0,35.36-21.835c2.779-2.144,5.539-4.365,8.245-6.667a1.91,1.91,0,0,0,.617-1.177v-.007c1.55-9.512,5.732-18.212,10.806-26.442A1.775,1.775,0,0,0,971,137.461H947.965a1.786,1.786,0,0,0-.994.3q-.814.546-1.6,1.112" transform="translate(-688.958 -104.527)" fill="#e6536a"/>
          <path id="Trazado_893553" data-name="Trazado 893553" d="M897.748,161.653a1.786,1.786,0,0,0,2.264,1.47A44.5,44.5,0,0,0,918.885,151.6c3.78-3.742,7.354-7.549,11.188-11.053a1.775,1.775,0,0,0-1.19-3.09H911.748a14.908,14.908,0,0,0-14.885,16.017c.194,2.528.48,5.275.885,8.175" transform="translate(-681.948 -104.527)" fill="#e6536a"/>
          <path id="Trazado_893554" data-name="Trazado 893554" d="M1168.386,155.849a1.78,1.78,0,0,0,2.926,1.9,119.865,119.865,0,0,0,8.878-10.081,78.179,78.179,0,0,0,5.249-7.506,1.779,1.779,0,0,0-1.52-2.7h-4.5a1.78,1.78,0,0,0-1.486.8,99.792,99.792,0,0,0-9.543,17.59" transform="translate(-888.347 -104.527)" fill="#e6536a"/>
          <path id="Trazado_893555" data-name="Trazado 893555" d="M1409.767,364.563a74.474,74.474,0,0,1,7.8-5.253,1.776,1.776,0,0,0,.886-1.532v-5.448a1.776,1.776,0,0,0-3.16-1.114c-2.834,3.56-5.541,7.211-8.087,10.955a1.775,1.775,0,0,0,2.561,2.392" transform="translate(-1069.807 -266.56)" fill="#e6536a"/>
          <path id="Trazado_893556" data-name="Trazado 893556" d="M1220.094,497.663c-6.894,6.689-13.375,13.766-19.635,21.037,2.958,5.17,5.448,10.464,8,15.578a1.779,1.779,0,0,0,3.047.225c1.632-2.3,3.089-4.594,4.355-6.739,6.261-10.606,9.337-22.838,14.725-33.862a1.567,1.567,0,0,0,.064-.15c1-2.792,2.123-5.537,3.323-8.245-4.608,4.163-9.6,8-13.877,12.155" transform="translate(-912.839 -369.184)" fill="#e6536a"/>
          <path id="Trazado_893557" data-name="Trazado 893557" d="M1008.582,225.945c14.739,6.633,22.98,16.4,29.119,26.786,5.936-6.9,12.075-13.631,18.61-19.972,4.774-4.632,9.843-8.875,14.806-13.292.885-.787,1.758-1.587,2.611-2.406,6.527-13.541,15.344-26.016,25.328-37.512a1.764,1.764,0,0,0,.433-1.157v-24.23a16.7,16.7,0,0,0-16.7-16.7h-27.565a1.783,1.783,0,0,0-1.591.993c-3.863,7.687-9.966,14.791-15.007,20.077a181.089,181.089,0,0,1-17.9,16.37.71.71,0,0,1-.294.429c-6.17,4.313-9.535,11.053-13.628,17.144a.723.723,0,0,1-.167.32c-.046.052-.1.1-.147.147l-.068.1a55.8,55.8,0,0,1-12.795,13.547,59.513,59.513,0,0,1-6.21,3.992,63.412,63.412,0,0,0,21.16,15.362" transform="translate(-750.844 -104.527)" fill="#e6536a"/>
          <path id="Trazado_893558" data-name="Trazado 893558" d="M979.752,386.057c-4.48,1.8-9.186,3.086-13.6,5.038q1.941,2.73,4.178,5.314a52.8,52.8,0,0,0,7.578-5.083,54.385,54.385,0,0,0,8.018-8.123,49.178,49.178,0,0,1-6.171,2.854" transform="translate(-734.668 -291.391)" fill="#e6536a"/>
          <path id="Trazado_893559" data-name="Trazado 893559" d="M959.9,341.078c3.591-1.529,7.3-2.693,10.966-4.063,4.263-1.594,9.295-3.339,12.6-6.647q1.32-1.884,2.563-3.855c1.622-2.578,3.263-5.161,5.116-7.559a223.335,223.335,0,0,1-31.172,18.641,1.778,1.778,0,0,0-.7,2.572c.2.306.414.607.621.911" transform="translate(-729.22 -242.535)" fill="#e6536a"/>
          <path id="Trazado_893560" data-name="Trazado 893560" d="M1259,245.037A13.989,13.989,0,1,1,1247.31,261,13.989,13.989,0,0,1,1259,245.037" transform="translate(-948.339 -186.202)" fill="#ffccd4"/>
          <path id="Trazado_893561" data-name="Trazado 893561" d="M1273.956,263.068a9.64,9.64,0,1,1-8.056,11,9.64,9.64,0,0,1,8.056-11" transform="translate(-962.514 -199.952)" fill="#842c37"/>
          <g id="Grupo_1101696" data-name="Grupo 1101696" transform="translate(69.227)" opacity="0.51" style="mix-blend-mode: screen;isolation: isolate">
            <g id="Grupo_1101695" data-name="Grupo 1101695">
              <g id="Grupo_1101694" data-name="Grupo 1101694" clip-path="url(#clip-path-4)">
                <g id="Grupo_1101693" data-name="Grupo 1101693">
                  <g id="Grupo_1101692" data-name="Grupo 1101692" clip-path="url(#clip-path-5)">
                    <rect id="Rectángulo_401726" data-name="Rectángulo 401726" width="343.011" height="232.647" transform="translate(0 0)" fill="url(#linear-gradient)"/>
                  </g>
                </g>
              </g>
            </g>
          </g>
          <g id="Grupo_1101703" data-name="Grupo 1101703" transform="translate(102.176)" opacity="0.48" style="mix-blend-mode: screen;isolation: isolate">
            <g id="Grupo_1101702" data-name="Grupo 1101702">
              <g id="Grupo_1101701" data-name="Grupo 1101701" clip-path="url(#clip-path-6)">
                <g id="Grupo_1101698" data-name="Grupo 1101698">
                  <g id="Grupo_1101697" data-name="Grupo 1101697" clip-path="url(#clip-path-7)">
                    <path id="Trazado_893563" data-name="Trazado 893563" d="M315.99,0l-149.5,232.647H-197.514L-48.015,0Z" transform="translate(48.015)" fill="url(#linear-gradient-2)"/>
                  </g>
                </g>
                <g id="Grupo_1101700" data-name="Grupo 1101700" transform="translate(73.366)">
                  <g id="Grupo_1101699" data-name="Grupo 1101699" clip-path="url(#clip-path-8)">
                    <path id="Trazado_893565" data-name="Trazado 893565" d="M609.875,0l-149.5,232.647H108.7L258.2,0Z" transform="translate(-258.198)" fill="url(#linear-gradient-3)"/>
                  </g>
                </g>
              </g>
            </g>
          </g>
          <path id="Trazado_893567" data-name="Trazado 893567" d="M1866.729,730.705h-35.765L1849,787.824h-2.529l-18.835-59.647h40.823l18.835,59.647h-2.529Z" transform="translate(-1389.75 -553.712)" fill="#29212e"/>
          <path id="Trazado_893568" data-name="Trazado 893568" d="M1804.583,734.92h46.723l-1.641-6.743h-38.294Z" transform="translate(-1372.22 -553.712)" fill="#29212e"/>
          <path id="Trazado_893569" data-name="Trazado 893569" d="M1853.48,793.31h38.294l-.8-2.529h-38.294Z" transform="translate(-1408.795 -601.316)" fill="#29212e"/>
          <path id="Trazado_893570" data-name="Trazado 893570" d="M1873.248,855.912h38.294l-.8-2.529H1872.45Z" transform="translate(-1423.827 -648.92)" fill="#29212e"/>
          <path id="Trazado_893571" data-name="Trazado 893571" d="M1893.016,918.517h38.294l-.8-2.529h-38.294Z" transform="translate(-1438.859 -696.525)" fill="#29212e"/>
          <path id="Trazado_893572" data-name="Trazado 893572" d="M1663.625,730.705h-35.766l-18.036,57.118h-2.529l18.835-59.647h40.823l-18.834,59.647h-2.529Z" transform="translate(-1222.2 -553.712)" fill="#7da0db"/>
          <path id="Trazado_893573" data-name="Trazado 893573" d="M1722.626,734.92h-38.294l1.642-6.743h38.294Z" transform="translate(-1280.781 -553.712)" fill="#7da0db"/>
          <path id="Trazado_893574" data-name="Trazado 893574" d="M1706.376,793.31h-38.294l.8-2.529h38.294Z" transform="translate(-1268.424 -601.316)" fill="#7da0db"/>
          <path id="Trazado_893575" data-name="Trazado 893575" d="M1686.609,855.912h-38.294l.8-2.529h38.294Z" transform="translate(-1253.392 -648.92)" fill="#7da0db"/>
          <path id="Trazado_893576" data-name="Trazado 893576" d="M1666.84,918.517h-38.294l.8-2.529h38.294Z" transform="translate(-1238.36 -696.525)" fill="#7da0db"/>
          <path id="Trazado_893577" data-name="Trazado 893577" d="M1761.184,638.5l2.557-10,10.744-6.838,10.509,4.092-2.648,11.519Z" transform="translate(-1339.219 -472.713)" fill="#ffb293"/>
          <path id="Trazado_893578" data-name="Trazado 893578" d="M1718.777,696.723h29.3l2.019-9.91h-20.828s-2.018,4.266-6.13,5.005c-3.721.668-4.364,4.905-4.364,4.905" transform="translate(-1306.973 -522.258)" fill="#ffebe3"/>
          <path id="Trazado_893579" data-name="Trazado 893579" d="M1806.629,307.363l-12.278,82.14h-24.006l12.278-82.14" transform="translate(-1346.185 -233.722)" fill="#596680"/>
          <path id="Trazado_893580" data-name="Trazado 893580" d="M1900.248,638.5l-.689-11.618,8.776-5.223,10.827,4.092.473,11.519Z" transform="translate(-1444.441 -472.713)" fill="#ffb293"/>
          <path id="Trazado_893581" data-name="Trazado 893581" d="M1859.225,304.786l4.723,59.576,1.836,23.181h25.729c.317-6.58,1.525-36.574-1.441-56.67q-.269-1.8-.6-3.488c-2.975-15.012-9.565-22.6-9.565-22.6Z" transform="translate(-1413.77 -231.762)" fill="#596680"/>
          <path id="Trazado_893582" data-name="Trazado 893582" d="M1863.955,364.359c9.91-3.692,3.831-18.83,12.942-19.74,6.475-.642,10.5-10.279,12.575-17.24-2.973-15.012-9.562-22.6-9.562-22.6h-20.68Z" transform="translate(-1413.774 -231.758)" fill="#596680"/>
          <path id="Trazado_893583" data-name="Trazado 893583" d="M1935.746,288.685q.482,1.756.939,3.511c7.567,28.854,11,56.91,10.146,82.757h.85c.806-25.862-2.668-53.9-10.242-82.757-.309-1.17-.618-2.341-.939-3.511-.163-.612-.916-.6-.754,0" transform="translate(-1471.94 -219.171)" fill="#29212e"/>
          <path id="Trazado_893584" data-name="Trazado 893584" d="M1834.939,87.764a1.7,1.7,0,0,0,1.614-2.3c-1.66-5.374-6.454-9.424-11.572-9.424s-8.858,4.05-9.12,9.424a2.27,2.27,0,0,0,2.212,2.3Z" transform="translate(-1380.795 -57.822)" fill="#29212e"/>
          <path id="Trazado_893585" data-name="Trazado 893585" d="M1732.5,181.052h0c3.215,2.9,7.765,2.766,10.162-.294l17.094-21.657c2.4-3.06,1.734-7.889-1.481-10.786s-7.765-2.766-10.162.294l-17.094,21.657c-2.4,3.06-1.734,7.889,1.48,10.786" transform="translate(-1315.186 -111.191)" fill="#ffebe3"/>
          <path id="Trazado_893586" data-name="Trazado 893586" d="M1673.44,179.042l-7.164,6.294s13.717,17.152,17.276,20.424c3.723,3.415,7.771,2.843,10.27-.152a7.09,7.09,0,0,0,1.516-5.393,8.588,8.588,0,0,0-2.736-5.309l-3.362-2.783-15.753-13.042Z" transform="translate(-1267.05 -136.145)" fill="#ffb293"/>
          <path id="Trazado_893587" data-name="Trazado 893587" d="M1809.354,157.093l2.91,22.376h32.92l-4.58-35.215a5.946,5.946,0,0,0-5.734-5.08h-15.5a5.333,5.333,0,0,0-4.877,2.9.821.821,0,0,0-.061.113l-4.164,8.783a10.994,10.994,0,0,0-.912,6.126" transform="translate(-1375.773 -105.828)" fill="#baa5a5"/>
          <path id="Trazado_893588" data-name="Trazado 893588" d="M1899.025,152.789l11.649,15.885,6.67,9.094c2.571,3.524,7.152,4.513,10.231,2.207s3.487-7.034.917-10.562l-16.349-22.29-1.974-2.691a8.5,8.5,0,0,0-3.76-2.938,6.639,6.639,0,0,0-6.468.733c-3.075,2.307-3.486,7.034-.916,10.562" transform="translate(-1442.751 -107.203)" fill="#ffebe3"/>
          <path id="Trazado_893589" data-name="Trazado 893589" d="M1844.388,112.222l4.735-3.988-4.187-9.766-5.684,1.287Z" transform="translate(-1398.582 -74.875)" fill="#ffb293"/>
          <path id="Trazado_893590" data-name="Trazado 893590" d="M1831.568,89.625l.035.267a4.5,4.5,0,0,0,4.776,3.617,2.769,2.769,0,0,0,.358-.06,3.227,3.227,0,0,0,.595-.2,3.4,3.4,0,0,0,1.742-4.393,4.563,4.563,0,0,0-1.839-2.312,4.232,4.232,0,0,0-2.386-.712,3.882,3.882,0,0,0-.74.092.7.7,0,0,0-.1.028,3.191,3.191,0,0,0-2.157,1.783,3.419,3.419,0,0,0-.3,1.691,1.086,1.086,0,0,0,.017.2" transform="translate(-1392.719 -65.27)" fill="#ffb293"/>
          <path id="Trazado_893591" data-name="Trazado 893591" d="M1832.247,105.471a1.729,1.729,0,0,0,.047.243l.005.008a2.2,2.2,0,0,0,2.43,1.572l2.873-.649-.188-2.237-.329-3.9h-.036l-5.4.275.035.267Z" transform="translate(-1392.804 -76.425)" fill="#ffb293"/>
          <path id="Trazado_893592" data-name="Trazado 893592" d="M1831.461,88.931a13.717,13.717,0,0,0,5.967,2.714,20.561,20.561,0,0,0,2.9.293l-1.32-3.076a4.439,4.439,0,0,0-4.965-2.938,3.292,3.292,0,0,0-2.587,3.008" transform="translate(-1392.659 -65.268)" fill="#29212e"/>
          <path id="Trazado_893593" data-name="Trazado 893593" d="M1849.122,126.2l2.222-.5-1.692,1.79Z" transform="translate(-1406.088 -95.58)" fill="#29212e"/>
          <path id="Trazado_893594" data-name="Trazado 893594" d="M1852.826,104.029a1.455,1.455,0,0,0,1.628.962,1.106,1.106,0,0,0,.766-1.5,1.455,1.455,0,0,0-1.628-.962,1.106,1.106,0,0,0-.766,1.5" transform="translate(-1408.847 -77.938)" fill="#ffb293"/>
          <path id="Trazado_893595" data-name="Trazado 893595" d="M1908.15,233.589h-26.285s-6.486-43.706-8.507-65.406c-.021-.2-.036-.416-.056-.615-.029-.362-.062-.711-.09-1.061-1.6-20.434,3.557-27.786,3.557-27.786s.286-.024.783-.048c.19-.018.418-.03.675-.042a48.073,48.073,0,0,1,5.911.09c3.705.319,5.066,2.808,6.112,7.147s4.319,32.371,8.763,47.268c4.571,15.312,9.136,40.452,9.136,40.452" transform="translate(-1424.171 -105.378)" fill="#ffebe3"/>
          <path id="Trazado_893596" data-name="Trazado 893596" d="M1877.313,147.151l6.564,5.484-9.594,15.095c-.029-.362-.062-.711-.09-1.06l8.886-13.962-6.883-5.755,6.2-2.712-3.86-5.405c.191-.018.418-.03.675-.042l4.091,5.737Z" transform="translate(-1425.152 -105.539)" fill="#d6c5cf"/>
          <path id="Trazado_893597" data-name="Trazado 893597" d="M1835.749,113.13h.643l-.03-.229h-.414l-.128-.987h-.229Z" transform="translate(-1395.799 -85.101)" fill="#29212e"/>
          <path id="Trazado_893598" data-name="Trazado 893598" d="M1841.9,119.506a1.44,1.44,0,0,0,1.14-.686l-.2-.134a1.273,1.273,0,0,1-.967.592Z" transform="translate(-1400.576 -90.249)" fill="#29212e"/>
          <path id="Trazado_893599" data-name="Trazado 893599" d="M1857.967,125.7l-5.257,2.589,1.94,5.533,4.707-4.88Z" transform="translate(-1408.817 -95.58)" fill="#ffb293"/>
          <line id="Línea_1356" data-name="Línea 1356" y1="2.594" x2="4.689" transform="translate(468.789 60.209)" fill="#29212e"/>
          <path id="Trazado_893600" data-name="Trazado 893600" d="M1872.115,696.723h27.279l-.647-9.91h-19.39s-.791,4.266-4.43,5.005c-3.294.669-2.812,4.905-2.812,4.905" transform="translate(-1423.553 -522.258)" fill="#ffebe3"/>
          <path id="Trazado_893601" data-name="Trazado 893601" d="M1629.236,149.8h0a1.2,1.2,0,0,0,1.033.635c1.738,0,.985-.161,1.886,1.481l1.134,2.067c.321.584,4.7,7.927,4.7,7.927l9.158-2.447-3.59-8.968a4.118,4.118,0,0,0-3.534-2.193l-9.994-.067a1.006,1.006,0,0,0-.8,1.566" transform="translate(-1238.769 -112.719)" fill="#ffb293"/>
          <path id="Trazado_893602" data-name="Trazado 893602" d="M1640.282,164.122s7.9-1.711,6.025-4.383c-2.693-3.839-10.823-2.766-10.823-2.766Z" transform="translate(-1243.636 -119.259)" fill="#e39373"/>
          <path id="Trazado_893603" data-name="Trazado 893603" d="M1648.949,163.207l4.415,2.678,3.587-1.665a2.09,2.09,0,0,0-.7-.695l-5.742-3.483a1.651,1.651,0,0,0-2.4.6,2.033,2.033,0,0,0,.834,2.564" transform="translate(-1253.104 -121.485)" fill="#ffb293"/>
          <path id="Trazado_893604" data-name="Trazado 893604" d="M1791.613,140.2s-7.492,9.394-6.586,17.1c.236,2,.527,4.652.816,7.707.083.868.164,1.772.242,2.7.711,8.382,1.248,18.952.481,27.466-1.142,12.763-2.581,39.644-2.581,39.644h-8.991s10.169-53.576,8.912-64.261c-.91-7.786-1.408-12.028-1.505-14.541a14.612,14.612,0,0,1,.014-1.886c.011-.1.023-.2.034-.3a4.947,4.947,0,0,1,.163-.693,20.978,20.978,0,0,1,.72-1.97l0-.012c.358-.862.807-1.85,1.326-2.868.086-.169.172-.344.265-.512.173-.338.357-.681.543-1.019,1.6-2.862,3.607-5.628,5.456-6.375a2.449,2.449,0,0,1,.687-.187" transform="translate(-1349.721 -106.61)" fill="#ffebe3"/>
          <path id="Trazado_893605" data-name="Trazado 893605" d="M1803.32,178.192l3.427,10.877c.083.868.164,1.772.243,2.7l-3.684-11.69-.82-2.6,1.75-2.248,0-.012,1.891-2.422-.564-.446c.087-.169.172-.344.265-.512l1.15.916-3.465,4.447-.362.464Z" transform="translate(-1370.626 -130.669)" fill="#d6c5cf"/>
          <path id="Trazado_893606" data-name="Trazado 893606" d="M1824.205,141.01l-5.49,6.345c1.6-2.862,3.607-5.628,5.456-6.376Z" transform="translate(-1382.967 -107.202)" fill="#d6c5cf"/>
          <rect id="Rectángulo_401729" data-name="Rectángulo 401729" width="11.063" height="0.604" transform="translate(462.715 91.974)" fill="#d6c5cf"/>
          <path id="Trazado_893607" data-name="Trazado 893607" d="M1328.119,373.976a7.548,7.548,0,0,1-1.075,3.022l-1.484,2.309-4.79,7.461-7.547,11.756a7.642,7.642,0,0,1-13-8.042l7.178-11.176,6.643-10.351a7.6,7.6,0,0,1,3.338-2.936,7.41,7.41,0,0,1,1.623-.528h.007a7.446,7.446,0,0,1,1.53-.158,7.646,7.646,0,0,1,7.574,8.642" transform="translate(-987.838 -277.803)" fill="#ffebe3"/>
          <path id="Trazado_893608" data-name="Trazado 893608" d="M1173.593,466.251l2.054-.042,4.452-.09,3.361-.068.2,9.777-6.531.132a.512.512,0,0,0-.435.764,1.612,1.612,0,0,1-.429,2.112,1.567,1.567,0,0,1-2.266-.511l-5.385-9.524c-.4-.709.353-2.514,4.984-2.551" transform="translate(-888.55 -354.389)" fill="#b37475"/>
          <path id="Trazado_893609" data-name="Trazado 893609" d="M1228.137,460.279l.2,9.777s18.1,3.49,24.007,3.37c4.852-.1,7.423-3.506,7.339-7.643a7.493,7.493,0,0,0-7.643-7.339Z" transform="translate(-933.886 -348.604)" fill="#ffebe3"/>
          <path id="Trazado_893610" data-name="Trazado 893610" d="M1369.044,333.15h0a8.6,8.6,0,0,1-8.6-8.6l-1.8-14.777a8.6,8.6,0,0,1,17.192,0l1.8,14.777a8.6,8.6,0,0,1-8.6,8.6" transform="translate(-1033.127 -229.021)" fill="#29212e"/>
          <path id="Trazado_893611" data-name="Trazado 893611" d="M1377.081,574l-7.45,12.326-13.769,22.787c-.2-.185-.4-.384-.6-.6-3.663-3.983-5.939-12.42-7.337-22.191-3.158-22.044-1.843-50.9-1.843-50.9l6.791-.335,15.834-.776Z" transform="translate(-1023.37 -406.29)" fill="#9c6263"/>
          <path id="Trazado_893612" data-name="Trazado 893612" d="M1467.606,846.7l-7.008-5.753.695-19.819,8.511,6.084Z" transform="translate(-1110.651 -624.389)" fill="#9c6263"/>
          <path id="Trazado_893613" data-name="Trazado 893613" d="M1497,876.346l1.6-20.2-1.69-2,1.79.565.263-3.14-6.927-5.054-2.2,19.488s3.2,3.447,3.427,6.852c.208,3.081,3.731,3.489,3.731,3.489" transform="translate(-1132.892 -643.699)" fill="#29212e"/>
          <path id="Trazado_893614" data-name="Trazado 893614" d="M1403.237,584.587c-2.981,20.526-7.28,42.2-7.28,42.2h-17.684l-.652-20.005-.723-22.191-1.666-51.24-.019-.535,22.862-.788s7.684,13.147,7.932,23.013c.17,6.749-1.089,17.967-2.77,29.55" transform="translate(-1045.724 -404.555)" fill="#b37475"/>
          <path id="Trazado_893615" data-name="Trazado 893615" d="M1380.883,584.587H1347.93c-3.158-22.044-1.843-50.9-1.843-50.9l6.791-.336-.019-.535,22.862-.788s7.684,13.147,7.932,23.013c.17,6.749-1.089,17.967-2.77,29.55" transform="translate(-1023.37 -404.555)" fill="#29212e"/>
          <path id="Trazado_893616" data-name="Trazado 893616" d="M1343.6,381.135l.8,23.028h29.327a4.4,4.4,0,0,0,4.4-4.551l-1.1-32.87a5.226,5.226,0,0,0-5.4-5.046l-15.961.552a6.41,6.41,0,0,0-5.379,3.291l-5.146,9.225a12.221,12.221,0,0,0-1.537,6.373" transform="translate(-1021.679 -275.034)" fill="#638cff"/>
          <path id="Trazado_893617" data-name="Trazado 893617" d="M1373.878,362.993a113.856,113.856,0,0,1-8.827,11.044c-3.615,3.939-7.693,7.613-11.75,9.7a17.89,17.89,0,0,1-2.137.957c-4.367,1.623-7.3-.422-9.276-3.78l-.007-.119a12.209,12.209,0,0,1,1.537-6.373l5.146-9.23a6.345,6.345,0,0,1,1.306-1.636,6.528,6.528,0,0,1,1.669-1.1h.006a6.168,6.168,0,0,1,1.333-.429,6.3,6.3,0,0,1,1.062-.125l1.062-.04,12.429-.422,2.467-.092a4.533,4.533,0,0,1,1,.066s0-.006.006,0a2.614,2.614,0,0,1,.31.059,5.122,5.122,0,0,1,2.54,1.386,1.1,1.1,0,0,1,.125.125" transform="translate(-1020.372 -274.776)" fill="#638cff"/>
          <path id="Trazado_893618" data-name="Trazado 893618" d="M1356.594,363.48s-9.961,3.121-11.356,18.2-.742,65.776-.742,65.776h-4.46V380.533c0-3.147,4.5-10.6,7.264-14.509a6.836,6.836,0,0,1,5.228-2.544Z" transform="translate(-1018.975 -276.393)" fill="#ffebe3"/>
          <path id="Trazado_893619" data-name="Trazado 893619" d="M1358.728,367.718l1.377,1.351-4.695,4.365-.362,11.762-.635-.019.375-12.029,4.4-4.092-1.478-1.453,6.566-4.124h1.2Z" transform="translate(-1029.908 -276.393)" fill="#d6c5cf"/>
          <path id="Trazado_893620" data-name="Trazado 893620" d="M1435.7,419.985v25.77h-23.061V377.161c0-11.185,5.367-15.055,6.3-15.645.089-.057.14-.083.14-.083.171-.013.342-.025.508-.032a41.1,41.1,0,0,1,4.859-.133,5.75,5.75,0,0,1,5.291,4.993c1.612,11.832,5.964,44.581,5.964,53.723" transform="translate(-1074.185 -274.69)" fill="#ffebe3"/>
          <rect id="Rectángulo_401730" data-name="Rectángulo 401730" width="9.754" height="0.871" transform="translate(350.191 133.204)" fill="#d6c5cf"/>
          <path id="Trazado_893621" data-name="Trazado 893621" d="M1446.223,400.948a7.524,7.524,0,0,1-9.349-5.132l-3.952-18.295-1-3.411-.864-2.956a7.6,7.6,0,0,1-.231-1.121,7.471,7.471,0,0,1-.046-1.478,7.6,7.6,0,0,1,5.443-6.775,7.466,7.466,0,0,1,1.544-.284s0-.007.006,0c.125-.007.244-.013.363-.013a7.377,7.377,0,0,1,3.279.64,7.5,7.5,0,0,1,4.156,4.783l.891,3.061,1.722,7.554,3.2,14.046a7.6,7.6,0,0,1-5.166,9.381" transform="translate(-1087.968 -274.871)" fill="#ffebe3"/>
          <path id="Trazado_893622" data-name="Trazado 893622" d="M1416.03,370.115l5.8,4.111-9.193,16.8v-1.319l8.368-15.29-6.135-4.346,6.135-3.718-2.068-4.32c.089-.057.14-.083.14-.083.171-.012.342-.025.508-.032l2.246,4.676Z" transform="translate(-1074.185 -275.206)" fill="#d6c5cf"/>
          <path id="Trazado_893623" data-name="Trazado 893623" d="M1440.279,442.164l2.2,8.4h-2.968Z" transform="translate(-1094.614 -336.226)" fill="#d6c5cf"/>
          <path id="Trazado_893624" data-name="Trazado 893624" d="M1412.643,517.7l14.8,1.771-14.8.872Z" transform="translate(-1074.186 -393.666)" fill="#d6c5cf"/>
          <path id="Trazado_893625" data-name="Trazado 893625" d="M1394.58,335.734l5.266-4.292-3.35-9.948-5.978,1.532Z" transform="translate(-1057.361 -244.467)" fill="#b37475"/>
          <path id="Trazado_893626" data-name="Trazado 893626" d="M1398.323,350.407l2.337-.6-1.917,1.911Z" transform="translate(-1063.297 -265.997)" fill="#29212e"/>
          <path id="Trazado_893627" data-name="Trazado 893627" d="M1377.736,927.529h-17.682s-1.213,4.394-5.3,5.155c-3.27.609-3.494,4.091-3.5,5.264h19.78l1.365-2.6.237,2.6h3.524Z" transform="translate(-1027.504 -705.3)" fill="#29212e"/>
          <path id="Trazado_893628" data-name="Trazado 893628" d="M1389.033,312.836l-.032.273a4.3,4.3,0,0,0,.014.645,3.959,3.959,0,0,0,3.949,3.577,3,3,0,0,0,.381-.017,3.71,3.71,0,0,0,.658-.124,3.967,3.967,0,0,0-.651-7.771,4.2,4.2,0,0,0-.779,0,.852.852,0,0,0-.109.016,3.928,3.928,0,0,0-2.66,1.533,3.844,3.844,0,0,0-.738,1.667,1.081,1.081,0,0,0-.032.2" transform="translate(-1056.203 -235.272)" fill="#b37475"/>
          <path id="Trazado_893629" data-name="Trazado 893629" d="M1386.664,328.528a1.654,1.654,0,0,0-.013.25l0,.009a1.952,1.952,0,0,0,2.085,1.878l3.1-.3.378-2.275.657-3.971-.037,0-5.59-.38-.032.273Z" transform="translate(-1054.421 -246.169)" fill="#b37475"/>
          <path id="Trazado_893630" data-name="Trazado 893630" d="M1386.664,317.687a1.654,1.654,0,0,0-.013.25l0,.009c.292.939.889,1.612,2.061,1.215a4.984,4.984,0,0,0,2.466-1.775,5.093,5.093,0,0,0,.9-1.961l.759-2.155.987-2.788a3.922,3.922,0,0,0-2.259-1.007l-.889.018a3.926,3.926,0,0,0-2.66,1.533l-.738,1.667a1.115,1.115,0,0,0-.032.2l-.032.273Z" transform="translate(-1054.421 -235.327)" fill="#b37475"/>
          <path id="Trazado_893631" data-name="Trazado 893631" d="M1389.694,312.127s.641-1.163,3.236.686c.61.435,1.387,2.567,2.176,2.772a20.392,20.392,0,0,0,2.9.648l-.566-3.258a3.963,3.963,0,0,0-4.329-3.562,4.021,4.021,0,0,0-3.411,2.714" transform="translate(-1056.735 -235.265)" fill="#29212e"/>
          <path id="Trazado_893632" data-name="Trazado 893632" d="M1390.611,335.865l-.657-.078.147-1.243.234.028-.12,1.009.423.05Z" transform="translate(-1056.933 -254.39)" fill="#29212e"/>
          <path id="Trazado_893633" data-name="Trazado 893633" d="M1394.526,343.329l.028-.234a1.538,1.538,0,0,0,1.14-.479l.173.16a1.75,1.75,0,0,1-1.34.553" transform="translate(-1060.41 -260.528)" fill="#29212e"/>
          <path id="Trazado_893634" data-name="Trazado 893634" d="M1409.157,329.536a1.549,1.549,0,1,0,1.391-1.7,1.549,1.549,0,0,0-1.391,1.7" transform="translate(-1071.529 -249.287)" fill="#b37475"/>
          <path id="Trazado_893635" data-name="Trazado 893635" d="M1339.748,399.414h-.753v-3.876a5.428,5.428,0,0,1,.86-2.937l5.565-8.678.635.407-5.565,8.678a4.676,4.676,0,0,0-.742,2.53Z" transform="translate(-1018.183 -291.938)" fill="#d6c5cf"/>
          <path id="Trazado_893636" data-name="Trazado 893636" d="M1329.953,471.613l2.053-.042,4.452-.09,3.36-.068.2,9.778-6.532.132a.513.513,0,0,0-.436.764,1.612,1.612,0,0,1-.429,2.112,1.568,1.568,0,0,1-2.266-.511l-5.385-9.524c-.4-.709.353-2.514,4.984-2.551" transform="translate(-1007.447 -358.466)" fill="#b37475"/>
          <path id="Trazado_893637" data-name="Trazado 893637" d="M1384.5,465.642l.2,9.777s18.1,3.49,24.007,3.37c4.852-.1,7.423-3.506,7.339-7.643a7.493,7.493,0,0,0-7.643-7.339Z" transform="translate(-1052.782 -352.682)" fill="#ffebe3"/>
          <path id="Trazado_893638" data-name="Trazado 893638" d="M1403.066,465.52l-18.57,1.426.2,9.777s7.087,2.319,10.987-4.322c3.745-6.374,7.385-6.881,7.385-6.881" transform="translate(-1052.782 -353.985)" fill="#fff"/>
          <path id="Trazado_893639" data-name="Trazado 893639" d="M99.438,944.063H69.029l.6-8.471H92.17s1.243,3.647,4.6,4.278c3.039.571,2.667,4.192,2.667,4.192" transform="translate(-52.49 -711.433)" fill="#29212e"/>
          <path id="Trazado_893640" data-name="Trazado 893640" d="M107.351,576.965H76.985l-5.447,85.924H94.022Z" transform="translate(-54.398 -438.729)" fill="#29212e"/>
          <path id="Trazado_893641" data-name="Trazado 893641" d="M83.569,373.229v38.54H40.262v-38.54a13.492,13.492,0,0,1,13.511-13.511H70.059a13.492,13.492,0,0,1,13.511,13.511" transform="translate(-30.616 -273.533)" fill="#64cafe"/>
          <path id="Trazado_893642" data-name="Trazado 893642" d="M151.835,370.141l-1.026,4.191,2.778,1.909-.009,37.75L157.8,420.6l3.757-5.881L154.34,376l.525-2.118Z" transform="translate(-114.676 -281.458)" fill="#29212e"/>
          <path id="Trazado_893643" data-name="Trazado 893643" d="M30.409,944.063H0l.964-8.471H23.5s1.087,3.647,4.418,4.278c3.014.571,2.488,4.192,2.488,4.192" transform="translate(0 -711.433)" fill="#ffebe3"/>
          <path id="Trazado_893644" data-name="Trazado 893644" d="M130.174,326.92l-7.006-5.366,4.164-11.349,7.119,1.564Z" transform="translate(-93.658 -235.882)" fill="#ffb293"/>
          <path id="Trazado_893645" data-name="Trazado 893645" d="M147.845,304.977a5.312,5.312,0,1,1-2.753-6.887,5.246,5.246,0,0,1,2.753,6.887" transform="translate(-104.709 -226.314)" fill="#ffb293"/>
          <path id="Trazado_893646" data-name="Trazado 893646" d="M153.416,323.691l-3.369-1.5,1.158-7.376,6.453,1.66-1.125,5.59a2.3,2.3,0,0,1-3.117,1.622" transform="translate(-114.097 -239.391)" fill="#ffb293"/>
          <path id="Trazado_893647" data-name="Trazado 893647" d="M171.039,336.055l-3.343-.683.049-.24a.8.8,0,0,1,.941-.621l1.781.364a.8.8,0,0,1,.622.941Z" transform="translate(-127.517 -254.353)" fill="#ffebe3"/>
          <path id="Trazado_893648" data-name="Trazado 893648" d="M141.815,308.3s-1.588,3.784-3.54,4.2a7.5,7.5,0,0,1-3.786-.474l.509-3.581c1.049-2.363,6.817-.145,6.817-.145" transform="translate(-102.267 -233.716)" fill="#ffebe3"/>
          <path id="Trazado_893649" data-name="Trazado 893649" d="M147.351,321.9a1.535,1.535,0,1,1-.78-2.025,1.535,1.535,0,0,1,.78,2.025" transform="translate(-109.813 -243.136)" fill="#ffb293"/>
          <path id="Trazado_893650" data-name="Trazado 893650" d="M43.127,576.966,26.505,662.891H4.019l9.122-85.926Z" transform="translate(-3.056 -438.73)" fill="#5263d1"/>
          <path id="Trazado_893651" data-name="Trazado 893651" d="M4.019,772.719H26.505l4.948-25.58S21.071,750.8,18.507,739.4c-2.644-11.754-9.04-18-9.04-18Z" transform="translate(-3.056 -548.557)" fill="#4553b0"/>
          <path id="Trazado_893652" data-name="Trazado 893652" d="M27.763,576.966l-8.782,85.926h-.865L26.9,576.966Z" transform="translate(-13.776 -438.73)" fill="#29212e"/>
          <path id="Trazado_893653" data-name="Trazado 893653" d="M48.913,393.989c0,13.3.059,54.684.059,54.684H20.326l4.223-75.451a14.075,14.075,0,0,1,14.067-13.5s.1.04.263.117a13.2,13.2,0,0,1,1.5.82c.258.161.536.345.829.554,3.1,2.2,7.857,7.122,7.765,16.5-.03,3.209-.047,7.263-.057,11.6v1.672q0,1.487,0,3" transform="translate(-15.456 -273.539)" fill="#ffebe3"/>
          <g id="Grupo_1101706" data-name="Grupo 1101706" transform="translate(14.358 111.887)" opacity="0.26" style="mix-blend-mode: multiply;isolation: isolate">
            <g id="Grupo_1101705" data-name="Grupo 1101705">
              <g id="Grupo_1101704" data-name="Grupo 1101704" clip-path="url(#clip-path-9)">
                <path id="Trazado_893654" data-name="Trazado 893654" d="M59.926,466.992s6.6,34.963,19.16,35.84L79.034,490Z" transform="translate(-59.926 -466.992)" fill="#a35a5f"/>
              </g>
            </g>
          </g>
          <rect id="Rectángulo_401732" data-name="Rectángulo 401732" width="11.13" height="0.827" transform="translate(10.957 136.801)" fill="#d6c5cf"/>
          <path id="Trazado_893655" data-name="Trazado 893655" d="M175.855,332.24l-.684-.14.05-.243.441.09.171-.839.243.05Z" transform="translate(-133.202 -251.778)" fill="#29212e"/>
          <path id="Trazado_893656" data-name="Trazado 893656" d="M150.7,312.357l-2.02,6.19a5.855,5.855,0,0,0,2.48,2.937c1.792.96,4.69.993,5.175.424s-.069-4.385-.069-4.385a10.917,10.917,0,0,0-2.545-.373,1.838,1.838,0,0,0-1.21.706,1.642,1.642,0,0,1-1.135-1.724A30.714,30.714,0,0,1,152.6,311.3Z" transform="translate(-113.055 -236.712)" fill="#ffebe3"/>
          <path id="Trazado_893657" data-name="Trazado 893657" d="M170.8,340.147a1.846,1.846,0,0,1-1.428-.548l.178-.173a1.622,1.622,0,0,0,1.215.476Z" transform="translate(-128.791 -258.102)" fill="#29212e"/>
          <path id="Trazado_893658" data-name="Trazado 893658" d="M177.276,448.135h-6.429v-63.44c0-10.95-2-17.264-4.079-20.871a14.231,14.231,0,0,0-2.171-2.914,7.977,7.977,0,0,0-2.014-1.545,3.149,3.149,0,0,0-.4-.176c.057,0,.114,0,.174,0s.03-.177.09-.172c14.241.224,14.579,14.083,14.579,14.083.894,9.732.253,75.033.253,75.033" transform="translate(-123.323 -273.001)" fill="#ffebe3"/>
          <path id="Trazado_893659" data-name="Trazado 893659" d="M162.354,359.728l.229.174a3.146,3.146,0,0,0-.4-.176c.057,0,.114,0,.174,0" transform="translate(-123.323 -273.539)" fill="#d6c5cf"/>
          <path id="Trazado_893660" data-name="Trazado 893660" d="M178.518,392.869l3.93-12.5-5.115-4.126,1.942-2.715-4.836-3.706a14.225,14.225,0,0,0-2.171-2.914l8.374,6.416-1.955,2.735,4.911,3.962-5.08,16.151Z" transform="translate(-130.994 -279.002)" fill="#d6c5cf"/>
          <path id="Trazado_893661" data-name="Trazado 893661" d="M119.9,348.334l7.109,5.3-1.234,4.3-7.815-6.877Z" transform="translate(-89.697 -264.876)" fill="#64cafe"/>
          <path id="Trazado_893662" data-name="Trazado 893662" d="M155.964,354.928l-1.107,3.833,3.029,3.739.605-5.775Z" transform="translate(-117.754 -269.891)" fill="#64cafe"/>
          <path id="Trazado_893663" data-name="Trazado 893663" d="M99.711,392.293v1.672L90.98,382.114l5.721-6.585-9.574-4.384,4.047-7.509c.258.161.536.345.829.554l-3.5,6.493,9.815,4.5-6.069,6.988Z" transform="translate(-66.252 -276.511)" fill="#d6c5cf"/>
          <path id="Trazado_893664" data-name="Trazado 893664" d="M55.252,384.227l.917,1.634L65.1,401.937l4.417,7.924a9.184,9.184,0,0,1-15.72,9.485,4.331,4.331,0,0,1-.268-.452l-.025-.032-2.008-3.6L39.867,394.338l-.628-1.111a9.1,9.1,0,0,1-1.151-5.207c.006-.126.022-.261.037-.386a9.186,9.186,0,0,1,17.128-3.407" transform="translate(-28.94 -288.604)" fill="#ffebe3"/>
          <path id="Trazado_893665" data-name="Trazado 893665" d="M131.842,439.8l-.659.368-6.413-12.239.659-.368Z" transform="translate(-94.876 -325.118)" fill="#c2b2bc"/>
          <path id="Trazado_893666" data-name="Trazado 893666" d="M135.475,486.618l.621,11.967s-13.471,3.619-22.762,5.352a52.12,52.12,0,0,1-6.293.885c-5.942.312-9.379-3.623-9.649-8.692,0-.111-.008-.213,0-.318a4.371,4.371,0,0,1,0-.525A8.949,8.949,0,0,1,98.6,491.1a8.347,8.347,0,0,1,.659-1.009,9.156,9.156,0,0,1,6.831-3.607l9.864.044Z" transform="translate(-74.049 -369.929)" fill="#ffebe3"/>
          <path id="Trazado_893667" data-name="Trazado 893667" d="M263.888,482.717l-9.409.574-.685-11.5,3.952-.242,2.588-3.634a3.018,3.018,0,0,1,2.274-1.261l2.038-.126a1.369,1.369,0,0,1,.522,2.664,1.6,1.6,0,0,1-.408.094c.227.022,3.847.371,4.8-1.071a1.419,1.419,0,0,0,.13-.248,1.175,1.175,0,0,1,1.021-.747,1.162,1.162,0,0,1,1.152,1.589L267.4,480.164a4.036,4.036,0,0,1-3.508,2.553" transform="translate(-192.987 -354.749)" fill="#ffb293"/>
          <path id="Trazado_893668" data-name="Trazado 893668" d="M161.094,486.588l22.828.1.621,11.97s-8.459,3.461-13.814-4.313c-5.14-7.462-9.635-7.761-9.635-7.761" transform="translate(-122.497 -370.006)" fill="#fff"/>
          <rect id="Rectángulo_401733" data-name="Rectángulo 401733" width="0.755" height="5.653" transform="translate(36.235 117.253) rotate(-88.63)" fill="#d6c5cf"/>
          <path id="Trazado_893669" data-name="Trazado 893669" d="M1847.91,297.407l8.927,7.042a1.492,1.492,0,0,0,2.243-.3,1.247,1.247,0,0,0,.115-.252,1.575,1.575,0,0,0-.063-1.1,1.931,1.931,0,0,0-.585-.773.5.5,0,0,1,.058-.861l5.182-2.124.014,0,.567-.237-.835-1.709-3.581-7.348-.526.216-2.438,1s-1.957.8-3.13,1.283l-.8.328-1.812.742c-4.111,1.62-4,3.562-3.338,4.088" transform="translate(-1404.901 -220.329)" fill="#ffb293"/>
          <path id="Trazado_893670" data-name="Trazado 893670" d="M1896.861,257.7l3.494,7.169.918,1.887.014,0c.105-.018.893-.149,2.124-.368,4.854-.856,16.616-3.032,20.715-4.707,4.281-1.757,5.095-5.818,3.229-9.649a8.547,8.547,0,0,0-4.338-4.119,7.357,7.357,0,0,0-5.655-.113l-3.586,1.733-.01,0-1.793.867-2.03.98-13.031,6.295Z" transform="translate(-1442.389 -188.04)" fill="#ffb293"/>
        </g>
      </g>
    </g>
    <g id="Grupo_1101712" data-name="Grupo 1101712" transform="translate(172.568 -31.144)">
      <g id="Grupo_1101711" data-name="Grupo 1101711" clip-path="url(#clip-path-10)">
        <path id="Trazado_893671" data-name="Trazado 893671" d="M19.652,114.548A67.121,67.121,0,0,0,130.791,45.931a4.188,4.188,0,1,0-7.95,2.641A58.716,58.716,0,1,1,96.3,16.142a4.189,4.189,0,0,0,4.173-7.264,67.1,67.1,0,0,0-80.824,105.67" transform="translate(0.001 0)" fill="#7c1815"/>
        <path id="Trazado_893672" data-name="Trazado 893672" d="M234.691,159.191A213.759,213.759,0,0,1,217.1,146.359a4.687,4.687,0,0,0-6.937,6.1,340.406,340.406,0,0,0,19.788,28.593,8.1,8.1,0,0,0,12.1.827c20.6-19.555,39.727-44.225,62.624-78.384a4.033,4.033,0,0,0-6.28-5.018c-25.4,26.9-38.43,39.68-63.705,60.709" transform="translate(-178.528 -82.859)" fill="#7c1815"/>
      </g>
    </g>
  </g>
</svg>
