<svg xmlns="http://www.w3.org/2000/svg" xmlns:xlink="http://www.w3.org/1999/xlink" width="294.949" height="117" viewBox="0 0 294.949 117">
  <defs>
    <clipPath id="clip-path">
      <rect id="Rect치ngulo_401631" data-name="Rect치ngulo 401631" width="190" height="113.537" fill="none"/>
    </clipPath>
  </defs>
  <g id="Grupo_1101495" data-name="Grupo 1101495" transform="translate(-1125.051 -812.82)">
    <path id="Rect치ngulo_401603" data-name="Rect치ngulo 401603" d="M58.5,0H210a0,0,0,0,1,0,0V117a0,0,0,0,1,0,0H58.5A58.5,58.5,0,0,1,0,58.5v0A58.5,58.5,0,0,1,58.5,0Z" transform="translate(1125.051 812.82)" fill="#bbcbc5"/>
    <g id="Grupo_1101515" data-name="Grupo 1101515" transform="translate(1230 814.82)">
      <g id="Grupo_1101514" data-name="Grupo 1101514" clip-path="url(#clip-path)">
        <path id="Trazado_891220" data-name="Trazado 891220" d="M67.364.073A3.248,3.248,0,0,0,67.8.055a10.086,10.086,0,0,1,4.694.8c1.084.423,2.183.125,3.137.57A4.824,4.824,0,0,1,77.91,3.009a11.411,11.411,0,0,0,2.014,2,11.566,11.566,0,0,1,2.158,1.467C82.7,7.03,86.113,9.9,85.7,11.09a.3.3,0,0,0-.02.151c.188.814-.021,1.645.1,2.463.216,1.491-.427,5.755-.691,7.215-.856,4.731-1.719,6.159-2.913,10.043a11.216,11.216,0,0,1-.871,2.126c-.669,1.215-1.433,3.242-1.91,4.06a1.243,1.243,0,0,0-.135,1.3c.1,1.007.387,1.988.409,3.008.022.92-.219,1.089.115,1.3,3.148,2.019,6.109,3.538,9.32,5.333a2.772,2.772,0,0,0,2.387.208c1.14-.4,4.559-.262,5.75-.189,4.539.279,10.68,2.26,15.3,3.207,14.5,2.973,21.371.213,33.327-8.043.339-.234.666-.488.988-.749,1.133-.921,2.537-1.413,3.332-2.762.732-1.243,2.389-2.423,3.489-3.478a8.716,8.716,0,0,1,3.269-1.967c3.935-1.337,6.56-2.811,10.9-2.385,5.316.522,5.287-1.783,12.737.7.724.242,1.481.362,2.188.665a10.964,10.964,0,0,1,5.588,4.882c.6,1.109.444,1.683,1.046,2.7a3.767,3.767,0,0,1,.487,1.812c.046,1.288.073,2.576.107,3.865.022.844-.189,1.516-.2,2.306-.032,2.51-2.169,3.541-1.356,5.324,1.512,3.318.267,9.22-2.687,10.842-.99.544-2,1.044-3,1.566-.558.291-.981-.134-1.311.117a14.654,14.654,0,0,1-2.634,1.412c-3.038,1.458-4.586,1.317-7.9,1.238A46.19,46.19,0,0,1,160.2,67.975c-.615-.153-.835-.569-1.265-.4-1.483.577-3.036.918-4.509,1.527-9.685,4-19.819,17.662-27.221,25.007-.579.574-1.1,1.21-1.67,1.8-3.175,3.3-5.417,5.346-8.869,8.405a26.4,26.4,0,0,1-11.137,6.2c-9.015,2.325-18.563,4.291-27.8,2.008-5.021-1.241-8.872-5.787-10.766-6.409a13.594,13.594,0,0,1-5.153-3.1c-.543-.514-1.131-.968-1.63-1.542s-2.632-1.324-3.129-1.736a6.207,6.207,0,0,0-2.608-1.2,39.73,39.73,0,0,1-8.429-3.213A37.069,37.069,0,0,1,40.61,92.1a69.988,69.988,0,0,1-7.658-5.344c-1.894-1.621-3.087-1.436-5.514-4.41a19.829,19.829,0,0,0-3.869-3.653,48.358,48.358,0,0,1-4.922-4.66c-1.318-1.3-2.729-2.48-4.024-3.8A34.228,34.228,0,0,1,7.162,59.514a20.15,20.15,0,0,1-1.3-2.759,43.271,43.271,0,0,0-3.156-4.88C1.155,49.687.4,45.914.021,43.186a7.867,7.867,0,0,1,1.031-3.817c1.325-2.315,5.668-9.531,6.972-10.983,4.172-4.645,4.083-4.459,9.517-8.316A148.1,148.1,0,0,1,41.495,6.431a61.842,61.842,0,0,1,9.694-3.093.714.714,0,0,0,.228-.085C54.717.891,63.483.133,67.364.073" transform="translate(-0.001 0)" fill="#eececa"/>
        <path id="Trazado_891221" data-name="Trazado 891221" d="M75.847,117.087c1.527,3.025,10.62,8.236,13.677,8.2,11.791-.123,13.942-.7,24.566-2.8,11.146-2.2,25.351-22.525,34.381-30.717,4.313-3.913,9.022-9.072,13.834-11.651,4.153-2.226,18.289-1.9,23.611-1.042,1.649.267,3.1-.851,4.266-.453.057-.337-4.832-2.028-7.329-5.177-1.63-2.056-1.3-5.548-1.167-6.885.2-2.092-.456-5.852.591-9.245.778-2.521-5.537-2.879-3.693-4.278,1.179-.894,1.314-2.973,1.518-3.32-.258-.164-9.373-1.772-13.479,1.2-2.752,1.994-13.3,11.35-13.512,14.626-.031.479,5.476-4.87,10.2-7.665,3.319-1.963,10.753-2.073,10.791-1.751.245,2.043-13.682,8.376-15.362,9.917-10.171,9.326-1.609,2.678-10.785,12.018-4.463,4.543-6.6,14.728-14.845,14.238-4.179-.248-13.919,2.819-16.016,6.9-2.046,3.983-6.187,5.128-10.639,6.747-7.586,2.758-9.756,4.351-17.4,5.53-4.879.752-8.411-.716-6.14-6.766,1.536-4.092-.081-3.209,2.494-7.93,2.136-3.917-3.055-.822-4.823,1.138a9.365,9.365,0,0,0-1.9,3.159C73.474,97.945,68.9,89.377,62.733,89.887c-2.6.215-16.214-2.894-17.265-6.121-1.418-4.354-13.737-2.89-21.429-17.771A118.381,118.381,0,0,1,18.4,54.082c-.8-1.908-2.634-2.057-3.069-1.5-4.789,6.142,1.571,13.335,2.084,15.407.209.034,9.973,12.74,11.181,12.8.379,1.531,8.525,12.247,11.441,12.717.937,3.786,32.522,17.713,33.083,19.979a9.217,9.217,0,0,1,2.281,1.534,3.7,3.7,0,0,0,.449,2.063M97.162,68.738c-1.486.115-3.454,0-3.709-.946-3.55-.662-.508-3.868-5.267-7.265-5.09-3.634-5.916-5.564-3.214-11.879.258-.6,1.284-1.88,1.962-3.453C88.8,40.876,89.08,36.605,89.7,32.053c.8-5.863,1.214-5.914-2.661-8a16.182,16.182,0,0,0-7.028-1.785c-4.081-.113-9.28-1.594-13.544.483-2.744,1.337-5.4.429-6.4,4.079-.665,2.423-.268,8.6,1.983,10.48,2.308,1.931,1.78,1.239,2.723-2.819,1.093-4.7,2.516-7.87,7.614-7.594,6.816.37,4.878,5.625,3.824,10.5-.4,1.853-1.548,3.6-2.019,6.885-1.3,9.1-1.6,10.638,2.921,17.875,1,1.6-.5,7.858.783,10.889,1.289,3.047,1.3,3.421,5.284,2.711,1.267-2.608,3.719,1.549,4.028,2.495,0,.011,1.439,1.344,2.207,1.9A11.784,11.784,0,0,0,87.384,84.3c-.053.291-4.822,12.835-.788,6.734,2.4-3.634,2.925-7.041,5.782-10.5,2.756-3.333,3.509-5.556,7.557-7.546,5.465-2.688,5.253-2.14,10.811-2.508.9-.059,8.328.08,7.63-.326-2.52-1.467-15.015-4.4-18.043-2.816-1.342.7-2.447.453-3.169,1.4" transform="translate(-9.465 -14.704)" fill="#e8c2c0" fill-rule="evenodd"/>
        <path id="Trazado_891222" data-name="Trazado 891222" d="M94.812,107.663c-1.039.93-3.36,5.961-3.677,8.091-.216,1.45,1.64,2.06,3.4-.326,2.821-3.831,3.329-3.571,2.439-8.177-.2-1.02-1.963.238-2.158.412M23.625,60.951c-.147.513-1.207,1.139-1.388,2.65-.038.318-1.883,3.958-.3,3.15C24.237,65.572,24.463,62.272,26,60.3c.853-1.1,1.828-3.554,3.618-4.048,2.387-.66,2.942-1.621,5.229-2.521,1.5-.59,4.052-2.58,5.646-3.02a60.636,60.636,0,0,1,12.216-1.726c1.8-.066,4.277-1.053,6.043-1.483,4.392-1.072,4.152-3.346.2-2.435-2.552.588-4.817,1.486-7.461,1.738-.437.041-6.233.994-6.326,1.043-.323.169-2.874.725-3.918,1.254-1.5.756-3.726.924-5.684,2.1-1.444.867-2.855,1.031-4.158,2.343-1.253,1.26-7.387,4.933-7.454,5.954-.011.165-.138,1.369-.324,1.455m15.223,3.684c2.308-2.109-3.261-1.631-3.422-4.852-.1-1.937,5.11-1.945,6.439-1.106,1.153.729,3.98,1.492,5.183.783,1.369-.808,1.851.287.55,1.054a1.476,1.476,0,0,1-.6.224,10.492,10.492,0,0,1,2.714,2.134c1.031,1.123,2.93,1.969,4.9,4.386,2.076,2.545,10.224,1.676,10.894,4.916,0,.022,3.068,4.386,2.83-.37-.121-2.409-2.632-7.631-1.5-8.088,2.863-1.152,5.453,1.381,7.381,3.576,1.372,1.561,1.026,5.5,2.471,8.633,1.309,2.836,1.839,7.73,2.845,9.551a6.031,6.031,0,0,1,.855,3.5c.245,4.863-1.7,2.38-3.712,6.591-.547,1.147-3.716,6.825-5.2,4.368-3.455-5.725-5.714-1.126-11.693-3.286-3.789-1.369-6.636.414-8.694-.559-1.387-.656-6.162-1.242-6.1-4.058.023-1,8.345-.37,9.405-.431,5.133-.291,3.866-1.675,5.1-5.738.245-.81.342-4.909-1.925-5.086-.034,0-6.1-4.817-6.974-5.234-6.278-3-2.894-5.588-5.948-8.586-1.412.794-1.814-.217-1.291-1.024a17.376,17.376,0,0,0-2.516-1.341l-.1-.047a2.186,2.186,0,0,1-.831,1.41c-1.584,1.447-2.142-.336-1.066-1.32M39.9,67.687c1.977-1.166,2.671.415.794,1.522-1.827,1.077-2.035-.79-.794-1.522m3.331,1.671c1.37-.808,1.851.287.55,1.055-1.266.746-1.41-.547-.55-1.055M34.561,77.05c1.976-1.166,2.67.414.793,1.522-1.827,1.077-2.034-.79-.793-1.522m-.84,3.625c1.976-1.166,2.67.415.793,1.522-1.827,1.077-2.034-.79-.793-1.522m11.31-5.413c1.37-.808,1.851.288.55,1.055-1.266.747-1.41-.547-.55-1.055M29.454,72.855c1.369-.808,1.85.288.55,1.055-1.266.746-1.41-.548-.55-1.055M63.38,54.5c1.714-1.567,2.694-.168,1.066,1.319-1.584,1.448-2.142-.336-1.066-1.319m7.834,1.859c1.976-1.166,2.671.415.793,1.522-1.826,1.077-2.034-.791-.793-1.522m-3.786-1.045c1.37-.808,1.851.287.55,1.055-1.265.747-1.41-.547-.55-1.055M52.013,62.383c1.977-1.167,2.67.415.793,1.522-1.826,1.077-2.034-.79-.793-1.522m18.511-2.065c1.37-.808,1.851.287.55,1.055-1.266.746-1.41-.547-.55-1.055M28.336,67.83c1.37-.808,1.851.287.55,1.054-1.266.746-1.41-.547-.55-1.054M137.963,93.876c-3.781,1.873-5.769,7.223-10.056,8.969-3.888,1.584-12.307,10.4-2.5,5.5,3.124-1.562,4.772-5.969,11.209-6.532,4.266-.373,8.723-4.258,10.61-8.311.56-1.2,3.251-4.819.74-4.409-7.542,1.234-4.944,3.048-9.438,4.424-.411.126-.056.111-.566.364M88.371,97.295c-1.229-1.591-2.178,2.179-3.045,2.28-1.39.162-2.912,3.375-3.035,3.41-.4,2.456-1.059.254-.593,3.993.832,6.682,2.926-.175,5.866-.343,3.376-.191,3.436-7.367,1.971-8.18-.765-.425-.731-.22-1.218-.957Zm11.022,4.4c-1.706,3.179-2.111,5.912,6.238-.163a4.681,4.681,0,0,1,2.351-.517c3.468-.154,9.2.658,11-1.674.182-.237,13.706-1.981,8.55-5.976-4.876-3.778-10.158-3.635-15.679-1.566a37.662,37.662,0,0,0-7.618,3.564c-1.574,1.114-4.039,4.842-4.837,6.331" transform="translate(-14.873 -30.468)" fill="#f6dee2" fill-rule="evenodd"/>
        <path id="Trazado_891223" data-name="Trazado 891223" d="M257.525,251.823a9.266,9.266,0,0,0-1.372,3c-.092.532.546.73,1.184-.164,1.1-1.548,1.6-4.177.189-2.838" transform="translate(-178.9 -170.805)" fill="#fbebee" fill-rule="evenodd"/>
        <path id="Trazado_891224" data-name="Trazado 891224" d="M297.67,198.775c1.133-.8,4.909-1.4,7.728-1.653,4.883-.444,5.217-3.268-2.483-1.525-2.385.54-3.979.592-5.879,1.942-1.669,1.185-3.225,2.133-2.832,2.806.227.388-.265,1.067,3.466-1.57" transform="translate(-205.44 -132.48)" fill="#fbebee" fill-rule="evenodd"/>
        <path id="Trazado_891225" data-name="Trazado 891225" d="M268.616,204.428c-.747.543-14.822,3.207-14.879,3.257-.02.017,13.057,1.861,17.131.382,2.086-.758,6.331.382,9.339-.811,10.96-4.344,9.119-3.688,18.182-14.635,3.116-3.765,11.887-9.542,14.5-13.026,5.678-7.564,10.415-11.821,18.923-14.686,3.39-1.141,10.917-.454,14.4-.96,1.319-.192-3.856-4.865-3.974-7.943-.016-.418-.39-7.214-2.186-7.294-.861-.039-3.174,5.71-3.811,6.453-6.227,7.255-2.958,5.584-12.116,10.421-6.38,3.369-9.2,3.064-14.722,10.46-1.615,2.162-1.834.672-4.349,3.279-2.3,2.387-9.626.566-12.335,2.907-6.326,5.468-10.532,18.559-16.076,20.162-2.108.61-4.057,1.717-6.514,1.669a3.932,3.932,0,0,0-1.51.364" transform="translate(-177.219 -101.015)" fill="#d9a7aa" fill-rule="evenodd"/>
        <path id="Trazado_891226" data-name="Trazado 891226" d="M585.147,119.03c-.412-1.6-3.279-6.761-4.936-7.3-3.8-1.246-1.427-1.87-5.734.778-4.125,2.537-3.717,5.251-.7,9.267,2.105,2.8,1.765,13.547,4.712,14.05,1.482.253,6.743-2.038,3.8-9.5-.414-1.05,1.549-6.861,2.85-7.293" transform="translate(-399.12 -75.163)" fill="#f6dee2" fill-rule="evenodd"/>
        <path id="Trazado_891227" data-name="Trazado 891227" d="M593.925,140.411c-1.163-.381-.668-.61-1.986.2-1.263.776-1.138,1.607-.213,2.836a3.251,3.251,0,0,0,2.4,1.107c3.362.573.977-3.759-.2-4.144" transform="translate(-412.784 -95.141)" fill="#fbeff2" fill-rule="evenodd"/>
        <path id="Trazado_891228" data-name="Trazado 891228" d="M597.282,115.993c-1.014-1.272-.423-.961-2.081-1.673-1.589-.683-1.8-.082-1.376,1.473a7.18,7.18,0,0,0,1.958,2.81c3.149,3.369,2.523-1.326,1.5-2.609" transform="translate(-414.615 -77.464)" fill="#fbeff2" fill-rule="evenodd"/>
        <path id="Trazado_891229" data-name="Trazado 891229" d="M423.378,176.979c1.714-1.567,2.694-.168,1.066,1.319-1.584,1.448-2.142-.335-1.066-1.319m5.079.762c1.976-1.166,2.67.415.793,1.522-1.827,1.077-2.034-.79-.793-1.522m.763-3.34c1.37-.808,1.851.287.55,1.054-1.266.747-1.41-.547-.55-1.054m-4.784,5.631c1.977-1.166,2.67.414.793,1.522-1.826,1.077-2.034-.79-.793-1.522m3.331,1.67c1.37-.808,1.851.287.55,1.055-1.266.746-1.409-.547-.55-1.055m-7.9-1.334c1.976-1.166,2.67.415.793,1.522-1.827,1.077-2.034-.79-.793-1.522m-.84,3.625c1.977-1.166,2.67.415.793,1.522-1.827,1.077-2.034-.79-.793-1.522m4,.642c1.37-.808,1.851.287.55,1.055-1.266.746-1.41-.547-.55-1.055m-3.561-7.529c1.37-.808,1.851.287.55,1.055-1.266.746-1.41-.547-.55-1.055m16.016-5.433c1.714-1.566,2.694-.167,1.066,1.32-1.584,1.448-2.142-.336-1.066-1.32m5.079.763c1.977-1.166,2.671.415.793,1.521-1.826,1.078-2.034-.789-.793-1.521m.763-3.34c1.37-.808,1.851.287.55,1.055-1.266.747-1.41-.547-.55-1.055m-4.784,5.631c1.976-1.167,2.67.415.793,1.522-1.827,1.077-2.034-.79-.793-1.522m3.331,1.671c1.37-.808,1.851.287.55,1.055-1.266.746-1.41-.548-.55-1.055m-7.9-1.335c1.977-1.166,2.671.415.794,1.522-1.827,1.077-2.034-.79-.794-1.522m-.839,3.625c1.976-1.166,2.671.415.793,1.522-1.827,1.077-2.034-.79-.793-1.522m4,.642c1.37-.808,1.851.287.55,1.055-1.266.747-1.41-.547-.55-1.055m-3.561-7.529c1.37-.808,1.851.288.55,1.055-1.266.747-1.41-.548-.55-1.055m-5.4,1.2c1.37-.808,1.851.287.55,1.054-1.265.747-1.41-.547-.55-1.054m-10.82,8.909c1.37-.808,1.851.287.55,1.055-1.266.746-1.41-.547-.55-1.055" transform="translate(-289.723 -114.669)" fill="#d9a7aa" fill-rule="evenodd"/>
        <path id="Trazado_891230" data-name="Trazado 891230" d="M269.113,242.8c1.714-1.567,2.694-.167,1.066,1.32-1.584,1.448-2.142-.336-1.066-1.32m5.079.763c1.977-1.166,2.67.415.793,1.521-1.827,1.078-2.034-.789-.793-1.521m.763-3.34c1.37-.808,1.851.288.55,1.055-1.266.747-1.41-.547-.55-1.055m-4.784,5.631c1.977-1.167,2.671.415.793,1.522-1.826,1.077-2.034-.79-.793-1.522m3.331,1.67c1.37-.808,1.851.287.55,1.055-1.266.747-1.41-.547-.55-1.055m-7.9-1.334c1.977-1.166,2.67.415.793,1.522-1.827,1.077-2.034-.79-.793-1.522m-.84,3.625c1.977-1.166,2.67.415.793,1.522-1.826,1.077-2.034-.79-.793-1.522m4,.642c1.37-.808,1.851.287.55,1.055-1.266.746-1.41-.548-.55-1.055m-3.561-7.529c1.37-.808,1.851.288.55,1.055-1.266.747-1.41-.547-.55-1.055M281.22,237.5c1.715-1.567,2.694-.168,1.066,1.319-1.584,1.448-2.142-.336-1.066-1.319m5.079.763c1.977-1.166,2.671.414.793,1.522-1.826,1.078-2.034-.79-.793-1.522m.763-3.34c1.37-.808,1.851.287.55,1.055-1.266.746-1.41-.547-.55-1.055m-4.784,5.631c1.977-1.166,2.671.414.793,1.521-1.827,1.078-2.034-.789-.793-1.521m3.331,1.67c1.37-.808,1.85.287.55,1.054-1.266.747-1.41-.547-.55-1.054m-7.9-1.334c1.977-1.166,2.671.415.793,1.522-1.826,1.077-2.034-.79-.793-1.522m-.84,3.625c1.977-1.166,2.671.415.794,1.522-1.827,1.077-2.034-.79-.794-1.522m4,.642c1.37-.808,1.851.287.55,1.055-1.266.746-1.41-.547-.55-1.055m-3.561-7.528c1.37-.808,1.851.287.55,1.054-1.266.747-1.41-.547-.55-1.054m-5.4,1.2c1.37-.808,1.851.287.55,1.055-1.266.746-1.41-.547-.55-1.055m-10.82,8.91c1.37-.808,1.851.287.55,1.055-1.265.746-1.409-.548-.55-1.055" transform="translate(-181.978 -159.378)" fill="#f6dee2" fill-rule="evenodd"/>
        <path id="Trazado_891231" data-name="Trazado 891231" d="M95.321,18.545a.388.388,0,0,0,.252-.011,44.074,44.074,0,0,1,6.605-1.174,17.162,17.162,0,0,0,2.28-.176c.97-.159,1.938-.332,2.917-.425a11.47,11.47,0,0,0,3.5-1.018c.453-.2.882-.458,1.324-.684a13.505,13.505,0,0,0,2.431-1.449,7.049,7.049,0,0,1,1.433-.9c1.8-.853,3.143-2.156,4.878-2.685q2.328-.71,4.664-1.395a4.158,4.158,0,0,1,1.56-.281,4.772,4.772,0,0,0,1.6-.207c.758-.183,3.029-.319,3.886-.492a5.681,5.681,0,0,1,2.257.231c1.723.209,3.013.965,4.427.972a7.491,7.491,0,0,0,2.883-.2c.574-.234.157-.569.081-.889a1.58,1.58,0,0,0-.945-1.125c-2.972-1.313-3.888-.69-4.762-.919a6.74,6.74,0,0,0-1.149-.165c-.766-.065-.5-.276-.875-.359a8.889,8.889,0,0,0-2.766-.283c-1.225.11-2.443.263-3.662.414a46.535,46.535,0,0,0-5.863,1.151c-.583.222-1.168.444-1.758.646-.743.254-1.019.564-1.664.774-2.075.677-4.151,1.349-6.225,2.03a29.484,29.484,0,0,0-5.35,2.178c-1.712.876-3.433,1.731-5.137,2.623-2.246,1.176-4.628,2.51-6.825,3.812" transform="translate(-66.576 -3.324)" fill="#f2968d"/>
        <path id="Trazado_891232" data-name="Trazado 891232" d="M90.445,77.658c1.138-2.077,2.494-1.1,1.414.876-1.052,1.919-2.128.428-1.414-.876M74.872,87.651c1.509-1.79,2.651-.538,1.218,1.162-1.394,1.653-2.165-.038-1.218-1.162m20.3-14.462c1.046-1.24,1.837-.373.844.805-.966,1.146-1.5-.027-.844-.805m15.534-23.141c1.508-1.79,2.651-.538,1.218,1.161-1.394,1.653-2.165-.038-1.218-1.161M83.568,90.232c1.046-1.24,1.837-.372.844.805-.966,1.146-1.5-.027-.844-.805m4.6-8.148c1.509-1.79,2.651-.538,1.218,1.161-1.394,1.654-2.166-.038-1.218-1.161m.323,3.718c1.509-1.79,2.651-.538,1.218,1.161-1.394,1.654-2.166-.038-1.218-1.161m3.982-.787c1.046-1.24,1.837-.373.844.805-.967,1.145-1.5-.027-.844-.805M86.792,79.14c1.046-1.24,1.837-.373.844.805-.966,1.146-1.5-.026-.844-.805m13.462-10.71c1.138-2.077,2.495-1.1,1.414.876-1.052,1.919-2.128.429-1.414-.876M111.1,54.154c1.509-1.79,2.651-.538,1.218,1.162-1.394,1.654-2.165-.038-1.218-1.162m-6.123,9.807c1.046-1.24,1.837-.373.844.8-.966,1.147-1.5-.026-.844-.8m-2.788,6.986c1.509-1.79,2.651-.538,1.218,1.162-1.394,1.654-2.166-.038-1.218-1.162m9.478-12.809c1.046-1.24,1.837-.373.844.805-.966,1.146-1.5-.027-.844-.805M97.978,72.856c1.509-1.79,2.651-.538,1.218,1.162-1.394,1.654-2.165-.038-1.218-1.162m13.146-8.812c1.509-1.79,2.651-.538,1.218,1.161-1.394,1.654-2.165-.038-1.218-1.161m-8.842,11.743c1.046-1.24,1.837-.373.844.805-.966,1.146-1.5-.027-.844-.805M96.6,69.913c1.046-1.24,1.837-.373.844.805-.966,1.146-1.5-.026-.844-.805M91.87,72.926c1.046-1.24,1.837-.373.844.805-.966,1.146-1.5-.027-.844-.805M84.388,85.112c1.046-1.24,1.837-.373.844.805-.966,1.146-1.5-.027-.844-.805" transform="translate(-52.001 -33.403)" fill="#fbebee" fill-rule="evenodd"/>
        <path id="Trazado_891233" data-name="Trazado 891233" d="M160.935,142.989c1.5-1.8,2.647-.557,1.226,1.153-1.383,1.664-2.165-.021-1.226-1.153m5.129.017c1.808-1.443,2.7.022.982,1.392-1.671,1.333-2.117-.487-.982-1.392m.327-3.42c1.253-1,1.87.015.68.964-1.158.924-1.467-.337-.68-.964m-4.016,6.274c1.808-1.443,2.7.023.982,1.392-1.671,1.333-2.117-.487-.982-1.392m3.515,1.17c1.253-1,1.87.015.68.964-1.158.924-1.467-.336-.68-.964m-8-.172c1.808-1.443,2.7.022.982,1.392-1.671,1.333-2.117-.486-.982-1.392m-.366,3.713c1.808-1.443,2.7.022.982,1.392-1.671,1.333-2.117-.487-.982-1.392m4.049.054c1.253-1,1.87.015.681.964-1.158.923-1.467-.337-.681-.964m-4.5-6.94c1.253-1,1.87.016.68.965-1.158.924-1.467-.337-.68-.965m15.167-7.711c1.5-1.8,2.647-.557,1.226,1.153-1.383,1.665-2.166-.021-1.226-1.153m5.129.017c1.808-1.442,2.7.022.982,1.392-1.671,1.333-2.117-.487-.982-1.392m.327-3.42c1.253-1,1.87.015.68.964-1.158.924-1.467-.337-.68-.964m-4.016,6.274c1.809-1.443,2.7.022.982,1.392-1.671,1.333-2.117-.486-.982-1.392m3.515,1.171c1.253-1,1.87.015.68.964-1.158.924-1.467-.337-.68-.964m-8-.173c1.808-1.443,2.7.022.982,1.392-1.671,1.333-2.117-.486-.982-1.392m-.365,3.713c1.808-1.443,2.7.022.982,1.392-1.671,1.333-2.117-.487-.982-1.392m4.05.054c1.253-1,1.87.015.68.964-1.158.923-1.467-.337-.68-.964m-4.5-6.94c1.253-1,1.87.015.68.964-1.158.924-1.467-.337-.68-.964m-5.192,1.974c1.253-1,1.87.015.68.964-1.158.924-1.467-.337-.68-.964m-9.573,10.4c1.253-1,1.87.016.68.964-1.158.924-1.467-.337-.68-.964" transform="translate(-106.994 -89.771)" fill="#e8c2c0" fill-rule="evenodd"/>
        <path id="Trazado_891234" data-name="Trazado 891234" d="M157.244,6.206c-1.106-.085-1.915.472-3.014.727-2.9.671-3.841-.46-7.565,1.708-.419.244-.976,1.617-1.292,1.949-.363.382-1.395-.28-2.017-.023-1.524.63-6.064,1.065-7.4,1.936-5.816,3.8-.429,1.766,3.5,1.467,2.813-.214,3.762-1.759,6.482-3.107.129-.064.965-.2,1.73-.332,2.077-.369,6.8-2.136,7.14-2.212a19.753,19.753,0,0,1,5.421-.342c1.8.321,1.786.063.438-.773a5.818,5.818,0,0,0-3.43-1" transform="translate(-93.173 -4.21)" fill="#f3afa9"/>
        <path id="Trazado_891235" data-name="Trazado 891235" d="M148.123,23.588a16.524,16.524,0,0,0-2.927.688c-.28.107-1.773.984-1.475,1.039.163.03,1.864-.252,2.217-.3,2.926-.4,6.024-1.572,2.185-1.426" transform="translate(-100.353 -16.014)" fill="#fffff7"/>
        <path id="Trazado_891236" data-name="Trazado 891236" d="M153.38,24.52c-.85.327-.284.274.209.207.18-.025,1.538-.15,1.689-.2.188-.06-.887-.4-1.9-.009" transform="translate(-106.821 -16.53)" fill="#fffff7" fill-rule="evenodd"/>
        <path id="Trazado_891237" data-name="Trazado 891237" d="M182.176,13.773c-1.667-.13-.075-.7.861-.871.341-.062,2.908-.649,3.2-.646.365,0-2.078,1.671-4.063,1.517" transform="translate(-126.73 -8.325)" fill="#fffff7" fill-rule="evenodd"/>
        <path id="Trazado_891238" data-name="Trazado 891238" d="M112.378,110.642c.259.3.115.884-.321,1.316s-1.794,1.319-2.053,1.024.681-1.66,1.117-2.092,1-.543,1.257-.248m18.15,11.4c.258.295.115.884-.321,1.316s-1,.543-1.257.248-.115-.885.321-1.316,1-.543,1.257-.247m-5.813,1.583c.258.3.115.884-.321,1.316s-1.795,1.319-2.053,1.024.681-1.661,1.117-2.093,1-.543,1.257-.248m.527-5.147c.258.3.115.884-.321,1.316s-1,.543-1.258.247-.114-.884.321-1.316,1-.543,1.257-.248m-8.858-3.929c.725,1.414-2.955,2.037-.846,3.208,1,.553-.808,1.268,1.8,2.064.8.245-.964,4.59,2.656,1.556,1.033-.866,2.884-1.972.869-3.191-1.384-.838-2.885,1.96-2.925-2.054-.009-.915-1.423-1.331-1.553-1.583m-2.576-.852c.258.3.115.884-.321,1.316s-1,.543-1.258.247-.115-.884.321-1.316,1-.542,1.257-.247" transform="translate(-76.8 -75.043)" fill="#fbebee" fill-rule="evenodd"/>
        <path id="Trazado_891239" data-name="Trazado 891239" d="M67.363.074A3.3,3.3,0,0,0,67.8.055a10.087,10.087,0,0,1,4.694.8c1.084.423,2.183.125,3.137.57a4.825,4.825,0,0,1,2.278,1.589,11.411,11.411,0,0,0,2.014,2,11.6,11.6,0,0,1,2.158,1.467C82.7,7.03,86.113,9.9,85.7,11.09a.3.3,0,0,0-.02.151c.188.814-.021,1.645.1,2.463.216,1.49-.427,5.755-.691,7.215-.856,4.731-1.719,6.159-2.913,10.042a11.206,11.206,0,0,1-.871,2.126c-.669,1.215-1.433,3.243-1.909,4.06a1.242,1.242,0,0,0-.135,1.3c.1,1.008.387,1.988.409,3.008.021.92-.219,1.089.115,1.3,3.148,2.018,6.109,3.538,9.32,5.333a2.773,2.773,0,0,0,2.387.208c1.14-.4,4.559-.262,5.75-.189,4.539.279,10.68,2.26,15.3,3.207,14.5,2.973,21.371.213,33.328-8.042.339-.234.666-.488.988-.749,1.133-.921,2.537-1.413,3.331-2.762.732-1.243,2.389-2.423,3.489-3.479a8.733,8.733,0,0,1,3.268-1.968c3.934-1.337,6.56-2.81,10.9-2.384,5.316.521,5.287-1.783,12.737.7.723.242,1.481.362,2.188.665a10.966,10.966,0,0,1,5.588,4.882c.6,1.109.444,1.683,1.046,2.7a3.767,3.767,0,0,1,.487,1.812c.046,1.288.073,2.576.107,3.864.022.844-.189,1.516-.2,2.306-.032,2.51-2.169,3.541-1.356,5.324,1.512,3.317.267,9.22-2.687,10.842-.99.544-2,1.044-3,1.566-.558.291-.981-.134-1.311.116a14.648,14.648,0,0,1-2.634,1.412c-3.038,1.458-4.586,1.317-7.9,1.238A46.213,46.213,0,0,1,160.2,67.975c-.615-.152-.834-.57-1.265-.4-1.483.577-3.036.918-4.509,1.527-9.685,4-19.819,17.662-27.221,25.007-.579.574-1.1,1.21-1.67,1.8-3.175,3.3-5.417,5.346-8.869,8.405a26.4,26.4,0,0,1-11.137,6.2c-9.015,2.325-18.563,4.291-27.8,2.008-5.021-1.241-8.872-5.787-10.766-6.408a13.6,13.6,0,0,1-5.153-3.1c-.543-.514-1.131-.968-1.63-1.542s-2.632-1.324-3.129-1.736a6.213,6.213,0,0,0-2.608-1.2,39.713,39.713,0,0,1-8.429-3.213A37.069,37.069,0,0,1,40.61,92.1a69.987,69.987,0,0,1-7.658-5.344c-1.894-1.621-3.087-1.436-5.514-4.41a19.829,19.829,0,0,0-3.869-3.653,48.358,48.358,0,0,1-4.922-4.66c-1.318-1.3-2.729-2.48-4.025-3.8a34.239,34.239,0,0,1-7.46-10.717,20.136,20.136,0,0,1-1.3-2.76,43.281,43.281,0,0,0-3.156-4.88C1.154,49.687.4,45.914.02,43.186a7.873,7.873,0,0,1,1.031-3.818c1.325-2.315,5.668-9.531,6.972-10.983,4.172-4.645,4.083-4.459,9.517-8.316A148.083,148.083,0,0,1,41.494,6.431a61.829,61.829,0,0,1,9.694-3.093.721.721,0,0,0,.229-.085C54.716.891,63.482.133,67.363.074M180.6,65.056c-.033-.066-.044-.123-.077-.148a18.136,18.136,0,0,1-2.619-3.1c-.824-1.23-.625-1.86-.831-3.024-.144-.815.2-1.353.048-1.89q-.166-1.143-.334-2.287c.124-.727-.759-1.783-.876-2.8a10.885,10.885,0,0,0-.422-1.04,19.617,19.617,0,0,0-1.285-2.83c-.349-.7-.562-1.464-.887-2.175a12.773,12.773,0,0,1-.777-4.845c.024-1.083.454-.815,1.066-2.434.52-1.374,1.263-1.051,1.358-1.656a1.056,1.056,0,0,1,.3-.522,3.622,3.622,0,0,1,2.747-1.2c.609-.029,1.2.855.345.875-.748.018-1,.449-1.568.637-1.495.5-1.843,2.379-2.761,3.521a3.351,3.351,0,0,0-.312,1.6,14.72,14.72,0,0,0,.872,3.672c-.062.747.986,1.977,1.378,2.847q.535,1.187,1.073,2.37c.281.622.192.994.416,1.578a10.331,10.331,0,0,1,.942,4.639c-.054.572.3.717.335,1.478a6.776,6.776,0,0,0,.538,3.113,11.131,11.131,0,0,0,2.577,2.987c.274.226.4-.065,1.157-.294a5.384,5.384,0,0,0,2.2-1.551c2.936-3.016.808-5.97.686-9.341-.042-1.172.474-1.807,1-2.9a5.221,5.221,0,0,0,.638-2.66c.116-.853.185-4.906-.271-5.673-.953-1.6-1.054-3.425-3.556-5.229-3.193-2.3-6.717-2.717-10.475-2.7-.8,0-3.324-.1-3.874.008-.484.09-1.079-.072-1.93-.038a16.838,16.838,0,0,0-5.04.874c-1.575.56-3.156,1.1-4.734,1.652-2.124.741-2.384,1.759-3.927,2.856-2.011,1.43-1.508,2.658-4.112,4.127a14.54,14.54,0,0,0-1.672,1.13,89.463,89.463,0,0,1-11.027,6.8,25.552,25.552,0,0,1-11.748,2.847c-.872-.021-1.743-.091-2.615-.121a67.76,67.76,0,0,1-9.09-.572c-5.991-1.027-11.83-3.409-17.977-3.173a9.922,9.922,0,0,0-1.3-.046c-.892.151-1.829-.059-2.709.173-1.853.49-2.476-.488-4.074-.922-1.667-.452-5.567-3.055-7.2-4.057a10.315,10.315,0,0,1-2.373-2.186,2.9,2.9,0,0,1-.37-1.673c.271-2.452-.554-3.185-.3-3.8a14.126,14.126,0,0,1,.652-1.5,4.459,4.459,0,0,0,.454-1.193c.859-3.76,4.191-8.908,4.909-14.412a45.254,45.254,0,0,0,.5-5.384,12.287,12.287,0,0,1,.214-2.759,2.577,2.577,0,0,0-.191-2.1,27.1,27.1,0,0,0-3.52-3.155,5.482,5.482,0,0,0-3.276-.7c-1.149.012-2.291-.115-3.436-.193-1.074-.073-1.459-.591-2.4-.763C70,5.6,68.935,5.536,67.9,5.259a12.313,12.313,0,0,0-1.975.177,33.2,33.2,0,0,1-4.055.368,52.342,52.342,0,0,0-5.744,1.67c-2,.6-3.441,1.966-5.314,2.84-.854.4-1.677,1.237-3.135,1.953-2.146,1.055-3.407,1.839-5.941,2.1-1.418.147-2.833.475-4.237.5a36.141,36.141,0,0,0-6.918,1.256,22.107,22.107,0,0,0-7.6,3.372c-.7.5-1.389,1.014-2.117,1.457-1.728,1.052-3.378,2.236-5.107,3.283a10.1,10.1,0,0,0-2.4,1.994c-3.844,3.25-3.392,2.952-6.167,7.05a33.071,33.071,0,0,0-3.865,7.252A10.157,10.157,0,0,0,2.673,42.8c-.109.923-.471,1.405-.288,2a25.944,25.944,0,0,1,.884,3.9c.008.9,1.68,3.055,2.217,3.686,1.991,2.337,2.968,6.239,4.191,7.754a.786.786,0,0,1,.154.258A24.631,24.631,0,0,0,11.453,63.2c1.088,2.141,3.9,5.044,5.519,6.758a55.475,55.475,0,0,0,7.072,6.112,26.816,26.816,0,0,1,2.278,1.754c1.789,1.672,2.978,3.733,4.441,5.027a27.3,27.3,0,0,0,6.285,4.438A13.247,13.247,0,0,1,39.97,89.11a64.213,64.213,0,0,0,5.823,3.812c1.218.751,2.517,1.336,3.782,1.992a1.838,1.838,0,0,0,1.223.39,11.656,11.656,0,0,1,2.531.877,9.64,9.64,0,0,0,2.17.868,5.314,5.314,0,0,1,1.9.762c1.006.686,3.9,1.992,4.5,2.62,3.5,3.688,6.461,3.967,7.752,5.055a29.436,29.436,0,0,0,5.523,3.807c.4.208.878.267,1.15.715.042.07.174.078.264.116,8.044,3.36,18.61.4,26.823-1.417,4.849-1.073,9.06-3.966,12.838-7.265a109.325,109.325,0,0,0,8.124-7.663c.628-.672,1.263-1.333,1.927-1.962,7.248-6.859,12.383-13.535,20.279-20.3a25.209,25.209,0,0,1,12.212-5.793c1.9-.305,2.122.273,3.538.4,2.177.2,4.688.885,6.777.9,6.953.06,5.346.427,11.5-1.976M29.844,14.977a62.026,62.026,0,0,1,6.8-1.085c2.13-.044,3.335-.458,5.014-.548,2.3-.122,4.339-1.337,6.35-2.4.812-.429,1.48-1.115,2.315-1.505C52.118,8.6,53.64,7.219,55.37,6.706q2.406-.713,4.817-1.4a10.488,10.488,0,0,1,2.3-.264,26.534,26.534,0,0,1,3.458-.489,6.334,6.334,0,0,1,3.12.063,1.616,1.616,0,0,0,.381.071c1.415.145,2.652.792,3.387.872a9.493,9.493,0,0,0,3.8-.088c.509-.2.146-.564.055-.923a1.513,1.513,0,0,0-.83-1.02c-2.743-1.358-3.454-.667-5.519-1.134-.42-.095-.879-.028-1.233-.372C67.454.4,55.554,3.37,53.817,4.379c-.484.281-7.9,2.433-9.719,3.22-4.391,1.9-9.93,4.944-14.253,7.377M87.672,93.831c-.034-.77.5-.719.956.094,1.28,2.272,2.214,4.222,3.718,6.4a43.759,43.759,0,0,0,4.561,6.009c.371.376,1.07,1.014.635,1.569-.627.8-2.019-.954-2.408-1.416a66.622,66.622,0,0,1-4.684-6.567c-.7-1.074-2.691-4.679-2.778-6.084M107.6,84.26c.344-.046.723.5.9.763a68.606,68.606,0,0,0,4.941,5.883c.644.634,2.124,1.939,2.624,2.6.41.544,2.467,1.974,2.411,2.467s-.273.627-.677.341a36.045,36.045,0,0,1-4.821-3.9,69.83,69.83,0,0,1-4.666-5.588c-.385-.536-.678-1.13-1.018-1.693-.2-.333-.132-.842.306-.876m-5.5,19.587a31.086,31.086,0,0,1-2.955-3.471c-.758-1.126-3.292-4.612-3.53-5.942-.14-.782.939-.791,1.434.138a64.671,64.671,0,0,0,3.615,5.415c1.124,1.68,3.282,2.992,2.888,3.994-.3.763-1.045.316-1.453-.134m15.938-30.475a.658.658,0,0,1,.542.333c2.9,4.4,6.749,6.839,9.039,10,.354.489-.124,1.341-.631.906-.376-.324-.8-.586-1.174-.91-3.96-3.421-4.454-4.663-7.736-8.768-.439-.55-.728-1.555-.04-1.562m-6.94,29.5c.069,1.479-2.418-.3-2.784-.739-.31-.376-.538-.343-.947-.77a71.317,71.317,0,0,1-5.2-7.111c-.2-.288-.468-.629-.163-.943.321-.332.659-.013.877.276a45.661,45.661,0,0,0,7.845,8.716.9.9,0,0,1,.369.571m-79.485-24.3c0-2.906,3.585-10.211,5.113-13.01.378-.693,1.189-.3,1.027.419a23.3,23.3,0,0,1-1.8,3.646,44.259,44.259,0,0,0-3.513,9.246c-.078.3-.177,1.047-.63.555-.2-.22-.182-.5-.2-.856m81.36,4.839c-.052-.727.655-.813,1.132-.193,1.769,2.3,5.532,6.908,8.341,8.279,1.1.54.509,1.719-.244,1.357a20.142,20.142,0,0,1-4.28-3.427c-.611-.846-2.558-2.276-2.931-3.063-.709-1.5-1.942-1.943-2.017-2.952M72.809,12.831A17.136,17.136,0,0,1,80.964,15.3c.342.244.756.187,1.46.662a.637.637,0,0,1-.559,1.142c-2.478-.975-8.867-4.717-11.289-2.748-.809.658-1.513-1.421,2.234-1.525M62.914,91.963a12.856,12.856,0,0,1-.012-1.7,2.238,2.238,0,0,0-.023-.668,8.456,8.456,0,0,1,.221-2.649c.108-.9,1.335-1.348.964,1.444a27.737,27.737,0,0,0,.356,6.969c.175,1.464.541,2.9.781,4.347.168,1.015-.945.626-1.176-.378a40.414,40.414,0,0,1-1.111-7.362M45.181,84.806c-.179-2.312,3.76-11.4,5.054-13.586.359-.607,1.046-.5,1,.178a22.883,22.883,0,0,1-1.314,2.4,59.27,59.27,0,0,0-3.592,9.95,11.207,11.207,0,0,0-.481,1.4c-.059.334-.622.72-.669-.34M79.045,98c.529.047.71.912.77,1.384a14.7,14.7,0,0,0,1.055,3.362c1.717,4.491,4.337,6.214,3.835,6.879-.305.4-.839-.074-1.079-.322a19.979,19.979,0,0,1-4.095-6.632,21.532,21.532,0,0,1-1.038-3.693c-.092-.428-.006-1,.551-.979m-29.4-6.527c-.005-2.205.323-.532.534-3.113a19.494,19.494,0,0,1,1.294-5.1c.117-.757,1.305-3.468,2.082-3.665,1.58-.4-.708,3.05-.773,3.424-.169.986-.885,2.129-1.28,4.209a26.326,26.326,0,0,1-.612,2.652c-.264.883-.169,1.713-.326,2.183-.2.593-.889.5-.936-.133.005-.151.011-.3.016-.455m20.612,4.663a51.6,51.6,0,0,0,2.792,8.608c.65,1.279-.706,1.485-1.123.415-1.288-3.3-2.612-6.567-2.931-10.249-.132-1.523.833-1.824,1.037-.939.187.813-.042,1.12.226,2.166m12.475-1.332c.022-.87.516-1,.727-.555.667,1.392,1.142,4.544,3.03,7.679a19.756,19.756,0,0,0,2.06,2.656c.338.235.826,1.143.174,1.3-.674.165-1.186-.673-1.585-1.156A18.583,18.583,0,0,1,83,96.011l-.265-1.2M35.035,77.45c.045-1.594,2.131-6.419,2.849-7.814.474-.921.825-1.9,1.324-2.809s1.452-.437,1.043.464a64.147,64.147,0,0,0-4.117,10.217c-.339,1.305-1.068.634-1.1-.059m97.32,6.22a.613.613,0,0,1-.92.595c-2.778-1.208-6.265-4.992-8.1-7.373-.612-.8-.119-1.25.372-1.051,1.127.455,8.628,7.276,8.647,7.83M45.211,75.58c.725-.026.625.681.461,1.164a53.069,53.069,0,0,0-2.615,8.889,15.3,15.3,0,0,1-.334,2.129c-.236.665-2.536,1.179,1.306-9.87.163-.468.6-2.327,1.182-2.312m80.069-1.406c-.037-.727.692-.707,1.15-.2,2.836,3.161,4.633,3.959,7.4,6.566.456.43.469.476.053.969-.287.339-.293.344-.694.137-2.98-1.543-5.426-4.379-7.638-6.888a.945.945,0,0,1-.274-.588M112.492,76.41a.577.577,0,0,1,.453.293,58.823,58.823,0,0,0,3.84,5.088,25.936,25.936,0,0,0,2.191,2.465c1.138.756.1,2.633-2.039-.313A23.554,23.554,0,0,0,115.346,82c-.951-1.055-2.032-2.786-2.513-3.263-.689-.682-1.271-2.249-.342-2.33M36.479,83.684c-.109-1.745,2.2-8.6,3.085-10.915.258-.672,1.143-.843,1.119-.01-.014.467-2.9,9.586-3.452,11.464a.349.349,0,0,1-.689-.03,4,4,0,0,1-.062-.51m103.438-9c.03.63-.565.92-1.384.291-1.31-1.005-6.091-5.068-6.456-6.4-.217-.792.6-.928,1.028-.42.74.88,6.8,6.159,6.812,6.532M72.935,25.131c3.087-.172,4.229.636,6.865,1.106.681.122,1.133,1.136.388,1.283a2.958,2.958,0,0,1-1.7.145c-.394-.168-.867-.171-1.138-.616a4.875,4.875,0,0,0-1.163-.316c-.71-.154-.631.064-.949,0a12.906,12.906,0,0,0-2.659-.137,3.663,3.663,0,0,1-1.163-.314c-.577-.184-.322-1.024.553-1.1.322-.028.645-.035.968-.051M16.027,64.241a.674.674,0,0,1-.652-.965c.527-1.354,4.245-7.106,5.164-7.61.337-.184.389-.7.8-.786.8-.17.506.89.245,1.269a12.383,12.383,0,0,1-1.451,1.863c-.919.9-1.074,1.771-2.127,3.113-.913,1.163-1.258,3.113-1.984,3.117m89.846,38.219a.432.432,0,0,1-.759.355,36.3,36.3,0,0,1-5.7-7.316c-1.258-2.128.077-2.477.543-1.506a45.5,45.5,0,0,0,2.977,4.5c.84,1.087,1.723,2.137,2.594,3.2a1.27,1.27,0,0,1,.35.769m-5.065,4.8a1.419,1.419,0,0,1-.893-.43,33.6,33.6,0,0,1-4.4-5.672c-1.234-1.821-.208-1.864.252-1.557.8.532,2.308,2.83,2.952,3.676.777,1.02,1.675,1.9,2.519,2.854.4.445.3,1.136-.428,1.129M54.929,94.974a21.891,21.891,0,0,1,.126-4.773,29.892,29.892,0,0,1,1.3-3.984c.185-.665,1.072-2.273,1.428-1.036.315,1.1-1.506,3.652-1.692,6.863-.06,1.028-.145,2.055-.164,3.086-.021,1.133-1.033.485-1-.155m-26.111-31.5c.059.654-2.451,4.394-3.379,7.446-.159.523-.331,1.041-.5,1.561-.278.842-1.263.457-1.056-.342a28.059,28.059,0,0,1,3.775-8.6c.445-.711,1.114-.845,1.162-.066M137.1,77.615c-2.559-.649-4.742-4.143-6.442-5.809-1.07-1.049-.806-2.208-.031-1.615,2.262,1.731,4.084,4.771,6.817,6.424.768.465.039,1.019-.344,1M155.8,56.438c.225-1.373,1.457.006,1.5.935.02.462,1.474,3.645,1.687,4.211.4,1.079,1.512,1.775,1.543,2.75.016.478-.282.7-.7.519a2.134,2.134,0,0,1-.72-.672,12.021,12.021,0,0,1-2.092-3.919,22.213,22.213,0,0,1-1.216-3.824m10.539,2.494c-.049-1.21,1.06-1,1.35-.457.172.321.239.887.44,1.305.273.569-.079.9.078,1.251.3.665.555,1.722,1.014,1.689a.682.682,0,0,1,.668.429c.283.566.918,1.264,1.051,1.6.338.863-.995,1.033-1.565.563-1.676-1.381-2.566-4.271-3.034-6.384m-94.1,32.883c.7-.039,2.025,8.921,2.892,10.753.372.785-.326,1.042-.7.4-1.625-2.8-2.2-7.139-2.64-10.454a.609.609,0,0,1,.446-.7M40.6,80.3c-.035-1.446,2.014-6.913,2.637-8.211.2-.426.787-2.417,1.556-1.844a.572.572,0,0,1,.141.774c-1.351,2.438-2.606,6.618-3.529,9.475-.2.605-.771.593-.806-.194M26.547,74.542c.031-1.37,2.818-8.5,3.685-9.279.537-.484,1.146.217.8.809a51.638,51.638,0,0,0-3.572,8.547c-.195.689-.916.719-.916-.077m47.386-52.7c1.532-.165,7.678.895,7.426,2.25-.183.987-1.882.318-2.258-.074a16.584,16.584,0,0,0-2.765-.729,39.285,39.285,0,0,0-3.989-.49c-.523-.081-.625-.815.617-.907.323-.024.646-.034.969-.05M152.592,65.12c-.04.581-.583,1.024-1.092.583-1.191-1.031-3.629-4.587-4.366-5.117-.342-.246-1.016-1.312-.55-1.719.565-.495,1.5.675,1.779,1.129a29.4,29.4,0,0,0,3.756,4.272.976.976,0,0,1,.473.852m-3.228,2.091a2.345,2.345,0,0,1-1.172-.669,65.022,65.022,0,0,1-4.754-6.557c-.19-.327-.394-1.23.279-1a1.38,1.38,0,0,1,.718.5c2.038,2.9,2.694,4.53,5.454,6.749.648.521-.226.959-.523.977m-34.447,7.18c.762-.1,2.795,3.918,4.889,5.787,1.887,1.684.086,2.259-.8,1.176-.957-1.166-1.82-2.413-2.765-3.588a7.4,7.4,0,0,1-1.743-2.746.482.482,0,0,1,.422-.628M17.288,48.983c.037.34-.52.769-.74,1a27.271,27.271,0,0,0-5.02,7.083c-.253.551-.715.285-.724-.208-.015-.818,1.068-2.475,1.455-3.164.676-1.2,1.643-2.16,2.387-3.3a14.373,14.373,0,0,1,1.417-1.613c.352-.4,1.172-.578,1.225.2m100.352,43.5c-.583.055-1.314-.709-1.658-1.124l-3.628-3.852a2.5,2.5,0,0,1-.911-1.786c.073-.62.661-.489.919-.1,1.134,1.726,3.009,3.1,4.353,4.676.138.162,2.513,2.113.925,2.182m-7.3.669c-1.3.073-4.087-4.162-4.913-5.175-1.272-1.56-.361-2.135.112-1.667a27.932,27.932,0,0,1,3.085,3.629c.4.543,3.288,3.242,1.717,3.213M45.376,20.333c.814-.024.5,1-.06,1.3a45.031,45.031,0,0,1-6.9,2.79c-.509.17-1.631.872-1.821.415-.107-.26.1-.4.225-.573a3.876,3.876,0,0,1,2.039-1.1c1.1-.361,2.113-.947,3.2-1.319,1.435-.489,2.642-1.374,3.317-1.513m7.483,68.4a16.364,16.364,0,0,1,1.863-6.492,9.939,9.939,0,0,0,.635-1.331c.274-.784,1.278-.547,1.1.32-.232,1.134-2.2,3.912-2.472,7.371-.1,1.312-1.072,1.358-1.126.131M19.452,68.8c-.573.033-.676-.545-.328-1.2.6-1.131,1.29-3.186,2.145-4.07.414-.429,1.69-3.641,2.656-2.779.4.355.1.85-.182,1.153-.407.44-.184.752-.581,1.032a2.03,2.03,0,0,0-.562.7c-.839,1.474-1.841,2.492-2.275,4.226-.119.478-.348.913-.872.942M154.057,65.21c-1.414-.1-3.581-4.855-4.329-6.059-.517-.832.67-1.561,1.239-.423.717,1.433,3.641,5.368,3.714,5.7a.653.653,0,0,1-.624.782M127.681,87.836c.05.744-.638.824-1.1.5-.7-.5-1.388-1.006-2.086-1.5-.93-.662-1.862-1.95-2.6-2.392-1.222-.735-.074-1.962.944-1.1,1.046.882,1.93,1.917,3.055,2.7a.628.628,0,0,1,.193.152c.461.766,1.539.979,1.585,1.646M57.589,94.547a16.11,16.11,0,0,1,1.391-6.666c.261-.453.747-.334.815.177a7.452,7.452,0,0,1-.48,2.86,9,9,0,0,0-.411,3.994c.182,1-1.177,2.76-1.315-.366m85.433-22.781c-1.475-.008-4.96-4.325-5.665-5.687-.327-.63.25-1.491.737-.875a28.068,28.068,0,0,0,5.362,5.8c.469.38,0,.752-.434.762M171.66,60.529c-.186.876,1.7,3.115,1.983,3.756.413.921-.509,1.251-.979.876-.934-.746-.912-1.144-1.394-2.062-2.944-5.617-.384-5.246.032-3.971a3.47,3.47,0,0,1,.357,1.4M113.571,101.3c.032,1.183-1.327.272-1.692-.088-1.1-1.084-2.205-2.166-3.292-3.266-1.637-1.659-.952-2.6-.4-2.2a11.474,11.474,0,0,1,1.561,1.532c1.092,1.17,2.288,2.22,3.417,3.348a1.106,1.106,0,0,1,.409.675M49.6,80.248a19.769,19.769,0,0,1,1.393-3.937,18.9,18.9,0,0,1,2.055-3.891c.443-.676,1.138-.31.784.462A14.1,14.1,0,0,1,53,74.622c-.657,1.031-2.217,5.576-2.45,5.932a.521.521,0,0,1-.95-.307m27.6-35c.34.064,1.032.05.816.486-.418.845-1.567.826-2.153,1.376A20.251,20.251,0,0,1,73.5,49.065c-1.46,1-2.114,2.31-2.539,2.516a.427.427,0,0,1-.571-.6c.835-1.509,1.954-2.168,3.091-3.305a8.691,8.691,0,0,1,2.55-1.842c.386-.174.73-.587,1.173-.585m48.732,45.049c.041.87-.844.759-1.308.433a21.393,21.393,0,0,1-2.652-1.986,27.926,27.926,0,0,1-2.464-2.24c-.449-.551.126-1.292.7-.805.468.4.713.171,1.319.812a18.66,18.66,0,0,0,4.006,3.215.663.663,0,0,1,.4.572M59.385,9.981c1.491.143,2.8-.473,4.251-.149,1.421.318-.415,2.322-1.049,1.377a.494.494,0,0,0-.53-.249c-2.022.232-4.413.66-6.281.779-.794.051-.559-.884.019-.957,1.188-.152,2.427-.571,3.59-.8M66.746,90.2a26.455,26.455,0,0,0,1.046,6.467c.075.268.164.563-.12.731-.764.451-1.448-2.529-1.526-2.864a21.859,21.859,0,0,1-.531-5.46.543.543,0,1,1,1.081-.006c.019.378.034.755.051,1.133M76.7,42.85c.031.4-.322.513-.631.516a11.6,11.6,0,0,0-2.753.522,5.708,5.708,0,0,0-2.2.882c-.7.392-.473.026-1.432.695-1.065.743-.713-.712.1-1.329a6.491,6.491,0,0,1,2.3-1.174c1.327-.344,2.385-.622,3.73-.858a.723.723,0,0,1,.892.747M71.86,32.828a11.581,11.581,0,0,0-3.491.468c-1.657.575-1.112-1.032.708-1.448a20.911,20.911,0,0,1,4.755-.559c1.132-.037,1.34,1.376-.085,1.446l-1.888.093M111.694,94c.55-.092,2.268,1.784,2.668,2.176.938.922,1.974,1.295,2.365,1.931.357.581-.082,1.249-1.218.646a17.172,17.172,0,0,1-3.866-3.306c-.634-.636-.63-1.389.051-1.448M81.746,56.938c.016-2.154,1.579-4.992,2.519-6.827.676-1.319,1.581-.537,1.17.184a25.469,25.469,0,0,0-2.609,6.125,11.766,11.766,0,0,1-.322,1.134c-.277.746-.938-.1-.758-.616M7.361,51.65c-.1-1.673,3.5-6.128,4.657-7.08.563-.462,1.33.148.564.948A30.541,30.541,0,0,0,8.2,51.468c-.149.245-.346.733-.694.582-.171-.074-.139-.249-.146-.4m133.294,9.327c-.064-.968.861-.938,1.349-.133A48.115,48.115,0,0,0,145.533,66c.476.452.055,1.463-.919.4a33.361,33.361,0,0,1-3.788-5.006.878.878,0,0,1-.171-.424m34.212-3.013c-.064.487-.2.429-.069,1.019.2.919.939,2.9.9,3.306-.089.848-1.2.552-1.45-.054-.147-.358-.5-.784-.33-1.2.186-.452-.586-1.99-.6-4.184-.01-1.114,1.419-1.367,1.556,1.111M77.137,10.631c1.052.444.711,1.56-.333,1.14-3.01-1.21-4.242-.444-6.158-.8-.473-.089-.452-.811.392-.928a11.016,11.016,0,0,1,6.1.591M39.266,26.6c-.787.413-1.081-.773,0-1.021a33.75,33.75,0,0,0,5.3-2.093c.972-.463,1.251.193,1.013.64-.851,1.6-5.423,2-6.32,2.474m67.545,68.5c-.539.034-.919-.632-1.224-1.013a27.01,27.01,0,0,1-2.537-3.379c-.536-.941.164-1.64.812-.783.8,1.059,1.748,1.979,2.544,3.043a11.121,11.121,0,0,0,.783.983.656.656,0,0,1-.377,1.149m-18.3,5.1c.683,0,.929.809,1.134,1.37.548,1.494,1.938,2.559,2.585,3.77.355.663-.136,1.1-.732.763a25.321,25.321,0,0,1-3.218-4.3c-.4-.822-.348-1.628.23-1.6M87.594,58.3a27.358,27.358,0,0,1,.349-3.2c.076-.494.829-3.879,1.849-3.346.776.406-.439,1.716-.723,3.63-.158,1.068-.343,2.133-.514,3.2-.1.6-.716.862-.961-.281m-11,40.248c.03.649-.678,1.028-1.318-.357-1.183-2.56-.822-3.195-1.191-4.8-.231-1.007.607-1.724,1.094-.876.212.369.08,2.867,1.2,5.435.095.217.162.448.217.6M73.45,15.585a3.569,3.569,0,0,1,1.056.162c.615.244,1.743.026,3.16.893.51.312.753,0,1.473.591a.536.536,0,0,1-.255.977,2.862,2.862,0,0,1-1.452-.277c-.546-.768-2.907-.865-3.781-1.042-.63-.129-.813-.428-.682-1.1.047-.242.28-.191.48-.2M69.064,85.772c-.006,1.087-.142,4.213.343,5.155.4.783-.477,1.849-.964.5-.674-1.872-.335-4.287-.466-6.238-.071-1.063,1-1.256,1.034-.6.022.395.036.789.053,1.184M145.173,69.83c-1.428.066-3.946-3.269-4.575-4.468-.454-.866.319-1.333.924-.578.843,1.05,4.512,4.771,3.651,5.046m-103.941.554a12.3,12.3,0,0,1,1.811-4.18c.28-.437.711-1.639,1.371-1.345.821.366-.162,1.676-.428,2.13-.59,1.009-1.07,2.08-1.56,3.145-.176.382-.412,1.063-.9.891-.206-.073-.3-.25-.3-.642M6.623,41.573a.794.794,0,0,1,.183-.537c.457-.665,2.719-4.056,3.422-4.365.465-.2,1.154.335.495,1.146-.9,1.1-1.772,2.222-2.576,3.4-.663.976-1.464,1.318-1.524.352m72.941,5.364a.67.67,0,0,1-.241.536c-2.1,1.637-3.374,4.419-3.9,4.134-1.018-.555.62-2.329,1.095-3.2a.344.344,0,0,1,.122-.153c.7-.307,1.843-2.567,2.719-1.718a.728.728,0,0,1,.2.4m4.269,56.707c.676-.077,1.591,2.385,2.671,3.584a15.943,15.943,0,0,0,1.649,1.585c.588.489-.109,1.052-.932.519-1.742-1.127-2.48-2.763-3.546-4.48-.235-.377-.553-1.162.159-1.208m11.215-5.524c.013.871-.9.786-1.37-.01a20.675,20.675,0,0,1-2.136-4.08c-.134-.8.662-1.124,1.164-.247a32.551,32.551,0,0,1,2.341,4.337M84.85,93.94c.039-1.241.822-1.1,1.1-.192a13.979,13.979,0,0,0,1.67,3.7c.921,1.576-.214,2.249-.906.914-.642-1.237-1.772-3.072-1.866-4.419M70.523,87.985c.018-.762-.066-3.032.067-3.6.187-.8,1.076-.053,1.021.679a21.5,21.5,0,0,0,.231,4.266c.06.487.444.99-.142,1.327-1.035.593-1.184-2.1-1.177-2.666M61.96,92.714a22.944,22.944,0,0,0,.3,5.02.482.482,0,0,1-.888.371,12.656,12.656,0,0,1-.638-3.622c-.215-3.171,1.176-2.9,1.226-1.769m73.282-13.362c-.743-.072-3.845-2.532-4.105-3.353-.22-.69.536-.994,1.283-.308a14.346,14.346,0,0,0,3.106,2.417.67.67,0,0,1-.284,1.244M80.447,48.03c.543-.06.672.534.312,1.1-.916,1.444-1.835,2.178-2.643,3.936-.464,1.008-1.156.607-1.06-.022.223-1.454,1.925-3.42,2.784-4.541a1.112,1.112,0,0,1,.606-.475M28.816,76.672l.732-3.261c.492-2.011,1.7-2.066,1.778-1.287.068.655-.351.689-.63,1.911-.167.733-.363,1.458-.556,2.184-.337,1.268-1.285,1.524-1.323.454M71.562,18.16a22.069,22.069,0,0,1,2.69.092c1.4.07,2.028,1.53,1.049,1.583-.5.027-.565-.349-1.577-.414L70.2,19.231c-.539.022-.562-.73-.09-.9a5.288,5.288,0,0,1,1.454-.176m96.3,47.515c-1.306-.018-3.4-2.057-4.046-3.134-.588-.975.6-1.32,1.137-.568.445.627,1.069.916,1.522,1.645.3.489,1.99,1.352,1.762,1.894-.076.182-.236.149-.376.163M171.9,39.167a13.048,13.048,0,0,0-.137,3.608,2.738,2.738,0,0,1-.22,1.1c-.125.46-.773.343-.925-.034-.393-.967-.106-.975-.158-1.663a17.341,17.341,0,0,1,.257-3.225c.247-.849,1.191-.677,1.184.217M77.313,19.62a10.619,10.619,0,0,1,4.748,1.613.587.587,0,0,1-.682.95c-1.3-.718-4.229-1.574-4.659-1.881a.36.36,0,0,1,.109-.655,4.836,4.836,0,0,1,.483-.028M57.432,21.367a.845.845,0,0,1-.145.006c-2.093-.206-3.218,1.661-3.741.66-.424-.815,1.46-1.456,1.943-1.65a15.756,15.756,0,0,1,2.352-.277c.486-.1,1.305.016,1.261.685s-.906.531-1.671.569v.006M161.018,55.891c0-.955.731-.715,1.005,0,.487,1.273,1.028,2.52,1.569,3.767.409.94-.71,1.964-1.491-.207a15.192,15.192,0,0,1-1.083-3.562M58.261,14.7c1.4-.2,1.785,1.088-.51,1.114a19.646,19.646,0,0,0-4.232,1.247c-.521.221-1.07-.71.3-1.235A26.574,26.574,0,0,1,58.261,14.7M44.84,28.055c3.225-.07-3.7,2.95-4.3,3.155-.62.214-.774-.775.582-1.442a32.384,32.384,0,0,1,3.716-1.713M46.159,73.07a10.309,10.309,0,0,1,1.588-3.764c.649-.953,1.418-.132,1.179.422a17.267,17.267,0,0,0-1.443,3.134c-.46,1.485-1.339.768-1.324.208m91.776-3.511a.533.533,0,0,1-.88.467,8.265,8.265,0,0,1-.992-.906,12.492,12.492,0,0,1-2.073-2.771c-.2-.626.342-1.018.8-.518.7.773,1.362,1.667,2.065,2.462.292.331,1.063.795,1.085,1.267m34.99-17.973c-.048-1.09.721-1.312,1.019-.548a17.1,17.1,0,0,0,.775,1.72c.29.553-.1.478-.035,1.285.036.488.17,1.319-.443,1.472-.473.117-.795-.514-.793-.955a10.58,10.58,0,0,0-.524-2.973M63.941,85.854c-.7.021-.484-.75-.586-1.249-.315-1.55.795-4.555,1.4-3.4.214.407.548.886.223,1.321-.732.982-.03,3.419-1.038,3.331M167.323,41.238a13.046,13.046,0,0,1,.162-1.876c.151-.688-.374-1.4.495-1.59,1.741-.39.34,1.621.646,3.475.267,1.617-1.284,1.854-1.3-.008M84.379,59.681c0-.795.238-1.612.305-2.445a7.016,7.016,0,0,1,.584-2.166c.432-1.029,1.484-.573,1.027.463-.537,1.215-.51,2.45-1.012,3.7-.2.485-.166,1-.524,1.013-.249.01-.367-.267-.38-.56M72.349,41.413c-.267.013-.542.038-.66-.277-.423-1.131,3.3-1.729,3.966-1.583.366.08.737.177.7.673-.062.928-1.519.439-3.343,1.072a2.138,2.138,0,0,1-.666.116m9.744-27.16c-.5.077-1.765-1.127-2.819-1.328-1.009-.192-1.016-1.342-.213-1.32,1.124.031,3.245,1.04,3.534,1.845.172.481,0,.776-.5.8m48.279,59.581c.057.834-.837.73-1.25.352s-2.833-2.462-2.1-3.254c.309-.336.831.025,1.056.3.62.751,2.262,2.091,2.295,2.606M72.765,28.55c.468.009,3.451-.062,3.313,1.04-.132,1.062-1.628.316-2.8.368a8.721,8.721,0,0,1-1.274-.271c-.413-.042-.768-1.129.76-1.138m-41,40.685a12.2,12.2,0,0,1,.926-2.613c.577-1.429,1.876-1.039,1.412.088A23.656,23.656,0,0,1,32.835,69.6c-.407.615-1.047.367-1.073-.366m41.173-35.2a25.136,25.136,0,0,1,3.363.2c.856.22.423,1.223-.142,1.21-1.326-.03-1.058-.381-2.663-.417-.516-.012-1.032,0-1.549-.018-.7-.019-.765-.713-.076-.83.366-.063.735-.1,1.066-.147M57.081,17.422l2.268.141a.6.6,0,0,1-.089,1.191,10.623,10.623,0,0,0-2.98.031c-1.435.4-1.128-1.012-.2-1.219l1-.143M11.779,49.94c-.067-.945,1.584-3.236,2.346-3.562a.581.581,0,0,1,.684.877c-.566.807-1.065.859-1.752,2.236-.815,1.634-1.272.725-1.278.449M49.663,82.313a.9.9,0,0,1-.066.351,23.517,23.517,0,0,0-.919,3.729c-.153.909-1.046.646-.965-.152a15.515,15.515,0,0,1,1.062-4.255.49.49,0,0,1,.889.326M78.1,103.424c.052.78-.645,1.028-.979.482a9.709,9.709,0,0,1-1.313-3.28.585.585,0,0,1,1.146-.213c.327,1.094.905,2.141,1.146,3.011M74.347,38.107c-.8-.025-1.424.176-2.174.209-.832.038-1.01-.794-.187-1.06a6.7,6.7,0,0,1,2.951-.363c.356.128.9-.171,1.023.428.171.822-1.162.763-1.613.786M156.5,41.45c-.005-.511.074-3.949,1.206-3.506.647.253.3,1.063.164,1.577-.235.9-.333,1.924-.6,2.754-.188.575-.892.322-.766-.825M12.093,30.813c-.063-.74,2.028-2.847,2.9-2.8.761.039.444.9,0,1.154-1.124.658-1.406,1.654-2.174,2.082a.481.481,0,0,1-.732-.434m80.8,24.83a25.343,25.343,0,0,1,.554-2.84c.268-1.521,1.4-1.064,1.212-.346-.336,1.254-.568,2.537-.958,3.775-.161.51-.787.409-.807-.589m29.619,18.673c.036.585-.435.976-.908.636-.636-.457-1.849-2.2-1.723-2.983.114-.713.828-.592,1.141.04.677,1.372,1.525,1.9,1.49,2.307m-45.74-18.9c0,.805-.735,1.967-1.071,3.289-.237.936-1.158.615-.83-.895.5-2.279.624-1.506.9-2.524.145-.528.986-.738,1,.13M139.259,70.9c.374-.036.916.652,1.147.925.546.646,1.475,1.18.949,1.866-.669.872-2.461-1.4-2.664-1.854a.639.639,0,0,1,.569-.936M18.32,55.228a.509.509,0,0,1,.346.828q-.854,1.179-1.71,2.356c-.615.842-1.333.2-.909-.53s1.384-2.585,2.273-2.654M5.746,48.222c-.021-.7,1.106-2.992,1.829-3.1.654-.1.907.685.468,1.138-.673.7-.942,2.013-1.728,2.35-.308.132-.554-.04-.569-.387m13.2,14.621c-.062-.48,1.356-2.475,1.673-2.855a.56.56,0,1,1,.912.65A19.179,19.179,0,0,1,19.6,63.275a.457.457,0,0,1-.662-.432M96.516,77.217c-.814-.014-1.361-2.007-1.579-2.674-.156-.48.25-1.264.736-.768.847.862.64,1.333,1.25,2.568.191.387.119.857-.408.875M11.681,41.245a1.214,1.214,0,0,1-.364.728,26.034,26.034,0,0,0-1.844,2.3c-.391.378-.911-.035-.574-.734S10.421,41,11.137,40.777c.317-.1.556.091.543.468m67.894,65.191c.592,1.258,2.006,2.662,1.417,3.173-.362.315-.82-.195-1.029-.491a7.569,7.569,0,0,1-1.349-2.292c-.135-.758.657-1.036.96-.39M44.352,34.568c-.714-.042-.678-.822.084-1.175.44-.2,2.336-1.141,2.668-1.2.391-.068.6.416.385.732a14.214,14.214,0,0,1-1.85,1.209,3.269,3.269,0,0,1-1.288.433m30.586,70.5c.008-.919.729-1.119,1.131.105a6.818,6.818,0,0,0,1,2.155.459.459,0,0,1-.581.7,4.524,4.524,0,0,1-1.551-2.965M103.27,74.176c.482.014.918.7,1.065,1.134.265.776.683.885.609,1.355-.134.863-1.126.585-1.6-.23-.23-.394-.424-.81-.647-1.207a.717.717,0,0,1,.574-1.052M33.556,19.415c.63-.055.625.544.2.823a13.482,13.482,0,0,1-2.209,1.387c-.388.158-1.218.835-1.509.278-.245-.468.729-.924,1-1.052.927-.434,2.025-1.355,2.518-1.436M68.085,30.528c-1.026.091-.978-.716.42-1.226,3.288-1.2,2.8.5,2.241.669Zm56.95,41.6c.03.5-.594.994-1.229.1-.378-.532-1.843-2.155-1.029-2.661a.442.442,0,0,1,.637.171c.312.487,1.624,1.841,1.621,2.388M98.713,88.712c0-.85.791-.921,1.1-.265.275.586,1.464,2.295.7,2.74-.823.479-1.786-1.978-1.8-2.475M42.807,19.492c.283-.007.561.394.254.608a17.314,17.314,0,0,1-3.2,1.433c-.3.1-.851.539-1.11.164s.316-.77.6-.865a21.983,21.983,0,0,0,2.923-1.213,1.159,1.159,0,0,1,.53-.127M99.2,84.468c-.05-.52.48-.869.864-.522.265.239,2.2,3.031,1.048,3.064-.645.018-.847-.442-1.146-.981a6.6,6.6,0,0,1-.766-1.561m-25.43-1.7c.022.5.226,1.422-.307,1.577-1.052.307-.973-2.185-.9-2.785.11-.928,1.047-.917,1.155-.026.049.407.043.822.062,1.233H73.77M82.9,48.387c.59-.036.658.6.324,1.088-.426.617-.991,1.733-1.109,1.868a.547.547,0,0,1-.933-.54c.2-.645.971-2.367,1.718-2.415M34.491,25.68c-.2,1.045-1.022.771-2.223,1.62-1.407.995-1.228-.773.152-1.467.437-.22.893-.4,1.345-.576a.527.527,0,0,1,.726.423m6.8,7.525c-.654.039-.674-.759-.124-1a10.278,10.278,0,0,1,2.472-1.121.509.509,0,0,1,.315.933,10.634,10.634,0,0,1-2.663,1.19m7.3-13.157c-.694.057-.888-.609.385-1.26a7.506,7.506,0,0,0,1.278-.723c.839-.659,1.762.189,1,.7a9.163,9.163,0,0,1-2.668,1.287M98.281,54.29c-.217-2.652,1.615-2.746,1.4-1.769a15.3,15.3,0,0,0-.328,2.334c-.078.822-.935.665-1.043.052a4.9,4.9,0,0,1-.033-.617M67.634,99.551c-.023-1.01,1.1-.917,1.255.713.095.983.63,2.055.125,2.269-.915.387-1.257-2.4-1.38-2.982m115.9-39.785c-.381-.043-.525-.543-.47-.89.158-.989-.508-2.814.4-2.855,1.006-.046.817,3.829.072,3.746M57.808,12.785c.746-.142.89.5.12.746-.912.288-1.824.574-2.739.85a.5.5,0,0,1-.307-.95,10.7,10.7,0,0,1,2.926-.646M98.095,91.743c.037.681-.619.653-1.071.169a9.162,9.162,0,0,1-1-1.48c-.375-.6.4-1.291.882-.819a4.35,4.35,0,0,1,1.192,2.13m78.828-50.2c-.219.79-.076,2.629-.6,2.711-1.106.174-.929-3.394-.008-3.347.279.015.665.285.611.635M77.073,93.853c-.13-1.138.989-1.164,1.156-.184a9.12,9.12,0,0,1,.354,2.157c-.149.625-.768.485-.981-.008a7.593,7.593,0,0,1-.53-1.964m-65.9-41.884a15.77,15.77,0,0,1-1.22,2.3.515.515,0,1,1-.927-.45,14.8,14.8,0,0,1,1.125-2.1c.274-.428,1-.429,1.022.245m12.9,12.164a7.922,7.922,0,0,1,1.853-2.647.468.468,0,0,1,.592.655,28.449,28.449,0,0,1-1.778,2.444c-.33.3-.661.058-.667-.451m56.83-11.065a8.344,8.344,0,0,1-.934,2.365c-.164.345-.3.385-.622.257-.533-.209-.428-.6-.232-1.042a9.837,9.837,0,0,1,.939-1.907c.389-.3.772-.173.85.327m2.364,48.525c.035.6-.728.985-.948.306-.514-1.588-1.409-2.794-1.226-3.031a.586.586,0,0,1,1,.193c.37.964,1.164,2.168,1.179,2.532M14.345,56.148c.489-.028.649.581.412.969a24.283,24.283,0,0,1-1.371,2.169c-.355.344-.665-.1-.557-.492.156-.571.715-2.6,1.516-2.645m86.605,22.79c.07.784-.628.968-.941.408a12.5,12.5,0,0,1-.888-1.764c-.287-.781.6-1.265,1.024-.564a6.278,6.278,0,0,1,.806,1.92m54.234-16.791a.492.492,0,0,1,.76-.474,19.872,19.872,0,0,1,1.371,1.583c.464.439-.05,2.664-2.024-.761a.716.716,0,0,1-.106-.348m-.894-3.76c.637.012.6,1.127,1.074,1.758.626.841-.429,1.592-.969.807-.341-.5-1.31-2.518-.1-2.565m6.938,4c-.067-.64.592-.8,1-.305a11.243,11.243,0,0,1,1.571,2.142c.148.467-.292.486-.571.317-.5-.3-1.969-1.482-2-2.154m-92.26-2.41a2.92,2.92,0,0,1,.914-1.812c.515-.618,1.579.111,1.047.929-.308.473-.786.6-1.027,1.2-.161.4-.906.492-.934-.316m34.322,12.535c.063.833-1.331,1.044-1.93-1.389-.174-.705.878-1.133,1.273-.147a7.358,7.358,0,0,1,.657,1.536M64.4,67.1a.633.633,0,0,1,.462,1.027c-.493.653-.679,2.062-1.406,1.786-.972-.369.272-2.8.944-2.813m22.891,7.223c-.128-1.508,1.057-1.554,1.16-.5.083.847.453,1.6.3,1.9-.556,1.1-1.447-.19-1.46-1.4m3.393-20.086a4.385,4.385,0,0,1,.712-2.423c.48-.525,1.121.205.807.653-.628.9-.445,2.637-1.153,2.538-.351-.049-.352-.421-.367-.768M36.378,20.252c.755-.049.686.827-.049.962-1.229.224-2,1.7-2.5,1.011a.5.5,0,0,1,.043-.613,4.387,4.387,0,0,1,2.5-1.36M83.416,63.634c-.032-.6.3-1.995,1.084-1.683s.223,1.312.215,2.034a.618.618,0,0,1-1.214.152,3.574,3.574,0,0,1-.085-.5m-30.98,29c-.176-2.591,1.4-2.308,1.2-1.314s.049,2.542-.71,2.506c-.537-.026-.471-.745-.491-1.192M85.227,82.252c-.041-.6.591-.961.981-.5,1.7,1.994.176,3-.218,2.2a5.93,5.93,0,0,1-.762-1.7M39.481,85.16c-.138-1.9,1.412-2.616,1.318-.969-.024.428-.067.853-.074,1.283-.013.813-1.184,1.064-1.245-.314M59.66,81.918c.016.368-.5,2.7-1.348,2.25-.8-.422.143-2.025.4-2.472a.509.509,0,0,1,.951.222m7.293,2.552c-.052.438-.1.983-.189,1.52a.587.587,0,1,1-1.166-.14c.019-.464.028-2.335.872-2.166.283.057.457.306.484.786m1.9-42.151c.651-.012.6.791-.045,1.089a14.016,14.016,0,0,0-1.671.922c-.65.418-1.087-.421-.282-.988a7.14,7.14,0,0,1,2-1.023m20.974,49.5c-.546.029-1.81-1.489-1.436-2.113.645-1.08,1.868.958,1.947,1.449a.557.557,0,0,1-.511.664M155.549,41.3a3.714,3.714,0,0,1-.416,1.811c-.382.561-.9.02-.868-.5.031-.479.056-.958.09-1.436.068-.965,1.188-.927,1.194.122M45.6,16.453c.761-.07.921.706.477.861a20.358,20.358,0,0,0-2.05.894c-.655.315-.932-.747-.3-1.011Zm30.824,65.38c-.013-2.112,1.439-1.5,1.311-.644-.092.615.293,1.823-.581,1.838-.6.01-.689-.7-.729-1.194M52.364,40.3a.588.588,0,0,1-.52-.917c1.657-2.225,2.661-.916,1.938-.209-.336.328-.955,1.075-1.418,1.126m16.673-19.15c1.511-.155,1.666,1.315.717,1.336-.5.011-1,0-1.5-.032a.587.587,0,0,1-.15-1.127,2.55,2.55,0,0,1,.934-.176M81.261,95.8c.025,1.085-1.332,1.481-1.451-1.353A.541.541,0,0,1,80.88,94.3c.151.539.276,1.087.382,1.508M63.894,77.132c-.611,3.05-1.723,2.2-1.524,1.326a6.4,6.4,0,0,1,.538-1.739c.392-.475.971-.182.986.413m43.827-.725c-.048-.717.734-.808,1.046-.223.3.555.785.665.934,1.019a.613.613,0,0,1-.622.866,2.13,2.13,0,0,1-1.359-1.662M83.107,91.851c.039.341.135.73-.251.947-.489.276-.891-.463-.974-.982-.046-.286-.056-.577-.106-.864-.149-.87,1.193-1.118,1.3.282.013.17.016.342.028.617M98.395,72.542c.629,0,.7.945,1.01,1.393.407.588-1.215,2.4-1.565-.776a.556.556,0,0,1,.555-.617m74.342-24.9c0,.59-.662.814-1.093.176-1.479-2.192.076-2.366.343-1.909a5.754,5.754,0,0,1,.75,1.733M40.837,18.213c.64-.047.722.561.046.981a8.079,8.079,0,0,1-1.8.748.48.48,0,1,1-.289-.914c.5-.183,1.7-.736,2.042-.815m14.4,6.025c-.035-.746,2.21-1.777,2.5-1,.277.747-1.145,1.144-1.849,1.422a.441.441,0,0,1-.649-.422m-.67,52.881c.021-.614.791-2.474,1.556-1.748.454.432-.067,1.147-.557,2.05-.286.529-.968.265-1-.3M21.9,33.467c.409.012.764.583.4.882a8.561,8.561,0,0,1-1.829,1.225c-.377.17-.731-.369-.451-.668A5.424,5.424,0,0,1,21.9,33.467M93.016,60.311a5.108,5.108,0,0,1-.277,1.588c-.214.66-1.011.158-.934-.421a8.866,8.866,0,0,0,.041-1.429c-.02-.692.967-.979,1.17.262M46.657,65.622c.09-.69.861-2.164,1.571-1.547.527.458-.042,1.13-.468,1.829a.577.577,0,0,1-1.1-.282m23.992-50.1c.307-.016.884-.1.947.384.1.778-1.456.6-2.242.784-.839.2-.91-.885.02-1a8.079,8.079,0,0,1,1.275-.163m81.531,39.892a.57.57,0,0,1,1.1-.3c1.241,2.318-.349,2.2-.618,1.723a4.438,4.438,0,0,1-.48-1.426M72.171,46.945c-.051.532-.95,1.133-1.334,1.469-.483.422-.963-.2-.8-.553.75-1.61,1.949-1.74,2.134-.916M28.954,21.186c.079.639-.9.673-1.923,1.4-.838.6-.92-.5-.134-1.086.328-.246,1.964-1.2,2.057-.314m27.6,50.99c-.1.576-.786,2.221-1.552,1.523-.528-.479.239-1.439.552-1.924s1.019-.137,1,.4M163.979,57.255c-.76-.9-.795-2.3-.074-2.333.681-.035.479.84.916,1.587.306.522-.382,1.288-.842.745M40.586,50.278c.7-.048.442.751.044,1.09a16.551,16.551,0,0,0-1.189,1.275c-.8.762-1.032-.911.83-2.247a.607.607,0,0,1,.314-.118M44.53,26.544c0,.628-1.658,1.356-2.1,1.4-.489.05-.831-.692.062-1.088.442-.2,1.941-1.253,2.043-.314M102.3,53.15c-.1.628-.128,1.731-.8,1.748-.275.007-.561-.353-.559-.668.01-2.394,1.339-1.971,1.36-1.079M71.032,62.413c.394-2.844,1.72-2.278,1.275-1.111-.379.995-.318,2.028-.857,1.955-.33-.045-.4-.446-.418-.844M94.916,91.956c.031.528-.432.744-.739.336a10.538,10.538,0,0,1-.759-1.367c-.388-.72.15-1.5.775-.794a4.933,4.933,0,0,1,.723,1.826M130,86.087c.055,1.082-1.368,1.158-1.811-.219a.678.678,0,0,1,.611-.853,1.546,1.546,0,0,1,1.2,1.072M60.594,84.835c.021-.709.025-1.567.665-1.877.53-.257.747.355.627.8a11,11,0,0,1-.329,1.338.483.483,0,0,1-.942-.125.767.767,0,0,1-.021-.141M97.217,52.451c-.122.5-.327,1.057-.4,1.584-.139.963-1.023.693-.944-.031.049-.448.217-2.378,1.045-2.151.173.048.3.286.3.6m59.238-3.832c-.049-.427-.095-.925.362-1.092,1.183-.43,1.194,2.423.194,2.313-.552-.061-.522-.785-.569-1.22h.013m-77.681,39.9c.036.505-.642.887-.948.383-1.448-2.38.509-3.26.948-.383m25.7,16.2c.3.381.975.882.528,1.405-.539.631-1.3-.283-1.627-.74s.47-1.48,1.1-.666M15.744,27.192A2.587,2.587,0,0,1,17.9,25.587c.951.235-1.418,1.958-1.648,2.057-.291.124-.517-.051-.51-.451M159.621,56.816c-.008.26-.029.64-.344.735-.643.194-.929-1.274-1.027-1.709-.2-.9,1.318-1.346,1.37.974M48.47,89.181a3.3,3.3,0,0,1-.206,1.1c-.4.8-1.146.66-1.1-.284.026-.51.026-1.629.719-1.581a.7.7,0,0,1,.585.76M33.961,81.658c-.023-1.3,1.023-2.058,1.309-1.022a3.228,3.228,0,0,1-.121,1.263c-.1.8-1.085.919-1.188-.241m102.5-17.418c-.574.011-1.079-.827-1.287-1.292-.236-.528.372-1.123.849-.646,1.169,1.171,1.011,2.007.438,1.938m40.1-25.133a3.263,3.263,0,0,1,.4-1.269.659.659,0,1,1,1.09.737c-1.013,1.727-1.5.9-1.487.532m-17.2,20.115c-.015-.6.687-.94,1-.366a11.629,11.629,0,0,1,.617,1.335.447.447,0,0,1-.554.6,2.458,2.458,0,0,1-1.065-1.573M58.747,76.507a5.2,5.2,0,0,1-.845,1.719c-.36.361-1.03.083-.7-.786.536-1.418,1.5-1.928,1.546-.933M75.176,88.271c-.155-1.044.723-1.028.872-.269a11.327,11.327,0,0,1,.312,1.862c0,.641-.965.785-1.183-1.593m36.859-6.857c.029.515-.475.869-.825.492-1.556-1.67-.775-2.58-.146-1.951a4.851,4.851,0,0,1,.971,1.459M16.927,28.728a.527.527,0,0,1,.479.823c-.28.351-.863,1.181-1.352,1.185-1.213.011.22-1.847.874-2.008M180.8,43.059c.016.369.092.952-.324,1.076-.954.282-1.291-2.413-.281-2.306.605.065.55.75.571,1.232l.033,0M68.761,7.28c.226.065.869-.252,1.022.388.211.887-1.148.843-1.607.82-.672-.033-1-1.336.585-1.208M20.739,70.26c.374-2.284,1.875-1.525,1.527-.745-.173.386-.358.765-.563,1.131-.3.54-.934.223-.963-.386m60.345-9.627c.088-.524.073-1.44.861-1.321.685.1.425,1.086.321,1.579-.191.912-1.185.669-1.183-.258M79.26,57.256a2.6,2.6,0,0,1-.231,1.458c-.437.59-1.068.043-.967-.6.155-.98.117-1.614.6-1.5s.594.255.6.637M61.945,7.483a.5.5,0,0,1,.279.947c-2.564,1.123-2.15-.379-1.691-.565a8.829,8.829,0,0,1,1.412-.382m96.869,32.639c-.025-1.818,1.351-1.489,1.285-.7-.169,2.007-1.221,2.148-1.285.7M181.63,57.966c.826-.018.723,1.321.524,1.867a.5.5,0,0,1-1-.061c-.106-.514-.193-1.792.473-1.806M74.007,7.506c1.956.1,1.406,1.434.671,1.267-.361-.082-1-.076-1.246-.171-.712-.274-.126-1.126.574-1.1m68.427,48.572c.6-.058,1.16,1.294.956,1.816-.551,1.412-2.263-1.723-.956-1.816M18.819,32.681a.574.574,0,0,1-.436-.969c.351-.328,1.024-1.042,1.536-.767.953.513-.644,1.617-1.1,1.736m31.541-9.96c-.5.062-.851-.344-.556-.768.823-1.186,2.258-1.177,1.853-.226-.253.6-.888.789-1.3.995M24.515,56.653c.031.471-.447.74-.692,1.065-.46.61-1.27.04-.983-.648.463-1.114,1.628-1.318,1.675-.418m85.124-.557c-.045-1.86,1.761-1.928,1.061.542-.147.519-1.017.534-1.061-.542M65.347,27.025a.605.605,0,0,1,.161,1.19c-.447.179-1.236.589-1.49-.071-.282-.733.775-1.079,1.329-1.119m4.169-.9c.84-.083.933.964.28,1.057-.495.071-.995.091-1.484.209-.535.129-.805-1,1.2-1.266M163.1,51.334c.03.28-.126,1.3-.539.821-1.889-2.177.3-3.343.539-.821m17.812-14.747c-.056.6-.948,1.631-1.494,1.076-.9-.919,1.422-2.48,1.494-1.076m-14.394.11a1.611,1.611,0,0,1-.718,1.244c-.807.328-1.12-.931-.347-1.7a.652.652,0,0,1,1.065.455M35.572,62.963c-.2,1.993-1.655,1.506-1.458.683.381-1.591,1.408-1.61,1.458-.683M17.12,65.939a3.054,3.054,0,0,1,.6-1.26.531.531,0,0,1,.881.592c-.165.332-.356.648-.518.983-.243.5-.937.312-.967-.315m52.111-11.91c-.015.356-.744,1.835-1.41,1.249-.6-.531.25-1.474.6-1.736.327-.25.78.033.815.488m22.126,54.586c.1,1.589-2.475-.409-1.5-1.208.575-.471,1.355.737,1.5,1.208M38.257,30.02a.489.489,0,0,1-.3-.906c.277-.159,1.386-.9,1.638-.831.5.142.31.678.02.921a4.863,4.863,0,0,1-1.36.817M179.21,49.293c.132,1.547-.731,1.235-1.175-.922-.2-.954,1.233-.877,1.175.922m-41.749,9.249c-.095,1.941-2.094-1.528-1.042-1.846a.468.468,0,0,1,.569.262,11.111,11.111,0,0,1,.473,1.583M67.886,50.809c-.869.042-.945-1.287.261-1.747.465-.178,1.315.5.055,1.637a.475.475,0,0,1-.316.11M120.13,92.948a3.032,3.032,0,0,1,1.005.582c.857.671-.544,1.853-1.518.257a.57.57,0,0,1,.512-.84M31.289,49.032c-.046-.75.911-1.739,1.47-.978.373.508-.172,1.039-.505,1.377a.587.587,0,0,1-.965-.4m132.34-12.416c-.751,2.5-2.254.852-.952-.539.372-.4.934-.041.952.539M27.148,59.552c.121-.571,1.019-1.688,1.6-1.09a.571.571,0,0,1-.027.744c-.464.531-.808,1.116-1.275.886a.529.529,0,0,1-.293-.539M166,48.837c-.016.452-.051,1.173-.626,1.138-.728-.044-.861-2.033.008-2.054.51-.012.6.476.618.916M50.3,30.882c-.043.544-.559.819-.972,1.056-.95.544-1.133-1.345.429-1.6a.5.5,0,0,1,.543.54M160.231,46.735c.094,1.487-1.018,1.329-1.106.6-.064-.536-.147-1.553.577-1.526.43.016.542.476.528.923m-7.191-2.991c.033.859-.806,1.911-1.228.989-.239-.523.1-2.007.87-1.627a.588.588,0,0,1,.358.638M140.885,59.114c.046.946-1.027.87-1.4-.906-.121-.571.919-1.328,1.4.906M23.61,25.447c-1.228-.108-.391-1.383.751-1.52a.575.575,0,0,1,.314,1.06c-.341.183-.708.31-1.065.46m84.108,79.2c.022.773-.841.662-1.188.133-.157-.239-.3-.49-.45-.734-.382-.616.432-.944.777-.536.452.535.844.738.86,1.136M94.545,71.4c-.014-.326-.06-.7.295-.833.978-.364,1.281,2,.326,1.99-.571-.008-.581-.709-.629-1.157h.008m91.211-27.716c-.024.444-.03.943-.51,1.029-.885.16-1.052-1.846-.181-1.9.521-.035.617.471.691.874M88.486,87.295c.093,1.446-1.869.333-1.308-.9.466-1.025,1.173.228,1.308.9M61.761,88.329c-.082.438.1,1.313-.533,1.372-.706.065-.733-1.135-.542-1.612.264-.662,1.038-.638,1.075.24M176.9,64.641c.063.824-1.068.851-1.588-.282-.235-.511.506-1.661,1.559.15a.44.44,0,0,1,.029.132m-9.465-9.319c.017.388-.02.765-.394.879-.919.283-1.278-1.721-.337-1.84.562-.071.649.536.732.961m-35.917.658c.094,1.158-1.226.76-1.425-.691-.084-.609.909-1.166,1.425.691m-65.906,22.7c-.124.623-.132,1.6-.762,1.521-.749-.092-.4-1.446-.152-1.864.276-.467.848-.23.914.343M25.194,20.856c.017.512-.6.963-.935,1.23-.631.5-1.391-.8.312-1.661a.458.458,0,0,1,.623.431M184.911,52.336c.045,1.155-1.108,1.381-1.231.53-.249-1.737,1.224-1.717,1.231-.53M120.7,57.984c.034.7-.706,1.023-1.02.382-.984-2.008.838-2.169,1.02-.382M69.214,37.815c-.856.036-.963-1.048.27-1.429.983-.3,1.214,1.384-.27,1.429m25.8,19.344c-.092-1.6,1.152-1.462,1.124-.664-.083,2.364-1.122,1.577-1.124.664m51.1-7.831c.018.376-.164,1.353-.692.977-.493-.352-.829-1.852.022-1.976.518-.075.625.594.67,1M113.3,55.7c-.013,1.2-.692,1.408-1.07.764-.273-.466-.088-1.743.623-1.562.4.1.429.394.447.8M5.745,40.377c-.434,1.989-2.587,1.311-.847-.439.4-.406.8-.1.847.439m1.523-3.935c.952-.032.547,1.237-.284,1.72-1.16.673-.613-1.64.284-1.72m101.419,46.9c-.092-.874.9-1.013,1.345.132.276.712-.557,1.28-1.024.668a1.306,1.306,0,0,1-.321-.8M53.795,12.517c.015.5-.711.762-1.08.867-.8.226-1.163-1.117.46-1.415a.537.537,0,0,1,.621.548M32.125,17.625c.977-.035.9,1.109-.723,1.3-.7.08-1.046-1.118.723-1.3M139.386,62.449c.031.964-1.036.362-1.5-.807-.177-.445.4-.908.757-.506a3.14,3.14,0,0,1,.745,1.313M78.439,8.946c-.451-.037-1.127.026-1.127-.6,0-.742,1.031-.667,1.467-.464.481.224.651,1.016-.341,1.066m-.59,51.578c0,1.133-1.14,1.386-1.239.447-.15-1.416,1.211-1.655,1.239-.447M95.167,86.787c.021.595-.511.837-.79.379-.346-.569-.887-.978-.514-1.443.464-.578,1.159.1,1.3,1.064M65.67,32.711c.038.8-1.7,1.1-1.746.244-.026-.495.591-.617,1.053-.788.369-.136.686.118.693.544m41.489,22.438c-.055-.558.488-1.377.993-.791.371.43.368,1.616-.37,1.589-.43-.016-.6-.4-.623-.8m-37.9-14.532c-.765.024-.982-.985.521-1.354.642-.158,1.222,1.079-.521,1.354M118.5,56.887c.189,1.264-1.547,1.133-1.128-.55.118-.476,1.059-.763,1.128.55M18.867,39.475c.925-.047.505,1.293-.556,1.48a.515.515,0,0,1-.474-.812,1.373,1.373,0,0,1,1.03-.668M14.019,61.3c.061-1.4,1.607-1.527,1.321-.608-.5,1.62-1.3,1.385-1.321.608m165.894-7.442c.019,1.464-.887,1.608-1.054-.325-.075-.872,1.011-.89,1.054.325M36.526,17.632c.786,0,.824.766.358.941-.553.207-1.338.576-1.514-.017-.2-.662.769-.85,1.156-.924M92.762,107.68c-.079-.647.588-.905,1.4.216a.558.558,0,0,1-.572.844,1.4,1.4,0,0,1-.826-1.06M32.868,62.608c-.067.579-.721,1.426-1.223.918-.783-.792,1.134-2.407,1.223-.918m149.63-7c-.086,1.411-1.187,1.482-1.084-.6.033-.657,1.006-.411,1.084.6m-22.07-5.221c.1.723-.694,1.144-1.083.537-.779-1.218,1.015-2.073,1.083-.537m-83.4,15.732c.035-.453.465-1.549,1.048-1.117a.5.5,0,0,1,.152.636c-.188.389-.327,1.245-.849,1.136-.24-.051-.353-.239-.351-.655m-8.155-.285c-.041.471-.166,1.3-.78,1.2-.814-.135-.233-2.1.462-1.81.217.092.321.279.318.612M183.123,38.056c.012.868-1.421,1.248-1.469.254-.044-.9,1.454-1.234,1.469-.254M62.1,12.732c.365-.018.8-.154.911.264.163.6-1.011.8-1.321.814a.494.494,0,0,1-.144-.978,4.756,4.756,0,0,1,.555-.1M140.94,51.4c.062,1.094-1.036,1.071-1.268.036-.178-.791,1.031-1.376,1.268-.036m21.21-4.114c-.032.429-.184.883-.712.81-.811-.112-.639-1.7.145-1.629.431.04.548.39.567.819M127.057,57c.029.5-.445.782-.761.338-.758-1.064-.129-2.454.5-1.468a5.856,5.856,0,0,1,.261,1.13m16.808-6.933c.037.864-1.289,1.178-1.365.09a.686.686,0,1,1,1.365-.09M85.481,79.056c-.011.432-.195.777-.585.471-.371-.29-.832-1.8-.1-1.923.535-.089.609,1.107.681,1.452M46.568,30.205c-.037.479-.819.673-1.176.793a.472.472,0,0,1-.375-.86c.341-.182,1.54-.767,1.552.067m-8.2,27.123a1.434,1.434,0,0,1-.685,1.045c-.6.207-1.073-.726-.142-1.507a.527.527,0,0,1,.827.462M16.089,54.951c-.909.057-.694-1.536.048-1.553.955-.021.72,1.5-.048,1.553M115,56.233a.616.616,0,0,1,1.112-.481c.319.486-.042,1.54-.71,1.245a.75.75,0,0,1-.4-.764m-49.564,20c.347-2.692,1.593-1.958,1.081-1.05-.292.517-.474,1.515-.831,1.492-.127-.008-.232-.186-.249-.442M87.3,51.888c.077,1.349-1.251,1.369-1.116.393.2-1.421,1.073-1.365,1.116-.393M64.183,38.9c-.922.068-.845-1.379.214-1.366.842.011.816,1.291-.214,1.366m-47-2.919c-1.012.042-.535-1.02.307-1.345a.539.539,0,0,1,.484.951,1.807,1.807,0,0,1-.791.394M67.824,68.828c-.062.39-.092,1.2-.645,1.123-.743-.109-.477-1-.263-1.472.25-.546.886-.209.908.349M50.6,65.9c.053.955-1.28,1.3-1.359.335-.066-.807,1.3-1.327,1.359-.335m-4.96,22.162c.007,1.382-.951,1.332-1.041.664-.169-1.26.98-2.026,1.041-.664m21.7-77.252c.244.028.568.074.639.424.141.694-1.543,1.079-1.668.3-.087-.547.6-.7,1.029-.721M99.048,57.64c-.047.415-.077.838-.6.854-.726.023-.718-1.106-.3-1.5.459-.425.808.157.894.641M147.585,48.2c-.477-.112-.6-.359-.594-.892a.619.619,0,1,1,1.227.09c-.023.479-.241.776-.634.8M115.618,59.343c.056,1.275-1.261,1.034-1.09-.394a.517.517,0,0,1,.993-.145,1.618,1.618,0,0,1,.1.538M74.195,52.594c-.192,1.114-1.117,1.324-1.254.591-.188-1,1.179-1.759,1.254-.591M42.6,54.727a.919.919,0,0,1,.859-.856c.723.07.647,1.008.008,1.386a.584.584,0,0,1-.867-.53M81.483,19.261c-1.666-.165-1.242-1.323-.6-1.26,1.176.115,1.376,1.234.6,1.26M28.326,42.207c-.8.081-.43-1.045.47-1.515a.427.427,0,0,1,.577.524,1.848,1.848,0,0,1-1.048.99m44.758,3.226c-.032-.48.645-.745.962-.938.526-.321.973.556-.283,1.409-.294.2-.673-.064-.679-.471m28.861,23.581c.172.82-1.165,1.188-1.194-.107-.021-.9,1.095-.955,1.194.107m20.715-12.356c.062.972-1.332.955-1.248-.259.033-.483.87-1.094,1.248.259M68.008,81.705c-.041,1.177-1.682,1.467-1.043-.255.238-.641,1.025-.4,1.043.255m116.61-33.27c.027-1.2,1.39-1.075,1.223-.135-.186,1.046-1.209.977-1.223.135m-32.571,1.739c-.167-.939,1.227-1.141,1.176.03-.045,1-1.159.905-1.176-.03M31.183,22.743c.351.045.853.312.45.731a3.636,3.636,0,0,1-.944.6c-.467.254-1.124-1,.494-1.326M147.7,67.98c.064.99-1.375.73-1.314-.337.053-.919,1.267-.4,1.314.337M89.958,57.458c.14-1.585,1.164-1.269,1.122-.65-.106,1.562-1.065,1.458-1.122.65M24.42,35.651c-.426,1.629-1.795.9-1.337.24.516-.743,1.293-.979,1.337-.24m100.27,21.3c.117,1.108-1.332.432-1.075-.721a.471.471,0,0,1,.884-.132,3.189,3.189,0,0,1,.191.853M182.8,44.087c0,.308-.176,1.024-.633.79a1.178,1.178,0,0,1-.283-1.458c.25-.369.886-.243.916.667m-77.855,13.8a.721.721,0,0,1,.6-.871c.587-.064.83,1.529,0,1.549-.419.01-.539-.343-.6-.677m8.046.848c.037.869-.912,1-1.115.216-.266-1.024.908-1.484,1.115-.216M72.14,54.642a1.8,1.8,0,0,1-.85,1.048.492.492,0,0,1-.519-.616c.293-.922,1.375-1.177,1.369-.432M64.83,18.067c-.863.09-1.027-1.371.475-1.146.505.075.653,1.084-.475,1.146M73.52,55.7c-.7-.021-.717-1.041-.22-1.382.942-.648,1.175,1.356.22,1.382M21.725,29.254c-.883.035-.741-1.3.135-1.368.9-.072.611,1.339-.135,1.368M64.542,73.445c-.231,1.913-1.509,1.335-.863-.26.21-.519.852-.284.863.26m10.364-9.112c.081,1.119-1.479.959-1.156-.077.243-.779,1.12-.806,1.156.077M31.934,38.117c.71-.059.844.8.3,1.155-1.115.733-1.336-1.038-.3-1.155M21.167,41.461c-.99.112-.611-1.2.523-1.226.523-.012.78.879-.523,1.226m162.1,20.473c-.066.436-.4,1.222-.92.725-.475-.455-.14-1.681.588-1.327a.65.65,0,0,1,.332.6M51.1,16.2c-1.064-.173-.4-.833.527-1.163.8-.284.952.95-.527,1.163m35.8,62.7c-.025-.539.246-.971.706-.8a.857.857,0,0,1,.2,1.326c-.264.219-.788.236-.9-.528m74.125-38.785c.052-1.008,1.069-1.043,1.163-.29.128,1.02-1.182,1.311-1.163.29M12.2,60.1c.833-.037.869,1.328-.022,1.349-.8.019-.743-1.315.022-1.349M49.946,39.007c-1.055.059-.366-1.474.492-1.256.724.184.37,1.095-.492,1.256M21.266,22.715c.729-.046.823.929-.379,1.267-.757.212-.768-1.066.379-1.267m83.251,31.971c-.063-1.034,1.254-1.044,1.1,0-.13.9-1.064.858-1.1,0m32.6-1.77c-.03-.984,1.132-.663,1.21.277.065.788-1.134.724-1.21-.277M10.248,32.582c.681-.043.737.923.06,1.29a.565.565,0,0,1-.738-.767.965.965,0,0,1,.678-.523M67.59,35.335c-.91.055-.822-1.108.271-1.17a.526.526,0,0,1,.251,1,4.463,4.463,0,0,1-.523.175M36.57,27.22a.47.47,0,0,1,.333.834c-1.711,1.323-1.544-.731-.333-.834M132.438,55.1c-.033-1.352,1.486-.387.9.716-.311.584-.832-.058-.9-.716M48.541,14.03c.849-.069.741,1.054.024,1.291-.668.222-1.115-1-.024-1.291m123.4,41.883c.023.767-.827.962-1.108.034-.263-.867.979-1.174,1.108-.034m-2.853-19.156c-.806.062-.874-1.271-.084-1.315a.661.661,0,0,1,.084,1.315M76.922,32.992a.582.582,0,0,1-.159-1.141c1.094-.255,1.271,1.1.159,1.141m33.561,35.952c-.029-.647.518-.787.75-.265.151.343.554,1.088.1,1.336s-.832-.686-.847-1.071m67.374-27.228c.059-.389.2-1.073.781-.642.511.38.048,1.789-.571,1.3-.17-.135-.212-.332-.21-.653m-13.239-2.672c.858-.008.616,1.4-.1,1.378-.73-.025-.562-1.373.1-1.378M47.861,35.836c-.816.046-.748-1.2.425-1.127.321.02,1.017.737-.425,1.127m35.446,48.65a.562.562,0,1,1,1.111-.113c.069.992-1.053,1.053-1.111.113M29.775,37.3c-.749.039-.786-.879-.161-1.131.9-.362,1.264.962.161,1.131M61.411,75.147c-.146,1.291-1.08,1.063-1.094.44-.021-.914,1-1.407,1.094-.44M67.658,14.7c-1.143.068-.585-1.455.425-1.028a.508.508,0,0,1,0,.92,2.484,2.484,0,0,1-.422.108M37.532,32.03c.809-.062.579,1.225-.08,1.284-.812.072-.821-1.215.08-1.284m-12.515,18.7c-.056-.748,1.045-1.415,1.168-.606.111.727-1.1,1.539-1.168.606m1.7-3.565c-.2,0-.38-.247-.331-.528.088-.5.973-1.2,1.291-.53.215.453-.535,1.047-.961,1.057M53.888,18.609c.392-.018,1.026.718-.481,1.066-.588.136-.966-.962.481-1.066m2.769-9.1c-.982.042-.72-1.144.554-.981a.4.4,0,0,1,.1.778c-.24.094-.492.154-.653.2M71.631,78.4c-.084.354-.169,1.038-.7.892-.637-.178-.281-1.723.407-1.436a.556.556,0,0,1,.288.545M161.2,36.821a.98.98,0,0,1-.681.885c-.757.119-.538-.966.016-1.3.347-.207.644-.019.665.412M81.308,10.864c-.358-.062-.9-.109-.832-.666.1-.768,1.514-.376,1.352.3-.057.239-.209.36-.52.371M106.8,70.832c-.059-.757.948-.875,1.133.1.149.783-1.063.845-1.133-.1m-1.174,2.089c.064,1.084-1.188.859-1.074-.156.084-.759,1.02-.54,1.074.156M64.461,24.269a.559.559,0,0,1-.158-1.107c.983-.277,1.114,1.023.158,1.107M29.3,54.439c.049.728-.962,1.459-1.157.631-.174-.736,1.1-1.438,1.157-.631m143.115-18.8a.587.587,0,1,1-1.169.1.587.587,0,1,1,1.169-.1M117.781,60.212a.614.614,0,0,1-.05-1.22c.752-.041.824,1.2.05,1.22M78.227,30.467a.557.557,0,0,1-.327-1.038c.813-.511,1.392.823.574.991-.094.02-.19.035-.246.047M148,51.354a.615.615,0,0,1-.083-1.221c.721-.074.82,1.17.083,1.221m-19.778,4.212c.72.019,1.075,1.523.233,1.319-.487-.118-.947-1.21-.233-1.319M23.537,67.22a.565.565,0,1,1-1.13.032.565.565,0,1,1,1.13-.032M47.589,27.851c-1.047.03-.334-1.532.484-1.05.6.352-.118.985-.484,1.05M74.038,106.9a.56.56,0,1,1-1.115.079.56.56,0,0,1,1.115-.079M28.153,19.715c-.53.039-.665-.583-.321-.913.408-.39,1.04-.212.944.348a.8.8,0,0,1-.623.564M184.289,40.356c-.711.056-.651-1.182.011-1.209.687-.029.618,1.159-.011,1.209M5.562,44.592c-.825-.346.056-1.661.634-1.376.448.22-.166.9-.634,1.376m149.469,4.78c-.138.84-.821.7-.971,0-.145-.683.845-1.091.971,0M65.761,7.416c.067.789-1.029.984-1.076.212-.037-.609,1.014-.957,1.076-.212m-45.376,31.8c-.81.058-.648-.962.09-1.023.718-.06.616.917-.09,1.023M25.1,43.839c-.005-.548.812-.943,1.043-.362.282.707-1.053,1.189-1.043.362M14.352,32.926a.556.556,0,0,1,.1,1.1c-.695.088-.778-1.044-.1-1.1m6.206-6.984c.761-.032.52,1.1-.169,1.1-.715,0-.5-1.071.169-1.1M135.888,54.407c.029.5-.346.666-.691.385-.375-.307-.322-1.106.226-1.018a.645.645,0,0,1,.464.632M27.767,48.762a.471.471,0,0,1-.937.092c-.068-.577.9-.773.937-.092M41.129,10.615c.92-.034.926,1.034.021,1.237-.6.136-.932-.815-.376-1.111a2.254,2.254,0,0,1,.354-.126m-3.708,1.459a.619.619,0,1,1,1.233-.085.619.619,0,1,1-1.233.085m6.645-.19c-.648.052-.75-.91.02-1.193s.935,1.134-.02,1.193" transform="translate(0 0)"/>
      </g>
    </g>
  </g>
</svg>
