<svg xmlns="http://www.w3.org/2000/svg" xmlns:xlink="http://www.w3.org/1999/xlink" width="400" height="269" viewBox="0 0 400 269">
  <defs>
    <clipPath id="clip-path">
      <rect id="Rect치ngulo_401633" data-name="Rect치ngulo 401633" width="298.773" height="194.477" fill="none"/>
    </clipPath>
  </defs>
  <g id="Grupo_1101721" data-name="Grupo 1101721" transform="translate(-1020.051 -6734)">
    <rect id="Rect치ngulo_401638" data-name="Rect치ngulo 401638" width="400" height="269" transform="translate(1020.051 6734)" fill="#f4eee8"/>
    <g id="Grupo_1101535" data-name="Grupo 1101535" transform="translate(1.051 -37)">
      <path id="Trazado_893711" data-name="Trazado 893711" d="M-34.593-2.051h-3.6L-38.873,0h-2.181l3.705-9.953h1.9L-31.722,0H-33.9Zm-3.042-1.661h2.488L-36.4-7.437ZM-29.4-7.4l.062.827a2.6,2.6,0,0,1,2.126-.964,1.973,1.973,0,0,1,1.962,1.128,2.54,2.54,0,0,1,2.222-1.128,2.206,2.206,0,0,1,1.791.7,3.221,3.221,0,0,1,.588,2.109V0H-22.63V-4.728a1.414,1.414,0,0,0-.246-.922,1.089,1.089,0,0,0-.868-.291,1.233,1.233,0,0,0-1.23.85L-24.968,0h-1.976V-4.721a1.4,1.4,0,0,0-.253-.932,1.1,1.1,0,0,0-.861-.288,1.28,1.28,0,0,0-1.217.7V0H-31.25V-7.4ZM-17.045,0h-1.982V-7.4h1.982Zm-2.1-9.311a.973.973,0,0,1,.3-.731,1.117,1.117,0,0,1,.81-.287,1.12,1.12,0,0,1,.807.287.967.967,0,0,1,.3.731.97.97,0,0,1-.3.738,1.122,1.122,0,0,1-.8.287,1.122,1.122,0,0,1-.8-.287A.97.97,0,0,1-19.144-9.311ZM-13.6-7.4l.062.854a2.582,2.582,0,0,1,2.126-.991,2.146,2.146,0,0,1,1.75.69,3.221,3.221,0,0,1,.588,2.064V0H-11.05V-4.741a1.287,1.287,0,0,0-.273-.915,1.222,1.222,0,0,0-.909-.284,1.359,1.359,0,0,0-1.251.713V0h-1.976V-7.4Zm5.715,3.63a4.387,4.387,0,0,1,.424-1.962,3.1,3.1,0,0,1,1.22-1.333,3.56,3.56,0,0,1,1.849-.472,3.368,3.368,0,0,1,2.444.916A3.676,3.676,0,0,1-.892-4.129l.014.506a3.866,3.866,0,0,1-.95,2.731A3.3,3.3,0,0,1-4.378.137,3.319,3.319,0,0,1-6.932-.889a3.934,3.934,0,0,1-.954-2.789Zm1.976.14a2.765,2.765,0,0,0,.4,1.612,1.308,1.308,0,0,0,1.135.558,1.311,1.311,0,0,0,1.121-.551,3.025,3.025,0,0,0,.4-1.763,2.737,2.737,0,0,0-.4-1.6A1.311,1.311,0,0,0-4.392-5.94a1.29,1.29,0,0,0-1.121.565A3.076,3.076,0,0,0-5.91-3.626ZM4.625,0a2.194,2.194,0,0,1-.2-.663,2.39,2.39,0,0,1-1.866.8,2.626,2.626,0,0,1-1.8-.629A2.023,2.023,0,0,1,.044-2.078a2.09,2.09,0,0,1,.872-1.8,4.3,4.3,0,0,1,2.519-.636h.909v-.424a1.219,1.219,0,0,0-.263-.82A1.035,1.035,0,0,0,3.25-6.07a1.177,1.177,0,0,0-.783.239.813.813,0,0,0-.284.656H.208A1.984,1.984,0,0,1,.6-6.364a2.621,2.621,0,0,1,1.121-.858,4.086,4.086,0,0,1,1.627-.311,3.228,3.228,0,0,1,2.17.687,2.4,2.4,0,0,1,.8,1.931v3.206A3.536,3.536,0,0,0,6.621-.116V0ZM2.991-1.374A1.7,1.7,0,0,0,3.8-1.569a1.28,1.28,0,0,0,.547-.523V-3.363H3.606q-1.483,0-1.579,1.025l-.007.116a.791.791,0,0,0,.26.608A1.009,1.009,0,0,0,2.991-1.374ZM3.743-10.5H5.9L4-8.381H2.4ZM10.92-1.456a1.3,1.3,0,0,0,.889-.3,1.054,1.054,0,0,0,.355-.8h1.853a2.534,2.534,0,0,1-.41,1.377,2.706,2.706,0,0,1-1.1.971,3.455,3.455,0,0,1-1.548.345,3.211,3.211,0,0,1-2.5-1.008,3.99,3.99,0,0,1-.916-2.786v-.13a3.944,3.944,0,0,1,.909-2.728,3.174,3.174,0,0,1,2.5-1.019,3.111,3.111,0,0,1,2.225.79,2.8,2.8,0,0,1,.851,2.1H12.165a1.358,1.358,0,0,0-.355-.938,1.185,1.185,0,0,0-.9-.361,1.19,1.19,0,0,0-1.042.5A2.916,2.916,0,0,0,9.512-3.8V-3.6a2.953,2.953,0,0,0,.349,1.643A1.2,1.2,0,0,0,10.92-1.456ZM17.23,0H15.248V-7.4H17.23Zm-2.1-9.311a.973.973,0,0,1,.3-.731,1.117,1.117,0,0,1,.81-.287,1.12,1.12,0,0,1,.807.287.967.967,0,0,1,.3.731.97.97,0,0,1-.3.738,1.122,1.122,0,0,1-.8.287,1.122,1.122,0,0,1-.8-.287A.97.97,0,0,1,15.131-9.311Zm3.418,5.558a4.457,4.457,0,0,1,.776-2.755,2.517,2.517,0,0,1,2.123-1.025,2.265,2.265,0,0,1,1.784.807V-10.5h1.982V0H23.43l-.1-.786a2.325,2.325,0,0,1-1.9.923,2.511,2.511,0,0,1-2.1-1.029A4.6,4.6,0,0,1,18.549-3.753Zm1.976.141a2.936,2.936,0,0,0,.362,1.6,1.179,1.179,0,0,0,1.053.556,1.321,1.321,0,0,0,1.292-.776V-5.164a1.3,1.3,0,0,0-1.278-.776Q20.525-5.94,20.525-3.612Zm5.913-.154a4.387,4.387,0,0,1,.424-1.962,3.1,3.1,0,0,1,1.22-1.333,3.56,3.56,0,0,1,1.849-.472,3.368,3.368,0,0,1,2.444.916,3.676,3.676,0,0,1,1.056,2.488l.014.506a3.866,3.866,0,0,1-.95,2.731A3.3,3.3,0,0,1,29.945.137,3.319,3.319,0,0,1,27.392-.889a3.934,3.934,0,0,1-.954-2.789Zm1.976.14a2.765,2.765,0,0,0,.4,1.612,1.308,1.308,0,0,0,1.135.558,1.311,1.311,0,0,0,1.121-.551,3.025,3.025,0,0,0,.4-1.763,2.737,2.737,0,0,0-.4-1.6,1.311,1.311,0,0,0-1.135-.568,1.29,1.29,0,0,0-1.121.565A3.076,3.076,0,0,0,28.414-3.626ZM38.667-2.044a.637.637,0,0,0-.359-.571,4.077,4.077,0,0,0-1.152-.373q-2.639-.554-2.639-2.242a2.032,2.032,0,0,1,.817-1.644,3.3,3.3,0,0,1,2.136-.66,3.547,3.547,0,0,1,2.252.663,2.09,2.09,0,0,1,.844,1.723H38.592a.956.956,0,0,0-.273-.7,1.157,1.157,0,0,0-.854-.277,1.182,1.182,0,0,0-.772.226.712.712,0,0,0-.273.574.609.609,0,0,0,.311.53,3.2,3.2,0,0,0,1.049.349,8.571,8.571,0,0,1,1.244.332,2.044,2.044,0,0,1,1.565,1.989A1.929,1.929,0,0,1,39.72-.489a3.745,3.745,0,0,1-2.242.625,3.912,3.912,0,0,1-1.651-.332A2.77,2.77,0,0,1,34.7-1.1a2.113,2.113,0,0,1-.41-1.248h1.873a1.031,1.031,0,0,0,.39.807,1.546,1.546,0,0,0,.971.28,1.43,1.43,0,0,0,.858-.215A.67.67,0,0,0,38.667-2.044Z" transform="translate(1076 6845.547)" fill="#12263f"/>
      <g id="Grupo_1101519" data-name="Grupo 1101519" transform="translate(1105 6808)">
        <g id="Grupo_1101518" data-name="Grupo 1101518" clip-path="url(#clip-path)">
          <path id="Trazado_891242" data-name="Trazado 891242" d="M37.069,12.893a6.615,6.615,0,0,1-1.281,8.953,6.617,6.617,0,0,1-8.981-1.078,6.47,6.47,0,1,1,10.262-7.875" transform="translate(11.256 4.529)" fill="#58b7d6"/>
          <path id="Trazado_891243" data-name="Trazado 891243" d="M37.069,12.893a6.615,6.615,0,0,1-1.281,8.953,6.617,6.617,0,0,1-8.981-1.078,6.47,6.47,0,1,1,10.262-7.875Z" transform="translate(11.256 4.529)" fill="none" stroke="#0c9ec6" stroke-miterlimit="10" stroke-width="1"/>
          <path id="Trazado_891244" data-name="Trazado 891244" d="M45.736,8a7.177,7.177,0,0,1,.406,4.911,6.08,6.08,0,0,1-2.723,3.717,6.617,6.617,0,0,1-8.81-2.047A6.353,6.353,0,0,1,36.69,5.553a6.764,6.764,0,0,1,5.243-.78A5.916,5.916,0,0,1,45.736,8" transform="translate(14.908 2.022)" fill="#58b7d6"/>
          <path id="Trazado_891245" data-name="Trazado 891245" d="M45.736,8a7.177,7.177,0,0,1,.406,4.911,6.08,6.08,0,0,1-2.723,3.717,6.617,6.617,0,0,1-8.81-2.047A6.353,6.353,0,0,1,36.69,5.553a6.764,6.764,0,0,1,5.243-.78A5.916,5.916,0,0,1,45.736,8Z" transform="translate(14.908 2.022)" fill="none" stroke="#0c9ec6" stroke-miterlimit="10" stroke-width="1"/>
          <path id="Trazado_891246" data-name="Trazado 891246" d="M55.5,5.964a8.264,8.264,0,0,1-1.331,4.713,7.3,7.3,0,0,1-1.449,1.635,5.391,5.391,0,0,1-1.887.962,6.169,6.169,0,0,1-4.356-.543A7.266,7.266,0,0,1,43.044,9.2a5.872,5.872,0,0,1,.064-5A6.7,6.7,0,0,1,47.426.767,7.081,7.081,0,0,1,50.443.588a6.138,6.138,0,0,1,2.611.99A5.424,5.424,0,0,1,55.5,5.964" transform="translate(18.909 0.222)" fill="#58b7d6"/>
          <path id="Trazado_891247" data-name="Trazado 891247" d="M55.5,5.964a8.264,8.264,0,0,1-1.331,4.713,7.3,7.3,0,0,1-1.449,1.635,5.391,5.391,0,0,1-1.887.962,6.169,6.169,0,0,1-4.356-.543A7.266,7.266,0,0,1,43.044,9.2a5.872,5.872,0,0,1,.064-5A6.7,6.7,0,0,1,47.426.767,7.081,7.081,0,0,1,50.443.588a6.138,6.138,0,0,1,2.611.99A5.424,5.424,0,0,1,55.5,5.964Z" transform="translate(18.909 0.222)" fill="none" stroke="#0c9ec6" stroke-miterlimit="10" stroke-width="1"/>
          <path id="Trazado_891248" data-name="Trazado 891248" d="M64.2,10.6a10.912,10.912,0,0,1-4.252,2.352,5.55,5.55,0,0,1-3.47.192,5.905,5.905,0,0,1-2.57-2.551A8.836,8.836,0,0,1,52.5,5.925,5.269,5.269,0,0,1,54.87,1.474a6.986,6.986,0,0,1,6.295-.419,7.1,7.1,0,0,1,4.451,4.688A4.856,4.856,0,0,1,64.2,10.6" transform="translate(23.348 0.225)" fill="#58b7d6"/>
          <path id="Trazado_891249" data-name="Trazado 891249" d="M64.2,10.6a10.912,10.912,0,0,1-4.252,2.352,5.55,5.55,0,0,1-3.47.192,5.905,5.905,0,0,1-2.57-2.551A8.836,8.836,0,0,1,52.5,5.925,5.269,5.269,0,0,1,54.87,1.474a6.986,6.986,0,0,1,6.295-.419,7.1,7.1,0,0,1,4.451,4.688A4.856,4.856,0,0,1,64.2,10.6Z" transform="translate(23.348 0.225)" fill="none" stroke="#0c9ec6" stroke-miterlimit="10" stroke-width="1"/>
          <path id="Trazado_891250" data-name="Trazado 891250" d="M66.183,20.681a8.948,8.948,0,0,1-4.628-1.565A5.718,5.718,0,0,1,59.1,16.222a5.4,5.4,0,0,1,.418-3.636A10.2,10.2,0,0,1,62.3,8.61a4.97,4.97,0,0,1,4.983-.9,7.116,7.116,0,0,1,4.2,4.665,7,7,0,0,1-.78,6.081,5.222,5.222,0,0,1-4.515,2.222" transform="translate(26.211 3.29)" fill="#58b7d6"/>
          <path id="Trazado_891251" data-name="Trazado 891251" d="M66.183,20.681a8.948,8.948,0,0,1-4.628-1.565A5.718,5.718,0,0,1,59.1,16.222a5.4,5.4,0,0,1,.418-3.636A10.2,10.2,0,0,1,62.3,8.61a4.97,4.97,0,0,1,4.983-.9,7.116,7.116,0,0,1,4.2,4.665,7,7,0,0,1-.78,6.081A5.222,5.222,0,0,1,66.183,20.681Z" transform="translate(26.211 3.29)" fill="none" stroke="#0c9ec6" stroke-miterlimit="10" stroke-width="1"/>
          <path id="Trazado_891252" data-name="Trazado 891252" d="M61.944,29.649a7.663,7.663,0,0,1-3.033-3.86,5.991,5.991,0,0,1-.137-4.183,5.657,5.657,0,0,1,2.777-2.939,8.6,8.6,0,0,1,4.76-1.072,5.326,5.326,0,0,1,4.262,2.684,7.016,7.016,0,0,1,.341,5.869,6.827,6.827,0,0,1-4,4.1,5.66,5.66,0,0,1-4.973-.6" transform="translate(25.999 7.815)" fill="#58b7d6"/>
          <path id="Trazado_891253" data-name="Trazado 891253" d="M61.944,29.649a7.663,7.663,0,0,1-3.033-3.86,5.991,5.991,0,0,1-.137-4.183,5.657,5.657,0,0,1,2.777-2.939,8.6,8.6,0,0,1,4.76-1.072,5.326,5.326,0,0,1,4.262,2.684,7.016,7.016,0,0,1,.341,5.869,6.827,6.827,0,0,1-4,4.1A5.66,5.66,0,0,1,61.944,29.649Z" transform="translate(25.999 7.815)" fill="none" stroke="#0c9ec6" stroke-miterlimit="10" stroke-width="1"/>
          <path id="Trazado_891254" data-name="Trazado 891254" d="M54.791,36.649a7.205,7.205,0,0,1-1.663-4.633,5.835,5.835,0,0,1,5.63-6.094,7.473,7.473,0,0,1,4.766,1.229,5.75,5.75,0,0,1,2.544,4.3,6.968,6.968,0,0,1-6.763,7.336,5.9,5.9,0,0,1-4.515-2.138" transform="translate(23.628 11.519)" fill="#58b7d6"/>
          <path id="Trazado_891255" data-name="Trazado 891255" d="M54.791,36.649a7.205,7.205,0,0,1-1.663-4.633,5.835,5.835,0,0,1,5.63-6.094,7.473,7.473,0,0,1,4.766,1.229,5.75,5.75,0,0,1,2.544,4.3,6.968,6.968,0,0,1-6.763,7.336A5.9,5.9,0,0,1,54.791,36.649Z" transform="translate(23.628 11.519)" fill="none" stroke="#0c9ec6" stroke-miterlimit="10" stroke-width="1"/>
          <path id="Trazado_891256" data-name="Trazado 891256" d="M46.266,41.84a6.771,6.771,0,0,1,2.047-8.709,6.251,6.251,0,0,1,4.512-.838,7.174,7.174,0,0,1,4.258,2.485A5.917,5.917,0,0,1,58.358,39.6,6.619,6.619,0,0,1,55.374,44a6.254,6.254,0,0,1-9.108-2.163" transform="translate(20.228 14.312)" fill="#58b7d6"/>
          <path id="Trazado_891257" data-name="Trazado 891257" d="M46.266,41.84a6.771,6.771,0,0,1,2.047-8.709,6.251,6.251,0,0,1,4.512-.838,7.174,7.174,0,0,1,4.258,2.485A5.917,5.917,0,0,1,58.358,39.6,6.619,6.619,0,0,1,55.374,44,6.254,6.254,0,0,1,46.266,41.84Z" transform="translate(20.228 14.312)" fill="none" stroke="#0c9ec6" stroke-miterlimit="10" stroke-width="1"/>
          <path id="Trazado_891258" data-name="Trazado 891258" d="M37.021,45.536a6.469,6.469,0,0,1,11.9-5.061,6.469,6.469,0,1,1-11.9,5.061" transform="translate(16.293 16.342)" fill="#58b7d6"/>
          <path id="Trazado_891259" data-name="Trazado 891259" d="M37.021,45.536a6.469,6.469,0,0,1,11.9-5.061,6.469,6.469,0,1,1-11.9,5.061Z" transform="translate(16.293 16.342)" fill="none" stroke="#0c9ec6" stroke-miterlimit="10" stroke-width="1"/>
          <path id="Trazado_891260" data-name="Trazado 891260" d="M27.463,48.309A6.47,6.47,0,0,1,39.84,44.54a6.47,6.47,0,1,1-12.377,3.769" transform="translate(12.113 17.816)" fill="#58b7d6"/>
          <path id="Trazado_891261" data-name="Trazado 891261" d="M27.463,48.309A6.47,6.47,0,0,1,39.84,44.54a6.47,6.47,0,1,1-12.377,3.769Z" transform="translate(12.113 17.816)" fill="none" stroke="#0c9ec6" stroke-miterlimit="10" stroke-width="1"/>
          <path id="Trazado_891262" data-name="Trazado 891262" d="M17.886,50.922a6.335,6.335,0,0,1,4.6-8.056,6.481,6.481,0,0,1,3.236,12.552,6.643,6.643,0,0,1-7.838-4.5" transform="translate(7.813 18.973)" fill="#58b7d6"/>
          <path id="Trazado_891263" data-name="Trazado 891263" d="M17.886,50.922a6.335,6.335,0,0,1,4.6-8.056,6.481,6.481,0,0,1,3.236,12.552A6.643,6.643,0,0,1,17.886,50.922Z" transform="translate(7.813 18.973)" fill="none" stroke="#0c9ec6" stroke-miterlimit="10" stroke-width="1"/>
          <path id="Trazado_891264" data-name="Trazado 891264" d="M9.318,55.863a5.425,5.425,0,0,1-1.088-4.9,6.906,6.906,0,0,1,3.657-4.336,6.182,6.182,0,0,1,8.868,3.329,6.924,6.924,0,0,1-3.082,8.271,5.812,5.812,0,0,1-4.232.276,8.262,8.262,0,0,1-4.123-2.637" transform="translate(3.576 20.399)" fill="#58b7d6"/>
          <path id="Trazado_891265" data-name="Trazado 891265" d="M9.318,55.863a5.425,5.425,0,0,1-1.088-4.9,6.906,6.906,0,0,1,3.657-4.336,6.182,6.182,0,0,1,8.868,3.329,6.924,6.924,0,0,1-3.082,8.271,5.812,5.812,0,0,1-4.232.276A8.262,8.262,0,0,1,9.318,55.863Z" transform="translate(3.576 20.399)" fill="none" stroke="#0c9ec6" stroke-miterlimit="10" stroke-width="1"/>
          <path id="Trazado_891266" data-name="Trazado 891266" d="M5.728,65.251a5.448,5.448,0,0,1-2.482-.773,5.12,5.12,0,0,1-1.768-1.985A6.621,6.621,0,0,1,.833,59.47a8.259,8.259,0,0,1,.9-3.363A10.738,10.738,0,0,1,2.717,54.6a7.73,7.73,0,0,1,1.24-1.146A5.9,5.9,0,0,1,6.7,52.265a5.179,5.179,0,0,1,4.736,1.728A9.149,9.149,0,0,1,13.5,58.407a10.21,10.21,0,0,1,.159,2.011,4.272,4.272,0,0,1-.137.852,2.269,2.269,0,0,1-.272.774,3.463,3.463,0,0,1-1.1,1.254,7.79,7.79,0,0,1-1.674.956,11.527,11.527,0,0,1-2.209.753,8.118,8.118,0,0,1-2.536.243" transform="translate(0.37 23.211)" fill="#58b7d6"/>
          <path id="Trazado_891267" data-name="Trazado 891267" d="M5.728,65.251a5.448,5.448,0,0,1-2.482-.773,5.12,5.12,0,0,1-1.768-1.985A6.621,6.621,0,0,1,.833,59.47a8.259,8.259,0,0,1,.9-3.363A10.738,10.738,0,0,1,2.717,54.6a7.73,7.73,0,0,1,1.24-1.146A5.9,5.9,0,0,1,6.7,52.265a5.179,5.179,0,0,1,4.736,1.728A9.149,9.149,0,0,1,13.5,58.407a10.21,10.21,0,0,1,.159,2.011,4.272,4.272,0,0,1-.137.852,2.269,2.269,0,0,1-.272.774,3.463,3.463,0,0,1-1.1,1.254,7.79,7.79,0,0,1-1.674.956,11.527,11.527,0,0,1-2.209.753A8.118,8.118,0,0,1,5.728,65.251Z" transform="translate(0.37 23.211)" fill="none" stroke="#0c9ec6" stroke-miterlimit="10" stroke-width="1"/>
          <path id="Trazado_891268" data-name="Trazado 891268" d="M10.177,74.19a5.354,5.354,0,0,1-4.95.876,6.939,6.939,0,0,1-4.236-4.24,7.156,7.156,0,0,1,.423-6.146,5.077,5.077,0,0,1,4.412-2.453,9.668,9.668,0,0,1,4.684,1.325,5.361,5.361,0,0,1,2.615,2.715,5.8,5.8,0,0,1-.137,3.922,8.475,8.475,0,0,1-2.811,4" transform="translate(0.222 27.675)" fill="#58b7d6"/>
          <path id="Trazado_891269" data-name="Trazado 891269" d="M10.177,74.19a5.354,5.354,0,0,1-4.95.876,6.939,6.939,0,0,1-4.236-4.24,7.156,7.156,0,0,1,.423-6.146,5.077,5.077,0,0,1,4.412-2.453,9.668,9.668,0,0,1,4.684,1.325,5.361,5.361,0,0,1,2.615,2.715,5.8,5.8,0,0,1-.137,3.922A8.475,8.475,0,0,1,10.177,74.19Z" transform="translate(0.222 27.675)" fill="none" stroke="#0c9ec6" stroke-miterlimit="10" stroke-width="1"/>
          <path id="Trazado_891270" data-name="Trazado 891270" d="M18.855,79.3a5.6,5.6,0,0,1-3.723,3.35,6.794,6.794,0,0,1-5.7-1.127A6.924,6.924,0,0,1,6.425,76.45a5.392,5.392,0,0,1,2.017-4.6A8.372,8.372,0,0,1,13,70.059a5.806,5.806,0,0,1,3.917.881c2.018,1.425,3.241,5.019,1.942,8.364" transform="translate(2.85 31.148)" fill="#58b7d6"/>
          <path id="Trazado_891271" data-name="Trazado 891271" d="M18.855,79.3a5.6,5.6,0,0,1-3.723,3.35,6.794,6.794,0,0,1-5.7-1.127A6.924,6.924,0,0,1,6.425,76.45a5.392,5.392,0,0,1,2.017-4.6A8.372,8.372,0,0,1,13,70.059a5.806,5.806,0,0,1,3.917.881C18.931,72.365,20.153,75.959,18.855,79.3Z" transform="translate(2.85 31.148)" fill="none" stroke="#0c9ec6" stroke-miterlimit="10" stroke-width="1"/>
          <path id="Trazado_891272" data-name="Trazado 891272" d="M28.708,80.868a6.219,6.219,0,0,1-7.66,5.481,6.788,6.788,0,0,1-4.539-3.093,5.691,5.691,0,0,1-.438-4.984A7.592,7.592,0,0,1,19.221,74.5a6.025,6.025,0,0,1,4.333-.87,6.845,6.845,0,0,1,5.153,7.237" transform="translate(6.979 32.701)" fill="#58b7d6"/>
          <path id="Trazado_891273" data-name="Trazado 891273" d="M28.708,80.868a6.219,6.219,0,0,1-7.66,5.481,6.788,6.788,0,0,1-4.539-3.093,5.691,5.691,0,0,1-.438-4.984A7.592,7.592,0,0,1,19.221,74.5a6.025,6.025,0,0,1,4.333-.87A6.845,6.845,0,0,1,28.708,80.868Z" transform="translate(6.979 32.701)" fill="none" stroke="#0c9ec6" stroke-miterlimit="10" stroke-width="1"/>
          <path id="Trazado_891274" data-name="Trazado 891274" d="M38.638,80.711a6.4,6.4,0,0,1-6.478,6.578A6.326,6.326,0,0,1,25.7,80.616a6.656,6.656,0,0,1,6.475-6.289,6.554,6.554,0,0,1,6.461,6.384" transform="translate(11.422 33.056)" fill="#58b7d6"/>
          <path id="Trazado_891275" data-name="Trazado 891275" d="M38.638,80.711a6.4,6.4,0,0,1-6.478,6.578A6.326,6.326,0,0,1,25.7,80.616a6.656,6.656,0,0,1,6.475-6.289A6.554,6.554,0,0,1,38.638,80.711Z" transform="translate(11.422 33.056)" fill="none" stroke="#0c9ec6" stroke-miterlimit="10" stroke-width="1"/>
          <path id="Trazado_891276" data-name="Trazado 891276" d="M48.546,79.816a6.47,6.47,0,1,1-12.9,1,6.469,6.469,0,0,1,12.9-1" transform="translate(15.853 32.9)" fill="#58b7d6"/>
          <path id="Trazado_891277" data-name="Trazado 891277" d="M48.546,79.816a6.47,6.47,0,1,1-12.9,1,6.469,6.469,0,0,1,12.9-1Z" transform="translate(15.853 32.9)" fill="none" stroke="#0c9ec6" stroke-miterlimit="10" stroke-width="1"/>
          <path id="Trazado_891278" data-name="Trazado 891278" d="M58.265,77.688a6.469,6.469,0,1,1-12.683,2.52,6.469,6.469,0,0,1,12.683-2.52" transform="translate(20.248 32.325)" fill="#58b7d6"/>
          <path id="Trazado_891279" data-name="Trazado 891279" d="M58.265,77.688a6.469,6.469,0,1,1-12.683,2.52,6.469,6.469,0,0,1,12.683-2.52Z" transform="translate(20.248 32.325)" fill="none" stroke="#0c9ec6" stroke-miterlimit="10" stroke-width="1"/>
          <path id="Trazado_891280" data-name="Trazado 891280" d="M67.452,73.872A6.468,6.468,0,1,1,55.386,78.5a6.466,6.466,0,0,1,12.065-4.625" transform="translate(24.519 31.14)" fill="#58b7d6"/>
          <path id="Trazado_891281" data-name="Trazado 891281" d="M67.452,73.872A6.468,6.468,0,1,1,55.386,78.5a6.466,6.466,0,0,1,12.065-4.625Z" transform="translate(24.519 31.14)" fill="none" stroke="#0c9ec6" stroke-miterlimit="10" stroke-width="1"/>
          <path id="Trazado_891282" data-name="Trazado 891282" d="M75.454,67.946a6.024,6.024,0,0,1,1.477,4.808,6.9,6.9,0,0,1-8.213,5.572A6.1,6.1,0,0,1,64.784,75.2a6.932,6.932,0,0,1-.563-4.86,5.93,5.93,0,0,1,6.917-4.688,7.041,7.041,0,0,1,4.315,2.3" transform="translate(28.47 29.152)" fill="#58b7d6"/>
          <path id="Trazado_891283" data-name="Trazado 891283" d="M75.454,67.946a6.024,6.024,0,0,1,1.477,4.808,6.9,6.9,0,0,1-8.213,5.572A6.1,6.1,0,0,1,64.784,75.2a6.932,6.932,0,0,1-.563-4.86,5.93,5.93,0,0,1,6.917-4.688A7.041,7.041,0,0,1,75.454,67.946Z" transform="translate(28.47 29.152)" fill="none" stroke="#0c9ec6" stroke-miterlimit="10" stroke-width="1"/>
          <path id="Trazado_891284" data-name="Trazado 891284" d="M81.575,60.062a5.851,5.851,0,0,1,2.657,4.187,6.877,6.877,0,0,1-.176,2.654,7.671,7.671,0,0,1-1.381,2.5,6.633,6.633,0,0,1-4.805,2.46,5.819,5.819,0,0,1-4.606-1.92,7.34,7.34,0,0,1-1.884-4.554,6.241,6.241,0,0,1,1.351-4.3,5.164,5.164,0,0,1,1.812-1.4,6.059,6.059,0,0,1,2.193-.706,7.244,7.244,0,0,1,4.84,1.086" transform="translate(31.739 26.203)" fill="#58b7d6"/>
          <path id="Trazado_891285" data-name="Trazado 891285" d="M81.575,60.062a5.851,5.851,0,0,1,2.657,4.187,6.877,6.877,0,0,1-.176,2.654,7.671,7.671,0,0,1-1.381,2.5,6.633,6.633,0,0,1-4.805,2.46,5.819,5.819,0,0,1-4.606-1.92,7.34,7.34,0,0,1-1.884-4.554,6.241,6.241,0,0,1,1.351-4.3,5.164,5.164,0,0,1,1.812-1.4,6.059,6.059,0,0,1,2.193-.706A7.244,7.244,0,0,1,81.575,60.062Z" transform="translate(31.739 26.203)" fill="none" stroke="#0c9ec6" stroke-miterlimit="10" stroke-width="1"/>
          <path id="Trazado_891286" data-name="Trazado 891286" d="M85.75,51.011A6.318,6.318,0,0,1,88.925,59.8a6.793,6.793,0,0,1-4.014,3.451,6.034,6.034,0,0,1-4.951-.685,7,7,0,0,1-2.975-3.918,6.056,6.056,0,0,1,.325-4.6,6.673,6.673,0,0,1,8.439-3.031" transform="translate(34.105 22.47)" fill="#58b7d6"/>
          <path id="Trazado_891287" data-name="Trazado 891287" d="M85.75,51.011A6.318,6.318,0,0,1,88.925,59.8a6.793,6.793,0,0,1-4.014,3.451,6.034,6.034,0,0,1-4.951-.685,7,7,0,0,1-2.975-3.918,6.056,6.056,0,0,1,.325-4.6A6.673,6.673,0,0,1,85.75,51.011Z" transform="translate(34.105 22.47)" fill="none" stroke="#0c9ec6" stroke-miterlimit="10" stroke-width="1"/>
          <path id="Trazado_891288" data-name="Trazado 891288" d="M88.792,41.54A6.47,6.47,0,1,1,84.649,53.8,6.47,6.47,0,0,1,88.792,41.54" transform="translate(35.743 18.348)" fill="#58b7d6"/>
          <path id="Trazado_891289" data-name="Trazado 891289" d="M88.792,41.54A6.47,6.47,0,1,1,84.649,53.8,6.47,6.47,0,0,1,88.792,41.54Z" transform="translate(35.743 18.348)" fill="none" stroke="#0c9ec6" stroke-miterlimit="10" stroke-width="1"/>
          <path id="Trazado_891290" data-name="Trazado 891290" d="M91.833,32.08a6.584,6.584,0,0,1,4.149,8.07,6.481,6.481,0,0,1-12.374-3.859,6.378,6.378,0,0,1,8.225-4.211" transform="translate(37.051 14.098)" fill="#58b7d6"/>
          <path id="Trazado_891291" data-name="Trazado 891291" d="M91.833,32.08a6.584,6.584,0,0,1,4.149,8.07,6.481,6.481,0,0,1-12.374-3.859A6.378,6.378,0,0,1,91.833,32.08Z" transform="translate(37.051 14.098)" fill="none" stroke="#0c9ec6" stroke-miterlimit="10" stroke-width="1"/>
          <path id="Trazado_891292" data-name="Trazado 891292" d="M96.73,23.484a7.891,7.891,0,0,1,2.7,4.073,6.111,6.111,0,0,1,.26,2.21,5.4,5.4,0,0,1-.562,2.132,6.487,6.487,0,0,1-1.4,1.786,7.465,7.465,0,0,1-2.02,1.186,6.908,6.908,0,0,1-4.934.046,6.092,6.092,0,0,1-3.561-3.488,5.925,5.925,0,0,1-.4-2.593,6.47,6.47,0,0,1,.741-2.771,7.254,7.254,0,0,1,1.816-2.307A6.935,6.935,0,0,1,91.8,22.477a5.584,5.584,0,0,1,4.927,1.007" transform="translate(38.606 9.908)" fill="#58b7d6"/>
          <path id="Trazado_891293" data-name="Trazado 891293" d="M96.73,23.484a7.891,7.891,0,0,1,2.7,4.073,6.111,6.111,0,0,1,.26,2.21,5.4,5.4,0,0,1-.562,2.132,6.487,6.487,0,0,1-1.4,1.786,7.465,7.465,0,0,1-2.02,1.186,6.908,6.908,0,0,1-4.934.046,6.092,6.092,0,0,1-3.561-3.488,5.925,5.925,0,0,1-.4-2.593,6.47,6.47,0,0,1,.741-2.771,7.254,7.254,0,0,1,1.816-2.307A6.935,6.935,0,0,1,91.8,22.477,5.584,5.584,0,0,1,96.73,23.484Z" transform="translate(38.606 9.908)" fill="none" stroke="#0c9ec6" stroke-miterlimit="10" stroke-width="1"/>
          <path id="Trazado_891294" data-name="Trazado 891294" d="M105.591,18.77a8.249,8.249,0,0,1-.178,4.849,5.681,5.681,0,0,1-2.148,3.236,5.74,5.74,0,0,1-1.731.652,11.2,11.2,0,0,1-2.1.033,8.513,8.513,0,0,1-4.552-1.859,5.33,5.33,0,0,1-1.942-4.609,5.45,5.45,0,0,1,.936-2.732A6.78,6.78,0,0,1,96.186,16a7.05,7.05,0,0,1,5.968-.943,5.474,5.474,0,0,1,3.437,3.717" transform="translate(41.328 6.566)" fill="#58b7d6"/>
          <path id="Trazado_891295" data-name="Trazado 891295" d="M105.591,18.77a8.249,8.249,0,0,1-.178,4.849,5.681,5.681,0,0,1-2.148,3.236,5.74,5.74,0,0,1-1.731.652,11.2,11.2,0,0,1-2.1.033,8.513,8.513,0,0,1-4.552-1.859,5.33,5.33,0,0,1-1.942-4.609,5.45,5.45,0,0,1,.936-2.732A6.78,6.78,0,0,1,96.186,16a7.05,7.05,0,0,1,5.968-.943A5.474,5.474,0,0,1,105.591,18.77Z" transform="translate(41.328 6.566)" fill="none" stroke="#0c9ec6" stroke-miterlimit="10" stroke-width="1"/>
          <path id="Trazado_891296" data-name="Trazado 891296" d="M115.521,19.346a12.766,12.766,0,0,1-1.209,2.244c-.422.65-.829,1.357-1.088,1.868a5.414,5.414,0,0,1-3.976,1.777,5.843,5.843,0,0,1-3.956-1.547,8.185,8.185,0,0,1-2.595-4.214,5.412,5.412,0,0,1,1.144-4.836,6.871,6.871,0,0,1,5.146-2.364,6.563,6.563,0,0,1,2.878.566,8.333,8.333,0,0,1,2.287,1.5,4.105,4.105,0,0,1,1.368,5.01" transform="translate(45.604 5.454)" fill="#58b7d6"/>
          <path id="Trazado_891297" data-name="Trazado 891297" d="M115.521,19.346a12.766,12.766,0,0,1-1.209,2.244c-.422.65-.829,1.357-1.088,1.868a5.414,5.414,0,0,1-3.976,1.777,5.843,5.843,0,0,1-3.956-1.547,8.185,8.185,0,0,1-2.595-4.214,5.412,5.412,0,0,1,1.144-4.836,6.871,6.871,0,0,1,5.146-2.364,6.563,6.563,0,0,1,2.878.566,8.333,8.333,0,0,1,2.287,1.5A4.105,4.105,0,0,1,115.521,19.346Z" transform="translate(45.604 5.454)" fill="none" stroke="#0c9ec6" stroke-miterlimit="10" stroke-width="1"/>
          <path id="Trazado_891298" data-name="Trazado 891298" d="M120.564,28.566a7.042,7.042,0,0,1-8.518-1.956,4.85,4.85,0,0,1-.669-3.726,13.715,13.715,0,0,1,1.547-4.564,4.608,4.608,0,0,1,4.557-2.275,7.383,7.383,0,0,1,5.247,3.223c2.491,3.7,1.047,7.813-2.164,9.3" transform="translate(49.49 7.125)" fill="#58b7d6"/>
          <path id="Trazado_891299" data-name="Trazado 891299" d="M120.564,28.566a7.042,7.042,0,0,1-8.518-1.956,4.85,4.85,0,0,1-.669-3.726,13.715,13.715,0,0,1,1.547-4.564,4.608,4.608,0,0,1,4.557-2.275,7.383,7.383,0,0,1,5.247,3.223C125.219,22.968,123.776,27.081,120.564,28.566Z" transform="translate(49.49 7.125)" fill="none" stroke="#0c9ec6" stroke-miterlimit="10" stroke-width="1"/>
          <path id="Trazado_891300" data-name="Trazado 891300" d="M123.864,37.908a6.61,6.61,0,0,1-8.161-3.9,6.682,6.682,0,0,1,3.661-8.226,6.469,6.469,0,1,1,4.5,12.124" transform="translate(51.294 11.218)" fill="#58b7d6"/>
          <path id="Trazado_891301" data-name="Trazado 891301" d="M123.864,37.908a6.61,6.61,0,0,1-8.161-3.9,6.682,6.682,0,0,1,3.661-8.226,6.469,6.469,0,1,1,4.5,12.124Z" transform="translate(51.294 11.218)" fill="none" stroke="#0c9ec6" stroke-miterlimit="10" stroke-width="1"/>
          <path id="Trazado_891302" data-name="Trazado 891302" d="M126.421,47.517a6.47,6.47,0,0,1-3.446-12.472,6.47,6.47,0,1,1,3.446,12.472" transform="translate(52.613 15.458)" fill="#58b7d6"/>
          <path id="Trazado_891303" data-name="Trazado 891303" d="M126.421,47.517a6.47,6.47,0,0,1-3.446-12.472,6.47,6.47,0,1,1,3.446,12.472Z" transform="translate(52.613 15.458)" fill="none" stroke="#0c9ec6" stroke-miterlimit="10" stroke-width="1"/>
          <path id="Trazado_891304" data-name="Trazado 891304" d="M128.684,57.206a6.47,6.47,0,1,1,4.837-7.792,6.489,6.489,0,0,1-4.837,7.792" transform="translate(53.695 19.756)" fill="#58b7d6"/>
          <path id="Trazado_891305" data-name="Trazado 891305" d="M128.684,57.206a6.47,6.47,0,1,1,4.837-7.792A6.489,6.489,0,0,1,128.684,57.206Z" transform="translate(53.695 19.756)" fill="none" stroke="#0c9ec6" stroke-miterlimit="10" stroke-width="1"/>
          <path id="Trazado_891306" data-name="Trazado 891306" d="M131.745,66.655a5.809,5.809,0,0,1-4.99-.092,6.752,6.752,0,0,1-3.417-4.165,6.32,6.32,0,0,1,4.639-8.1,6.672,6.672,0,0,1,7.8,4.447,6.09,6.09,0,0,1-.478,4.5,7.359,7.359,0,0,1-3.553,3.414" transform="translate(54.728 24.072)" fill="#58b7d6"/>
          <path id="Trazado_891307" data-name="Trazado 891307" d="M131.745,66.655a5.809,5.809,0,0,1-4.99-.092,6.752,6.752,0,0,1-3.417-4.165,6.32,6.32,0,0,1,4.639-8.1,6.672,6.672,0,0,1,7.8,4.447,6.09,6.09,0,0,1-.478,4.5A7.359,7.359,0,0,1,131.745,66.655Z" transform="translate(54.728 24.072)" fill="none" stroke="#0c9ec6" stroke-miterlimit="10" stroke-width="1"/>
          <path id="Trazado_891308" data-name="Trazado 891308" d="M138.275,74.143a5.52,5.52,0,0,1-4.583,2.028,7.126,7.126,0,0,1-6.34-8.371,5.67,5.67,0,0,1,3.154-3.882A7.635,7.635,0,0,1,135.4,63.4a6.072,6.072,0,0,1,3.625,2.154,6,6,0,0,1,1.03,4.011,8,8,0,0,1-1.776,4.574" transform="translate(56.572 28.117)" fill="#58b7d6"/>
          <path id="Trazado_891309" data-name="Trazado 891309" d="M138.275,74.143a5.52,5.52,0,0,1-4.583,2.028,7.126,7.126,0,0,1-6.34-8.371,5.67,5.67,0,0,1,3.154-3.882A7.635,7.635,0,0,1,135.4,63.4a6.072,6.072,0,0,1,3.625,2.154,6,6,0,0,1,1.03,4.011A8,8,0,0,1,138.275,74.143Z" transform="translate(56.572 28.117)" fill="none" stroke="#0c9ec6" stroke-miterlimit="10" stroke-width="1"/>
          <path id="Trazado_891310" data-name="Trazado 891310" d="M147.966,76.362a4.79,4.79,0,0,1-.247,2.563,4.625,4.625,0,0,1-1.76,2.121,7.384,7.384,0,0,1-6.616.578,6.838,6.838,0,0,1-4.287-4.324,5.409,5.409,0,0,1,.952-4.929,8.318,8.318,0,0,1,4.052-2.749,6.084,6.084,0,0,1,3.827-.136,4.624,4.624,0,0,1,2.306,2.4,14.76,14.76,0,0,1,1.771,4.479" transform="translate(59.961 30.792)" fill="#58b7d6"/>
          <path id="Trazado_891311" data-name="Trazado 891311" d="M147.966,76.362a4.79,4.79,0,0,1-.247,2.563,4.625,4.625,0,0,1-1.76,2.121,7.384,7.384,0,0,1-6.616.578,6.838,6.838,0,0,1-4.287-4.324,5.409,5.409,0,0,1,.952-4.929,8.318,8.318,0,0,1,4.052-2.749,6.084,6.084,0,0,1,3.827-.136,4.624,4.624,0,0,1,2.306,2.4A14.76,14.76,0,0,1,147.966,76.362Z" transform="translate(59.961 30.792)" fill="none" stroke="#0c9ec6" stroke-miterlimit="10" stroke-width="1"/>
          <path id="Trazado_891312" data-name="Trazado 891312" d="M154.792,68.723a5.833,5.833,0,0,1,1.832,1.836,5.3,5.3,0,0,1,.721,2.472,6.933,6.933,0,0,1-2.56,5.528,9.934,9.934,0,0,1-3.022,1.607,7.26,7.26,0,0,1-3.025.036,5.15,5.15,0,0,1-2.381-1.186,4.77,4.77,0,0,1-1.342-2.206,10.264,10.264,0,0,1-.38-2.536,9.742,9.742,0,0,1,.136-2.335,5.991,5.991,0,0,1,.615-1.872,2.847,2.847,0,0,1,1.021-1.4,5.788,5.788,0,0,1,3.632-1.172,9.178,9.178,0,0,1,2.391.257,7.352,7.352,0,0,1,2.362.969" transform="translate(64.317 30.017)" fill="#58b7d6"/>
          <path id="Trazado_891313" data-name="Trazado 891313" d="M154.792,68.723a5.833,5.833,0,0,1,1.832,1.836,5.3,5.3,0,0,1,.721,2.472,6.933,6.933,0,0,1-2.56,5.528,9.934,9.934,0,0,1-3.022,1.607,7.26,7.26,0,0,1-3.025.036,5.15,5.15,0,0,1-2.381-1.186,4.77,4.77,0,0,1-1.342-2.206,10.264,10.264,0,0,1-.38-2.536,9.742,9.742,0,0,1,.136-2.335,5.991,5.991,0,0,1,.615-1.872,2.847,2.847,0,0,1,1.021-1.4,5.788,5.788,0,0,1,3.632-1.172,9.178,9.178,0,0,1,2.391.257A7.352,7.352,0,0,1,154.792,68.723Z" transform="translate(64.317 30.017)" fill="none" stroke="#0c9ec6" stroke-miterlimit="10" stroke-width="1"/>
          <path id="Trazado_891314" data-name="Trazado 891314" d="M157.9,59.208a6.182,6.182,0,0,1,3.93,3.086,6.639,6.639,0,0,1,.247,5.335,7.111,7.111,0,0,1-1.514,2.469,6.936,6.936,0,0,1-2.255,1.542,5.613,5.613,0,0,1-5-.38,7.8,7.8,0,0,1-3.2-3.71,6.116,6.116,0,0,1-.509-2.184,5.578,5.578,0,0,1,.319-2.221,6.245,6.245,0,0,1,3.1-3.355,6.8,6.8,0,0,1,4.888-.582" transform="translate(66.531 26.237)" fill="#58b7d6"/>
          <path id="Trazado_891315" data-name="Trazado 891315" d="M157.9,59.208a6.182,6.182,0,0,1,3.93,3.086,6.639,6.639,0,0,1,.247,5.335,7.111,7.111,0,0,1-1.514,2.469,6.936,6.936,0,0,1-2.255,1.542,5.613,5.613,0,0,1-5-.38,7.8,7.8,0,0,1-3.2-3.71,6.116,6.116,0,0,1-.509-2.184,5.578,5.578,0,0,1,.319-2.221,6.245,6.245,0,0,1,3.1-3.355A6.8,6.8,0,0,1,157.9,59.208Z" transform="translate(66.531 26.237)" fill="none" stroke="#0c9ec6" stroke-miterlimit="10" stroke-width="1"/>
          <path id="Trazado_891316" data-name="Trazado 891316" d="M159.679,49.419a6.413,6.413,0,0,1,5.211,7.6,6.529,6.529,0,0,1-2.824,4.256,6.157,6.157,0,0,1-4.893.838,6.823,6.823,0,0,1-4.048-2.856,6.359,6.359,0,0,1-.959-4.7,6.542,6.542,0,0,1,7.514-5.135" transform="translate(67.625 21.937)" fill="#58b7d6"/>
          <path id="Trazado_891317" data-name="Trazado 891317" d="M159.679,49.419a6.413,6.413,0,0,1,5.211,7.6,6.529,6.529,0,0,1-2.824,4.256,6.157,6.157,0,0,1-4.893.838,6.823,6.823,0,0,1-4.048-2.856,6.359,6.359,0,0,1-.959-4.7A6.542,6.542,0,0,1,159.679,49.419Z" transform="translate(67.625 21.937)" fill="none" stroke="#0c9ec6" stroke-miterlimit="10" stroke-width="1"/>
          <path id="Trazado_891318" data-name="Trazado 891318" d="M161.411,39.624a6.47,6.47,0,0,1-2.252,12.743,6.47,6.47,0,1,1,2.252-12.743" transform="translate(68.385 17.566)" fill="#58b7d6"/>
          <path id="Trazado_891319" data-name="Trazado 891319" d="M161.411,39.624a6.47,6.47,0,0,1-2.252,12.743,6.47,6.47,0,1,1,2.252-12.743Z" transform="translate(68.385 17.566)" fill="none" stroke="#0c9ec6" stroke-miterlimit="10" stroke-width="1"/>
          <path id="Trazado_891320" data-name="Trazado 891320" d="M164.088,30.052a6.9,6.9,0,0,1,3.779,3.155,6.128,6.128,0,0,1,.66,4.655,6.6,6.6,0,0,1-7.713,4.7,6.369,6.369,0,0,1-4.843-7.917,6.729,6.729,0,0,1,3.141-4.151,6.1,6.1,0,0,1,4.976-.442" transform="translate(69.274 13.216)" fill="#58b7d6"/>
          <path id="Trazado_891321" data-name="Trazado 891321" d="M164.088,30.052a6.9,6.9,0,0,1,3.779,3.155,6.128,6.128,0,0,1,.66,4.655,6.6,6.6,0,0,1-7.713,4.7,6.369,6.369,0,0,1-4.843-7.917,6.729,6.729,0,0,1,3.141-4.151A6.1,6.1,0,0,1,164.088,30.052Z" transform="translate(69.274 13.216)" fill="none" stroke="#0c9ec6" stroke-miterlimit="10" stroke-width="1"/>
          <path id="Trazado_891322" data-name="Trazado 891322" d="M168.955,21.407a7.44,7.44,0,0,1,2.752,4.024,6.4,6.4,0,0,1,.288,2.271,6.489,6.489,0,0,1-.578,2.141A5.017,5.017,0,0,1,170,31.606a6.321,6.321,0,0,1-1.976,1.2,7.221,7.221,0,0,1-4.953.074,5.881,5.881,0,0,1-3.567-3.454,6.7,6.7,0,0,1-.445-2.614,7.859,7.859,0,0,1,.764-2.778,6.414,6.414,0,0,1,1.813-2.29A6.735,6.735,0,0,1,164,20.467a5.8,5.8,0,0,1,4.954.939" transform="translate(70.741 9.015)" fill="#58b7d6"/>
          <path id="Trazado_891323" data-name="Trazado 891323" d="M168.955,21.407a7.44,7.44,0,0,1,2.752,4.024,6.4,6.4,0,0,1,.288,2.271,6.489,6.489,0,0,1-.578,2.141A5.017,5.017,0,0,1,170,31.606a6.321,6.321,0,0,1-1.976,1.2,7.221,7.221,0,0,1-4.953.074,5.881,5.881,0,0,1-3.567-3.454,6.7,6.7,0,0,1-.445-2.614,7.859,7.859,0,0,1,.764-2.778,6.414,6.414,0,0,1,1.813-2.29A6.735,6.735,0,0,1,164,20.467,5.8,5.8,0,0,1,168.955,21.407Z" transform="translate(70.741 9.015)" fill="none" stroke="#0c9ec6" stroke-miterlimit="10" stroke-width="1"/>
          <path id="Trazado_891324" data-name="Trazado 891324" d="M177.1,15.61a7.68,7.68,0,0,1,.626,4.817,7.24,7.24,0,0,1-.643,2.1,6.211,6.211,0,0,1-1.273,1.575,4.088,4.088,0,0,1-1.825.928,6.6,6.6,0,0,1-2.151.306,8.071,8.071,0,0,1-4.667-1.617,5.455,5.455,0,0,1-2.183-4.474,6.577,6.577,0,0,1,.623-2.728,8.756,8.756,0,0,1,1.948-2.41,6.561,6.561,0,0,1,2.765-1.425,6.281,6.281,0,0,1,2.778-.172,5.688,5.688,0,0,1,4,3.095" transform="translate(73.374 5.527)" fill="#58b7d6"/>
          <path id="Trazado_891325" data-name="Trazado 891325" d="M177.1,15.61a7.68,7.68,0,0,1,.626,4.817,7.24,7.24,0,0,1-.643,2.1,6.211,6.211,0,0,1-1.273,1.575,4.088,4.088,0,0,1-1.825.928,6.6,6.6,0,0,1-2.151.306,8.071,8.071,0,0,1-4.667-1.617,5.455,5.455,0,0,1-2.183-4.474,6.577,6.577,0,0,1,.623-2.728,8.756,8.756,0,0,1,1.948-2.41,6.561,6.561,0,0,1,2.765-1.425,6.281,6.281,0,0,1,2.778-.172A5.688,5.688,0,0,1,177.1,15.61Z" transform="translate(73.374 5.527)" fill="none" stroke="#0c9ec6" stroke-miterlimit="10" stroke-width="1"/>
          <path id="Trazado_891326" data-name="Trazado 891326" d="M186.967,13.908a7.617,7.617,0,0,1-1.4,4.766,6.487,6.487,0,0,1-3.584,2.5,4.94,4.94,0,0,1-2.157-.02,5.863,5.863,0,0,1-2.052-.728,8.106,8.106,0,0,1-3.363-3.635,5.429,5.429,0,0,1,.181-4.961A7.129,7.129,0,0,1,176.417,9.7a7.711,7.711,0,0,1,2.739-1.185,6.482,6.482,0,0,1,5.438,1.042,5.647,5.647,0,0,1,2.372,4.347" transform="translate(77.342 3.695)" fill="#58b7d6"/>
          <path id="Trazado_891327" data-name="Trazado 891327" d="M186.967,13.908a7.617,7.617,0,0,1-1.4,4.766,6.487,6.487,0,0,1-3.584,2.5,4.94,4.94,0,0,1-2.157-.02,5.863,5.863,0,0,1-2.052-.728,8.106,8.106,0,0,1-3.363-3.635,5.429,5.429,0,0,1,.181-4.961A7.129,7.129,0,0,1,176.417,9.7a7.711,7.711,0,0,1,2.739-1.185,6.482,6.482,0,0,1,5.438,1.042A5.647,5.647,0,0,1,186.967,13.908Z" transform="translate(77.342 3.695)" fill="none" stroke="#0c9ec6" stroke-miterlimit="10" stroke-width="1"/>
          <path id="Trazado_891328" data-name="Trazado 891328" d="M196.685,15.785a8.124,8.124,0,0,1-3.064,3.827,5.913,5.913,0,0,1-4.028,1.11,6.559,6.559,0,0,1-3.751-2.06,7.177,7.177,0,0,1-1.9-4.551A5.918,5.918,0,0,1,185.836,9.5a6.458,6.458,0,0,1,5.377-1.634,6.854,6.854,0,0,1,4.928,2.939,5.471,5.471,0,0,1,.543,4.986" transform="translate(81.805 3.469)" fill="#58b7d6"/>
          <path id="Trazado_891329" data-name="Trazado 891329" d="M196.685,15.785a8.124,8.124,0,0,1-3.064,3.827,5.913,5.913,0,0,1-4.028,1.11,6.559,6.559,0,0,1-3.751-2.06,7.177,7.177,0,0,1-1.9-4.551A5.918,5.918,0,0,1,185.836,9.5a6.458,6.458,0,0,1,5.377-1.634,6.854,6.854,0,0,1,4.928,2.939A5.471,5.471,0,0,1,196.685,15.785Z" transform="translate(81.805 3.469)" fill="none" stroke="#0c9ec6" stroke-miterlimit="10" stroke-width="1"/>
          <path id="Trazado_891330" data-name="Trazado 891330" d="M203.516,23.005a9.951,9.951,0,0,1-4.743,1.065,5.406,5.406,0,0,1-3.545-1.027,5.909,5.909,0,0,1-1.764-3.434,8.438,8.438,0,0,1,.409-4.873,5.362,5.362,0,0,1,3.833-3.252,6.91,6.91,0,0,1,5.841,1.618,7.147,7.147,0,0,1,2.684,5.639,5.027,5.027,0,0,1-2.715,4.265" transform="translate(85.961 5.046)" fill="#58b7d6"/>
          <path id="Trazado_891331" data-name="Trazado 891331" d="M203.516,23.005a9.951,9.951,0,0,1-4.743,1.065,5.406,5.406,0,0,1-3.545-1.027,5.909,5.909,0,0,1-1.764-3.434,8.438,8.438,0,0,1,.409-4.873,5.362,5.362,0,0,1,3.833-3.252,6.91,6.91,0,0,1,5.841,1.618,7.147,7.147,0,0,1,2.684,5.639A5.027,5.027,0,0,1,203.516,23.005Z" transform="translate(85.961 5.046)" fill="none" stroke="#0c9ec6" stroke-miterlimit="10" stroke-width="1"/>
          <path id="Trazado_891332" data-name="Trazado 891332" d="M203.378,33.169a7.948,7.948,0,0,1-4.266-2.414,6.1,6.1,0,0,1-1.776-3.61,5.383,5.383,0,0,1,1.3-3.55,9.754,9.754,0,0,1,3.707-3.129,5.052,5.052,0,0,1,5.046.413,7.154,7.154,0,0,1,2.884,5.438,6.792,6.792,0,0,1-2.06,5.52,5.529,5.529,0,0,1-4.834,1.332" transform="translate(87.762 8.885)" fill="#58b7d6"/>
          <path id="Trazado_891333" data-name="Trazado 891333" d="M203.378,33.169a7.948,7.948,0,0,1-4.266-2.414,6.1,6.1,0,0,1-1.776-3.61,5.383,5.383,0,0,1,1.3-3.55,9.754,9.754,0,0,1,3.707-3.129,5.052,5.052,0,0,1,5.046.413,7.154,7.154,0,0,1,2.884,5.438,6.792,6.792,0,0,1-2.06,5.52A5.529,5.529,0,0,1,203.378,33.169Z" transform="translate(87.762 8.885)" fill="none" stroke="#0c9ec6" stroke-miterlimit="10" stroke-width="1"/>
          <path id="Trazado_891334" data-name="Trazado 891334" d="M199.2,42.153a6.735,6.735,0,0,1-3.219-3.716,6.317,6.317,0,0,1-.051-4.516,6.023,6.023,0,0,1,3.083-3.181,7.542,7.542,0,0,1,4.88-.6,5.717,5.717,0,0,1,3.947,3.07,6.794,6.794,0,0,1,.143,5.48,6.579,6.579,0,0,1-3.8,3.829,6.234,6.234,0,0,1-4.989-.364" transform="translate(86.963 13.329)" fill="#58b7d6"/>
          <path id="Trazado_891335" data-name="Trazado 891335" d="M199.2,42.153a6.735,6.735,0,0,1-3.219-3.716,6.317,6.317,0,0,1-.051-4.516,6.023,6.023,0,0,1,3.083-3.181,7.542,7.542,0,0,1,4.88-.6,5.717,5.717,0,0,1,3.947,3.07,6.794,6.794,0,0,1,.143,5.48,6.579,6.579,0,0,1-3.8,3.829A6.234,6.234,0,0,1,199.2,42.153Z" transform="translate(86.963 13.329)" fill="none" stroke="#0c9ec6" stroke-miterlimit="10" stroke-width="1"/>
          <path id="Trazado_891336" data-name="Trazado 891336" d="M193.793,50.535a6.581,6.581,0,0,1-1.943-8.829,6.058,6.058,0,0,1,3.855-2.768,6.777,6.777,0,0,1,4.888.6,6.2,6.2,0,0,1,3.085,3.928,6.827,6.827,0,0,1-.823,5.1,6.383,6.383,0,0,1-9.06,1.976" transform="translate(84.898 17.225)" fill="#58b7d6"/>
          <path id="Trazado_891337" data-name="Trazado 891337" d="M193.793,50.535a6.581,6.581,0,0,1-1.943-8.829,6.058,6.058,0,0,1,3.855-2.768,6.777,6.777,0,0,1,4.888.6,6.2,6.2,0,0,1,3.085,3.928,6.827,6.827,0,0,1-.823,5.1A6.383,6.383,0,0,1,193.793,50.535Z" transform="translate(84.898 17.225)" fill="none" stroke="#0c9ec6" stroke-miterlimit="10" stroke-width="1"/>
          <path id="Trazado_891338" data-name="Trazado 891338" d="M187.78,58.484a6.47,6.47,0,0,1,7.7-10.4,6.47,6.47,0,1,1-7.7,10.4" transform="translate(82.38 20.854)" fill="#58b7d6"/>
          <path id="Trazado_891339" data-name="Trazado 891339" d="M187.78,58.484a6.47,6.47,0,0,1,7.7-10.4,6.47,6.47,0,1,1-7.7,10.4Z" transform="translate(82.38 20.854)" fill="none" stroke="#0c9ec6" stroke-miterlimit="10" stroke-width="1"/>
          <path id="Trazado_891340" data-name="Trazado 891340" d="M181.692,66.365a6.47,6.47,0,1,1,9.064-1.159,6.445,6.445,0,0,1-9.064,1.159" transform="translate(79.674 24.354)" fill="#58b7d6"/>
          <path id="Trazado_891341" data-name="Trazado 891341" d="M181.692,66.365a6.47,6.47,0,1,1,9.064-1.159A6.445,6.445,0,0,1,181.692,66.365Z" transform="translate(79.674 24.354)" fill="none" stroke="#0c9ec6" stroke-miterlimit="10" stroke-width="1"/>
          <path id="Trazado_891342" data-name="Trazado 891342" d="M176.042,74.567a6.47,6.47,0,1,1,7.438-10.586,6.469,6.469,0,0,1-7.438,10.586" transform="translate(77.01 27.886)" fill="#58b7d6"/>
          <path id="Trazado_891343" data-name="Trazado 891343" d="M176.042,74.567a6.47,6.47,0,1,1,7.438-10.586,6.469,6.469,0,0,1-7.438,10.586Z" transform="translate(77.01 27.886)" fill="none" stroke="#0c9ec6" stroke-miterlimit="10" stroke-width="1"/>
          <path id="Trazado_891344" data-name="Trazado 891344" d="M171.42,83.394a6.118,6.118,0,0,1-3.324-3.729,6.929,6.929,0,0,1,.548-5.188,6.853,6.853,0,0,1,4.071-3.2,6.194,6.194,0,0,1,4.919.78,6.775,6.775,0,0,1,2.905,3.992,6.015,6.015,0,0,1-.55,4.7,5.95,5.95,0,0,1-3.655,2.94,6.893,6.893,0,0,1-4.914-.29" transform="translate(74.637 31.607)" fill="#58b7d6"/>
          <path id="Trazado_891345" data-name="Trazado 891345" d="M171.42,83.394a6.118,6.118,0,0,1-3.324-3.729,6.929,6.929,0,0,1,.548-5.188,6.853,6.853,0,0,1,4.071-3.2,6.194,6.194,0,0,1,4.919.78,6.775,6.775,0,0,1,2.905,3.992,6.015,6.015,0,0,1-.55,4.7,5.95,5.95,0,0,1-3.655,2.94A6.893,6.893,0,0,1,171.42,83.394Z" transform="translate(74.637 31.607)" fill="none" stroke="#0c9ec6" stroke-miterlimit="10" stroke-width="1"/>
          <path id="Trazado_891346" data-name="Trazado 891346" d="M168.487,92.912a6.238,6.238,0,0,1-4.337-8.273,6.783,6.783,0,0,1,3.483-3.963,6.18,6.18,0,0,1,5.007,0,6.807,6.807,0,0,1,3.477,3.469,6.068,6.068,0,0,1,.319,4.62,6.791,6.791,0,0,1-7.95,4.146" transform="translate(72.835 35.644)" fill="#58b7d6"/>
          <path id="Trazado_891347" data-name="Trazado 891347" d="M168.487,92.912a6.238,6.238,0,0,1-4.337-8.273,6.783,6.783,0,0,1,3.483-3.963,6.18,6.18,0,0,1,5.007,0,6.807,6.807,0,0,1,3.477,3.469,6.068,6.068,0,0,1,.319,4.62A6.791,6.791,0,0,1,168.487,92.912Z" transform="translate(72.835 35.644)" fill="none" stroke="#0c9ec6" stroke-miterlimit="10" stroke-width="1"/>
          <path id="Trazado_891348" data-name="Trazado 891348" d="M166.837,102.728a6.431,6.431,0,0,1-5.3-7.524,6.366,6.366,0,0,1,7.65-5.2,6.6,6.6,0,0,1,5.109,7.49,6.522,6.522,0,0,1-7.459,5.234" transform="translate(71.796 39.954)" fill="#58b7d6"/>
          <path id="Trazado_891349" data-name="Trazado 891349" d="M166.837,102.728a6.431,6.431,0,0,1-5.3-7.524,6.366,6.366,0,0,1,7.65-5.2,6.6,6.6,0,0,1,5.109,7.49A6.522,6.522,0,0,1,166.837,102.728Z" transform="translate(71.796 39.954)" fill="none" stroke="#0c9ec6" stroke-miterlimit="10" stroke-width="1"/>
          <path id="Trazado_891350" data-name="Trazado 891350" d="M164.859,112.466a6.628,6.628,0,0,1-4.993-7.533,6.545,6.545,0,0,1,7.481-5.162,6.41,6.41,0,0,1,5.253,7.583,6.345,6.345,0,0,1-7.741,5.112" transform="translate(71.052 44.333)" fill="#58b7d6"/>
          <path id="Trazado_891351" data-name="Trazado 891351" d="M164.859,112.466a6.628,6.628,0,0,1-4.993-7.533,6.545,6.545,0,0,1,7.481-5.162,6.41,6.41,0,0,1,5.253,7.583A6.345,6.345,0,0,1,164.859,112.466Z" transform="translate(71.052 44.333)" fill="none" stroke="#0c9ec6" stroke-miterlimit="10" stroke-width="1"/>
          <path id="Trazado_891352" data-name="Trazado 891352" d="M160.958,121.6a7.255,7.255,0,0,1-3.259-3.7,6.108,6.108,0,0,1-.1-4.515,6.2,6.2,0,0,1,3.125-3.3,7.052,7.052,0,0,1,4.906-.522,5.994,5.994,0,0,1,3.881,3.128,6.658,6.658,0,0,1,.179,5.361,6.728,6.728,0,0,1-3.753,3.872,5.871,5.871,0,0,1-4.976-.324" transform="translate(69.919 48.628)" fill="#58b7d6"/>
          <path id="Trazado_891353" data-name="Trazado 891353" d="M160.958,121.6a7.255,7.255,0,0,1-3.259-3.7,6.108,6.108,0,0,1-.1-4.515,6.2,6.2,0,0,1,3.125-3.3,7.052,7.052,0,0,1,4.906-.522,5.994,5.994,0,0,1,3.881,3.128,6.658,6.658,0,0,1,.179,5.361,6.728,6.728,0,0,1-3.753,3.872A5.871,5.871,0,0,1,160.958,121.6Z" transform="translate(69.919 48.628)" fill="none" stroke="#0c9ec6" stroke-miterlimit="10" stroke-width="1"/>
          <path id="Trazado_891354" data-name="Trazado 891354" d="M154.206,128.946a7.948,7.948,0,0,1-1.738-4.593,7.487,7.487,0,0,1,.228-2.2,5.72,5.72,0,0,1,.978-1.9,6.19,6.19,0,0,1,3.833-2.1,7.419,7.419,0,0,1,4.85.838,5.778,5.778,0,0,1,2.887,4.079,6.673,6.673,0,0,1-1.49,5.333,6.85,6.85,0,0,1-2.323,1.9,6.036,6.036,0,0,1-2.664.717,5.528,5.528,0,0,1-4.561-2.066" transform="translate(67.806 52.502)" fill="#58b7d6"/>
          <path id="Trazado_891355" data-name="Trazado 891355" d="M154.206,128.946a7.948,7.948,0,0,1-1.738-4.593,7.487,7.487,0,0,1,.228-2.2,5.72,5.72,0,0,1,.978-1.9,6.19,6.19,0,0,1,3.833-2.1,7.419,7.419,0,0,1,4.85.838,5.778,5.778,0,0,1,2.887,4.079,6.673,6.673,0,0,1-1.49,5.333,6.85,6.85,0,0,1-2.323,1.9,6.036,6.036,0,0,1-2.664.717A5.528,5.528,0,0,1,154.206,128.946Z" transform="translate(67.806 52.502)" fill="none" stroke="#0c9ec6" stroke-miterlimit="10" stroke-width="1"/>
          <path id="Trazado_891356" data-name="Trazado 891356" d="M144.742,132.126a8.249,8.249,0,0,1,.9-4.811,5.763,5.763,0,0,1,2.8-2.882,5.936,5.936,0,0,1,4.047-.019,8.181,8.181,0,0,1,4.058,2.757,5.436,5.436,0,0,1,.949,4.921,6.849,6.849,0,0,1-4.011,4.282,6.974,6.974,0,0,1-5.9-.1,5.433,5.433,0,0,1-2.833-4.148" transform="translate(64.344 55.179)" fill="#58b7d6"/>
          <path id="Trazado_891357" data-name="Trazado 891357" d="M144.742,132.126a8.249,8.249,0,0,1,.9-4.811,5.763,5.763,0,0,1,2.8-2.882,5.936,5.936,0,0,1,4.047-.019,8.181,8.181,0,0,1,4.058,2.757,5.436,5.436,0,0,1,.949,4.921,6.849,6.849,0,0,1-4.011,4.282,6.974,6.974,0,0,1-5.9-.1A5.433,5.433,0,0,1,144.742,132.126Z" transform="translate(64.344 55.179)" fill="none" stroke="#0c9ec6" stroke-miterlimit="10" stroke-width="1"/>
          <path id="Trazado_891358" data-name="Trazado 891358" d="M134.982,130.2a7.389,7.389,0,0,1,2.979-3.917,6.146,6.146,0,0,1,4.19-1.1,5.861,5.861,0,0,1,3.635,2.127,8.114,8.114,0,0,1,1.958,4.489,5.474,5.474,0,0,1-1.829,4.675,6.884,6.884,0,0,1-5.486,1.556,6.71,6.71,0,0,1-4.779-2.878,5.794,5.794,0,0,1-.667-4.953" transform="translate(59.909 55.656)" fill="#58b7d6"/>
          <path id="Trazado_891359" data-name="Trazado 891359" d="M134.982,130.2a7.389,7.389,0,0,1,2.979-3.917,6.146,6.146,0,0,1,4.19-1.1,5.861,5.861,0,0,1,3.635,2.127,8.114,8.114,0,0,1,1.958,4.489,5.474,5.474,0,0,1-1.829,4.675,6.884,6.884,0,0,1-5.486,1.556,6.71,6.71,0,0,1-4.779-2.878A5.794,5.794,0,0,1,134.982,130.2Z" transform="translate(59.909 55.656)" fill="none" stroke="#0c9ec6" stroke-miterlimit="10" stroke-width="1"/>
          <path id="Trazado_891360" data-name="Trazado 891360" d="M126.127,125.556a6.728,6.728,0,0,1,8.5-2.791,6.113,6.113,0,0,1,3.047,3.376,7.249,7.249,0,0,1,.139,4.925,5.87,5.87,0,0,1-3.424,3.632,6.731,6.731,0,0,1-5.356-.24,6.283,6.283,0,0,1-2.9-8.9" transform="translate(55.709 54.339)" fill="#58b7d6"/>
          <path id="Trazado_891361" data-name="Trazado 891361" d="M126.127,125.556a6.728,6.728,0,0,1,8.5-2.791,6.113,6.113,0,0,1,3.047,3.376,7.249,7.249,0,0,1,.139,4.925,5.87,5.87,0,0,1-3.424,3.632,6.731,6.731,0,0,1-5.356-.24A6.283,6.283,0,0,1,126.127,125.556Z" transform="translate(55.709 54.339)" fill="none" stroke="#0c9ec6" stroke-miterlimit="10" stroke-width="1"/>
          <path id="Trazado_891362" data-name="Trazado 891362" d="M117.974,119.814a6.47,6.47,0,0,1,10.711,7.254,6.47,6.47,0,1,1-10.711-7.254" transform="translate(51.914 52.087)" fill="#58b7d6"/>
          <path id="Trazado_891363" data-name="Trazado 891363" d="M117.974,119.814a6.47,6.47,0,0,1,10.711,7.254,6.47,6.47,0,1,1-10.711-7.254Z" transform="translate(51.914 52.087)" fill="none" stroke="#0c9ec6" stroke-miterlimit="10" stroke-width="1"/>
          <path id="Trazado_891364" data-name="Trazado 891364" d="M110.114,113.7a6.47,6.47,0,1,1,1.141,9.095,6.48,6.48,0,0,1-1.141-9.095" transform="translate(48.364 49.451)" fill="#58b7d6"/>
          <path id="Trazado_891365" data-name="Trazado 891365" d="M110.114,113.7a6.47,6.47,0,1,1,1.141,9.095A6.48,6.48,0,0,1,110.114,113.7Z" transform="translate(48.364 49.451)" fill="none" stroke="#0c9ec6" stroke-miterlimit="10" stroke-width="1"/>
          <path id="Trazado_891366" data-name="Trazado 891366" d="M102.049,107.85a6.47,6.47,0,1,1,10.419,7.672,6.47,6.47,0,0,1-10.419-7.672" transform="translate(44.868 46.742)" fill="#58b7d6"/>
          <path id="Trazado_891367" data-name="Trazado 891367" d="M102.049,107.85a6.47,6.47,0,1,1,10.419,7.672,6.47,6.47,0,0,1-10.419-7.672Z" transform="translate(44.868 46.742)" fill="none" stroke="#0c9ec6" stroke-miterlimit="10" stroke-width="1"/>
          <path id="Trazado_891368" data-name="Trazado 891368" d="M93.368,102.958a6.469,6.469,0,1,1,11.146,6.556,6.469,6.469,0,0,1-11.146-6.556" transform="translate(41.21 44.267)" fill="#58b7d6"/>
          <path id="Trazado_891369" data-name="Trazado 891369" d="M93.368,102.958a6.469,6.469,0,1,1,11.146,6.556,6.469,6.469,0,0,1-11.146-6.556Z" transform="translate(41.21 44.267)" fill="none" stroke="#0c9ec6" stroke-miterlimit="10" stroke-width="1"/>
          <path id="Trazado_891370" data-name="Trazado 891370" d="M83.912,99.83a5.889,5.889,0,0,1,3.076-3.922,6.631,6.631,0,0,1,5.337-.26,6.255,6.255,0,0,1,3.729,8.593,6.769,6.769,0,0,1-8.195,3.574,6.221,6.221,0,0,1-3.362-3.087,7.2,7.2,0,0,1-.585-4.9" transform="translate(37.233 42.344)" fill="#58b7d6"/>
          <path id="Trazado_891371" data-name="Trazado 891371" d="M83.912,99.83a5.889,5.889,0,0,1,3.076-3.922,6.631,6.631,0,0,1,5.337-.26,6.255,6.255,0,0,1,3.729,8.593,6.769,6.769,0,0,1-8.195,3.574,6.221,6.221,0,0,1-3.362-3.087A7.2,7.2,0,0,1,83.912,99.83Z" transform="translate(37.233 42.344)" fill="none" stroke="#0c9ec6" stroke-miterlimit="10" stroke-width="1"/>
          <path id="Trazado_891372" data-name="Trazado 891372" d="M73.986,99.505a5.776,5.776,0,0,1,1.754-4.667,7.059,7.059,0,0,1,8.01-.969,5.958,5.958,0,0,1,3.095,6.6,7.3,7.3,0,0,1-2.67,4.146,7.849,7.849,0,0,1-2.017,1.089,5.945,5.945,0,0,1-2.193.283A6.162,6.162,0,0,1,76.017,104a7.411,7.411,0,0,1-2.031-4.495" transform="translate(32.896 41.378)" fill="#58b7d6"/>
          <path id="Trazado_891373" data-name="Trazado 891373" d="M73.986,99.505a5.776,5.776,0,0,1,1.754-4.667,7.059,7.059,0,0,1,8.01-.969,5.958,5.958,0,0,1,3.095,6.6,7.3,7.3,0,0,1-2.67,4.146,7.849,7.849,0,0,1-2.017,1.089,5.945,5.945,0,0,1-2.193.283A6.162,6.162,0,0,1,76.017,104,7.411,7.411,0,0,1,73.986,99.505Z" transform="translate(32.896 41.378)" fill="none" stroke="#0c9ec6" stroke-miterlimit="10" stroke-width="1"/>
          <path id="Trazado_891374" data-name="Trazado 891374" d="M64.566,102.66a5.722,5.722,0,0,1,0-5.015,6.9,6.9,0,0,1,4.365-3.46,6.739,6.739,0,0,1,5.477.785,5.74,5.74,0,0,1,2.575,4.285,7.482,7.482,0,0,1-1.182,4.775,6.086,6.086,0,0,1-3.472,2.664,5.9,5.9,0,0,1-4.308-.559,7.555,7.555,0,0,1-3.459-3.475" transform="translate(28.459 41.775)" fill="#58b7d6"/>
          <path id="Trazado_891375" data-name="Trazado 891375" d="M64.566,102.66a5.722,5.722,0,0,1,0-5.015,6.9,6.9,0,0,1,4.365-3.46,6.739,6.739,0,0,1,5.477.785,5.74,5.74,0,0,1,2.575,4.285,7.482,7.482,0,0,1-1.182,4.775,6.086,6.086,0,0,1-3.472,2.664,5.9,5.9,0,0,1-4.308-.559A7.555,7.555,0,0,1,64.566,102.66Z" transform="translate(28.459 41.775)" fill="none" stroke="#0c9ec6" stroke-miterlimit="10" stroke-width="1"/>
          <path id="Trazado_891376" data-name="Trazado 891376" d="M57.347,109.56a5.55,5.55,0,0,1-2.244-4.506,7.027,7.027,0,0,1,.679-2.725,8.122,8.122,0,0,1,1.935-2.423,8.347,8.347,0,0,1,2.729-1.423,6.937,6.937,0,0,1,2.775-.12,5.635,5.635,0,0,1,4.011,3.014,7.728,7.728,0,0,1,.7,4.85,6.11,6.11,0,0,1-.7,2.085,4.344,4.344,0,0,1-1.29,1.612,4.412,4.412,0,0,1-1.809.943,6.11,6.11,0,0,1-2.16.253,7.988,7.988,0,0,1-4.628-1.56" transform="translate(24.507 43.707)" fill="#58b7d6"/>
          <path id="Trazado_891377" data-name="Trazado 891377" d="M57.347,109.56a5.55,5.55,0,0,1-2.244-4.506,7.027,7.027,0,0,1,.679-2.725,8.122,8.122,0,0,1,1.935-2.423,8.347,8.347,0,0,1,2.729-1.423,6.937,6.937,0,0,1,2.775-.12,5.635,5.635,0,0,1,4.011,3.014,7.728,7.728,0,0,1,.7,4.85,6.11,6.11,0,0,1-.7,2.085,4.344,4.344,0,0,1-1.29,1.612,4.412,4.412,0,0,1-1.809.943,6.11,6.11,0,0,1-2.16.253A7.988,7.988,0,0,1,57.347,109.56Z" transform="translate(24.507 43.707)" fill="none" stroke="#0c9ec6" stroke-miterlimit="10" stroke-width="1"/>
        </g>
      </g>
      <g id="Grupo_1101534" data-name="Grupo 1101534">
        <line id="L칤nea_1353" data-name="L칤nea 1353" x2="43" y2="41" transform="translate(1070.551 6848.5)" fill="none" stroke="#7c1815" stroke-width="1"/>
        <line id="L칤nea_1354" data-name="L칤nea 1354" x2="54.449" y2="31.547" transform="translate(1070.551 6848.5)" fill="none" stroke="#7c1815" stroke-width="1"/>
        <line id="L칤nea_1355" data-name="L칤nea 1355" x1="42" y1="57" transform="translate(1070.551 6848.5)" fill="none" stroke="#7c1815" stroke-width="1"/>
      </g>
    </g>
  </g>
</svg>
