<svg xmlns="http://www.w3.org/2000/svg" xmlns:xlink="http://www.w3.org/1999/xlink" width="93" height="93" viewBox="0 0 93 93">
  <defs>
    <clipPath id="clip-path">
      <rect id="Rectángulo_401700" data-name="Rectángulo 401700" width="93" height="93" transform="translate(-3958 -7195)" fill="#fff" stroke="#707070" stroke-width="1"/>
    </clipPath>
    <clipPath id="clip-path-2">
      <path id="path3228" d="M0-93H93V0H0Z"/>
    </clipPath>
  </defs>
  <g id="Enmascarar_grupo_1099803" data-name="Enmascarar grupo 1099803" transform="translate(3958 7195)" clip-path="url(#clip-path)">
    <g id="g3222" transform="translate(-3958 -7102)">
      <g id="g3224">
        <g id="g3226" clip-path="url(#clip-path-2)">
          <g id="g3232" transform="translate(63.014 -80.628)">
            <path id="path3234" d="M0,0H-33.028L-31.7-7.943a3.67,3.67,0,0,1,3.62-3.066h23.14a3.67,3.67,0,0,1,3.62,3.066Z" fill="silver"/>
          </g>
          <g id="g3236" transform="translate(61.69 -88.571)">
            <path id="path3238" d="M0,0A3.67,3.67,0,0,0-3.62-3.066h-5.5A3.67,3.67,0,0,1-5.5,0l1.324,7.943h5.5Z" fill="#acacac"/>
          </g>
          <g id="g3240" transform="translate(29.252 -80.628)">
            <path id="path3242" d="M0,0H34.5a2.936,2.936,0,1,1,0,5.872H0A2.936,2.936,0,0,1-2.936,2.936,2.936,2.936,0,0,1,0,0" fill="#e2e2e2"/>
          </g>
          <g id="g3244" transform="translate(63.748 -80.628)">
            <path id="path3246" d="M0,0H-5.993A2.936,2.936,0,0,1-3.057,2.936,2.936,2.936,0,0,1-5.993,5.872H0A2.936,2.936,0,0,0,2.936,2.936,2.936,2.936,0,0,0,0,0" fill="#cecece"/>
          </g>
          <path id="path3248" d="M29.986-74.757H63.014v5.872H29.986Z" fill="#838383"/>
          <g id="g3250" transform="translate(29 -68.885)">
            <path id="path3252" d="M0,0H35a4.771,4.771,0,0,1,4.764,4.512l3,55.274a7.339,7.339,0,0,1-7.329,7.738H-.439a7.34,7.34,0,0,1-7.329-7.738l3-55.274A4.771,4.771,0,0,1,0,0" fill="#d3effd"/>
          </g>
          <g id="g3254" transform="translate(71.768 -9.1)">
            <path id="path3256" d="M0,0-3-55.274a4.771,4.771,0,0,0-4.764-4.512h-5.872a4.771,4.771,0,0,1,4.764,4.512L-5.872,0A7.339,7.339,0,0,1-13.2,7.738h5.872A7.339,7.339,0,0,0,0,0" fill="#b2e5fb"/>
          </g>
          <g id="g3258" transform="translate(64.449 -35.572)">
            <path id="path3260" d="M0,0-1.4-25.707a1.835,1.835,0,0,0-1.832-1.735H-32.668A1.835,1.835,0,0,0-34.5-25.707L-35.9,0Z" fill="#6cbff8"/>
          </g>
          <g id="g3262" transform="translate(28.561 -7.234)">
            <path id="path3264" d="M0,0A1.437,1.437,0,0,1-1.066-.458a1.437,1.437,0,0,1-.4-1.089L-.01-28.338A11.554,11.554,0,0,1,11.529-39.265H24.351A11.555,11.555,0,0,1,35.887-28.337L37.343-1.548a1.437,1.437,0,0,1-.4,1.089A1.437,1.437,0,0,1,35.878,0Z" fill="#f5fcff"/>
          </g>
          <g id="g3266" transform="translate(64.449 -35.571)">
            <path id="path3268" d="M0,0A11.554,11.554,0,0,0-11.537-10.927h-5.872A11.554,11.554,0,0,1-5.872,0l1.456,26.789a1.436,1.436,0,0,1-.4,1.089,1.436,1.436,0,0,1-1.066.458H-.01a1.436,1.436,0,0,0,1.066-.458,1.437,1.437,0,0,0,.4-1.089Z" fill="#e6f7fe"/>
          </g>
          <g id="g3270" transform="translate(63.014 -74.757)">
            <path id="path3272" d="M0,0V5.872" fill="none" stroke="#000" stroke-linecap="round" stroke-linejoin="round" stroke-miterlimit="10" stroke-width="2.725"/>
          </g>
          <g id="g3274" transform="translate(29.986 -68.885)">
            <path id="path3276" d="M0,0V-5.872" fill="none" stroke="#000" stroke-linecap="round" stroke-linejoin="round" stroke-miterlimit="10" stroke-width="2.725"/>
          </g>
          <g id="g3278" transform="translate(28.552 -35.572)">
            <path id="path3280" d="M0,0,1.4-25.706A1.834,1.834,0,0,1,3.228-27.44H6.521" fill="none" stroke="#000" stroke-linecap="round" stroke-linejoin="round" stroke-miterlimit="10" stroke-width="2.725"/>
          </g>
          <g id="g3282" transform="translate(41.43 -63.013)">
            <path id="path3284" d="M0,0H19.79a1.833,1.833,0,0,1,1.831,1.735l1.4,25.706" fill="none" stroke="#000" stroke-linecap="round" stroke-linejoin="round" stroke-miterlimit="10" stroke-width="2.725"/>
          </g>
          <g id="g3286" transform="translate(57.478 -7.235)">
            <path id="path3288" d="M0,0H6.96A1.439,1.439,0,0,0,8.027-.458a1.434,1.434,0,0,0,.4-1.088L6.969-28.336A11.553,11.553,0,0,0-4.567-39.263l-12.822,0A11.554,11.554,0,0,0-28.926-28.338L-30.383-1.546a1.434,1.434,0,0,0,.4,1.088A1.44,1.44,0,0,0-28.917,0h22.56" fill="none" stroke="#000" stroke-linecap="round" stroke-linejoin="round" stroke-miterlimit="10" stroke-width="2.725"/>
          </g>
          <g id="g3290" transform="translate(29 -68.885)">
            <path id="path3292" d="M0,0H35a4.771,4.771,0,0,1,4.764,4.512l3,55.274a7.339,7.339,0,0,1-7.329,7.738H-.439a7.34,7.34,0,0,1-7.329-7.738l3-55.274A4.771,4.771,0,0,1,0,0Z" fill="none" stroke="#000" stroke-linecap="round" stroke-linejoin="round" stroke-miterlimit="10" stroke-width="2.725"/>
          </g>
          <g id="g3294" transform="translate(54.318 -80.628)">
            <path id="path3296" d="M0,0H9.431a2.935,2.935,0,0,1,0,5.871h-34.5A2.935,2.935,0,0,1-28,2.935,2.927,2.927,0,0,1-27.141.859,2.925,2.925,0,0,1-25.066,0H-6.357" fill="none" stroke="#000" stroke-linecap="round" stroke-linejoin="round" stroke-miterlimit="10" stroke-width="2.725"/>
          </g>
          <g id="g3298" transform="translate(29.986 -80.628)">
            <path id="path3300" d="M0,0,1.324-7.943a3.67,3.67,0,0,1,3.62-3.066h23.14A3.67,3.67,0,0,1,31.7-7.943L33.028,0" fill="none" stroke="#000" stroke-linecap="round" stroke-linejoin="round" stroke-miterlimit="10" stroke-width="2.725"/>
          </g>
          <g id="g3302" transform="translate(46.5 -91.638)">
            <path id="path3304" d="M0,0V3.3" fill="none" stroke="#000" stroke-linecap="round" stroke-linejoin="round" stroke-miterlimit="10" stroke-width="2.725"/>
          </g>
          <g id="g3306" transform="translate(53.629 -91.638)">
            <path id="path3308" d="M0,0V3.3" fill="none" stroke="#000" stroke-linecap="round" stroke-linejoin="round" stroke-miterlimit="10" stroke-width="2.725"/>
          </g>
          <g id="g3310" transform="translate(39.371 -91.638)">
            <path id="path3312" d="M0,0V3.3" fill="none" stroke="#000" stroke-linecap="round" stroke-linejoin="round" stroke-miterlimit="10" stroke-width="2.725"/>
          </g>
          <g id="g3314" transform="translate(55.134 -36.959)">
            <path id="path3316" d="M0,0A1.284,1.284,0,0,1-1.284,1.284,1.284,1.284,0,0,1-2.569,0,1.284,1.284,0,0,1-1.284-1.284,1.284,1.284,0,0,1,0,0"/>
          </g>
          <g id="g3318" transform="translate(47.784 -35.124)">
            <path id="path3320" d="M0,0A1.284,1.284,0,0,1-1.284,1.284,1.284,1.284,0,0,1-2.569,0,1.284,1.284,0,0,1-1.284-1.284,1.284,1.284,0,0,1,0,0"/>
          </g>
          <g id="g3322" transform="translate(55.134 -29.462)">
            <path id="path3324" d="M0,0A1.284,1.284,0,0,1-1.284,1.284,1.284,1.284,0,0,1-2.569,0,1.284,1.284,0,0,1-1.284-1.284,1.284,1.284,0,0,1,0,0"/>
          </g>
        </g>
      </g>
    </g>
  </g>
</svg>
