<svg xmlns="http://www.w3.org/2000/svg" xmlns:xlink="http://www.w3.org/1999/xlink" width="92.344" height="92.344" viewBox="0 0 92.344 92.344">
  <defs>
    <clipPath id="clip-path">
      <rect id="Rectángulo_401722" data-name="Rectángulo 401722" width="59" height="59" transform="translate(17 16.803)" fill="#fff" stroke="#fff" stroke-width="1"/>
    </clipPath>
  </defs>
  <g id="Grupo_1101684" data-name="Grupo 1101684" transform="translate(0 0.197)">
    <g id="Grupo_1101517" data-name="Grupo 1101517" transform="translate(0 -0.197)">
      <path id="Trazado_883915" data-name="Trazado 883915" d="M92.344,46.173A46.172,46.172,0,1,1,46.172,0,46.172,46.172,0,0,1,92.344,46.173" transform="translate(0 -0.001)" fill="#464442"/>
    </g>
    <g id="Enmascarar_grupo_1099805" data-name="Enmascarar grupo 1099805" clip-path="url(#clip-path)">
      <g id="aditivo" transform="translate(16.048 15.852)">
        <path id="Trazado_893155" data-name="Trazado 893155" d="M24.742,54.242a2.855,2.855,0,1,0-2.855-2.855A2.855,2.855,0,0,0,24.742,54.242Zm0-3.806a.952.952,0,1,1-.952.952A.952.952,0,0,1,24.742,50.435Z" fill="#fff"/>
        <path id="Trazado_893156" data-name="Trazado 893156" d="M38.065,56.145A2.855,2.855,0,1,0,35.21,53.29a2.855,2.855,0,0,0,2.855,2.855Zm0-3.806a.952.952,0,1,1-.952.952A.952.952,0,0,1,38.065,52.339Z" fill="#fff"/>
        <path id="Trazado_893157" data-name="Trazado 893157" d="M11.419,56.145A2.855,2.855,0,1,0,8.565,53.29a2.855,2.855,0,0,0,2.855,2.855Zm0-3.806a.952.952,0,1,1-.952.952A.952.952,0,0,1,11.419,52.339Z" fill="#fff"/>
        <path id="Trazado_893158" data-name="Trazado 893158" d="M30.452,46.629A2.855,2.855,0,1,0,27.6,43.774,2.855,2.855,0,0,0,30.452,46.629Zm0-3.806a.952.952,0,1,1-.952.952A.952.952,0,0,1,30.452,42.823Z" fill="#fff"/>
        <path id="Trazado_893159" data-name="Trazado 893159" d="M19.032,46.629a2.855,2.855,0,1,0-2.855-2.855A2.855,2.855,0,0,0,19.032,46.629Zm0-3.806a.952.952,0,1,1-.952.952A.952.952,0,0,1,19.032,42.823Z" fill="#fff"/>
        <path id="Trazado_893160" data-name="Trazado 893160" d="M49.484.952A10.468,10.468,0,1,0,59.952,11.419,10.468,10.468,0,0,0,49.484.952Zm0,19.032a8.565,8.565,0,1,1,8.565-8.565,8.565,8.565,0,0,1-8.565,8.565Z" fill="#fff"/>
        <path id="Trazado_893161" data-name="Trazado 893161" d="M50.435,5.71h-1.9v4.758H43.774v1.9h4.758v4.758h1.9V12.371h4.758v-1.9H50.435Z" fill="#fff"/>
        <path id="Trazado_893162" data-name="Trazado 893162" d="M5.351,59.952H44.133a4.4,4.4,0,0,0,3.323-7.282L33.848,33.746a2.836,2.836,0,0,1-.541-1.666v-12.1h2.855a.952.952,0,0,0,.952-.952V11.419a.952.952,0,0,0-.952-.952H13.323a.952.952,0,0,0-.952.952v7.613a.952.952,0,0,0,.952.952h2.855v12.1a2.83,2.83,0,0,1-.538,1.666L2.028,52.67a4.4,4.4,0,0,0,3.323,7.282Zm8.923-41.871v-5.71H35.21v5.71H27.787c-.01-.016-.019-.032-.03-.049L25.535,14.7a.989.989,0,0,0-1.583,0l-2.223,3.331c-.01.016-.019.032-.03.049ZM21.887,27.6A4.758,4.758,0,0,0,29.5,23.79a10.351,10.351,0,0,0-.725-3.807H31.4v12.1a4.729,4.729,0,0,0,.9,2.778l.006.009-.694.694a2.119,2.119,0,0,1-3.163-.314,4.348,4.348,0,0,0-3.625-1.939h-.162a4.348,4.348,0,0,0-3.625,1.939,2.119,2.119,0,0,1-3.163.314l-.694-.694.006-.008a4.734,4.734,0,0,0,.9-2.779v-12.1h2.628a10.35,10.35,0,0,0-.725,3.806,4.782,4.782,0,0,0,1.9,3.806Zm1.142-1.523a2.869,2.869,0,0,1-1.142-2.284,8.454,8.454,0,0,1,1.428-4.7l1.427-2.149,1.427,2.147a8.453,8.453,0,0,1,1.427,4.7,2.855,2.855,0,0,1-4.568,2.284ZM3.486,53.895c.021-.025.042-.049.061-.076L16.054,36.432l.476.476a3.958,3.958,0,0,0,6.09-.6,2.449,2.449,0,0,1,2.041-1.093h.162A2.449,2.449,0,0,1,26.864,36.3a3.958,3.958,0,0,0,6.09.6l.476-.476L45.937,53.818c.019.027.04.051.061.076a2.5,2.5,0,0,1-1.865,4.154H5.351a2.5,2.5,0,0,1-1.865-4.154Z" fill="#fff"/>
      </g>
    </g>
  </g>
</svg>
