<svg xmlns="http://www.w3.org/2000/svg" xmlns:xlink="http://www.w3.org/1999/xlink" width="92.344" height="92.344" viewBox="0 0 92.344 92.344">
  <defs>
    <clipPath id="clip-path">
      <rect id="Rectángulo_401722" data-name="Rectángulo 401722" width="59" height="59" transform="translate(17 16.803)" fill="#fff" stroke="#707070" stroke-width="1"/>
    </clipPath>
  </defs>
  <g id="Grupo_1101685" data-name="Grupo 1101685" transform="translate(0 0.197)">
    <g id="Grupo_1101517" data-name="Grupo 1101517" transform="translate(0 -0.197)">
      <path id="Trazado_883915" data-name="Trazado 883915" d="M92.344,46.173A46.172,46.172,0,1,1,46.172,0,46.172,46.172,0,0,1,92.344,46.173" transform="translate(0 -0.001)" fill="#464442"/>
    </g>
    <g id="Enmascarar_grupo_1099806" data-name="Enmascarar grupo 1099806" clip-path="url(#clip-path)">
      <path id="aditivo_1_" data-name="aditivo (1)" d="M30.939,34.284l.01.01a1.63,1.63,0,0,0,.769.426l7.908,1.93a1.685,1.685,0,0,0,.4.048,1.658,1.658,0,0,0,1.6-2.05l-1.929-7.9a1.632,1.632,0,0,0-.426-.773l-.01-.01L21.742,8.445,23.191,7a1.553,1.553,0,0,0,0-2.194l-3.08-3.08a1.555,1.555,0,0,0-2.2,0L16.465,3.17,15,1.7a5.775,5.775,0,0,0-8.321.158,5.785,5.785,0,0,0,0,8.166L8.146,11.49,6.7,12.938a1.555,1.555,0,0,0,0,2.2l3.08,3.08a1.552,1.552,0,0,0,2.194,0l1.448-1.448Zm8.825.5L32.2,32.943l-9.509-9.509H34.125l3.793,3.793Zm-7.481-13.2H20.851l-6.128-6.128,5.716-5.716ZM7.978,8.719a3.939,3.939,0,0,1,0-5.561A4,4,0,0,1,13.694,3l1.469,1.471L9.448,10.187Zm2.9,7.988L8.2,14.036l8.91-8.91a0,0,0,0,0,0,0,0,0,0,0,1,0,0l1.9-1.9L21.683,5.9ZM41.852,39.674s0,0,0,0a1.656,1.656,0,0,0-2.626,0L34.841,45.4a7.988,7.988,0,1,0,11.394,0Zm3.036,15.688a6.154,6.154,0,0,1-8.7-8.7.848.848,0,0,0,.08-.091l4.271-5.578,4.271,5.578a1,1,0,0,0,.08.091,6.173,6.173,0,0,1,0,8.7Zm-.952-4.631a.92.92,0,0,1-.921.921H41.457V53.21a.921.921,0,1,1-1.841,0V51.652H38.061a.921.921,0,0,1,0-1.841h1.554V48.253a.921.921,0,0,1,1.841,0v1.558h1.558A.921.921,0,0,1,43.937,50.731ZM31.388,44.47v1.558a.921.921,0,0,1-1.841,0V44.47H27.992a.921.921,0,1,1,0-1.841h1.554V41.074a.921.921,0,0,1,1.841,0v1.554h1.558a.921.921,0,1,1,0,1.841Zm22.618-.921a.92.92,0,0,1-.921.921H51.531v1.558a.921.921,0,0,1-1.841,0V44.47H48.132a.921.921,0,0,1,0-1.841H49.69V41.074a.921.921,0,0,1,1.841,0v1.554h1.554A.92.92,0,0,1,54.006,43.549Z" transform="translate(17.003 16.806)" fill="#fff"/>
    </g>
  </g>
</svg>
